<?xml version="1.0" encoding="UTF-8"?>
<svg width="201px" height="200px" viewBox="0 0 201 200" version="1.1" xmlns="http://www.w3.org/2000/svg" xmlns:xlink="http://www.w3.org/1999/xlink">
    <!-- Generator: Sketch 64 (93537) - https://sketch.com -->
    <title>自选图标1备份 24</title>
    <desc>Created with Sketch.</desc>
    <defs>
        <linearGradient x1="50%" y1="100%" x2="50%" y2="0%" id="linearGradient-1">
            <stop stop-color="#107AFF" offset="0%"></stop>
            <stop stop-color="#27A6FF" offset="100%"></stop>
        </linearGradient>
    </defs>
    <g id="自选图标1备份-24" stroke="none" stroke-width="1" fill="none" fill-rule="evenodd" transform="translate(1.000000, 0.000000)">
        <path d="M181,148 C188.731986,148 195,154.268014 195,162 L195,182 C195,189.731986 188.731986,196 181,196 L19,196 C11.2680135,196 5,189.731986 5,182 L5,162 C5,154.268014 11.2680135,148 19,148 L181,148 Z M40,161 C33.9248678,161 29,165.924868 29,172 C29,178.075132 33.9248678,183 40,183 C46.0751322,183 51,178.075132 51,172 C51,165.924868 46.0751322,161 40,161 Z M181,76 C188.731986,76 195,82.2680135 195,90 L195,110 C195,117.731986 188.731986,124 181,124 L19,124 C11.2680135,124 5,117.731986 5,110 L5,90 C5,82.2680135 11.2680135,76 19,76 L181,76 Z M40,89 C33.9248678,89 29,93.9248678 29,100 C29,106.075132 33.9248678,111 40,111 C46.0751322,111 51,106.075132 51,100 C51,93.9248678 46.0751322,89 40,89 Z M181,4 C188.731986,4 195,10.2680135 195,18 L195,38 C195,45.7319865 188.731986,52 181,52 L19,52 C11.2680135,52 5,45.7319865 5,38 L5,18 C5,10.2680135 11.2680135,4 19,4 L181,4 Z M40,17 C33.9248678,17 29,21.9248678 29,28 C29,34.0751322 33.9248678,39 40,39 C46.0751322,39 51,34.0751322 51,28 C51,21.9248678 46.0751322,17 40,17 Z" id="形状结合" fill="url(#linearGradient-1)"></path>
    </g>
</svg>