<?xml version="1.0" encoding="UTF-8"?>
<svg width="200px" height="200px" viewBox="0 0 200 200" version="1.1" xmlns="http://www.w3.org/2000/svg" xmlns:xlink="http://www.w3.org/1999/xlink">
    <!-- Generator: Sketch 64 (93537) - https://sketch.com -->
    <title>授权给我的接口备份 4</title>
    <desc>Created with Sketch.</desc>
    <defs>
        <linearGradient x1="50%" y1="100%" x2="50%" y2="0%" id="linearGradient-1">
            <stop stop-color="#107AFF" offset="0%"></stop>
            <stop stop-color="#27A6FF" offset="100%"></stop>
        </linearGradient>
    </defs>
    <g id="授权给我的接口备份-4" stroke="none" stroke-width="1" fill="none" fill-rule="evenodd">
        <path d="M180.4188,19.6045772 C180.4188,12.6387803 171.698341,5.57663759 162.66025,6.01982799 L37.3204997,6.01982799 C27.0215032,6.01982799 19.1673152,12.2244936 19.5812001,19.6045772 L21.6409994,87.0562293 L20.0455994,87.0562293 C12.3136129,87.0562293 6.04559945,93.3242428 6.04559945,101.056229 C6.04559945,101.071404 6.04562412,101.08658 6.04567347,101.101755 L6.14899642,132.875676 C6.16415914,137.538523 8.49981845,141.887786 12.3785465,144.475805 L46.3874667,167.167712 L46.3874667,167.167712 L46.3874667,180 C46.3874667,187.731986 52.6554802,194 60.3874667,194 L140.5,194 C148.231986,194 154.5,187.731986 154.5,180 L154.5,167 L154.5,167 L186.049366,144.403833 C189.495721,141.935497 191.638081,138.038553 191.875512,133.806099 L194,95.9347826 L194,95.9347826 C194,91.020651 190.016309,87.0369602 185.102178,87.0369602 L180.428425,87.0369602 L180.428425,87.0369602 L180.4188,19.6045772 Z M140.141291,86.5618495 L140.141291,54.5351885 C140.141291,50.1228044 136.568763,46.5435285 132.156387,46.5352028 L121.480524,46.5150585 C117.069862,46.506736 113.484569,50.0698346 113.465504,54.4804638 L113.326788,86.5714286 L113.326788,86.5714286 L86.5026558,86.5714286 L86.5026558,54.5502695 C86.5026558,50.1319915 82.9209338,46.5502695 78.5026558,46.5502695 L67.6881521,46.5502695 C63.2698741,46.5502695 59.6881521,50.1319915 59.6881521,54.5502695 L59.6881521,86.5714286 L59.6881521,86.5714286 L46.2857143,86.5714286 L46.2857143,33.2162691 L154.747253,29.7582418 L154.747253,86.5714286 L140.141291,86.5618495 Z" id="形状" fill="url(#linearGradient-1)"></path>
    </g>
</svg>