<?xml version="1.0" standalone="no"?><!DOCTYPE svg PUBLIC "-//W3C//DTD SVG 1.1//EN" "http://www.w3.org/Graphics/SVG/1.1/DTD/svg11.dtd"><svg t="1686551037741" class="icon" viewBox="0 0 1024 1024" version="1.1" xmlns="http://www.w3.org/2000/svg" p-id="8277" xmlns:xlink="http://www.w3.org/1999/xlink" width="200" height="200"><path d="M192 256h640a32.1024 32.1024 0 0 0 32-32 32.1024 32.1024 0 0 0-32-32H192a32.1024 32.1024 0 0 0-32 32c0 17.6128 14.3872 32 32 32zM256 128h512a32.1024 32.1024 0 0 0 32-32A32.1024 32.1024 0 0 0 768 64H256a32.1024 32.1024 0 0 0-32 32c0 17.6128 14.3872 32 32 32zM800 320c70.4 0 128 57.6 128 128v384c0 70.4-57.6 128-128 128H224a128.3584 128.3584 0 0 1-128-128v-384c0-70.4 57.6-128 128-128h576z m0 51.2H224c-42.1376 0-76.8 34.6624-76.8 76.8v384c0 42.1376 34.6624 76.8 76.8 76.8h576c42.1376 0 76.8-34.6624 76.8-76.8v-384c0-42.1376-34.6624-76.8-76.8-76.8z" p-id="8278"></path><path d="M551.6288 601.1392h115.6096a39.6288 39.6288 0 1 1 0 79.2576h-115.6096v115.6096a39.6288 39.6288 0 0 1-79.2576 0V680.448H356.7616a39.6288 39.6288 0 0 1 0-79.2576h115.6096V485.5296a39.6288 39.6288 0 1 1 79.2576 0v115.6096z" p-id="8279"></path></svg>