<?xml version="1.0" standalone="no"?><!DOCTYPE svg PUBLIC "-//W3C//DTD SVG 1.1//EN" "http://www.w3.org/Graphics/SVG/1.1/DTD/svg11.dtd"><svg t="1686551014091" class="icon" viewBox="0 0 1024 1024" version="1.1" xmlns="http://www.w3.org/2000/svg" p-id="8127" xmlns:xlink="http://www.w3.org/1999/xlink" width="200" height="200"><path d="M178.816 484.266667l317.226667 182.101333a31.445333 31.445333 0 0 0 31.786666 0l317.397334-182.058667a31.829333 31.829333 0 0 0 0-55.04l-317.397334-182.186666a32.085333 32.085333 0 0 0-31.616 0L178.773333 429.141333a31.829333 31.829333 0 0 0 0 55.168z" p-id="8128"></path><path d="M511.914667 811.093333c5.589333-0.042667 11.093333-1.536 15.914666-4.309333l373.034667-214.058667-31.658667-55.168-357.290666 204.970667-357.12-204.8-31.658667 55.168 372.906667 214.016a33.408 33.408 0 0 0 15.872 4.138667z" p-id="8129"></path><path d="M512 883.242667l-357.12-204.970667-31.658667 55.210667 372.906667 214.016a31.402667 31.402667 0 0 0 31.786667 0l372.864-214.016-31.658667-55.210667L512 883.242667z" p-id="8130"></path></svg>