<?xml version="1.0" standalone="no"?><!DOCTYPE svg PUBLIC "-//W3C//DTD SVG 1.1//EN" "http://www.w3.org/Graphics/SVG/1.1/DTD/svg11.dtd"><svg class="icon" width="64px" height="64.00px" viewBox="0 0 1024 1024" version="1.1" xmlns="http://www.w3.org/2000/svg"><path d="M293.013333 594.474667v225.130666H84.458667c-25.045333-0.042667-45.312-21.013333-45.354667-46.912v-178.218666h253.909333z m253.909334 0v225.130666H329.28V594.474667h217.642667zM293.013333 369.322667v187.626666H39.104v-187.626666h253.909333z m253.909334 0v187.626666H329.28v-187.626666h217.642667z m290.176 0v85.909333H583.189333v-85.909333h253.909334zM791.744 106.666667c25.024 0.021333 45.312 21.013333 45.354667 46.912v178.218666H39.104V153.557333C39.146667 127.68 59.413333 106.688 84.48 106.666667h707.285333z m-8.298667 399.274666c65.92 0 124.373333 15.168 161.152 38.570667 25.301333 16.149333 40.298667 36.202667 40.298667 57.856V820.906667c0 53.226667-90.218667 96.426667-201.450667 96.426666-111.232 0-201.450667-43.2-201.450666-96.426666V602.24c0.064-21.674667 15.061333-41.664 40.298666-57.728 36.757333-23.402667 95.232-38.570667 161.152-38.570667z m161.152 299.349334c-36.757333 23.402667-95.253333 38.570667-161.152 38.570666-65.92 0-124.373333-15.168-161.152-38.570666v15.616c0 5.333333 9.749333 18.453333 35.818667 30.933333 15.296 7.317333 34.24 13.354667 54.762667 17.536 22.229333 4.501333 46.016 6.826667 70.570666 6.826667 24.533333 0 48.277333-2.325333 70.570667-6.826667 20.522667-4.117333 39.466667-10.218667 54.762667-17.536 26.069333-12.48 35.84-25.6 35.84-30.933333v-15.616z m0-73.472c-36.757333 23.402667-95.253333 38.570667-161.152 38.570666-65.92 0-124.373333-15.168-161.152-38.570666v15.616c0 5.333333 9.749333 18.453333 35.818667 30.933333 15.296 7.317333 34.24 13.354667 54.762667 17.536 22.229333 4.501333 46.016 6.826667 70.570666 6.826667 24.533333 0 48.277333-2.325333 70.570667-6.826667 20.522667-4.117333 39.466667-10.218667 54.762667-17.536 26.069333-12.48 35.84-25.6 35.84-30.933333v-15.616z m0-71.530667c-36.757333 23.381333-95.253333 38.570667-161.152 38.570667-65.92 0-124.373333-15.189333-161.152-38.570667v13.76c0 5.333333 9.749333 18.432 35.818667 30.912 15.296 7.317333 34.24 13.376 54.762667 17.536 22.229333 4.501333 46.016 6.826667 70.570666 6.826667 24.533333 0 48.277333-2.325333 70.570667-6.826667 20.522667-4.096 39.466667-10.218667 54.762667-17.536 26.069333-12.48 35.84-25.6 35.84-30.933333v-13.738667z" /></svg>