<?xml version="1.0" standalone="no"?><!DOCTYPE svg PUBLIC "-//W3C//DTD SVG 1.1//EN" "http://www.w3.org/Graphics/SVG/1.1/DTD/svg11.dtd"><svg t="1680575423594" class="icon" viewBox="0 0 1024 1024" version="1.1" xmlns="http://www.w3.org/2000/svg" p-id="4462" xmlns:xlink="http://www.w3.org/1999/xlink" width="200" height="200"><path d="M288 320h448a32 32 0 1 0 0-64h-448a32 32 0 1 0 0 64z m0 224h448a32 32 0 1 0 0-64h-448a32 32 0 1 0 0 64z m256 160h-256a32 32 0 1 0 0 64h256a32 32 0 1 0 0-64zM896 132.9152c0-55.6544-44.4416-100.9152-99.072-100.9152H227.072C172.3904 32 128 77.2608 128 132.9152v758.1696c0 55.6544 44.4416 100.9152 99.0208 100.9152h435.0464c1.536 0 2.9184-0.6656 4.4032-0.8704a31.4368 31.4368 0 0 0 25.9584-6.5536l192-160a31.4368 31.4368 0 0 0 10.8544-27.1872c0.1536-1.1776 0.7168-2.2016 0.7168-3.4304V132.9664zM192 891.0848V132.9152c0-20.3264 15.7184-36.9152 35.0208-36.9152h569.9072c19.3536 0 35.072 16.5888 35.072 36.9152v603.0848h-96c-53.0432 0-96 43.008-96 96v96H227.0208c-19.3024 0-35.0208-16.5888-35.0208-36.9152z m622.0288-91.0848l-110.0288 91.648V832c0-17.664 14.336-32 32-32h78.0288z" p-id="4463"></path></svg>