<?xml version="1.0" standalone="no"?><!DOCTYPE svg PUBLIC "-//W3C//DTD SVG 1.1//EN" "http://www.w3.org/Graphics/SVG/1.1/DTD/svg11.dtd"><svg t="1680161295296" class="icon" viewBox="0 0 1024 1024" version="1.1" xmlns="http://www.w3.org/2000/svg" p-id="4402" xmlns:xlink="http://www.w3.org/1999/xlink" width="200" height="200"><path d="M601.7664 362.6752v218.2656h-146.8672v37.7856h184.2432V324.864H270.6816V618.752h85.9904v-37.7856h-48.64v-218.2656H601.7664z m149.8624 82.3808h-86.016v37.76h48.64v218.2912H420.4672V482.816h146.8672v-37.76h-184.2432v293.8112h368.5376V445.056z m-239.616 531.2L114.0864 744.1152V584.704H73.1264v183.2704L512.0128 1024l193.28-112.7424-20.48-35.84-172.8 100.8128zM114.0864 279.8336l397.9008-232.0896 143.7696 83.8912 20.48-35.84L512.0128 0 73.1264 256.0256v245.4784h40.96v-221.6448zM753.4208 140.8l-20.48 35.84 176.9216 103.2192v464.2304l-159.9488 93.312 20.48 35.84 180.4544-105.216v-512l-197.4272-115.2z" fill="#126EE3" p-id="4403"></path></svg>