<?xml version="1.0" standalone="no"?><!DOCTYPE svg PUBLIC "-//W3C//DTD SVG 1.1//EN" "http://www.w3.org/Graphics/SVG/1.1/DTD/svg11.dtd"><svg t="1680161303749" class="icon" viewBox="0 0 1024 1024" version="1.1" xmlns="http://www.w3.org/2000/svg" p-id="4686" xmlns:xlink="http://www.w3.org/1999/xlink" width="200" height="200"><path d="M884.219527 668.764174V387.355756c0-25.854862-13.772194-49.738612-36.14561-62.640443l-243.701277-140.717009a72.342417 72.342417 0 0 0-72.342417 0l-243.701277 140.717009A72.342417 72.342417 0 0 0 252.183336 387.355756v281.38282c0 25.854862 13.797793 49.713013 36.171209 62.640443l243.701277 140.69141a72.342417 72.342417 0 0 0 72.316818 0l243.701277-140.69141a72.342417 72.342417 0 0 0 36.14561-62.640443z" fill="#E9F1FF" p-id="4687"></path><path d="M213.298647 220.399902a28.41475 28.41475 0 0 1-14.232973-53.066465L468.749807 11.58989a86.703385 86.703385 0 0 1 86.498595 0l171.870837 99.246833a28.41475 28.41475 0 1 1-28.41475 49.252233l-171.896436-99.246833a29.669095 29.669095 0 0 0-29.617897 0L227.506022 216.611269c-4.32621 2.50869-9.215595 3.839831-14.207375 3.839831z m478.314954 604.363808a28.41475 28.41475 0 0 1-14.232973-53.066465l172.741199-99.733211a29.694693 29.694693 0 0 0 14.821748-25.675671V338.538704a28.41475 28.41475 0 1 1 56.880697 0v307.800857a86.728984 86.728984 0 0 1-43.262096 74.902304l-172.7412 99.733212c-4.32621 2.50869-9.215595 3.814232-14.207375 3.814232z m-262.26046 56.087133c-4.838187 0-9.727572-1.203147-14.207375-3.788634L145.615225 721.421057a86.728984 86.728984 0 0 1-43.262096-74.902304V450.840963a28.41475 28.41475 0 1 1 56.906296 0v195.703389c0 10.546736 5.657351 20.376703 14.796149 25.650071l269.55614 155.615553a28.41475 28.41475 0 0 1-14.258573 53.066465z m82.684362-262.260461a156.665107 156.665107 0 0 1-156.511514-156.511513 156.665107 156.665107 0 0 1 156.511514-156.485915 156.665107 156.665107 0 0 1 156.485914 156.485915 156.665107 156.665107 0 0 1-156.485914 156.511513z m0-256.116731a99.733212 99.733212 0 0 0-99.630816 99.605218 99.733212 99.733212 0 0 0 99.630816 99.630816 99.733212 99.733212 0 0 0 99.579618-99.630816 99.733212 99.733212 0 0 0-99.579618-99.605218z" fill="#126EE3" p-id="4688"></path><path d="M512.011904 1023.999744a124.000944 124.000944 0 0 1-123.847351-123.847351c0-21.759043 5.734148-43.210899 16.58807-61.949274a28.440349 28.440349 0 0 1 49.252233 28.465948 67.069049 67.069049 0 0 0 58.032647 100.44998 67.069049 67.069049 0 0 0 66.966653-66.966654 67.069049 67.069049 0 0 0-66.992252-66.992252 28.41475 28.41475 0 1 1 0-56.880697 124.000944 124.000944 0 0 1 123.87295 123.872949A124.000944 124.000944 0 0 1 512.011904 1023.999744z" fill="#126EE3" p-id="4689"></path><path d="M512.011904 928.592742a28.41475 28.41475 0 0 1-28.41475-28.440349v-310.00236a28.41475 28.41475 0 1 1 56.855099 0v310.00236a28.41475 28.41475 0 0 1-28.41475 28.41475z m381.346421-561.664887a28.440349 28.440349 0 0 1-0.563176-56.880697 67.069049 67.069049 0 0 0 56.573511-100.475579 67.069049 67.069049 0 0 0-91.464775-24.523721 67.069049 67.069049 0 0 0-24.523721 91.515973 28.41475 28.41475 0 0 1-49.252233 28.440349 124.000944 124.000944 0 0 1 45.310006-169.208555 124.000944 124.000944 0 0 1 169.208555 45.335605 123.898548 123.898548 0 0 1-104.699393 185.771026h-0.588774z" fill="#126EE3" p-id="4690"></path><path d="M622.931823 426.522033a28.41475 28.41475 0 0 1-14.232973-53.092064l268.480987-155.00118a28.440349 28.440349 0 0 1 28.414749 49.252233L637.164797 422.682202c-4.32621 2.50869-9.215595 3.839831-14.207375 3.839831zM132.457404 366.979053c-21.477455 0-42.647724-5.631752-61.744483-16.639268a123.028187 123.028187 0 0 1-57.699861-75.209491A123.028187 123.028187 0 0 1 25.377316 181.13123a124.000944 124.000944 0 0 1 211.830679-4.531 28.440349 28.440349 0 0 1-48.023487 30.488258 67.069049 67.069049 0 0 0-114.52936 2.483091 66.557071 66.557071 0 0 0-6.706905 50.839363 66.557071 66.557071 0 0 0 31.230626 40.67661 66.557071 66.557071 0 0 0 50.813764 6.681306 66.557071 66.557071 0 0 0 40.702209-31.230626 28.41475 28.41475 0 1 1 49.226634 28.465948 123.028187 123.028187 0 0 1-75.209491 57.699861c-10.495538 2.815876-21.375059 4.275012-32.254581 4.275012z" fill="#126EE3" p-id="4691"></path><path d="M401.091984 426.522033c-4.812588 0-9.701973-1.254345-14.181776-3.839831L118.429222 267.681022a28.41475 28.41475 0 1 1 28.440348-49.252233l268.480987 155.00118a28.41475 28.41475 0 0 1-14.258573 53.066465zM477.197436 458.648619a34.814468 34.814468 0 1 0 69.628936 0 34.814468 34.814468 0 0 0-69.628936 0z" fill="#126EE3" p-id="4692"></path><path d="M512.011904 494.026263c-19.506342 0-35.377643-15.871302-35.377643-35.377644 0-19.506342 15.871302-35.377643 35.377643-35.377643 19.531941 0 35.377643 15.871302 35.377643 35.377643 0 19.506342-15.871302 35.377643-35.377643 35.377644z m0-69.628936a34.276892 34.276892 0 0 0 0 68.476987c18.891969 0 34.251293-15.359324 34.251293-34.225695 0-18.891969-15.359324-34.251293-34.251293-34.251292z" fill="#126EE3" p-id="4693"></path></svg>