<?xml version="1.0" standalone="no"?><!DOCTYPE svg PUBLIC "-//W3C//DTD SVG 1.1//EN" "http://www.w3.org/Graphics/SVG/1.1/DTD/svg11.dtd"><svg t="1685079897892" class="icon" viewBox="0 0 1024 1024" version="1.1" xmlns="http://www.w3.org/2000/svg" p-id="7499" xmlns:xlink="http://www.w3.org/1999/xlink" width="200" height="200"><path d="M853.26 908.875H200.207c-55.014 0-99.772-42.773-99.772-95.333V328.206c0-52.564 44.758-95.33 99.772-95.33H853.26c55.014 0 99.771 42.766 99.771 95.33v485.336c0 52.56-44.757 95.333-99.771 95.333zM200.207 284.874c-25.004 0-45.35 19.442-45.35 43.332v485.336c0 23.885 20.345 43.333 45.35 43.333H853.26c25.004 0 45.35-19.448 45.35-43.333V328.206c0-23.891-20.347-43.332-45.35-43.332H200.207z m517 0.117V151.245c0-25.003-20.348-45.348-45.351-45.348H381.61c-25.005 0-45.35 20.346-45.35 45.348V284.99h-54.422V151.245c0-55.01 44.758-99.767 99.773-99.767h290.244c55.014 0 99.771 44.756 99.771 99.767V284.99" p-id="7500"></path></svg>