<svg t="1681113193511" class="icon" viewBox="0 0 1024 1024" version="1.1" xmlns="http://www.w3.org/2000/svg" p-id="8194" width="200" height="200"><path d="M879.49824 829.78304L561.7152 512l317.7728-317.7728a15.36 15.36 0 0 0 0-21.72416l-28.96384-28.96384a15.36 15.36 0 0 0-21.72416 0L511.03232 461.312 193.25952 143.54432a15.36 15.36 0 0 0-21.72416 0l-28.96384 28.96384a15.36 15.36 0 0 0 0 21.72416L460.34432 512l-317.77792 317.77792a15.36 15.36 0 0 0 0 21.72416l28.96384 28.96384a15.36 15.36 0 0 0 21.72416 0L511.03232 562.688l317.78304 317.78304a15.36 15.36 0 0 0 21.72416 0l28.96384-28.96384a15.36 15.36 0 0 0-0.00512-21.72416z" p-id="8195"></path></svg>