<?xml version="1.0" standalone="no"?><!DOCTYPE svg PUBLIC "-//W3C//DTD SVG 1.1//EN" "http://www.w3.org/Graphics/SVG/1.1/DTD/svg11.dtd"><svg t="1710120885476" class="icon" viewBox="0 0 1024 1024" version="1.1" xmlns="http://www.w3.org/2000/svg" p-id="34028" xmlns:xlink="http://www.w3.org/1999/xlink" width="64" height="64"><path d="M152.25 801.23h-48c-4.42 0-8-3.58-8-8V233.21c0-4.42 3.58-8 8-8h48c4.42 0 8 3.58 8 8v560.02c0 4.42-3.58 8-8 8z m320.06 0h-48c-4.42 0-8-3.58-8-8V233.21c0-4.42 3.58-8 8-8h48c4.42 0 8 3.58 8 8v560.02c0 4.42-3.58 8-8 8z m-88.12 0c-4.42 0-8-3.58-8-8V233.21c0-4.42 3.58-8 8-8s8 3.58 8 8v560.02c0 4.42-3.58 8-8 8z m184.22 0h-48c-4.42 0-8-3.58-8-8V233.21c0-4.42 3.58-8 8-8h48c4.42 0 8 3.58 8 8v560.02c0 4.42-3.58 8-8 8z m351.99 0h-48c-4.42 0-8-3.58-8-8V233.21c0-4.42 3.58-8 8-8h48c4.42 0 8 3.58 8 8v560.02c0 4.42-3.59 8-8 8z m-272.26 0h-16c-4.42 0-8-3.58-8-8V233.21c0-4.42 3.58-8 8-8h16c4.42 0 8 3.58 8 8v560.02c0 4.42-3.59 8-8 8z m-336.29 0h-112c-4.42 0-8-3.58-8-8V233.21c0-4.42 3.58-8 8-8h112c4.42 0 8 3.58 8 8v560.02c0 4.42-3.58 8-8 8z m512.52 0h-112c-4.42 0-8-3.58-8-8V233.21c0-4.42 3.58-8 8-8h112c4.42 0 8 3.58 8 8v560.02c0 4.42-3.58 8-8 8z" p-id="34029"></path></svg>