<?xml version="1.0" standalone="no"?><!DOCTYPE svg PUBLIC "-//W3C//DTD SVG 1.1//EN" "http://www.w3.org/Graphics/SVG/1.1/DTD/svg11.dtd"><svg t="1683882864790" class="icon" viewBox="0 0 1024 1024" version="1.1" xmlns="http://www.w3.org/2000/svg" p-id="6235" xmlns:xlink="http://www.w3.org/1999/xlink" width="200" height="200"><path d="M702.4896 124.0064a19.328 19.328 0 0 1-8.8576-2.0992l-165.3248-85.248-165.1968 85.4272a18.9952 18.9952 0 0 1-24.32-5.8368 14.3872 14.3872 0 0 1-1.792-12.0576 16.2304 16.2304 0 0 1 8.32-9.6512L528.256 0l183.168 94.336c6.8352 3.2512 10.2912 10.752 8.2944 17.8688a17.5616 17.5616 0 0 1-17.152 11.8016h-0.0768zM529.2032 1024l-183.1424-94.3872a15.0016 15.0016 0 0 1-6.4-21.6576 19.0208 19.0208 0 0 1 24.1664-5.888l165.376 85.2992 165.3248-85.4528a18.9696 18.9696 0 0 1 24.192 5.8368c4.864 7.6288 1.92 17.664-6.3744 21.632L529.2032 1024zM18.2272 433.0752c-9.984 0-18.0992-6.8096-18.0992-15.2576L0 236.3136l186.112-90.88a20.992 20.992 0 0 1 18.0736 0 14.4128 14.4128 0 0 1 9.0368 13.2608c0 5.7856-3.584 11.008-9.0368 13.2608L36.1728 253.9776l0.1024 163.8912a14.1568 14.1568 0 0 1-5.3504 10.752 19.8144 19.8144 0 0 1-12.7488 4.4544H18.176z m810.6496 454.6048c-8.192 0-15.36-4.608-17.4848-11.2896-2.1248-6.7072 1.3568-13.7472 8.448-17.1776l167.9872-82.0992-0.1024-163.84c0-8.448 8.0896-15.232 18.0736-15.2576 9.984 0 18.0736 6.8096 18.0992 15.2576l0.1024 181.504-186.0864 90.9056a20.5824 20.5824 0 0 1-9.0368 2.0224z m-633.2672 0.3584a20.4288 20.4288 0 0 1-9.0112-2.048L0.384 795.3152 0.2304 613.888c0-8.4736 8.0896-15.2576 18.0736-15.2576 9.984 0 18.1504 6.8096 18.1504 15.2576v163.84l168.0896 81.92c7.0912 3.4304 10.5472 10.4448 8.448 17.1264-2.048 6.656-9.2416 11.3152-17.4848 11.3152h0.1024z m810.0864-455.5008c-9.984 0-18.0736-6.8352-18.0736-15.2576l-0.1024-163.9168-168.192-81.8688c-8.6016-4.2496-11.52-13.5424-6.5536-20.7872 4.992-7.2192 15.9488-9.8048 24.6016-5.632l186.24 90.6752 0.1536 181.5296c0 8.4736-8.0896 15.2832-18.0736 15.2832v-0.0256z m-621.5936 181.0688l-0.3584 105.0112a3.6864 3.6864 0 0 1-2.432 3.328 6.2208 6.2208 0 0 1-4.992 0l-117.6576-52.736a3.8912 3.8912 0 0 1-2.4832-3.3792l0.3584-105.0112c0-2.9952 4.096-4.7872 7.424-3.328l117.6576 52.7104a3.8144 3.8144 0 0 1 2.4832 3.328v0.0768zM384 448.1792l-0.3584 104.9856a3.6864 3.6864 0 0 1-2.432 3.328 6.2976 6.2976 0 0 1-4.992 0l-117.6576-52.736a3.8912 3.8912 0 0 1-2.4832-3.3792l0.3584-104.9856c0-2.9696 4.096-4.8128 7.424-3.328l117.6576 52.6848c1.4592 0.512 2.432 1.8432 2.4832 3.328v0.1024z m116.8896 225.4336l-0.2816 112.2816c0 1.4592-0.8192 2.816-2.1504 3.5584a4.3776 4.3776 0 0 1-4.2496 0l-100.864-56.4224a4.224 4.224 0 0 1-2.1504-3.5584l0.3328-112.3072c0.0512-3.1488 3.5328-5.0944 6.3488-3.584l100.864 56.4224a4.096 4.096 0 0 1 2.1504 3.584v0.0256zM640 613.4528l0.512 105.0368c0 2.9696 4.096 4.7872 7.424 3.2768l117.5808-52.7872A3.8656 3.8656 0 0 0 768 665.6l-0.512-104.96a3.6864 3.6864 0 0 0-2.432-3.328 6.2208 6.2208 0 0 0-4.9664 0l-117.6064 52.8128a3.84 3.84 0 0 0-2.4832 3.328z m-0.1024-165.4272l0.512 105.0112c0 2.9696 4.096 4.7872 7.424 3.328l117.6064-52.8384a3.8912 3.8912 0 0 0 2.4576-3.328l-0.512-105.0112a3.6864 3.6864 0 0 0-2.432-3.328 6.2208 6.2208 0 0 0-4.9664 0l-117.6064 52.8384a3.84 3.84 0 0 0-2.4832 3.328z m-116.5312 225.536l0.4096 112.2816c0.0256 3.1744 3.584 5.12 6.4 3.584l100.8128-56.576a4.096 4.096 0 0 0 2.1248-3.5584l-0.4608-112.3328c-0.0256-3.1488-3.5328-5.0944-6.3488-3.5328l-100.8128 56.5504a4.096 4.096 0 0 0-2.1248 3.584z m-8.7296-314.2144l100.096-56.576a4.0704 4.0704 0 0 0 0-7.0656l-100.864-56.4224a4.352 4.352 0 0 0-4.2496 0l-100.096 56.4736a4.1216 4.1216 0 0 0-2.0992 3.584 4.096 4.096 0 0 0 2.0992 3.6608l100.864 56.3968a4.5056 4.5056 0 0 0 4.2496 0v-0.0512z" fill="#126EE3" p-id="6236"></path><path d="M384.1536 439.04l97.5872-64.4608a4.1728 4.1728 0 0 0-0.512-7.3216l-106.6496-50.816a4.4032 4.4032 0 0 0-4.3008 0.2816l-97.5872 64.4608a4.1728 4.1728 0 0 0 0.512 7.3216l106.5472 50.816a4.4032 4.4032 0 0 0 4.3008-0.3072l0.1024 0.0512z m264.6016-6.9632l107.3408-47.6672a4.1728 4.1728 0 0 0 0.768-7.296l-96.256-67.4304a4.3776 4.3776 0 0 0-4.2752-0.4352l-107.3408 47.6928a4.1728 4.1728 0 0 0-0.768 7.296l96.1536 67.4304a4.352 4.352 0 0 0 4.2752 0.4096h0.1024zM640 448l-0.3584 105.0112a3.7376 3.7376 0 0 1-2.432 3.3024 6.2464 6.2464 0 0 1-4.992 0l-117.76-52.6848a3.84 3.84 0 0 1-2.4576-3.328l0.3584-105.0112c0-2.9952 4.096-4.8128 7.424-3.328L637.44 444.672a3.84 3.84 0 0 1 2.4832 3.328H640z m-255.9232 0.1536l0.512 104.9856c0 2.9696 4.096 4.7872 7.424 3.328l117.504-52.8384a3.8656 3.8656 0 0 0 2.4832-3.328l-0.512-105.0112a3.712 3.712 0 0 0-2.4064-3.328 6.2464 6.2464 0 0 0-4.992 0l-117.6064 52.8128a3.84 3.84 0 0 0-2.4832 3.3792h0.0768z m130.0992 191.232l101.8368-57.856a4.1728 4.1728 0 0 0 0-7.296l-102.7328-57.7792a4.48 4.48 0 0 0-4.3776 0l-101.888 57.8816a4.1728 4.1728 0 0 0 0 7.2704l102.6816 57.8304a4.6592 4.6592 0 0 0 4.352 0l0.128-0.0256z" fill="#126EE3" fill-opacity=".4" p-id="6237"></path></svg>