<?xml version="1.0" standalone="no"?><!DOCTYPE svg PUBLIC "-//W3C//DTD SVG 1.1//EN" "http://www.w3.org/Graphics/SVG/1.1/DTD/svg11.dtd"><svg t="1683942185251" class="icon" viewBox="0 0 1024 1024" version="1.1" xmlns="http://www.w3.org/2000/svg" p-id="6235" xmlns:xlink="http://www.w3.org/1999/xlink" width="200" height="200"><path d="M512 874.922667a135.552 135.552 0 0 1-68.437333-17.109334l-366.592-190.634666-51.328 26.88c-34.176 17.109333-34.176 68.437333 0 85.546666l452.138666 237.056c9.813333 4.906667 22.016 7.338667 34.218667 7.338667 12.202667 0 24.448-2.432 34.218667-7.338667l452.138666-237.056c34.218667-17.066667 34.218667-68.437333 0-85.546666l-51.328-26.88-366.592 190.634666c-22.016 12.202667-43.989333 17.109333-68.437333 17.109334z" fill="#126EE3" p-id="6236"></path><path d="M998.357333 469.248l-51.328-26.88-134.4 70.826667-80.64 41.557333-151.552 80.64c-22.016 9.813333-43.989333 17.152-68.437333 17.152a135.552 135.552 0 0 1-68.437333-17.109333l-151.509334-80.64-80.64-41.557334-134.4-70.869333-51.370666 26.88c-34.176 17.066667-34.176 68.394667 0 85.504l51.328 26.88 78.208 41.557333 320.170666 168.618667c9.770667 4.906667 21.973333 7.338667 34.218667 7.338667 12.202667 0 24.405333-2.432 34.218667-7.338667l320.128-168.618667 78.208-41.557333 51.328-26.88c39.125333-17.066667 39.125333-65.962667 4.906666-85.504z" fill="#126EE3" fill-opacity=".4" p-id="6237"></path><path d="M512 801.621333a78.08 78.08 0 0 1-34.218667-7.338666l-320.128-168.661334-78.208 41.557334 366.549334 190.634666c22.016 9.813333 43.989333 17.109333 68.437333 17.109334 24.448 0 46.464-4.906667 68.437333-17.109334l366.592-190.634666-78.208-41.557334-320.170666 168.661334c-14.634667 4.864-26.88 7.338667-39.082667 7.338666z" fill="#FFFFFF" p-id="6238"></path><path d="M998.357333 246.826667L546.218667 9.813333c-4.906667-2.432-9.813333-4.864-17.109334-7.338666C524.202667 0 516.906667 0 512 0c-4.906667 0-12.202667 0-17.109333 2.432-4.864 2.474667-12.202667 2.474667-17.066667 7.338667L25.6 246.826667C-8.533333 263.936-8.533333 315.306667 25.642667 332.373333l51.328 26.88 78.208 41.557334 134.4 70.826666 78.250666 41.6 107.52 56.192c9.770667 4.906667 21.973333 7.338667 34.218667 7.338667 12.202667 0 24.405333-2.432 34.218667-7.338667l107.52-56.192 78.208-41.557333 134.4-70.869333 78.208-41.557334 51.328-26.88c39.125333-17.109333 39.125333-68.437333 4.906666-85.546666z" fill="#126EE3" p-id="6239"></path></svg>