<?xml version="1.0" standalone="no"?><!DOCTYPE svg PUBLIC "-//W3C//DTD SVG 1.1//EN" "http://www.w3.org/Graphics/SVG/1.1/DTD/svg11.dtd"><svg class="icon" width="200px" height="200.00px" viewBox="0 0 1024 1024" version="1.1" xmlns="http://www.w3.org/2000/svg"><path d="M330.5472 639.744a30.72 30.72 0 0 1-21.9136-9.1136l-1.024-1.0752a35.584 35.584 0 0 1-0.9728-47.7696l47.9744-50.4832H116.8384V462.0288h237.2608l-47.0016-49.4592a35.584 35.584 0 0 1-0.9728-47.6672l0.9728-1.1776a30.976 30.976 0 0 1 44.8512-1.1264l127.6416 134.3488-126.1056 132.608a30.6176 30.6176 0 0 1-22.9376 10.1888m360.8064 0a30.72 30.72 0 0 1-22.016-9.1136l-127.5392-134.2976 125.952-132.608a30.976 30.976 0 0 1 44.8512-1.1264l0.9728 1.1264a35.2256 35.2256 0 0 1 1.024 47.36l-47.9744 50.4832h237.2608v69.7344h-237.056l46.8992 49.4592a35.072 35.072 0 0 1 1.024 47.2576l-1.024 1.1264v0.512a29.184 29.184 0 0 1-22.4768 10.0864M78.4384 1019.4432c-43.8272-3.7376-77.4656-41.472-77.4656-88.576V89.2928c0-49.7152 37.2736-89.088 84.736-89.088h283.648c47.4624 0 84.736 39.168 84.736 89.088v89.2416H387.7888V89.344a20.5824 20.5824 0 0 0-5.12-13.9776 19.7632 19.7632 0 0 0-13.2096-5.9904H85.6576a19.0464 19.0464 0 0 0-13.2096 5.888 18.1248 18.1248 0 0 0-5.12 13.5168v840.8064c0 12.3392 6.656 19.3024 18.3296 19.3024h283.648a19.0464 19.0464 0 0 0 13.2096-5.888 18.1248 18.1248 0 0 0 5.12-13.3632v-89.088h65.792v89.0368c0 49.9712-37.2736 89.088-84.736 89.088H78.336l0.1536 0.768h-0.1024z m574.0544 0.512c-47.4112 0-84.6848-39.1168-84.6848-89.088v-89.088h66.304v89.088c0 12.288 6.656 19.3024 18.2784 19.3024h284.2624a21.0944 21.0944 0 0 0 18.3296-19.3024V89.856c0-12.288-6.656-19.3024-18.3296-19.3024h-284.16a21.0944 21.0944 0 0 0-18.2784 19.3024v91.8528h-66.304V89.9072c0-49.9712 37.3248-89.088 84.7872-89.088h283.5968c47.4624 0 84.7872 39.1168 84.7872 89.088v841.0112c0 49.9712-37.3248 89.088-84.7872 89.088h-283.8016z" /></svg>