<?xml version="1.0" standalone="no"?><!DOCTYPE svg PUBLIC "-//W3C//DTD SVG 1.1//EN" "http://www.w3.org/Graphics/SVG/1.1/DTD/svg11.dtd"><svg t="1683883129910" class="icon" viewBox="0 0 1024 1024" version="1.1" xmlns="http://www.w3.org/2000/svg" p-id="6507" xmlns:xlink="http://www.w3.org/1999/xlink" width="200" height="200"><path d="M633.948491 837.096222l5.11995 2.150379 51.993093 29.234915a24.754959 24.754959 0 0 1 5.094351 39.782012l-4.454357 3.353568-183.857407 108.69654c-6.399938 3.788763-14.079863 4.710354-21.170994 2.559975l-5.11995-2.303978-169.982343-95.282271a24.754959 24.754959 0 0 1-4.710354-39.98681l4.582356-3.327967 51.2507-29.337314c6.374338-3.583965 13.926264-4.403157 20.914996-2.227178l5.09435 2.150379 90.239121 50.585106c6.476737 3.635165 14.182262 4.377557 21.247792 2.04798l5.068751-2.303977 107.262954-63.384982c6.399938-3.763163 14.131062-4.659155 21.247793-2.406377" fill="#126EE3" p-id="6508"></path><path d="M348.332076 461.291886l4.454357 2.175979 88.779934 52.530688 13.414269 7.551926c6.579136 3.686364 11.26389 9.983903 12.876675 17.331031l0.614394 5.580746 0.870391 118.731642a26.495742 26.495742 0 0 1-35.455654 24.754959l-4.454357-2.175979-82.584795-49.151521a13.31187 13.31187 0 0 0-10.1631-1.228788l-3.199969 1.356787-2.559975 1.433586a13.183871 13.183871 0 0 0-6.16954 8.038322l-0.435196 3.481566v98.303041c0 7.500727-3.174369 14.668657-8.729515 19.711808l-4.454356 3.251169-102.527001 59.39142a26.67494 26.67494 0 0 1-21.273392 2.303978l-5.14555-2.303978L77.333118 772.354454a26.879738 26.879738 0 0 1-12.748675-17.331031L64.021248 749.314678v-121.445216c0-7.475127 3.199969-14.591858 8.780714-19.558209l4.454357-3.276768 102.654999-59.314622c6.476737-3.763163 14.284661-4.582355 21.401391-2.227178l5.068751 2.303977 85.11917 49.509918c3.07197 1.715183 6.655935 2.175979 10.035102 1.228788l3.225569-1.228788 2.406376-1.433586a13.183871 13.183871 0 0 0 6.19514-8.089521l0.511995-3.532766-0.691193-95.640667a26.418942 26.418942 0 0 1 35.455654-25.343753m362.185269 20.326201l0.358396 5.017552-1.02399 93.899884a15.41105 15.41105 0 0 0 4.505556 11.212691l3.327968 2.585574 1.254388 0.691194c3.04637 1.715183 6.655935 2.175979 10.009502 1.228788l3.174369-1.228788 85.042371-49.535517c6.476737-3.763163 14.259061-4.607955 21.426991-2.329578l5.11995 2.278378 102.654999 59.289022c6.348738 3.788763 10.854294 10.035102 12.36468 17.279832l0.691193 5.580745v121.496416c0 7.526327-3.174369 14.694257-8.806314 19.711807l-4.505556 3.327968-104.933377 60.108214a26.572541 26.572541 0 0 1-21.247793 2.150379l-5.11995-2.227178-102.6294-59.365821a26.62374 26.62374 0 0 1-12.671876-17.407831l-0.639994-5.555146v-96.869455a15.615848 15.615848 0 0 0-4.505556-11.084692l-3.276768-2.585575-1.305587-0.614394a13.36307 13.36307 0 0 0-10.086302-1.305587l-3.225568 1.279987-82.584795 49.535517a26.418942 26.418942 0 0 1-24.754959 1.356787 26.751739 26.751739 0 0 1-15.103853-19.379011l-0.358396-4.940752 0.793592-118.731642c0.0512-7.526327 3.327968-14.668657 8.959913-19.609409l4.607955-3.225568 13.414269-7.628726 88.779935-52.479488a26.418942 26.418942 0 0 1 39.551614 18.073423M758.414478 147.566945l4.223958 1.919982 184.267004 104.114184c6.399938 3.763163 10.879894 10.035102 12.390279 17.279832l0.563195 5.708744v198.500465a25.369353 25.369353 0 0 1-33.433274 24.754959l-4.223959-1.971181-50.636307-29.900509a26.060546 26.060546 0 0 1-12.364679-17.203032l-0.614394-5.503946v-104.984577a26.62374 26.62374 0 0 0-8.550317-19.711808l-4.531155-3.148769-107.083756-61.260203a26.060546 26.060546 0 0 1-12.36468-17.279831l-0.639994-5.631945V172.449903a25.369353 25.369353 0 0 1 33.074878-24.754959M298.258964 167.63715l0.435196 4.812753v60.364211c0.0512 7.500727-3.09757 14.668657-8.678315 19.686208l-4.454357 3.225569-107.467752 61.157803c-6.374338 3.737564-10.879894 10.009502-12.36468 17.254232l-0.614394 5.759944v105.59897c0.0256 7.347128-2.969571 14.38706-8.294319 19.455811l-4.403157 3.276768-50.585107 29.823709a24.754959 24.754959 0 0 1-37.119638-17.894226l-0.435195-4.863952v-198.090869c-0.0256-7.475127 3.07197-14.617457 8.601516-19.711808l4.505556-3.199968 184.292603-104.60058a24.754959 24.754959 0 0 1 37.119638 18.124623l-0.537595-0.179198z" fill="#126EE3" fill-opacity=".4" p-id="6509"></path><path d="M519.671205 1.238772l4.940752 2.303977 102.527001 61.029805c6.399938 3.763163 10.879894 10.060702 12.364679 17.331031l0.563195 5.555146V206.343972a26.62374 26.62374 0 0 1-8.473518 19.686208l-4.454356 3.276768-82.021601 48.485928a15.846245 15.846245 0 0 0-7.065531 9.471907l-0.563194 4.07036v1.484786c0 3.507166 1.382387 6.911933 3.839962 9.420708l2.739174 2.09918 81.074409 46.847543c15.436649 9.113511 17.817426 30.463703 4.787153 42.777183l-4.787153 3.481566-87.653545 50.687506-12.927874 7.935922a25.369353 25.369353 0 0 1-20.914996 2.534376l-4.966352-2.303978-100.632619-58.751427a26.67494 26.67494 0 0 1-4.403157-42.700384l4.710354-3.481566 80.460016-46.335548a15.718247 15.718247 0 0 0 7.244729-9.599906l0.563195-4.095961v-1.433586a13.567868 13.567868 0 0 0-3.839963-9.343908l-2.483176-2.150379-83.301588-49.100322a26.444542 26.444542 0 0 1-12.390279-17.40783L384.018128 206.343972V87.458731c0-7.398328 3.020771-14.463859 8.422318-19.558209L396.818003 64.777352 498.858608 3.593949a25.318153 25.318153 0 0 1 20.991796-2.303978l-0.204798-0.051199z" fill="#126EE3" p-id="6510"></path></svg>