<?xml version="1.0" standalone="no"?><!DOCTYPE svg PUBLIC "-//W3C//DTD SVG 1.1//EN" "http://www.w3.org/Graphics/SVG/1.1/DTD/svg11.dtd"><svg t="1683882971798" class="icon" viewBox="0 0 1024 1024" version="1.1" xmlns="http://www.w3.org/2000/svg" p-id="6371" xmlns:xlink="http://www.w3.org/1999/xlink" width="200" height="200"><path d="M512.285883 63.984932l420.688128 223.94726v447.894521l-420.688128 223.972854-420.688128-223.94726V287.932192L512.285883 63.984932z m0 176.444847l-254.915967 135.724837v271.449673l254.915967 135.724837 254.941562-135.724837V376.154616l-254.915968-135.724837h-0.025594z" fill="#126EE3" fill-opacity=".4" opacity=".3" p-id="6372"></path><path d="M512.285883 342.319384l159.271292 84.767237v169.585663l-159.271292 84.792831-159.271291-84.792831v-169.585663l159.271291-84.767237z m-25.977882-59.378017V149.187266a76.781918 76.781918 0 1 1 51.187945 0v133.728507a232.879557 232.879557 0 0 0-51.187945 0z m211.073492 92.291866l147.72841-85.279117a76.781918 76.781918 0 1 1 22.369132 46.19712l-144.477975 83.385163a230.19219 230.19219 0 0 0-25.619567-44.277572z m25.645161 228.989273l144.426787 83.385162a76.781918 76.781918 0 1 1-22.369132 46.197121l-147.702816-85.279117a230.089814 230.089814 0 0 0 25.645161-44.303166z m-185.530708 136.595031v133.754101a76.781918 76.781918 0 1 1-51.187945 0v-133.728507a232.879557 232.879557 0 0 0 51.187945 0z m-211.073492-92.291865L178.694044 733.779195a76.781918 76.781918 0 1 1-22.369132-46.222715l144.477976-83.385162a230.038626 230.038626 0 0 0 25.619566 44.303166z m-25.619566-228.989273L156.324912 336.17683a76.781918 76.781918 0 1 1 22.369132-46.222714l147.702816 85.304711a230.038626 230.038626 0 0 0-25.619566 44.277572z" fill="#126EE3" p-id="6373"></path></svg>