<?xml version="1.0" standalone="no"?><!DOCTYPE svg PUBLIC "-//W3C//DTD SVG 1.1//EN" "http://www.w3.org/Graphics/SVG/1.1/DTD/svg11.dtd"><svg t="1702536642828" class="icon" viewBox="0 0 1024 1024" version="1.1" xmlns="http://www.w3.org/2000/svg" p-id="14148" xmlns:xlink="http://www.w3.org/1999/xlink" width="64" height="64"><path d="M584.940308 949.582769l-28.402872-49.257025 328.257641-189.243077V324.890256h56.812308v402.622359a28.402872 28.402872 0 0 1-14.263795 24.602257l-342.403282 197.474461z m-141.915898-0.170666l-342.121025-197.303795A28.402872 28.402872 0 0 1 86.646154 727.499487V324.883692h56.812308v386.093949l327.975384 189.065846-28.409436 49.427692v-0.059076zM173.226667 258.756923l-28.402872-49.257026L493.929026 8.270769a28.521026 28.521026 0 0 1 28.409436 0l348.934564 201.222564-28.402872 49.257026-334.795487-193.050256L173.226667 258.756923z m737.188102 86.580513c-45.850256-1.673846-82.156308-39.332103-82.156307-85.21518 0-45.883077 36.306051-83.541333 82.156307-85.215179 45.856821 1.673846 82.162872 39.332103 82.162872 85.215179 0 45.883077-36.306051 83.541333-82.162872 85.21518z m0-113.624615a28.402872 28.402872 0 1 0 0 56.812307 28.402872 28.402872 0 0 0 0-56.805743zM31.422359 260.634256c1.667282-45.856821 39.332103-82.176 85.221744-82.176 45.883077 0 83.547897 36.319179 85.215179 82.176-1.667282 45.856821-39.325538 82.169436-85.215179 82.169436S33.083077 306.484513 31.422359 260.627692z m85.221744-28.409435a28.402872 28.402872 0 1 0 0 56.812307 28.402872 28.402872 0 0 0 0-56.812307z m396.091076 787.298461c-45.856821-1.667282-82.176-39.325538-82.176-85.215179 0-45.883077 36.319179-83.547897 82.176-85.21518 45.856821 1.667282 82.169436 39.325538 82.169436 85.21518 0 45.883077-36.312615 83.547897-82.169436 85.215179z m-28.409435-85.215179a28.402872 28.402872 0 1 0 56.818871 0 28.402872 28.402872 0 0 0-56.818871 0z" p-id="14149"></path><path d="M512 148.775385L245.425231 302.657641l268.307692 154.893128 266.555077-153.882256L512 148.775385zM219.608615 655.182769L487.05641 809.577026v-309.825641L219.608615 345.357128v309.825641zM536.94359 501.76v307.817026l267.454359-154.400821V347.365744L536.937026 501.773128z" p-id="14150"></path></svg>