<svg t="1686288563854" class="icon" viewBox="0 0 1024 1024" version="1.1" xmlns="http://www.w3.org/2000/svg" p-id="4819" width="200" height="200"><path d="M942.08 0.219429H81.92A81.92 81.92 0 0 0 0 82.139429v122.88c0 45.202286 36.644571 81.92 81.92 81.92h860.16A81.92 81.92 0 0 0 1024 205.019429v-122.88a81.92 81.92 0 0 0-81.92-81.92z m30.72 204.8a31.158857 31.158857 0 0 1-30.72 30.72H81.92a31.158857 31.158857 0 0 1-30.72-30.72v-122.88a31.158857 31.158857 0 0 1 30.72-30.72h860.16c16.822857 0.219429 30.500571 13.824 30.72 30.72v122.88z" p-id="4820"></path><path d="M243.273143 117.979429h-122.88a25.6 25.6 0 1 0 0 51.2h122.88a25.6 25.6 0 0 0 0-51.2z m698.806857 209.92H81.92A81.92 81.92 0 0 0 0 409.819429v122.88c0 45.202286 36.644571 81.92 81.92 81.92h860.16A81.92 81.92 0 0 0 1024 532.699429v-122.88a81.92 81.92 0 0 0-81.92-81.92z m30.72 204.8a31.158857 31.158857 0 0 1-30.72 30.72H81.92a31.158857 31.158857 0 0 1-30.72-30.72v-122.88a31.158857 31.158857 0 0 1 30.72-30.72h860.16c16.822857 0.219429 30.500571 13.824 30.72 30.72v122.88z" p-id="4821"></path><path d="M243.273143 445.659429h-122.88a25.6 25.6 0 1 0 0 51.2h122.88a25.6 25.6 0 0 0 0-51.2z m698.806857 209.92H81.92A81.92 81.92 0 0 0 0 737.499429v122.88c0 45.202286 36.644571 81.92 81.92 81.92h860.16a81.92 81.92 0 0 0 81.92-81.92v-122.88a81.92 81.92 0 0 0-81.92-81.92z m30.72 204.8a31.158857 31.158857 0 0 1-30.72 30.72H81.92a31.158857 31.158857 0 0 1-30.72-30.72v-122.88a31.158857 31.158857 0 0 1 30.72-30.72h860.16c16.822857 0.219429 30.500571 13.824 30.72 30.72v122.88z" p-id="4822"></path><path d="M243.273143 773.339429h-122.88a25.6 25.6 0 1 0 0 51.2h122.88a25.6 25.6 0 0 0 0-51.2z" p-id="4823"></path></svg>