<?xml version="1.0" standalone="no"?><!DOCTYPE svg PUBLIC "-//W3C//DTD SVG 1.1//EN" "http://www.w3.org/Graphics/SVG/1.1/DTD/svg11.dtd"><svg class="icon" width="200px" height="181.08px" viewBox="0 0 1131 1024" version="1.1" xmlns="http://www.w3.org/2000/svg"><path d="M859.67178 0.003773c31.797778 0 60.631356 12.773006 81.488542 33.306824 21.61171 21.234448 33.791876 50.121921 33.791876 80.248968v250.501814a29.749785 29.749785 0 0 1-8.946494 21.288342 30.665992 30.665992 0 0 1-52.116018-21.288342V113.559565a52.924437 52.924437 0 0 0-15.898889-37.726177 54.487378 54.487378 0 0 0-38.319017-15.737205H122.448391c-14.389842 0-28.186844 5.658927-38.319017 15.68331a52.924437 52.924437 0 0 0-15.952783 37.726177v718.198617c0 14.713209 6.090083 28.02516 15.952783 37.726177 10.132173 10.078279 23.929175 15.737205 38.319017 15.737205h296.581644c8.461443 0 16.060572 3.341461 21.557815 8.78481a29.749785 29.749785 0 0 1 0 42.576685 30.665992 30.665992 0 0 1-21.557815 8.78481H122.448391a115.981046 115.981046 0 0 1-81.434647-33.360719 112.58569 112.58569 0 0 1-33.84577-80.302862V113.613459c0-30.127047 12.180166-58.960625 33.84577-80.248967A115.873257 115.873257 0 0 1 122.340602 0.003773h737.277284z"  /><path d="M450.181078 376.457123c7.114079 7.275763 12.341849 13.904791 15.629416 19.940979 3.287567 6.036188 2.748621 12.934689-1.616836 20.641608a128.646263 128.646263 0 0 1-9.377649 11.210064 74.374463 74.374463 0 0 1-5.551138 5.281665 35.732079 35.732079 0 0 1-4.581036 3.44925 29.80368 29.80368 0 0 1-21.719499 2.910305 44.085732 44.085732 0 0 1-22.474022-12.395744l-15.413838-15.144365-20.641608-20.318241-24.252542-23.929175-26.516113-26.084956-47.049932 46.349302c-11.856798 11.695115-23.659702 23.39023-35.354817 35.193134-9.323755 9.162072-18.593616 14.874893-27.755687 17.030674a25.977167 25.977167 0 0 1-24.468121-6.143977l-2.586938-2.533044-4.04209-3.988195-4.04209-3.988196a16.437834 16.437834 0 0 1-2.586938-2.910305 21.342237 21.342237 0 0 1-3.880407-20.641608 36.863864 36.863864 0 0 1 4.958298-9.808806c2.209676-3.071989 4.688825-5.982294 7.383551-8.677021 2.209676-1.940203 6.143977-5.551137 11.802904-10.886697l19.83319-20.264346A4133.27993 4133.27993 0 0 0 264.083238 294.214057a8615.041945 8615.041945 0 0 0-83.159273-80.949596l-9.916595-9.593228c-6.41345-6.305661-9.701017-12.503533-9.754911-18.64751a31.258832 31.258832 0 0 1 6.467344-18.701405c1.940203-2.425254 4.742719-5.22777 8.407548-8.515337 3.664829-3.233672 6.251766-5.389454 7.760814-6.305661 7.329657-4.850508 13.958685-7.00629 19.83319-6.359556 5.928399 0.59284 11.802904 3.934301 17.677408 9.97049l11.371748 11.210064c5.658927 5.551137 12.665216 12.341849 21.01887 20.318241a11420.791608 11420.791608 0 0 1 60.68525 58.31389l27.43232-26.83948c8.353653-8.084181 16.707307-16.222256 25.007066-24.414226l20.964975-20.479924 15.629416-15.19826a44.247416 44.247416 0 0 1 19.132561-11.04838 22.258444 22.258444 0 0 1 19.887085 4.527141l2.37136 1.778519c1.347363 0.970102 2.694727 2.047992 4.04209 3.233673l3.880407 3.503145c1.18568 1.077891 2.047992 1.724625 2.533043 1.994098 6.629028 6.251766 9.916595 13.096373 9.754911 20.479924a29.103051 29.103051 0 0 1-9.701017 20.479925c-4.419352 4.311563-9.916595 9.701017-16.383939 16.27615-7.221868 7.167974-14.443736 14.282053-21.719499 21.342238l-25.222644 24.629804-27.971265 27.540109a62980.780176 62980.780176 0 0 0 50.984233 48.93624c6.790712 6.575134 13.527529 13.204162 20.210452 19.940979l14.928787 14.820999z"  /><path d="M534.310453 444.148663H1031.757041a40.959849 40.959849 0 0 1 41.498794 40.420903v80.949597a40.959849 40.959849 0 0 1-41.498794 40.420904H534.310453a40.959849 40.959849 0 0 1-41.498795-40.420904V484.623461A40.959849 40.959849 0 0 1 534.310453 444.148663z m20.695502 40.420903a20.479925 20.479925 0 0 0-20.749397 20.264347v40.420903a20.479925 20.479925 0 0 0 20.749397 20.264347h456.001689A20.479925 20.479925 0 0 0 1031.757041 545.308711v-40.474798a20.479925 20.479925 0 0 0-20.749397-20.210452H555.005955zM534.256558 626.258307H1031.757041a40.959849 40.959849 0 0 1 41.498794 40.420904V747.574913a40.959849 40.959849 0 0 1-41.498794 40.420904H534.310453A40.959849 40.959849 0 0 1 492.811658 747.574913V666.733106a40.959849 40.959849 0 0 1 41.498795-40.420904z m20.749397 40.420904a20.479925 20.479925 0 0 0-20.749397 20.264347v40.420903a20.479925 20.479925 0 0 0 20.749397 20.264347h456.001689A20.479925 20.479925 0 0 0 1031.757041 727.364461v-40.420903a20.479925 20.479925 0 0 0-20.749397-20.264347H555.005955z m393.861286 20.264347h20.695503a20.479925 20.479925 0 0 1 20.749397 20.264346 20.479925 20.479925 0 0 1-20.749397 20.210452h-20.695503a20.479925 20.479925 0 0 1-20.749397-20.210452 20.479925 20.479925 0 0 1 20.749397-20.264346zM534.256558 808.260163H1031.757041a40.959849 40.959849 0 0 1 41.498794 40.474799v80.895701a40.959849 40.959849 0 0 1-41.498794 40.474799H534.310453a40.959849 40.959849 0 0 1-41.498795-40.420904V848.681067a40.959849 40.959849 0 0 1 41.498795-40.420904z m20.749397 40.474799a20.479925 20.479925 0 0 0-20.749397 20.210451v40.474799a20.479925 20.479925 0 0 0 20.749397 20.210451h456.001689A20.479925 20.479925 0 0 0 1031.757041 909.420212v-40.420904a20.479925 20.479925 0 0 0-20.749397-20.264346H555.005955z m393.861286 20.210451h20.695503a20.479925 20.479925 0 0 1 20.749397 20.264347 20.479925 20.479925 0 0 1-20.749397 20.210452h-20.695503a20.479925 20.479925 0 0 1-20.749397-20.210452 20.479925 20.479925 0 0 1 20.749397-20.264347z m0-364.1115h20.695503a20.479925 20.479925 0 0 1 20.749397 20.210452 20.479925 20.479925 0 0 1-20.749397 20.264346h-20.695503a20.479925 20.479925 0 0 1-20.749397-20.264346 20.479925 20.479925 0 0 1 20.749397-20.210452z"  /></svg>