<?xml version="1.0" standalone="no"?><!DOCTYPE svg PUBLIC "-//W3C//DTD SVG 1.1//EN" "http://www.w3.org/Graphics/SVG/1.1/DTD/svg11.dtd"><svg class="icon" width="200px" height="200.00px" viewBox="0 0 1024 1024" version="1.1" xmlns="http://www.w3.org/2000/svg"><path d="M969.508571 439.369143V169.106286c0-46.445714-38.326857-84.187429-85.577142-84.187429h-114.907429V32.109714a32.036571 32.036571 0 0 0-32.182857-31.670857h-0.585143a32.036571 32.036571 0 0 0-32.182857 31.670857v52.809143H306.688V32.109714a32.036571 32.036571 0 0 0-32.182857-31.670857 32.036571 32.036571 0 0 0-32.182857 31.670857v52.809143H85.942857c-47.177143 0-85.504 37.741714-85.504 84.187429v702.317714c0 64.877714 53.906286 118.198857 120.100572 118.198857h351.451428c10.166857-1.024 28.964571-7.899429 28.964572-26.624 0-21.211429-17.188571-27.501714-28.964572-28.525714H131.510857a63.634286 63.634286 0 0 1-64.073143-63.049143V439.369143h902.070857zM110.372571 147.968h752.201143a42.422857 42.422857 0 0 1 42.569143 42.276571v180.736H67.730286V189.952a42.422857 42.422857 0 0 1 42.642285-41.984z"  /><path d="M770.340571 533.869714c-137.289143 1.536-247.222857 112.420571-245.540571 247.515429 1.609143 135.168 114.176 243.346286 251.392 241.737143 136.484571-0.731429 246.418286-110.299429 245.613714-244.370286v-3.145143c-1.609143-135.168-114.249143-243.346286-251.465143-241.737143z m-0.292571 434.907429c-105.618286-0.512-190.610286-85.577143-190.025143-189.44V775.314286c1.828571-105.033143 89.746286-188.928 196.461714-187.099429 106.715429 1.828571 191.926857 88.429714 190.098286 193.462857-1.901714 105.033143-89.819429 188.928-196.534857 187.099429z m-343.917714-335.725714H158.061714a32.036571 32.036571 0 0 1-32.182857-31.670858c0-17.408 14.482286-31.670857 32.182857-31.670857h268.068572c17.700571 0 32.182857 14.262857 32.182857 31.670857a32.036571 32.036571 0 0 1-32.182857 31.670858z m-2.706286 184.758857H155.428571a32.036571 32.036571 0 0 1-32.182857-31.670857c0-17.408 14.482286-31.670857 32.182857-31.670858h267.995429c17.700571 0 32.182857 14.262857 32.182857 31.670858a32.036571 32.036571 0 0 1-32.182857 31.670857z"  /><path d="M889.051429 759.734857h-95.670858V665.6a27.062857 27.062857 0 0 0-24.868571-27.209143 26.697143 26.697143 0 0 0-28.745143 26.404572v122.733714c0 13.750857 11.264 25.088 25.453714 25.088h124.635429a26.624 26.624 0 0 0 26.843429-28.233143 27.282286 27.282286 0 0 0-27.648-24.576z"  /></svg>