<?xml version="1.0" standalone="no"?><!DOCTYPE svg PUBLIC "-//W3C//DTD SVG 1.1//EN" "http://www.w3.org/Graphics/SVG/1.1/DTD/svg11.dtd"><svg class="icon" width="200px" height="200.00px" viewBox="0 0 1024 1024" version="1.1" xmlns="http://www.w3.org/2000/svg"><path d="M715.832426 2.736985c18.820418 0 34.139364 15.318945 34.139364 34.212311v56.971887h168.727239c56.60715 0 102.563986 45.956836 102.563986 102.563985v724.950846C1021.263015 978.043164 975.306179 1024 918.699029 1024H102.563986C45.956836 1024 0 978.043164 0 921.436014V196.485168C0 139.878018 45.956836 93.921183 102.563986 93.921183H271.364173V36.949296a34.212311 34.212311 0 1 1 68.351674 0v56.971887h341.977216V36.949296c0-18.966313 15.318945-34.212311 34.212311-34.212311z m237.078914 398.949102H68.351675v519.749927c0 18.893366 15.318945 34.212311 34.285258 34.212311h816.062096c18.893366 0 34.212311-15.318945 34.212311-34.285258V401.759034zM578.910235 732.210567a34.212311 34.212311 0 1 1 0 68.424622H168.72724a34.212311 34.212311 0 1 1 0-68.424622h410.401837z m280.117855-215.851233a34.212311 34.212311 0 1 1 0 68.424622H448.626253a34.212311 34.212311 0 1 1 0-68.424622h410.32889zM852.462828 732.210567a34.212311 34.212311 0 1 1 0 68.424622H715.832426a34.212311 34.212311 0 1 1 0-68.424622h136.70335zM306.087115 515.265124a34.212311 34.212311 0 1 1 0 68.424622H169.237871a34.212311 34.212311 0 1 1 0-68.424622h136.776297z m-34.722942-352.919319H102.563986a34.212311 34.212311 0 0 0-34.139364 34.139363v136.776297h884.413771V196.485168a34.212311 34.212311 0 0 0-34.139364-34.212311H749.898843v57.044834a34.212311 34.212311 0 1 1-68.351675 0v-56.971886H339.6429v56.898939a34.212311 34.212311 0 1 1-68.351675 0v-56.898939z" /></svg>