<?xml version="1.0" standalone="no"?><!DOCTYPE svg PUBLIC "-//W3C//DTD SVG 1.1//EN" "http://www.w3.org/Graphics/SVG/1.1/DTD/svg11.dtd"><svg t="1690772633179" class="icon" viewBox="0 0 1024 1024" version="1.1" xmlns="http://www.w3.org/2000/svg" p-id="21982" xmlns:xlink="http://www.w3.org/1999/xlink" width="200" height="200"><path d="M871.643429 103.643429h-97.572572V54.857143c0-12.214857-18.285714-30.500571-36.571428-30.500572S707.072 36.571429 707.072 54.857143v42.642286H347.428571V54.857143c0-12.214857-12.214857-30.500571-30.500571-30.500572-18.285714 0-30.427429 18.285714-30.427429 30.500572v42.642286H152.356571C97.499429 103.643429 54.857143 146.285714 54.857143 195.072v706.998857c0 54.857143 42.642286 97.572571 97.499428 97.572572h719.286858c54.857143 0 97.499429-42.715429 97.499428-97.572572V195.072c0-48.786286-42.642286-91.428571-97.499428-91.428571z m30.427428 798.427428c0 18.285714-12.141714 30.500571-30.427428 30.500572H152.356571c-18.285714 0-30.427429-12.214857-30.427428-30.500572V195.072c0-18.285714 12.141714-30.500571 30.427428-30.500571h128v6.070857c6.144 18.285714 18.285714 36.571429 36.571429 36.571428s30.500571-12.141714 30.500571-30.427428V164.571429h359.643429v6.070857c0 18.285714 12.141714 30.500571 30.427429 30.500571 18.285714 0 30.500571-12.214857 30.500571-30.500571V164.571429h97.499429c18.285714 0 30.500571 12.214857 30.500571 30.500571v706.998857h6.070857z m-128-578.998857H249.929143c-18.285714 0-30.500571 12.141714-30.500572 30.427429 0 18.285714 12.214857 36.571429 30.500572 36.571428h524.141714c18.285714 0 30.500571-12.141714 30.500572-30.427428 0-18.285714-12.214857-36.571429-30.500572-36.571429z m0 194.998857H249.929143c-18.285714 0-30.500571 12.214857-30.500572 30.500572 0 18.285714 12.214857 30.500571 30.500572 30.500571h524.141714c18.285714 0 30.500571-12.214857 30.500572-30.500571 0-18.285714-12.214857-30.500571-30.500572-30.500572zM512 713.142857H249.929143c-18.285714 0-30.500571 12.214857-30.500572 30.500572 0 18.285714 12.214857 30.427429 30.500572 30.427428H512c18.285714 0 30.500571-12.141714 30.500571-30.427428 0-18.285714-12.214857-30.500571-30.500571-30.500572z" p-id="21983"></path></svg>