<?xml version="1.0" standalone="no"?><!DOCTYPE svg PUBLIC "-//W3C//DTD SVG 1.1//EN" "http://www.w3.org/Graphics/SVG/1.1/DTD/svg11.dtd"><svg t="1678239284664" class="icon" viewBox="0 0 1024 1024" version="1.1" xmlns="http://www.w3.org/2000/svg" p-id="3348" xmlns:xlink="http://www.w3.org/1999/xlink" width="200" height="200"><path d="M912 778.68v44.48A88.84 88.84 0 0 1 823.08 912h-44.44c-32.8 0-61.16-18-76.6-44.44H321.88A88.44 88.44 0 0 1 245.32 912h-44.4A88.88 88.88 0 0 1 112 823.08v-44.44c0-32.8 18-61.16 44.44-76.6V321.88A88.44 88.44 0 0 1 112 245.32v-44.4c0-49.16 39.76-88.92 88.92-88.92h44.44c32.8 0 61.16 18 76.6 44.44h380.2A88.28 88.28 0 0 1 778.68 112h44.48c49.08 0 88.84 39.76 88.84 88.92v44.44c0 32.8-18 61.16-44.44 76.6v380.2A88.28 88.28 0 0 1 912 778.68zM778.32 867h44.36a44.287 44.287 0 0 0 31.365-12.98A44.26 44.26 0 0 0 867 822.653v-44.306a44.26 44.26 0 0 0-12.955-31.367A44.287 44.287 0 0 0 822.68 734h-44.36a44.287 44.287 0 0 0-31.365 12.98A44.26 44.26 0 0 0 734 778.347v44.306a44.26 44.26 0 0 0 12.955 31.367A44.287 44.287 0 0 0 778.32 867zM157 822.653A44.267 44.267 0 0 0 201.347 867h44.306A44.267 44.267 0 0 0 290 822.653v-44.306A44.267 44.267 0 0 0 245.653 734h-44.306A44.267 44.267 0 0 0 157 778.347v44.306z m132.96-621.28a44.247 44.247 0 0 0-12.937-31.383 44.274 44.274 0 0 0-31.37-12.99h-44.266a44.274 44.274 0 0 0-31.422 12.962A44.248 44.248 0 0 0 157 201.373v44.294a44.248 44.248 0 0 0 12.966 31.371A44.274 44.274 0 0 0 201.346 290h44.307a44.274 44.274 0 0 0 31.382-12.962A44.247 44.247 0 0 0 290 245.667v-44.294h-0.08 0.04zM683.08 312H340.92c-7 12-16.88 21.92-28.92 28.92v342.16c12 7 21.92 16.92 28.92 28.92h342.16c7-12 16.92-21.92 28.92-28.92V340.92A79.48 79.48 0 0 1 683.08 312zM867 201.347A44.267 44.267 0 0 0 822.653 157h-44.306A44.267 44.267 0 0 0 734 201.347v44.306A44.267 44.267 0 0 0 778.347 290h44.306A44.267 44.267 0 0 0 867 245.653v-44.306z" p-id="3349"></path></svg>