<svg t="1704267637454" class="icon" viewBox="0 0 1024 1024" version="1.1" xmlns="http://www.w3.org/2000/svg" p-id="16413" width="200" height="200"><path d="M711.92 309.664l120.432 120.432c50.568 50.573 50.568 132.563 0 183.136l-317.6 317.6c-50.112 50.112-132.192 49.28-182.304-0.832h-0.016c-50.112-50.112-50.928-132.192-0.816-182.304l324.192-324.208c35.488-35.456 51.152-67.632 56.112-113.824zM246.064 285.92l219.2 219.2c9.104 9.104 9.104 23.872 0 32.992l-219.2 219.2c-14.72 14.688-39.84 4.288-39.84-16.512V302.4c0-20.768 25.12-31.2 39.84-16.48zM511.44 109.184l100.64 100.64a128.32 128.32 0 0 1 0 181.472l-74.24 74.24a25.664 25.664 0 0 1-36.304 0L328.32 292.32c-50.112-50.128-49.28-132.208 0.816-182.32h-0.016c50.128-50.112 132.208-50.944 182.32-0.816z" p-id="16414"></path></svg>