<?xml version="1.0" standalone="no"?><!DOCTYPE svg PUBLIC "-//W3C//DTD SVG 1.1//EN" "http://www.w3.org/Graphics/SVG/1.1/DTD/svg11.dtd"><svg t="1669361732912" class="icon" viewBox="0 0 1097 1024" version="1.1" xmlns="http://www.w3.org/2000/svg" p-id="2270" xmlns:xlink="http://www.w3.org/1999/xlink" width="214.2578125" height="200"><path d="M948.150857 498.468571v358.326858c0 50.468571-40.96 91.355429-91.428571 91.355428H167.277714a91.355429 91.355429 0 0 1-91.428571-91.355428V167.204571a91.355429 91.355429 0 0 1 91.428571-91.355428H496.64A37.961143 37.961143 0 0 0 496.64 0H167.204571A167.204571 167.204571 0 0 0 0 167.204571v689.590858A167.204571 167.204571 0 0 0 167.204571 1024h689.590858A167.204571 167.204571 0 0 0 1024 856.795429V498.468571a37.961143 37.961143 0 1 0-75.849143 0z" p-id="2271"></path><path d="M340.845714 532.333714l17.554286-0.950857a491.227429 491.227429 0 0 0 459.190857-415.451428 37.961143 37.961143 0 0 1 74.898286 11.483428 567.076571 567.076571 0 0 1-529.993143 479.744l-17.554286 0.950857a37.961143 37.961143 0 1 1-4.096-75.776z" p-id="2272"></path><path d="M852.845714 127.853714L690.688 216.502857a37.961143 37.961143 0 0 1-36.352-66.56L828.050286 54.857143a61.659429 61.659429 0 0 1 81.261714 20.626286l108.617143 167.862857a37.961143 37.961143 0 0 1-63.707429 41.252571L852.845714 127.853714z" p-id="2273"></path></svg>