<?xml version="1.0" standalone="no"?><!DOCTYPE svg PUBLIC "-//W3C//DTD SVG 1.1//EN" "http://www.w3.org/Graphics/SVG/1.1/DTD/svg11.dtd"><svg class="icon" width="200px" height="200.00px" viewBox="0 0 1024 1024" version="1.1" xmlns="http://www.w3.org/2000/svg"><path d="M404.864 567.32672l-291.82464 300.5952-2.24256-229.74976c0-17.65888-13.39904-32.1536-29.7728-32.1536-16.42496 0-29.824 14.49472-29.824 32.1536l2.24256 300.32384a33.39264 33.39264 0 0 0 9.69728 23.808 28.91264 28.91264 0 0 0 22.03648 10.496h304.01024c16.36864 0 29.71648-14.49984 29.71648-32.1536 0-17.664-13.34784-32.16384-29.71648-32.16384H159.56992l287.40096-295.68a33.95072 33.95072 0 0 0 0-45.41952A28.50816 28.50816 0 0 0 425.91744 558.08a28.50816 28.50816 0 0 0-21.05344 9.30304v-0.05632zM619.136 456.67328l291.82464-300.5952 2.24256 229.74976c0 17.65888 13.39904 32.1536 29.7728 32.1536 16.42496 0 29.824-14.49472 29.824-32.1536l-2.24256-300.32384a33.39264 33.39264 0 0 0-9.69728-23.808 28.91264 28.91264 0 0 0-22.03648-10.496h-304.01024c-16.36864 0-29.71648 14.49984-29.71648 32.1536 0 17.664 13.34784 32.16384 29.71648 32.16384h229.61664L577.024 411.19744a33.95072 33.95072 0 0 0 0 45.41952A28.50816 28.50816 0 0 0 598.08256 465.92a28.50816 28.50816 0 0 0 21.05344-9.30304v0.05632z" /></svg>