<?xml version="1.0" standalone="no"?><!DOCTYPE svg PUBLIC "-//W3C//DTD SVG 1.1//EN" "http://www.w3.org/Graphics/SVG/1.1/DTD/svg11.dtd"><svg t="1689143425476" class="icon" viewBox="0 0 1024 1024" version="1.1" xmlns="http://www.w3.org/2000/svg" p-id="10199" xmlns:xlink="http://www.w3.org/1999/xlink" width="200" height="200"><path d="M382.976 452.096h-296.96c-33.792 0-61.44-27.648-61.44-61.44v-296.96c0-33.792 27.648-61.44 61.44-61.44h296.96c33.792 0 61.44 27.648 61.44 61.44v296.96c0 33.792-27.648 61.44-61.44 61.44z m-296.96-358.4v296.96h296.96v-296.96h-296.96zM933.888 452.096h-296.96c-33.792 0-61.44-27.648-61.44-61.44v-296.96c0-33.792 27.648-61.44 61.44-61.44h296.96c33.792 0 61.44 27.648 61.44 61.44v296.96c0 33.792-27.648 61.44-61.44 61.44z m-296.96-358.4v296.96h296.96v-296.96h-296.96zM382.976 993.792h-296.96c-33.792 0-61.44-27.648-61.44-61.44v-296.96c0-33.792 27.648-61.44 61.44-61.44h296.96c33.792 0 61.44 27.648 61.44 61.44v296.96c0 33.792-27.648 61.44-61.44 61.44z m-296.96-358.4v296.96h296.96v-296.96h-296.96zM933.888 993.792h-296.96c-33.792 0-61.44-27.648-61.44-61.44v-296.96c0-33.792 27.648-61.44 61.44-61.44h296.96c33.792 0 61.44 27.648 61.44 61.44v296.96c0 33.792-27.648 61.44-61.44 61.44z m-296.96-358.4v296.96h296.96v-296.96h-296.96z" p-id="10200"></path></svg>