<?xml version="1.0" standalone="no"?><!DOCTYPE svg PUBLIC "-//W3C//DTD SVG 1.1//EN" "http://www.w3.org/Graphics/SVG/1.1/DTD/svg11.dtd"><svg t="1702532296524" class="icon" viewBox="0 0 1024 1024" version="1.1" xmlns="http://www.w3.org/2000/svg" p-id="20879" xmlns:xlink="http://www.w3.org/1999/xlink" width="200" height="200"><path d="M353.166222 400.611556c-32.597333 0-59.107556 26.624-59.107555 59.448888s26.510222 59.448889 59.107555 59.448889c32.540444 0 59.050667-26.624 59.050667-59.448889S385.706667 400.611556 353.166222 400.611556zM987.477333 56.888889H36.522667C16.327111 56.888889 0 75.377778 0 98.247111v827.505778c0 22.869333 16.327111 41.358222 36.579556 41.358222h950.840888c20.252444 0 36.579556-18.488889 36.579556-41.358222V98.247111c0-22.869333-16.327111-41.358222-36.579556-41.358222z m-365.795555 354.019555c0-5.006222 1.137778-9.102222 2.673778-9.102222h141.027555c1.479111 0 2.616889 4.096 2.616889 9.102222v54.897778c0 5.006222-1.137778 9.102222-2.616889 9.102222h-141.084444c-1.422222 0-2.56-4.096-2.56-9.102222v-54.897778z m-98.247111 289.166223h-50.176a9.102222 9.102222 0 0 1-9.045334-8.533334 111.843556 111.843556 0 0 0-111.047111-103.480889 111.843556 111.843556 0 0 0-111.104 103.424 9.102222 9.102222 0 0 1-9.045333 8.533334h-50.176a9.102222 9.102222 0 0 1-9.102222-9.557334 180.792889 180.792889 0 0 1 85.219555-144.099555 127.772444 127.772444 0 0 1-33.223111-86.300445 127.658667 127.658667 0 0 1 127.317333-128 127.658667 127.658667 0 0 1 127.317334 128 128 128 0 0 1-33.28 86.300445 180.679111 180.679111 0 0 1 85.276444 144.099555 8.817778 8.817778 0 0 1-8.931555 9.614223z m318.748444-60.586667H629.76c-4.437333 0-8.078222-4.096-8.078222-9.102222v-54.897778c0-5.006222 3.640889-9.102222 8.078222-9.102222h212.195556c4.551111 0 8.135111 4.096 8.135111 9.102222v54.840889h0.113777c0 5.063111-3.640889 9.159111-8.078222 9.159111z" p-id="20880"></path></svg>