<?xml version="1.0" standalone="no"?><!DOCTYPE svg PUBLIC "-//W3C//DTD SVG 1.1//EN" "http://www.w3.org/Graphics/SVG/1.1/DTD/svg11.dtd"><svg class="icon" width="200px" height="200.00px" viewBox="0 0 1024 1024" version="1.1" xmlns="http://www.w3.org/2000/svg"><path d="M319.488 667.968c59.072 0 110.976 39.232 127.04 96h473.472v72.064H446.528a132.032 132.032 0 0 1-254.08 0H104.064v-72h88.512a132.032 132.032 0 0 1 126.976-96z m0 72a60.032 60.032 0 1 0 0 120.064 60.032 60.032 0 0 0 0-120.064z m384-360c59.072 0 110.976 39.232 127.04 96h89.472v72.064h-89.472a132.032 132.032 0 0 1-254.08 0H104.064V476.032h472.512a132.032 132.032 0 0 1 127.04-96z m0 72a60.032 60.032 0 1 0 0 120.064 60.032 60.032 0 0 0 0-120.064z m-384-360c59.072 0 110.976 39.232 127.04 96h473.472v72.064H446.528a132.032 132.032 0 0 1-254.08 0H104.064V188.032h88.512a132.032 132.032 0 0 1 126.976-96z m0 72a60.032 60.032 0 1 0 0 120.064 60.032 60.032 0 0 0 0-120.064z" /></svg>