<?xml version="1.0" standalone="no"?><!DOCTYPE svg PUBLIC "-//W3C//DTD SVG 1.1//EN" "http://www.w3.org/Graphics/SVG/1.1/DTD/svg11.dtd"><svg t="1688970314628" class="icon" viewBox="0 0 1024 1024" version="1.1" xmlns="http://www.w3.org/2000/svg" p-id="6296" xmlns:xlink="http://www.w3.org/1999/xlink" width="200" height="200"><path d="M415.2832 0.768l349.184 177.3568v107.9296h-77.568V218.6752l-194.048-98.304v752.9472l193.536-98.304v-67.3792h77.5168v107.4176l-349.1328 177.3568V0.768h0.512z m-291.328 891.8528c-11.6736 0-23.3472-3.072-33.4848-9.1648a67.8912 67.8912 0 0 1-33.4336-57.7536c0-23.808 12.6464-46.08 33.4336-57.7536 10.1376-6.0928 21.8112-9.1136 33.4336-9.1136 11.6736 0 23.3472 3.072 33.4848 9.1136 20.224 12.1344 33.4336 33.9456 33.4336 57.7536 0 23.808-12.6976 46.08-33.4336 57.7536a65.0752 65.0752 0 0 1-33.4848 9.1648z m67.3792-195.584a84.992 84.992 0 0 1-41.5744-11.1616A82.6368 82.6368 0 0 1 107.7248 614.4c0-29.3888 16.1792-56.7296 42.0352-71.424a88.064 88.064 0 0 1 41.5744-11.1616c14.1824 0 28.8768 3.584 41.5232 11.1616 25.856 14.6944 42.0864 42.0352 42.0864 71.424 0 29.3888-16.2304 56.7808-42.0864 71.4752a84.992 84.992 0 0 1-41.5232 11.1104z m723.5584-46.1312a68.096 68.096 0 0 1-67.8912-67.3792 68.096 68.096 0 0 1 67.8912-67.4304 68.096 68.096 0 0 1 67.8912 67.3792 68.096 68.096 0 0 1-67.8912 67.4304z m-190.976 0a67.4816 67.4816 0 0 1-67.4304-62.3616v-5.0688c0-36.9664 30.4128-67.3792 67.8912-67.3792 37.5296 0 67.4304 30.4128 67.4304 67.3792a68.096 68.096 0 0 1-67.9424 67.4304zM299.7248 480.1024a67.2768 67.2768 0 0 1-66.8672-66.8672c0-23.808 12.6464-46.08 33.3824-57.7536 10.1376-6.0928 21.8112-9.1136 33.4848-9.1136 11.6224 0 23.296 3.072 33.4336 9.1136 20.7872 12.1344 33.4336 33.9456 33.4336 57.7536 0 23.808-12.6464 46.08-33.4336 57.7536a70.4 70.4 0 0 1-33.4336 9.1136z m424.0896-5.0176a67.4816 67.4816 0 0 1-67.3792-62.3616v-5.0688c0-36.9664 30.4128-67.3792 67.8912-67.3792 37.5296 0 67.4304 30.4128 67.4304 67.3792a68.096 68.096 0 0 1-67.9424 67.4304z m191.0272 0a68.096 68.096 0 0 1-67.8912-67.3792 68.096 68.096 0 0 1 67.8912-67.4304 68.096 68.096 0 0 1 67.8912 67.3792A68.096 68.096 0 0 1 914.944 475.136zM67.1744 355.9936A67.2768 67.2768 0 0 1 0.3072 289.1264c0-23.8592 12.6464-46.1312 33.4336-57.8048 10.1376-6.0928 21.76-9.1136 33.4336-9.1136 11.6736 0 23.296 3.072 33.4336 9.1136 20.7872 12.1856 33.4336 33.9456 33.4336 57.7536 0 23.808-12.6464 46.1312-33.4336 57.8048a66.4576 66.4576 0 0 1-33.4336 9.1136zM224.768 200.9088c-11.6736 0-23.296-3.072-33.4336-9.1136a67.8912 67.8912 0 0 1-33.4336-57.7536c0-23.808 12.6464-46.08 33.4336-57.7536 10.1376-6.144 21.76-9.1648 33.4336-9.1648 11.6736 0 23.296 3.072 33.4336 9.1648 20.2752 12.1344 33.4336 33.9456 33.4336 57.7536 0 23.808-12.6464 46.08-33.4336 57.7536a65.0752 65.0752 0 0 1-33.4336 9.1136z" p-id="6297"></path></svg>