<?xml version="1.0" standalone="no"?><!DOCTYPE svg PUBLIC "-//W3C//DTD SVG 1.1//EN" "http://www.w3.org/Graphics/SVG/1.1/DTD/svg11.dtd"><svg t="1688970300963" class="icon" viewBox="0 0 1024 1024" version="1.1" xmlns="http://www.w3.org/2000/svg" p-id="6024" xmlns:xlink="http://www.w3.org/1999/xlink" width="200" height="200"><path d="M957.2864 249.4976a32.1024 32.1024 0 0 0-27.648 15.4112 30.0032 30.0032 0 0 0 0 30.8736 32.1024 32.1024 0 0 0 27.648 15.4624V401.92H64.0512V311.296h636.0576c17.7152 0 31.8976-13.824 31.8976-30.8736a31.3344 31.3344 0 0 0-31.8976-30.8736H64c-35.1744 0-63.7952 27.648-63.7952 61.7472V959.488c0 34.0992 28.6208 61.7472 63.7952 61.7472h893.2352c35.2256 0 63.7952-27.648 63.7952-61.7472V311.296c0-34.048-28.5696-61.7472-63.7952-61.7472zM383.0784 772.4032v-123.4944h255.1808v123.4944H383.0784z m255.1808 61.7472v125.44H383.0784v-125.44h255.1808zM64.0512 648.9088h255.232v123.4944H64v-123.4944z m574.208-61.7472H383.0784V468.1728c0-1.536-0.7168-2.9184-0.9216-4.5056h257.024c-0.256 1.536-0.9216 2.9184-0.9216 4.5056v118.9888z m63.7952 61.7472h255.232v123.4944h-255.232v-123.4944z m255.232-61.7472h-255.232V468.1728c0-1.536-0.6656-2.9184-0.9216-4.5056h256.1536v123.4944zM320.2048 463.6672c-0.256 1.536-0.9216 2.9184-0.9216 4.5056v118.9888H64V463.6672h256.1536zM64 834.1504h255.232v125.44H64v-125.44z m638.0032 125.44v-125.44h255.232v125.44h-255.232z" p-id="6025"></path><path d="M805.12 269.4144a32.3584 32.3584 0 0 0 45.056 0l95.1808-92.16a30.0544 30.0544 0 0 0 0-43.6224 32.6144 32.6144 0 0 0-45.1072 0l-40.5504 39.2192V31.5392a30.72 30.72 0 0 0-15.9744-26.7776 32.8192 32.8192 0 0 0-31.8976 0 30.72 30.72 0 0 0-15.9232 26.7264v141.824l-40.4992-39.168a32.6656 32.6656 0 0 0-45.1072 0 30.208 30.208 0 0 0 0 43.6224l94.8224 91.648z" p-id="6026"></path></svg>