<?xml version="1.0" standalone="no"?><!DOCTYPE svg PUBLIC "-//W3C//DTD SVG 1.1//EN" "http://www.w3.org/Graphics/SVG/1.1/DTD/svg11.dtd"><svg t="1688970292936" class="icon" viewBox="0 0 1024 1024" version="1.1" xmlns="http://www.w3.org/2000/svg" p-id="5886" xmlns:xlink="http://www.w3.org/1999/xlink" width="200" height="200"><path d="M297.472 704h424.234667c16.768 0 30.293333 14.293333 30.293333 32s-13.525333 32-30.293333 32H297.472c-16.810667 0-30.293333-14.293333-30.293333-32s13.482667-32 30.293333-32z m0-192h424.234667c16.768 0 30.293333 14.293333 30.293333 32s-13.525333 32-30.293333 32H297.472c-16.810667 0-30.293333-14.293333-30.293333-32s13.482667-32 30.293333-32z" p-id="5887"></path><path d="M605.696 64l267.52 282.496V960H145.92v-896h459.776m0-64H145.92C112.512 0 85.333333 28.672 85.333333 64v896c0 35.328 27.178667 64 60.586667 64h727.296c33.450667 0 60.586667-28.672 60.586667-64V346.496c0-17.024-6.4-33.237333-17.749334-45.226667L648.533333 18.730667A58.922667 58.922667 0 0 0 605.696 0z" p-id="5888"></path><path d="M630.784 64h-60.586667v288c0 17.706667 13.525333 32 30.293334 32h30.293333V64z" p-id="5889"></path><path d="M873.216 320h-303.018667v32c0 17.706667 13.525333 32 30.293334 32h272.725333V320z" p-id="5890"></path></svg>