<?xml version="1.0" standalone="no"?><!DOCTYPE svg PUBLIC "-//W3C//DTD SVG 1.1//EN" "http://www.w3.org/Graphics/SVG/1.1/DTD/svg11.dtd"><svg t="1688970319326" class="icon" viewBox="0 0 1027 1024" version="1.1" xmlns="http://www.w3.org/2000/svg" p-id="6431" xmlns:xlink="http://www.w3.org/1999/xlink" width="200.5859375" height="200"><path d="M605.149696 787.2c7.5776 0 15.0528-0.2048 22.528-0.6656-3.584 4.096-7.3728 8.0384-11.264 11.9296L477.508096 937.3184a277.76 277.76 0 1 1-392.8064-392.7552l138.8544-138.9056a277.9136 277.9136 0 0 1 316.16-54.272 277.2992 277.2992 0 0 1 76.6464 54.272c22.9888 22.9888 41.0624 48.9472 54.272 76.6464a92.3136 92.3136 0 0 1-92.672 23.1424 186.2144 186.2144 0 0 0-61.3376-61.3888 185.1904 185.1904 0 0 0-227.584 27.0848l-41.6768 41.6768-97.1776 97.1776a185.1904 185.1904 0 0 0 261.8368 261.888l97.1776-97.1776c30.6176 8.192 62.7712 12.4928 95.8976 12.4928z m335.3088-705.536a277.76 277.76 0 0 0-392.8064 0L408.797696 220.416c-3.8912 3.8912-7.68 7.8848-11.264 11.9296a371.2 371.2 0 0 1 118.3744 11.8784l97.1776-97.1776a185.1904 185.1904 0 1 1 261.888 261.8368l-97.1776 97.1776-41.6768 41.728a185.2928 185.2928 0 0 1-288.9216-34.304 92.416 92.416 0 0 0-92.672 23.0912 277.6576 277.6576 0 0 0 54.272 76.6464 277.9136 277.9136 0 0 0 392.8064 0l138.8544-138.8544a277.76 277.76 0 0 0 0-392.8064z" p-id="6432"></path></svg>