<?xml version="1.0" standalone="no"?><!DOCTYPE svg PUBLIC "-//W3C//DTD SVG 1.1//EN" "http://www.w3.org/Graphics/SVG/1.1/DTD/svg11.dtd"><svg t="1691372823064" class="icon" viewBox="0 0 1024 1024" version="1.1" xmlns="http://www.w3.org/2000/svg" p-id="11363" xmlns:xlink="http://www.w3.org/1999/xlink" width="200" height="200"><path d="M807.68 340.992a312.832 312.832 0 0 0-68.992-99.84A323.712 323.712 0 0 0 512 149.312c-43.264 0-85.12 8.32-124.736 24.64-38.208 15.744-72.448 38.4-101.952 67.136-29.568 28.8-52.736 62.464-68.992 99.84a306.56 306.56 0 0 0-25.344 122.56c0 60.928 14.592 121.6 43.2 180.096 23.04 47.04 55.232 92.8 95.808 136.448a770.816 770.816 0 0 0 162.56 132.032 37.888 37.888 0 0 0 38.72 0c20.608-12.16 93.248-57.6 162.56-132.032a568.32 568.32 0 0 0 95.808-136.448c28.8-58.432 43.392-119.04 43.392-180.032a306.56 306.56 0 0 0-25.344-122.56zM512 851.2c-56.896-36.16-258.88-179.328-258.88-387.584 0-67.2 26.816-130.368 75.52-178.048A260.864 260.864 0 0 1 512 211.456c69.312 0 134.4 26.368 183.296 74.176a246.912 246.912 0 0 1 75.584 177.92c0 208.256-201.984 351.424-258.88 387.584z m0-532.672a151.872 151.872 0 1 0 0 303.808 151.872 151.872 0 0 0 0-303.808z m68.352 220.288A96.32 96.32 0 0 1 512 567.04c-25.792 0-50.048-10.112-68.352-28.288A96.32 96.32 0 0 1 415.36 470.4c0-25.856 10.048-50.048 28.288-68.352A96 96 0 0 1 512 373.696a96 96 0 0 1 68.352 28.352A96 96 0 0 1 608.64 470.4a96 96 0 0 1-28.288 68.352z" p-id="11364"></path></svg>