<?xml version="1.0" standalone="no"?><!DOCTYPE svg PUBLIC "-//W3C//DTD SVG 1.1//EN" "http://www.w3.org/Graphics/SVG/1.1/DTD/svg11.dtd"><svg t="1702540988303" class="icon" viewBox="0 0 1024 1024" version="1.1" xmlns="http://www.w3.org/2000/svg" p-id="21144" xmlns:xlink="http://www.w3.org/1999/xlink" width="200" height="200"><path d="M793.6 573.44c0 33.93024-27.50976 61.44-61.44 61.44H291.84c-33.93024 0-61.44-27.50976-61.44-61.44v-20.48H102.4C49.2544 552.96 6.05696 510.336 5.13536 457.41056L5.12 455.68V204.8c0-53.1456 42.624-96.34304 95.54944-97.26464L102.4 107.52h128v-25.6c0-33.93024 27.50976-61.44 61.44-61.44h440.32c33.93024 0 61.44 27.50976 61.44 61.44v122.88c0 33.93024-27.50976 61.44-61.44 61.44H291.84c-33.93024 0-61.44-27.50976-61.44-61.44v-25.6H102.4a25.6 25.6 0 0 0-25.5744 24.48896L76.8 204.8v250.88a25.6 25.6 0 0 0 24.48896 25.5744L102.4 481.28h128v-30.72c0-33.93024 27.50976-61.44 61.44-61.44h440.32c33.93024 0 61.44 27.50976 61.44 61.44v30.72h87.04l1.73056 0.01536C935.296 482.21696 977.92 525.40928 977.92 578.56v250.88l-0.01536 1.73056C976.98304 884.096 933.79072 926.72 880.64 926.72h-87.04v15.36c0 33.93024-27.50976 61.44-61.44 61.44H291.84c-33.93024 0-61.44-27.50976-61.44-61.44v-122.88c0-33.93024 27.50976-61.44 61.44-61.44h440.32c33.93024 0 61.44 27.50976 61.44 61.44v35.84h87.04l1.11104-0.0256A25.6 25.6 0 0 0 906.24 829.44v-250.88l-0.0256-1.11104A25.6 25.6 0 0 0 880.64 552.96h-87.04v20.48z" p-id="21145"></path></svg>