<?xml version="1.0" standalone="no"?><!DOCTYPE svg PUBLIC "-//W3C//DTD SVG 1.1//EN" "http://www.w3.org/Graphics/SVG/1.1/DTD/svg11.dtd"><svg t="1691372829590" class="icon" viewBox="0 0 1024 1024" version="1.1" xmlns="http://www.w3.org/2000/svg" p-id="11659" xmlns:xlink="http://www.w3.org/1999/xlink" width="200" height="200"><path d="M407.2448 559.6672a31.1808 31.1808 0 0 1 49.92-37.3248 124.7232 124.7232 0 0 0 188.0064 13.4656l93.184-93.184a124.672 124.672 0 0 0-176.0256-176.5888L508.7232 319.3344a31.1808 31.1808 0 1 1-43.9808-44.1856l53.9648-53.6064a187.0336 187.0336 0 0 1 264.0896 264.8064l-93.5424 93.5424a187.136 187.136 0 0 1-282.0096-20.224z m174.592-99.6864a31.1808 31.1808 0 1 1-49.92 37.376 124.7232 124.7232 0 0 0-188.0576-13.4656L250.7264 577.024a124.672 124.672 0 0 0 175.9232 176.64l53.3504-53.248a31.1808 31.1808 0 0 1 44.032 44.032L470.3744 798.208a187.0336 187.0336 0 0 1-264.0896-264.8576L299.8272 439.808a187.136 187.136 0 0 1 282.0096 20.1728z m226.2016 83.0976h31.232a31.1808 31.1808 0 0 1 0 62.3616h-31.232a31.1808 31.1808 0 0 1 0-62.3616z m-124.672 124.672h155.8528a31.1808 31.1808 0 0 1 0 62.3616h-155.8528a31.1808 31.1808 0 0 1 0-62.3616z m-93.4912 124.672h249.344a31.1808 31.1808 0 0 1 0 62.3616h-249.344a31.1808 31.1808 0 0 1 0-62.3616z" p-id="11660"></path></svg>