<?xml version="1.0" standalone="no"?><!DOCTYPE svg PUBLIC "-//W3C//DTD SVG 1.1//EN" "http://www.w3.org/Graphics/SVG/1.1/DTD/svg11.dtd"><svg t="1691378052237" class="icon" viewBox="0 0 1024 1024" version="1.1" xmlns="http://www.w3.org/2000/svg" p-id="41352" xmlns:xlink="http://www.w3.org/1999/xlink" width="200" height="200"><path d="M512 20.48c138.55744 0 250.88 112.32256 250.88 250.88 0 82.28352-39.61344 155.3152-100.8128 201.0624L667.7504 501.76H875.52c70.69184 0 128 57.30816 128 128v51.2c0 70.69184-57.30816 128-128 128H148.48c-70.69184 0-128-57.30816-128-128v-51.2c0-70.69184 57.30816-128 128-128h207.77472l5.6832-29.33248C300.73856 426.68032 261.12 353.64352 261.12 271.36c0-138.55744 112.32256-250.88 250.88-250.88z m0 71.68c-98.9696 0-179.2 80.2304-179.2 179.2 0 56.41216 26.1632 108.34944 69.9904 142.09024l2.06336 1.56672 36.00384 26.91584L415.38048 573.44H148.48c-30.61248 0-55.51616 24.4224-56.29952 54.84544L92.16 629.76v51.2c0 30.61248 24.4224 55.51616 54.84544 56.29952L148.48 737.28h727.04c30.61248 0 55.51616-24.4224 56.29952-54.84544L931.84 680.96v-51.2c0-30.61248-24.4224-55.51616-54.84544-56.29952L875.52 573.44h-266.91584l-25.4464-131.51744 35.9936-26.9056C664.2176 381.32736 691.2 328.6528 691.2 271.36c0-98.9696-80.2304-179.2-179.2-179.2z" fill="#000000" p-id="41353"></path><path d="M40.96 931.84m35.84 0l870.4 0q35.84 0 35.84 35.84l0 0q0 35.84-35.84 35.84l-870.4 0q-35.84 0-35.84-35.84l0 0q0-35.84 35.84-35.84Z" fill="#000000" p-id="41354"></path></svg>