<?xml version="1.0" standalone="no"?><!DOCTYPE svg PUBLIC "-//W3C//DTD SVG 1.1//EN" "http://www.w3.org/Graphics/SVG/1.1/DTD/svg11.dtd"><svg t="1704331769855" class="icon" viewBox="0 0 1024 1024" version="1.1" xmlns="http://www.w3.org/2000/svg" p-id="15971" xmlns:xlink="http://www.w3.org/1999/xlink" width="200" height="200"><path d="M117.76 675.84v209.92a20.48 20.48 0 0 0 19.456 20.4544l1.024 0.0256h209.91488v61.44H138.24c-45.24544 0-81.92-36.67456-81.92-81.92v-209.92h61.44z m849.92 0v209.92c0 45.24544-36.67456 81.92-81.92 81.92h-209.92512v-61.44H885.76a20.48 20.48 0 0 0 20.4544-19.456l0.0256-1.024v-209.92h61.44zM348.16 56.32v61.44H138.24a20.48 20.48 0 0 0-20.4544 19.456L117.76 138.24v209.92H56.32V138.24c0-45.24544 36.67456-81.92 81.92-81.92h209.92z m537.6 0c45.24544 0 81.92 36.67456 81.92 81.92v209.92h-61.44V138.24a20.48 20.48 0 0 0-19.456-20.4544L885.76 117.76h-209.92V56.32h209.92z" p-id="15972"></path><path d="M10.24 481.28m30.72 0l942.08 0q30.72 0 30.72 30.72l0 0q0 30.72-30.72 30.72l-942.08 0q-30.72 0-30.72-30.72l0 0q0-30.72 30.72-30.72Z" p-id="15973"></path></svg>