<?xml version="1.0" standalone="no"?><!DOCTYPE svg PUBLIC "-//W3C//DTD SVG 1.1//EN" "http://www.w3.org/Graphics/SVG/1.1/DTD/svg11.dtd"><svg t="1694769486532" class="icon" viewBox="0 0 1024 1024" version="1.1" xmlns="http://www.w3.org/2000/svg" p-id="6556" xmlns:xlink="http://www.w3.org/1999/xlink" width="200" height="200"><path d="M0 0m64 0l896 0q64 0 64 64l0 896q0 64-64 64l-896 0q-64 0-64-64l0-896q0-64 64-64Z" p-id="6557"></path><path d="M398 325.992C398 388.405 448.592 439 511 439s113-50.595 113-113.008C624 263.588 573.415 213 511.016 213c-62.4 0-112.984 50.588-112.984 112.992H398zM407.9 618.738c-20.149-34.993-57.492-56.572-97.924-56.587-40.368 0.137-77.617 21.698-97.789 56.604a112.97 112.97 0 0 0-0.134 112.841c20.156 34.98 57.497 56.547 97.923 56.555 19.232 0 38.463-4.783 56.34-15.106 26.02-14.95 45.021-39.611 52.82-68.552a112.78 112.78 0 0 0-11.237-85.755zM769.343 577.222a111.978 111.978 0 0 0-56.274-15.102c-40.437-0.064-77.798 21.545-97.864 56.602a112.686 112.686 0 0 0-11.296 85.752 112.849 112.849 0 0 0 52.824 68.543 111.977 111.977 0 0 0 56.336 15.103c40.426 0.052 77.773-21.555 97.833-56.603a112.78 112.78 0 0 0 11.258-85.742 112.943 112.943 0 0 0-52.786-68.553h-0.031zM683.358 528.302a149.166 149.166 0 0 1 82.262 6.208c-6.448-73.628-44.69-140.802-104.755-184a150.512 150.512 0 0 1-35.245 75.26 171.39 171.39 0 0 1 57.738 102.532zM310.137 525.198c10.372 0 20.395 1.013 30.417 3.104a175.04 175.04 0 0 1 57.726-102.88 150.94 150.94 0 0 1-35.27-74.912c-60.05 43.198-98.285 110.372-104.73 184a156.33 156.33 0 0 1 51.857-9.312zM569.124 722.032a175.418 175.418 0 0 1-57.64 10.03 166.884 166.884 0 0 1-57.64-10.03A149.847 149.847 0 0 1 409 791.226 254.462 254.462 0 0 0 511.484 813c36.579 0 71.1-7.935 102.516-21.806A149.847 149.847 0 0 1 569.124 722v0.032z" fill="#FFFFFF" p-id="6558"></path></svg>