<?xml version="1.0" standalone="no"?><!DOCTYPE svg PUBLIC "-//W3C//DTD SVG 1.1//EN" "http://www.w3.org/Graphics/SVG/1.1/DTD/svg11.dtd"><svg class="icon" width="200px" height="200.00px" viewBox="0 0 1024 1024" version="1.1" xmlns="http://www.w3.org/2000/svg"><path d="M613.437 73.708v130.775l36.363 16.256a318.735 318.735 0 0 1 43.35 23.577l32.687 21.223 33.126-20.521 76.734-47.54 103.726 167.43-74.747 46.3-33.592 20.807 5.002 39.2c1.812 14.222 2.693 27.565 2.693 40.79a324.25 324.25 0 0 1-2.693 40.786l-5.002 39.194 33.587 20.807 74.752 46.306-103.721 167.429-76.739-47.54-33.126-20.52-32.681 21.217a319.621 319.621 0 0 1-43.361 23.577l-36.358 16.262v130.77h-196.95v-133.93l-34.78-16.747a319.114 319.114 0 0 1-39.22-22.482l-32.901-22.072-33.68 20.864-81.679 50.6L90.511 659.104l83.743-51.881 33.05-20.475-4.352-38.63c-1.393-12.37-2.1-24.52-2.1-36.117s0.707-23.747 2.1-36.116l4.352-38.63-33.05-20.476-83.748-51.876 103.716-167.429 81.68 50.596 33.669 20.859 32.9-22.057a318.853 318.853 0 0 1 39.215-22.467l34.8-16.742V73.708h196.951m61.44-61.44h-319.83v156.774a379.725 379.725 0 0 0-46.792 26.798l-133.909-82.954L5.92 384.778l135.972 84.23A383.258 383.258 0 0 0 139.407 512c0 14.54 0.896 28.872 2.484 42.988L5.919 639.227l168.427 271.887 133.909-82.954a379.791 379.791 0 0 0 46.791 26.808v156.764h319.831V859.346a380.221 380.221 0 0 0 51.728-28.13l128.967 79.893L1024 639.227l-126.976-78.664c2.028-15.908 3.19-32.097 3.19-48.558a383.744 383.744 0 0 0-3.19-48.563L1024 384.778 855.567 112.886l-128.962 79.897a379.085 379.085 0 0 0-51.728-28.134V12.268z"  /><path d="M512 389.12c67.753 0 122.88 55.122 122.88 122.88 0 67.753-55.127 122.88-122.88 122.88-67.758 0-122.88-55.127-122.88-122.88 0-67.758 55.122-122.88 122.88-122.88m0-61.44c-101.796 0-184.32 82.524-184.32 184.32 0 101.801 82.524 184.32 184.32 184.32 101.801 0 184.32-82.519 184.32-184.32 0-101.796-82.519-184.32-184.32-184.32z"  /></svg>