<?xml version="1.0" standalone="no"?><!DOCTYPE svg PUBLIC "-//W3C//DTD SVG 1.1//EN" "http://www.w3.org/Graphics/SVG/1.1/DTD/svg11.dtd"><svg class="icon" width="200px" height="200.00px" viewBox="0 0 1024 1024" version="1.1" xmlns="http://www.w3.org/2000/svg"><path d="M872.886857 150.162286a511.561143 511.561143 0 0 0-722.724571 0 511.561143 511.561143 0 0 0 0 722.724571 511.561143 511.561143 0 0 0 722.724571 0 511.561143 511.561143 0 0 0 0-722.724571z m-51.858286 670.866285a438.125714 438.125714 0 0 1-619.008 0 438.125714 438.125714 0 0 1 0-619.008 438.198857 438.198857 0 0 1 619.008 0 438.272 438.272 0 0 1 0 619.008z"  /><path d="M765.366857 522.971429H515.657143V246.784a33.353143 33.353143 0 0 0-66.56 0V531.748571c0 0.950857-1.243429 24.795429 14.628571 41.691429 10.093714 10.752 24.283429 16.091429 42.642286 16.091429l258.998857 0.073142a33.353143 33.353143 0 0 0 0-66.56z"  /></svg>