<?xml version="1.0" encoding="UTF-8"?>
<svg width="192px" height="175px" viewBox="0 0 192 175" version="1.1" xmlns="http://www.w3.org/2000/svg" xmlns:xlink="http://www.w3.org/1999/xlink">
    <title>  </title>
    <g id="页面-2" stroke="none" stroke-width="1" fill="none" fill-rule="evenodd">
        <g id="xx雨花区数据中枢-首页）" transform="translate(-639.000000, -831.000000)" fill="#1890FF" fill-rule="nonzero">
            <g id="通知" transform="translate(639.000000, 831.000000)">
                <path d="M99.666828,3.8604992 C97.374911,1.4672207 94.329903,0.2294964 91.2595532,0.1630709 C88.1892039,0.0966455 85.0935141,1.2015188 82.7002356,3.4934355 L33.7026246,50.4151799 L12.0001426,50.4156957 C8.6862915,50.4156957 5.6862915,51.7588414 3.5147186,53.9304143 C1.34314575,56.1019872 0,59.1019872 0,62.4156957 L0,112.415696 C0,115.729404 1.34314575,118.729404 3.5147186,120.900977 C5.6862915,123.07255 8.6862915,124.415696 12,124.415696 L33.9570161,124.415181 L82.7340029,170.764635 C84.9642832,172.8839 87.9233791,174.065596 91,174.065596 C94.313708,174.065596 97.313708,172.72245 99.485281,170.550877 C101.656854,168.379304 103,165.379304 103,162.065596 L103,12.1602636 C103,9.0675179 101.805917,6.0941905 99.666828,3.8604992 Z" id="形状结合"></path>
                <path d="M122.515151,42.6846975 C124.917205,39.6554991 129.320104,39.1470976 132.349303,41.5491511 L132.563081,41.7218575 C132.802243,41.9180789 133.116638,42.1847125 133.497996,42.5205657 C134.297713,43.2248574 135.176039,44.0457875 136.113301,44.9808222 C138.756494,47.617735 141.388291,50.6741716 143.847847,54.134615 C150.967927,64.1521287 155.284444,75.5256416 155.284444,88.027037 C155.284444,103.92582 148.201154,120.053704 133.066549,135.929123 C130.398946,138.7273 125.968055,138.833152 123.169877,136.165549 C120.3717,133.497946 120.265848,129.067055 122.933451,126.268877 C135.689957,112.887962 141.284444,100.149921 141.284444,88.027037 C141.284444,78.7338028 137.994295,70.0646491 132.436598,62.245311 C130.458931,59.4628561 128.336561,56.9980428 126.225588,54.8920852 C125.602705,54.2706824 125.023845,53.7240455 124.501565,53.2550445 L124.104176,52.9035668 L123.650697,52.5188489 C120.621499,50.1167955 120.113098,45.7138959 122.515151,42.6846975 Z" id="路径"></path>
                <path d="M151.012578,23.9135516 C153.462208,20.9226965 157.872593,20.4839473 160.863448,22.9335778 L161.324919,23.3228376 C161.553893,23.5202668 161.827833,23.7615985 162.143354,24.0462906 L162.337629,24.2223047 C163.396775,25.1857392 164.5642,26.3127513 165.812741,27.5992784 C169.344316,31.2382999 172.863995,35.4602665 176.151015,40.2369413 C185.620563,53.9980227 191.340889,69.5658812 191.340889,86.6128519 C191.340889,108.364722 181.909666,130.544355 161.57181,152.57876 C158.949694,155.419607 154.521088,155.596925 151.68024,152.97481 C148.839393,150.352694 148.662075,145.924088 151.28419,143.08324 C169.326556,123.535811 177.340889,104.688315 177.340889,86.6128519 C177.340889,72.6830077 172.593881,59.7640329 164.617874,48.173355 C161.79895,44.0769141 158.776545,40.4514431 155.766037,37.349342 C154.724849,36.2764762 153.766096,35.3509127 152.917134,34.5786686 L152.271836,34.0025865 L151.992552,33.7644222 C149.001697,31.3147917 148.562947,26.9044067 151.012578,23.9135516 Z" id="路径"></path>
            </g>
        </g>
    </g>
</svg>