<svg t="1678868125239" class="icon" viewBox="0 0 1024 1024" version="1.1" xmlns="http://www.w3.org/2000/svg" p-id="3947" width="200" height="200"><path d="M561.4592 88.064a18.5344 18.5344 0 0 0-11.4688 17.1008v367.3088a18.5344 18.5344 0 0 0 18.6368 18.5344h367.2064a18.5344 18.5344 0 0 0 13.1072-31.6416L581.7344 92.0576a18.5344 18.5344 0 0 0-20.2752-4.096zM443.904 968.0896L76.5952 600.7808a18.5344 18.5344 0 0 1 13.1072-31.744h367.3088a18.5344 18.5344 0 0 1 18.5344 18.6368v367.3088a18.5344 18.5344 0 0 1-31.6416 13.1072z" p-id="3948"></path></svg>