<?xml version="1.0" standalone="no"?><!DOCTYPE svg PUBLIC "-//W3C//DTD SVG 1.1//EN" "http://www.w3.org/Graphics/SVG/1.1/DTD/svg11.dtd"><svg t="1692950446183" class="icon" viewBox="0 0 1024 1024" version="1.1" xmlns="http://www.w3.org/2000/svg" p-id="11688" xmlns:xlink="http://www.w3.org/1999/xlink" width="200" height="200"><path d="M510.914307 222.822502a93.177997 93.177997 0 0 1 36.530373 178.883872v240.001996a36.466509 36.466509 0 1 1-72.996882 0L474.383934 401.706374A93.241861 93.241861 0 0 1 510.914307 222.886366zM773.141075 157.936385c20.117251 0 36.466509 16.349258 36.466509 36.530373l0.063864 304.824249a93.241861 93.241861 0 1 1-73.12461 0l0.063864-304.824249c0-20.181115 16.349258-36.530373 36.530373-36.530373z" p-id="11689"></path><path d="M248.687539 157.936385c20.181115 0 36.530373 16.349258 36.530373 36.530373v137.946863a93.241861 93.241861 0 0 1 0 171.41175v137.946863a36.466509 36.466509 0 1 1-72.996882 0l-0.063864-137.946863a93.241861 93.241861 0 0 1 0-171.475614v-137.946863c0-20.117251 16.413122-36.402644 36.530373-36.402645z" p-id="11690"></path><path d="M957.964326 0a63.864288 63.864288 0 0 1 63.864288 63.864288v708.446551a63.864288 63.864288 0 0 1-63.864288 63.864289H63.864288a63.864288 63.864288 0 0 1-63.864288-63.864289V63.864288a63.864288 63.864288 0 0 1 63.864288-63.864288h894.100038z m0 63.864288H63.864288v708.446551h894.100038V63.864288zM839.368342 946.724211a38.637894 38.637894 0 0 1 0 77.275789H182.460272a38.637894 38.637894 0 1 1 0-77.275789h656.90807z" p-id="11691"></path></svg>