<?xml version="1.0" standalone="no"?><!DOCTYPE svg PUBLIC "-//W3C//DTD SVG 1.1//EN" "http://www.w3.org/Graphics/SVG/1.1/DTD/svg11.dtd"><svg t="1691398079090" class="icon" viewBox="0 0 1024 1024" version="1.1" xmlns="http://www.w3.org/2000/svg" p-id="6045" xmlns:xlink="http://www.w3.org/1999/xlink" width="200" height="200"><path d="M379.45344 440.576h-296.96c-33.792 0-61.44-27.648-61.44-61.44v-296.96c0-33.792 27.648-61.44 61.44-61.44h296.96c33.792 0 61.44 27.648 61.44 61.44v296.96c0 33.792-27.648 61.44-61.44 61.44z m-286.72-348.16v276.48h276.48v-276.48h-276.48z m844.8 348.16h-296.96c-33.792 0-61.44-27.648-61.44-61.44v-296.96c0-33.792 27.648-61.44 61.44-61.44h296.96c33.792 0 61.44 27.648 61.44 61.44v296.96c0 33.792-27.648 61.44-61.44 61.44z m-286.72-348.16v276.48h276.48v-276.48h-276.48z m-271.36 906.24h-296.96c-33.792 0-61.44-27.648-61.44-61.44v-296.96c0-33.792 27.648-61.44 61.44-61.44h296.96c33.792 0 61.44 27.648 61.44 61.44v296.96c0 33.792-27.648 61.44-61.44 61.44z m-286.72-348.16v276.48h276.48v-276.48h-276.48z m844.8 348.16h-296.96c-33.792 0-61.44-27.648-61.44-61.44v-296.96c0-33.792 27.648-61.44 61.44-61.44h296.96c33.792 0 61.44 27.648 61.44 61.44v296.96c0 33.792-27.648 61.44-61.44 61.44z m-286.72-348.16v276.48h276.48v-276.48h-276.48z" fill="#000000" p-id="6046"></path></svg>