<?xml version="1.0" standalone="no"?><!DOCTYPE svg PUBLIC "-//W3C//DTD SVG 1.1//EN" "http://www.w3.org/Graphics/SVG/1.1/DTD/svg11.dtd"><svg class="icon" width="200px" height="200.00px" viewBox="0 0 1024 1024" version="1.1" xmlns="http://www.w3.org/2000/svg"><path d="M512 1024c-282.368 0-512-229.632-512-512s229.632-512 512-512 512 229.632 512 512-229.632 512-512 512zM512 62.08A450.24 450.24 0 0 0 62.08 512 450.24 450.24 0 0 0 512 961.92 450.24 450.24 0 0 0 961.92 512 450.24 450.24 0 0 0 512 62.08z"  /><path d="M475.776 403.392h73.152v331.008H475.776V403.392z m0-134.464h73.152v67.2H475.776v-67.2z"  /></svg>