<?xml version="1.0" standalone="no"?><!DOCTYPE svg PUBLIC "-//W3C//DTD SVG 1.1//EN" "http://www.w3.org/Graphics/SVG/1.1/DTD/svg11.dtd"><svg t="1685954182223" class="icon" viewBox="0 0 1024 1024" version="1.1" xmlns="http://www.w3.org/2000/svg" p-id="15393" xmlns:xlink="http://www.w3.org/1999/xlink" width="200" height="200"><path d="M906.662 151.432L531.998 2.53a34.816 34.816 0 0 0-25.42 0L113.243 151.07a35.66 35.66 0 0 0-22.829 33.13v414.358c0 56.26 22.83 111.857 67.765 165.226 33.912 40.297 80.715 79.51 138.902 116.434a1125.316 1125.316 0 0 0 197.21 98.184 33.556 33.556 0 0 0 11.988 2.169h0.843c4.156 0 8.252-0.603 12.167-1.868A1153.867 1153.867 0 0 0 719.21 880.52c59.031-36.985 106.436-75.957 141.071-116.255C905.94 710.716 929.13 655 929.13 598.68V184.5a35.24 35.24 0 0 0-22.468-33.07z m-48.37 447.126c0 91.678-95.593 170.888-175.886 221.244a1083.633 1083.633 0 0 1-175.707 87.763 1070.26 1070.26 0 0 1-171.851-86.739C256.06 770.47 162.153 691.26 162.153 598.558V208.655l356.593-135.65 339.607 135.048v390.505h-0.06z" p-id="15394"></path><path d="M735.5 701v-51h-144V258.5H539V650h-55V258.5h-52.5V650h-143v51h447z m-374-109l47.5-11.5c-19.5-86-42-162.5-67-229l-44.5 15c26 72.5 47 147.5 64 225.5z m292.5-1.5c29-64 53-139 72-224.5l-46-13c-21 89-45 163-73 221l47 16.5z" p-id="15395"></path></svg>