<?xml version="1.0" encoding="UTF-8"?>
<svg width="48px" height="48px" viewBox="0 0 48 48" version="1.1" xmlns="http://www.w3.org/2000/svg" xmlns:xlink="http://www.w3.org/1999/xlink">
    <title>  </title>
    <g id="页面-2" stroke="none" stroke-width="1" fill="none" fill-rule="evenodd">
        <g id="长沙雨花区数据中枢-首页）" transform="translate(-120.000000, -1023.000000)">
            <g id="编组-35" transform="translate(80.000000, 932.000000)">
                <g id="编组-22" transform="translate(20.000000, 71.000000)">
                    <g id="编组-15" transform="translate(20.000000, 14.000000)">
                        <g id="编组-3" transform="translate(0.000000, 6.000000)">
                            <rect id="矩形-78" fill="#3E75FF" fill-rule="nonzero" opacity="0.08" x="0" y="0" width="48" height="48" rx="3"></rect>
                            <g id="编组-16" transform="translate(12.000000, 12.000000)" fill="#3C7CFF">
                                <path d="M17.125,0 C18.2295695,1.53715886e-15 19.125,0.8954305 19.125,2 L19.125,3.45454545 C19.125,4.55911495 18.2295695,5.45454545 17.125,5.45454545 L2,5.45454545 C0.8954305,5.45454545 4.03753542e-16,4.55911495 0,3.45454545 L0,2 C-3.57315355e-16,0.8954305 0.8954305,-1.91384796e-17 2,0 L17.125,0 Z M1.9125,1.36363636 C1.64843885,1.36363636 1.434375,1.57770022 1.434375,1.84176136 L1.434375,1.84176136 L1.434375,3.61278409 C1.434375,3.87684524 1.64843885,4.09090909 1.9125,4.09090909 C2.17656115,4.09090909 2.390625,3.87684524 2.390625,3.61278409 L2.390625,3.61278409 L2.390625,1.84176136 C2.390625,1.57770022 2.17656115,1.36363636 1.9125,1.36363636 Z M4.303125,1.36363636 C4.03906385,1.36363636 3.825,1.57770022 3.825,1.84176136 L3.825,1.84176136 L3.825,3.61278409 C3.825,3.87684524 4.03906385,4.09090909 4.303125,4.09090909 C4.56718615,4.09090909 4.78125,3.87684524 4.78125,3.61278409 L4.78125,3.61278409 L4.78125,1.84176136 C4.78125,1.57770022 4.56718615,1.36363636 4.303125,1.36363636 Z" id="形状结合"></path>
                                <path d="M11.5,8.18181818 C12.6045695,8.18181818 13.5,9.07724868 13.5,10.1818182 L13.5,11.6363636 C13.5,12.7409331 12.6045695,13.6363636 11.5,13.6363636 L2,13.6363636 C0.8954305,13.6363636 1.3527075e-16,12.7409331 0,11.6363636 L0,10.1818182 C-1.3527075e-16,9.07724868 0.8954305,8.18181818 2,8.18181818 L11.5,8.18181818 Z M1.9125,9.54545455 C1.64843885,9.54545455 1.434375,9.7595184 1.434375,10.0235795 L1.434375,10.0235795 L1.434375,11.7946023 C1.434375,12.0586634 1.64843885,12.2727273 1.9125,12.2727273 C2.17656115,12.2727273 2.390625,12.0586634 2.390625,11.7946023 L2.390625,11.7946023 L2.390625,10.0235795 C2.390625,9.7595184 2.17656115,9.54545455 1.9125,9.54545455 Z M4.303125,9.54545455 C4.03906385,9.54545455 3.825,9.7595184 3.825,10.0235795 L3.825,10.0235795 L3.825,11.7946023 C3.825,12.0586634 4.03906385,12.2727273 4.303125,12.2727273 C4.56718615,12.2727273 4.78125,12.0586634 4.78125,11.7946023 L4.78125,11.7946023 L4.78125,10.0235795 C4.78125,9.7595184 4.56718615,9.54545455 4.303125,9.54545455 Z" id="形状结合备份"></path>
                                <path d="M17.125,15.8181818 C18.2295695,15.8181818 19.125,16.7136123 19.125,17.8181818 L19.125,19.2727273 C19.125,20.3772968 18.2295695,21.2727273 17.125,21.2727273 L2,21.2727273 C0.8954305,21.2727273 4.03753542e-16,20.3772968 0,19.2727273 L0,17.8181818 C-3.57315355e-16,16.7136123 0.8954305,15.8181818 2,15.8181818 L17.125,15.8181818 Z M1.9125,17.1818182 C1.64843885,17.1818182 1.434375,17.395882 1.434375,17.6599432 L1.434375,17.6599432 L1.434375,19.4309659 C1.434375,19.6950271 1.64843885,19.9090909 1.9125,19.9090909 C2.17656115,19.9090909 2.390625,19.6950271 2.390625,19.4309659 L2.390625,19.4309659 L2.390625,17.6599432 C2.390625,17.395882 2.17656115,17.1818182 1.9125,17.1818182 Z M4.303125,17.1818182 C4.03906385,17.1818182 3.825,17.395882 3.825,17.6599432 L3.825,17.6599432 L3.825,19.4309659 C3.825,19.6950271 4.03906385,19.9090909 4.303125,19.9090909 C4.56718615,19.9090909 4.78125,19.6950271 4.78125,19.4309659 L4.78125,19.4309659 L4.78125,17.6599432 C4.78125,17.395882 4.56718615,17.1818182 4.303125,17.1818182 Z" id="形状结合备份-2"></path>
                                <path d="M19.6288486,9.85416718 C21.2698169,10.4614425 22.6416644,11.5947274 23.529565,13.0394889 C24.225462,14.1718287 24.625,15.4952324 24.625,16.9090909 C24.625,18.9961423 23.7550945,20.8871056 22.3441166,22.2553266 C20.9444476,23.6125814 19.0115,24.4545455 16.875,24.4545455 C14.7385,24.4545455 12.8055524,23.6125814 11.4058834,22.2553266 C9.99490546,20.8871056 9.125,18.9961423 9.125,16.9090909 C9.125,15.4952324 9.52453798,14.1718287 10.220435,13.0394889 C11.1083356,11.5947274 12.4801831,10.4614425 14.1211514,9.85416718 L14.1211514,9.85416718 L16.875,15.194685 Z" id="形状结合" stroke="#F2F6FE" stroke-width="2"></path>
                            </g>
                        </g>
                    </g>
                </g>
            </g>
        </g>
    </g>
</svg>