<?xml version="1.0" standalone="no"?><!DOCTYPE svg PUBLIC "-//W3C//DTD SVG 1.1//EN" "http://www.w3.org/Graphics/SVG/1.1/DTD/svg11.dtd"><svg class="icon" width="200px" height="200.00px" viewBox="0 0 1024 1024" version="1.1" xmlns="http://www.w3.org/2000/svg"><path d="M997.13024 454.07232c31.99488 31.99488 31.99488 83.8656 0 115.85536l-123.08992 123.08992c-31.99488 31.99488-83.8656 31.99488-115.85536 0l-123.08992-123.08992c-31.99488-31.99488-31.99488-83.8656 0-115.85536l123.08992-123.08992c31.99488-31.99488 83.8656-31.99488 115.85536 0l123.08992 123.08992z m-43.4432 43.44832L830.592 374.4256a20.48 20.48 0 0 0-28.22144-0.70656l-0.73728 0.70656-123.09504 123.09504a20.48 20.48 0 0 0-0.70656 28.22144l0.70656 0.73728 123.09504 123.09504a20.48 20.48 0 0 0 28.22144 0.70656l0.73728-0.70656 123.09504-123.09504a20.48 20.48 0 0 0 0.70656-28.22144l-0.70656-0.73728zM693.0176 758.18496c31.99488 31.99488 31.99488 83.8656 0 115.85536l-123.08992 123.08992c-31.99488 31.99488-83.8656 31.99488-115.85536 0l-123.08992-123.08992c-31.99488-31.99488-31.99488-83.8656 0-115.85536l123.08992-123.08992c31.99488-31.99488 83.8656-31.99488 115.85536 0l123.08992 123.08992z m-43.4432 43.44832l-123.09504-123.09504a20.48 20.48 0 0 0-28.22144-0.70656l-0.73728 0.70656-123.09504 123.09504a20.48 20.48 0 0 0-0.70656 28.22144l0.70656 0.73728 123.09504 123.09504a20.48 20.48 0 0 0 28.22144 0.70656l0.73728-0.70656 123.09504-123.09504a20.48 20.48 0 0 0 0.70656-28.22144l-0.70656-0.73728zM693.0176 149.9648c31.99488 31.98976 31.99488 83.85536 0 115.85024l-123.08992 123.08992c-31.99488 31.99488-83.8656 31.99488-115.85536 0L330.9824 265.81504c-31.99488-31.99488-31.99488-83.8656 0-115.85536L454.07232 26.86976c31.99488-31.99488 83.8656-31.99488 115.85536 0l123.08992 123.08992z m-43.4432 43.4432l-123.09504-123.09504a20.48 20.48 0 0 0-28.22144-0.70656l-0.73728 0.70656L374.4256 193.408a20.48 20.48 0 0 0-0.70656 28.22144l0.70656 0.73728 123.09504 123.09504a20.48 20.48 0 0 0 28.22144 0.70656l0.73728-0.70656 123.09504-123.09504a20.48 20.48 0 0 0 0.70656-28.22144l-0.70656-0.73728zM388.90496 454.07232c31.99488 31.99488 31.99488 83.8656 0 115.85536l-123.08992 123.08992c-31.99488 31.99488-83.8656 31.99488-115.85536 0L26.86976 569.92768c-31.99488-31.99488-31.99488-83.8656 0-115.85536l123.08992-123.08992c31.99488-31.99488 83.8656-31.99488 115.85536 0l123.08992 123.08992z m-43.4432 43.44832L222.36672 374.4256a20.48 20.48 0 0 0-28.22144-0.70656l-0.73728 0.70656-123.09504 123.09504a20.48 20.48 0 0 0-0.70656 28.22144l0.70656 0.73728 123.09504 123.09504a20.48 20.48 0 0 0 28.22144 0.70656l0.73728-0.70656 123.09504-123.09504a20.48 20.48 0 0 0 0.70656-28.22144l-0.70656-0.73728z" /></svg>