<?xml version="1.0" encoding="UTF-8"?>
<svg width="24px" height="24px" viewBox="0 0 24 24" version="1.1" xmlns="http://www.w3.org/2000/svg" xmlns:xlink="http://www.w3.org/1999/xlink">
    <title>人logo</title>
    <g id="页面-1" stroke="none" stroke-width="1" fill="none" fill-rule="evenodd">
        <g id="查看任务2" transform="translate(-797.000000, -527.000000)">
            <g id="流程图名称" transform="translate(592.000000, 527.000000)">
                <g id="人logo" transform="translate(205.000000, 0.000000)">
                    <circle id="椭圆形" stroke-opacity="0.45" stroke="#000000" cx="12" cy="12" r="11.5"></circle>
                    <g id="yonghu" transform="translate(6.000000, 6.000000)" fill="#000000" fill-opacity="0.65" fill-rule="nonzero">
                        <path d="M6.09188571,0.728512712 C7.67856,0.728512712 8.96941714,2.00491949 8.96941714,3.57386864 C8.96941714,5.14275 7.67856,6.41929237 6.09181714,6.41929237 C5.68107429,6.41929237 5.28438857,6.33569915 4.91355429,6.17122458 C3.88134857,5.71244492 3.21428571,4.69305508 3.21428571,3.57380085 C3.21428571,2.00485169 4.50514286,0.728512712 6.09181714,0.728512712 M6.09181714,0.0020720339 C4.09659429,0.0020720339 2.47961143,1.60119068 2.47961143,3.57380085 C2.47961143,5.02505508 3.35513143,6.27508898 4.61232,6.83373305 C5.07762106,7.03998996 5.58189122,7.14628548 6.09181714,7.14560078 C8.08772571,7.14560078 9.70409143,5.54607203 9.70409143,3.57380085 C9.70409143,1.60119068 8.08772571,0.0020720339 6.09181714,0.0020720339 L6.09181714,0.0020720339 Z" id="形状"></path>
                        <path d="M6,7.15644492 C8.83885714,7.15644492 11.1504,9.30017373 11.2590857,11.9839025 L12,11.9839025 C11.8909029,8.90973305 9.24809143,6.44946186 6,6.44946186 C2.75314286,6.44946186 0.109165714,8.90973305 0,11.9839025 L0.740982857,11.9839025 C0.849668571,9.30010593 3.16203429,7.15637712 6,7.15637712 L6,7.15644492 Z" id="路径"></path>
                    </g>
                </g>
            </g>
        </g>
    </g>
</svg>