<svg xmlns="http://www.w3.org/2000/svg" xmlns:xlink="http://www.w3.org/1999/xlink" fill="none" version="1.1" width="391.9921875" height="200" viewBox="0 0 391.9921875 200"><defs><clipPath id="master_svg0_12_999"><rect x="0" y="0" width="391.9921875" height="200" rx="0"/></clipPath></defs><g clip-path="url(#master_svg0_12_999)"><g><path d="M195.288,0C247.672,0,292.288,33.256,309.176,79.804L330.958,79.804C334.847,79.804,338,82.9568,338,86.846C338,90.7352,334.847,93.888,330.958,93.888L313.334,93.888C315.242,102.207,316.267,110.704,316.392,119.238L353.492,119.238C357.381,119.238,360.534,122.391,360.534,126.28C360.534,130.169,357.381,133.322,353.492,133.322L315.798,133.322C315.325,138.057,314.572,142.76,313.544,147.406L330.488,147.406C335.009,147.406,338.507,151.37,337.942,155.856L368.982,155.856C380.91,155.856,390.578,165.524,390.578,177.45C390.578,189.376,380.91,199.044,368.984,199.044L21.594,199.044C9.668,199.044,0,189.376,0,177.45C0,165.524,9.668,155.856,21.594,155.856L52.636,155.856C52.0722,151.37,55.5681,147.406,60.088,147.406L77.032,147.406C74.8531,137.547,73.9111,127.454,74.228,117.362L37.086,117.362C33.1968,117.362,30.044,114.209,30.044,110.32C30.044,106.431,33.1968,103.278,37.086,103.278L75.478,103.278C84.1,44.846,134.458,0,195.288,0Z" fill="#126EE3" fill-opacity="0.07999999821186066"/></g><g><path d="M280.7279984741211,181.20499096679688Q280.7279984741211,181.34328096679687,280.62499847412107,181.48139096679688Q280.5219984741211,181.61951096679687,280.3169984741211,181.75712096679686Q280.11099847412106,181.8947409667969,279.80299847412107,182.03153096679688Q279.49599847412105,182.16831096679687,279.0859984741211,182.3039409667969Q278.6769984741211,182.43956096679688,278.1679984741211,182.57370096679688Q277.6579984741211,182.70784096679688,277.0489984741211,182.84017096679688Q276.4399984741211,182.97250096679687,275.7339984741211,183.10269096679687Q275.0269984741211,183.23289096679687,274.2239984741211,183.36065096679687Q273.4219984741211,183.48841096679686,272.5249984741211,183.61341096679686Q271.6279984741211,183.73842096679687,270.6389984741211,183.86037096679686Q269.6509984741211,183.98233096679687,268.5719984741211,184.10093096679688Q267.4939984741211,184.21954096679687,266.32899847412114,184.33452096679687Q265.16399847412106,184.44950096679688,263.91399847412106,184.5605709667969Q262.6649984741211,184.67164096679687,261.33399847412113,184.77853096679686Q260.0039984741211,184.8854309667969,258.5949984741211,184.98789096679687Q257.1869984741211,185.09035096679688,255.7039984741211,185.18813096679688Q254.2199984741211,185.28591096679688,252.6659984741211,185.37877096679688Q251.1119984741211,185.47164096679688,249.49099847412108,185.55936096679687Q247.8699984741211,185.64709096679687,246.1849984741211,185.72949096679687Q244.4999984741211,185.81179096679688,242.7559984741211,185.88869096679687Q241.0119984741211,185.96549096679686,239.2129984741211,186.03659096679687Q237.4139984741211,186.10769096679687,235.5649984741211,186.17289096679687Q233.7149984741211,186.23809096679688,231.8189984741211,186.29719096679688Q229.92299847412107,186.35629096679688,227.98499847412108,186.40919096679687Q226.0469984741211,186.46209096679686,224.0729984741211,186.50869096679688Q222.09799847412108,186.55529096679686,220.09099847412108,186.59539096679688Q218.08399847412107,186.63559096679688,216.0489984741211,186.66919096679686Q214.01399847412108,186.70279096679687,211.9569984741211,186.72979096679688Q209.8999984741211,186.75669096679687,207.8254984741211,186.7769909667969Q205.7507984741211,186.79729096679688,203.6634984741211,186.81089096679688Q201.5761984741211,186.82439096679687,199.4812984741211,186.83119096679687Q197.3863984741211,186.83799096679687,195.2889984741211,186.83799096679687Q193.1915984741211,186.83799096679687,191.0966984741211,186.83119096679687Q189.00179847412107,186.82439096679687,186.9144984741211,186.81089096679688Q184.82719847412108,186.79729096679688,182.7524984741211,186.7769909667969Q180.6777984741211,186.75669096679687,178.6206984741211,186.72979096679688Q176.56359847412108,186.70279096679687,174.5289984741211,186.66919096679686Q172.4944984741211,186.63559096679688,170.4873984741211,186.5954909667969Q168.4802984741211,186.55529096679686,166.5054984741211,186.50869096679688Q164.5306984741211,186.46209096679686,162.59289847412109,186.40919096679687Q160.6551984741211,186.35629096679688,158.7590984741211,186.29719096679688Q156.8630984741211,186.23809096679688,155.0132984741211,186.17289096679687Q153.1635984741211,186.10769096679687,151.3645984741211,186.03659096679687Q149.5655984741211,185.96549096679686,147.8215984741211,185.88869096679687Q146.0776984741211,185.81179096679688,144.3929984741211,185.72949096679687Q142.7083984741211,185.64709096679687,141.0870984741211,185.55936096679687Q139.4657984741211,185.47164096679688,137.9116984741211,185.37877096679688Q136.3575984741211,185.28591096679688,134.87449847412108,185.18813096679688Q133.3913984741211,185.09035096679688,131.9828984741211,184.98789096679687Q130.5742984741211,184.8854309667969,129.2437984741211,184.77853096679686Q127.91319847412109,184.67164096679687,126.6637984741211,184.5605709667969Q125.4142984741211,184.44950096679688,124.2490984741211,184.33452096679687Q123.0837984741211,184.21954096679687,122.0054984741211,184.10093096679688Q120.9271984741211,183.98233096679687,119.93849847412109,183.86037096679686Q118.94981847412109,183.73842096679687,118.05305847412109,183.61341096679686Q117.15629847412109,183.48841096679686,116.35365847412109,183.36065096679687Q115.55100847412109,183.23289096679687,114.8444184741211,183.10269096679687Q114.13781847412109,182.97250096679687,113.5289684741211,182.84017096679688Q112.9201284741211,182.70784096679688,112.4104984741211,182.57370096679688Q111.9008684741211,182.43956096679688,111.49168847412109,182.3039409667969Q111.0824984741211,182.16831096679687,110.77474647412109,182.03153096679688Q110.4669924741211,181.8947409667969,110.26141047412109,181.75712096679686Q110.0558284741211,181.61951096679687,109.95291347412109,181.48139096679688Q109.8499984741211,181.34328096679687,109.8499984741211,181.20499096679688Q109.8499984741211,181.06671096679688,109.95291347412109,180.9285909667969Q110.0558284741211,180.79048096679688,110.26141047412109,180.65286096679688Q110.4669924741211,180.51525096679688,110.77474647412109,180.37846096679687Q111.0824984741211,180.24167096679687,111.49168847412109,180.1060509667969Q111.9008684741211,179.97042096679687,112.4104984741211,179.83628096679686Q112.9201284741211,179.70215096679686,113.5289684741211,179.56982096679687Q114.13781847412109,179.43749096679687,114.8444184741211,179.30729096679687Q115.55100847412109,179.17709096679687,116.35365847412109,179.04934096679688Q117.15629847412109,178.92158096679688,118.05305847412109,178.79657096679688Q118.94981847412109,178.67157096679688,119.93849847412109,178.54961096679688Q120.9271984741211,178.42766096679688,122.0054984741211,178.3090509667969Q123.0837984741211,178.19044096679687,124.2490984741211,178.07546096679687Q125.4142984741211,177.96049096679687,126.6637984741211,177.84942096679688Q127.91319847412109,177.73835096679687,129.2437984741211,177.63145096679688Q130.5742984741211,177.52456096679688,131.9828984741211,177.42210096679688Q133.3913984741211,177.31964096679687,134.87449847412108,177.22186096679687Q136.3575984741211,177.12408096679687,137.9116984741211,177.03121096679686Q139.4657984741211,176.93835096679686,141.0870984741211,176.85062096679687Q142.7083984741211,176.76290096679688,144.3929984741211,176.68052096679688Q146.0776984741211,176.59815096679688,147.8215984741211,176.52132296679687Q149.5655984741211,176.44449696679686,151.3645984741211,176.37340596679687Q153.1635984741211,176.30231496679687,155.0132984741211,176.2371289667969Q156.8630984741211,176.17194296679688,158.7590984741211,176.11281996679688Q160.6551984741211,176.05369596679688,162.59289847412109,176.00077796679687Q164.5306984741211,175.94785896679687,166.5054984741211,175.90127296679688Q168.4802984741211,175.85468696679686,170.4873984741211,175.81454596679689Q172.4944984741211,175.77440496679688,174.5289984741211,175.74080496679687Q176.56359847412108,175.70720496679687,178.6206984741211,175.68022796679688Q180.6777984741211,175.65324996679686,182.7524984741211,175.63295966679686Q184.82719847412108,175.6126694667969,186.9144984741211,175.59911536679687Q189.00179847412107,175.58556136679687,191.0966984741211,175.57877616679687Q193.1915984741211,175.57199096679688,195.2889984741211,175.57199096679688Q197.3863984741211,175.57199096679688,199.4812984741211,175.57877616679687Q201.5761984741211,175.58556136679687,203.6634984741211,175.59911536679687Q205.7507984741211,175.6126694667969,207.8254984741211,175.63295966679686Q209.8999984741211,175.65324996679686,211.9569984741211,175.68022796679688Q214.01399847412108,175.70720496679687,216.0489984741211,175.74080496679687Q218.08399847412107,175.77440496679688,220.09099847412108,175.81454596679689Q222.09799847412108,175.85468696679686,224.0729984741211,175.90127296679688Q226.0469984741211,175.94785896679687,227.98499847412108,176.00077796679687Q229.92299847412107,176.05369596679688,231.8189984741211,176.11281996679688Q233.7149984741211,176.17194296679688,235.5649984741211,176.2371289667969Q237.4139984741211,176.30231496679687,239.2129984741211,176.37340596679687Q241.0119984741211,176.44449696679686,242.7559984741211,176.52132296679687Q244.4999984741211,176.59815096679688,246.1849984741211,176.68052096679688Q247.8699984741211,176.76290096679688,249.49099847412108,176.85062096679687Q251.1119984741211,176.93835096679686,252.6659984741211,177.03121096679686Q254.2199984741211,177.12408096679687,255.7039984741211,177.22186096679687Q257.1869984741211,177.31964096679687,258.5949984741211,177.42210096679688Q260.0039984741211,177.52456096679688,261.33399847412113,177.63145096679688Q262.6649984741211,177.73835096679687,263.91399847412106,177.84942096679688Q265.16399847412106,177.96049096679687,266.32899847412114,178.07546096679687Q267.4939984741211,178.19044096679687,268.5719984741211,178.3090509667969Q269.6509984741211,178.42766096679688,270.6389984741211,178.54961096679688Q271.6279984741211,178.67157096679688,272.5249984741211,178.79657096679688Q273.4219984741211,178.92158096679688,274.2239984741211,179.04934096679688Q275.0269984741211,179.17709096679687,275.7339984741211,179.30729096679687Q276.4399984741211,179.43749096679687,277.0489984741211,179.56982096679687Q277.6579984741211,179.70215096679686,278.1679984741211,179.83628096679686Q278.6769984741211,179.97042096679687,279.0859984741211,180.1060509667969Q279.49599847412105,180.24167096679687,279.80299847412107,180.37846096679687Q280.11099847412106,180.51525096679688,280.3169984741211,180.65286096679688Q280.5219984741211,180.79048096679688,280.62499847412107,180.9285909667969Q280.7279984741211,181.06671096679688,280.7279984741211,181.20499096679688Z" fill="#3461EC" fill-opacity="0.20000000298023224"/></g><g><path d="M122.05600305175781,52.577999114990234L268.5220030517578,52.577999114990234C271.0260030517578,52.577999114990234,272.2780030517578,53.82999911499024,272.2780030517578,56.333999114990235L272.2780030517578,146.46599911499024C272.2780030517578,148.96999911499023,271.0260030517578,150.22199911499024,268.5220030517578,150.22199911499024L122.05600305175781,150.22199911499024C119.55200305175781,150.22199911499024,118.30000305175781,148.96999911499023,118.30000305175781,146.46599911499024L118.30000305175781,56.333999114990235C118.30000305175781,53.82999911499024,119.55200305175781,52.577999114990234,122.05600305175781,52.577999114990234ZM159.61200305175782,174.63399911499022L230.9660030517578,174.63399911499022C233.47000305175783,174.63399911499022,234.7220030517578,175.88599911499023,234.7220030517578,178.38799911499024C234.7220030517578,180.89199911499023,233.47000305175783,182.14399911499024,230.9660030517578,182.14399911499024L159.61200305175782,182.14399911499024C157.1080030517578,182.14399911499024,155.8560030517578,180.89199911499023,155.8560030517578,178.38799911499024C155.8560030517578,175.88599911499023,157.1080030517578,174.63399911499022,159.61200305175782,174.63399911499022Z" fill="#3461EC" fill-opacity="0.800000011920929"/></g><g><path d="M184.9600089111328,101.4000015258789L205.6160089111328,101.4000015258789C208.1200089111328,101.4000015258789,209.3720089111328,102.6520015258789,209.3720089111328,105.1560015258789L209.3720089111328,178.3880015258789C209.3720089111328,180.89200152587892,208.1200089111328,182.1440015258789,205.6160089111328,182.1440015258789L184.9620089111328,182.1440015258789C182.45800891113282,182.1440015258789,181.2060089111328,180.89200152587892,181.2060089111328,178.3880015258789L181.2060089111328,105.1560015258789C181.2060089111328,102.6520015258789,182.45800891113282,101.4000015258789,184.9600089111328,101.4000015258789L184.9600089111328,101.4000015258789Z" fill="#3461EC" fill-opacity="0.800000011920929"/></g><g><path d="M125.81199920654296,58.21200180053711L264.765999206543,58.21200180053711C266.017999206543,58.21200180053711,266.64599920654297,58.83800080053711,266.64599920654297,60.08800180053711L266.64599920654297,142.7120018005371C266.64599920654297,143.9620018005371,266.017999206543,144.5880018005371,264.765999206543,144.5880018005371L125.81199920654296,144.5880018005371C124.55999720654297,144.5880018005371,123.93199920654297,143.9620018005371,123.93199920654297,142.7120018005371L123.93199920654297,60.08800180053711C123.93199920654297,58.83800080053711,124.55999720654297,58.21200180053711,125.81199920654296,58.21200180053711Z" fill="#FFFFFF" fill-opacity="1"/></g><g><path d="M142.7120089111328,65.72200012207031L180.26600891113281,65.72200012207031C182.7700089111328,65.72200012207031,184.02200891113282,66.97400012207031,184.02200891113282,69.47800012207031L184.02200891113282,78.86600012207032C184.02200891113282,81.37000012207031,182.7700089111328,82.62200012207032,180.26600891113281,82.62200012207032L142.7120089111328,82.62200012207032C140.20800891113282,82.62200012207032,138.9560089111328,81.37000012207031,138.9560089111328,78.86600012207032L138.9560089111328,69.48000012207031C138.9560089111328,66.9760101220703,140.20800891113282,65.72400665207032,142.7120089111328,65.72400665207032L142.7120089111328,65.72200012207031Z" fill="#3461EC" fill-opacity="0.800000011920929"/></g><g><path d="M142.7120089111328,92.01200103759766L180.26600891113281,92.01200103759766C182.7700089111328,92.01200103759766,184.02200891113282,93.26200103759766,184.02200891113282,95.76600103759766L184.02200891113282,105.15600103759766C184.02200891113282,107.66000103759765,182.7700089111328,108.91200103759766,180.26600891113281,108.91200103759766L142.7120089111328,108.91200103759766C140.20800891113282,108.91200103759766,138.9560089111328,107.66000103759765,138.9560089111328,105.15600103759766L138.9560089111328,95.76600103759766C138.9560089111328,93.26200103759766,140.20800891113282,92.01200103759766,142.7120089111328,92.01200103759766Z" fill="#FF6304" fill-opacity="0.800000011920929"/></g><g><path d="M142.7120089111328,118.30000305175781L180.26600891113281,118.30000305175781C182.7700089111328,118.30000305175781,184.02200891113282,119.55200305175781,184.02200891113282,122.05600305175781L184.02200891113282,131.44400305175782C184.02200891113282,133.9480030517578,182.7700089111328,135.20000305175782,180.26600891113281,135.20000305175782L142.7120089111328,135.20000305175782C140.20800891113282,135.20000305175782,138.9560089111328,133.9480030517578,138.9560089111328,131.44400305175782L138.9560089111328,122.05600305175781C138.9560089111328,119.55200305175781,140.20800891113282,118.30000305175781,142.7120089111328,118.30000305175781Z" fill="#93CFCA" fill-opacity="0.800000011920929"/></g><g><path d="M143.64999681640626,121.11599731445312L179.32798681640625,121.11599731445312C180.57998681640623,121.11599731445312,181.20598681640627,121.74199631445312,181.20598681640627,122.99599731445312L181.20598681640627,130.5059973144531C181.20598681640627,131.75799731445312,180.57998681640623,132.38399731445313,179.32598681640624,132.38399731445313L143.65199681640624,132.38399731445313C142.39999381640624,132.38399731445313,141.77398681640625,131.75799731445312,141.77398681640625,130.50399731445313L141.77398681640625,122.99399731445313C141.77398681640625,121.74199631445312,142.39999381640624,121.11599731445312,143.65199681640624,121.11599731445312L143.64999681640626,121.11599731445312Z" fill="#FFFFFF" fill-opacity="1"/></g><g><path d="M147.4060009765625,123.93399810654297L150.2220009765625,123.93399810654297C151.4740009765625,123.93399810654297,152.1000109765625,124.55999720654297,152.1000109765625,125.81199920654296L152.1000109765625,127.68799920654297C152.1000109765625,128.93999920654298,151.4740009765625,129.56798920654296,150.2220009765625,129.56798920654296L147.4060009765625,129.56798920654296C146.1540069765625,129.56798920654296,145.5260009765625,128.93998920654298,145.5260009765625,127.68799920654297L145.5260009765625,125.81199920654296C145.5260009765625,124.55999720654297,146.1540069765625,123.93199920654297,147.4060009765625,123.93199920654297L147.4060009765625,123.93399810654297Z" fill="#A9D9D5" fill-opacity="1"/></g><g><path d="M143.64999681640626,94.82800292832032L179.32798681640625,94.82800292832032C180.57998681640623,94.82800292832032,181.20598681640627,95.45400202832032,181.20598681640627,96.70600402832031L181.20598681640627,104.21600402832031C181.20598681640627,105.46800402832031,180.57998681640623,106.09600402832031,179.32598681640624,106.09600402832031L143.65199681640624,106.09600402832031C142.39999381640624,106.09600402832031,141.77398681640625,105.46800402832031,141.77398681640625,104.21600402832031L141.77398681640625,96.70600402832031C141.77398681640625,95.45400202832032,142.39999381640624,94.82600402832031,143.65199681640624,94.82600402832031L143.64999681640626,94.82800292832032Z" fill="#FFFFFF" fill-opacity="1"/></g><g><path d="M147.4060009765625,97.64399719238281L150.2220009765625,97.64399719238281C151.4740009765625,97.64399719238281,152.1000109765625,98.2699961923828,152.1000109765625,99.52399719238281L152.1000109765625,101.39999719238281C152.1000109765625,102.65199719238281,151.4740009765625,103.27799719238281,150.2220009765625,103.27799719238281L147.4060009765625,103.27799719238281C146.1540069765625,103.27799719238281,145.5260009765625,102.65199719238281,145.5260009765625,101.39999719238281L145.5260009765625,99.52199719238281C145.5260009765625,98.2699961923828,146.1540069765625,97.64399719238281,147.4060009765625,97.64399719238281Z" fill="#FF8236" fill-opacity="1"/></g><g><path d="M143.64999681640626,68.54000091552281L179.32798681640625,68.54000091552281C180.57998681640623,68.54000091552281,181.20598681640627,69.16400128613282,181.20598681640627,70.4160032861328L181.20598681640627,77.9280032861328C181.20598681640627,79.17999328613281,180.57998681640623,79.80599328613282,179.32598681640624,79.80599328613282L143.65199681640624,79.80599328613282C142.39999381640624,79.80599328613282,141.77398681640625,79.17999328613281,141.77398681640625,77.92600328613281L141.77398681640625,70.4160032861328C141.77398681640625,69.16400128613282,142.39999381640624,68.53800201613281,143.64999681640626,68.54000091552281L143.64999681640626,68.54000091552281Z" fill="#FFFFFF" fill-opacity="1"/></g><g><path d="M147.4060009765625,71.35600280761719L150.2220009765625,71.35600280761719C151.4740009765625,71.35600280761719,152.1000109765625,71.98200180761718,152.1000109765625,73.23400280761719L152.1000109765625,75.11200280761719C152.1000109765625,76.36200280761719,151.4740009765625,76.98800280761719,150.2220009765625,76.98800280761719L147.4060009765625,76.98800280761719C146.1540069765625,76.98800280761719,145.5260009765625,76.36200280761719,145.5260009765625,75.11200280761719L145.5260009765625,73.23200280761719C145.5260009765625,71.98200180761718,146.1540069765625,71.35600280761719,147.4060009765625,71.35600280761719Z" fill="#3461EC" fill-opacity="0.800000011920929"/></g><g><path d="M289.8400029296875,137.12399976730347L293.8260029296875,141.10799976730345C294.19200292968753,141.47499976730347,294.19200292968753,142.06899976730347,293.8260029296875,142.43599976730346L289.8420029296875,146.41999976730347C289.4750029296875,146.78599976730348,288.8810029296875,146.78599976730348,288.51400292968754,146.41999976730347L284.5300029296875,142.43599976730346C284.1640029296875,142.06899976730347,284.1640029296875,141.47499976730347,284.5300029296875,141.10799976730345L288.51400292968754,137.12399976730347C288.8810029296875,136.75799976730346,289.4750029296875,136.75799976730346,289.8420029296875,137.12399976730347L289.8400029296875,137.12399976730347ZM289.1780029296875,139.11599976730346L286.52200292968746,141.77199976730347L289.1780029296875,144.42799976730348L291.8320029296875,141.77199976730347L289.1780029296875,139.11599976730346ZM77.2740029296875,131.44399976730347C77.79400292968751,131.44399976730347,78.2140029296875,131.86399976730348,78.2140029296875,132.38399976730346L78.2140029296875,134.91399976730347L80.7440029296875,134.91399976730347C81.2640029296875,134.91399976730347,81.6840029296875,135.33399976730345,81.6840029296875,135.85399976730346L81.6840029296875,136.42599976730347C81.6840029296875,136.94399976730347,81.2640029296875,137.36399976730345,80.7440029296875,137.36399976730345L78.2140029296875,137.36399976730345L78.2140029296875,139.89399976730346C78.2140029296875,140.41399976730347,77.79400292968751,140.83399976730345,77.2740029296875,140.83399976730345L76.7040029296875,140.83399976730345C76.18480292968749,140.83399976730345,75.7640029296875,140.41299976730346,75.7640029296875,139.89399976730346L75.7640029296875,137.36399976730345L73.2340029296875,137.36399976730345C72.7148029296875,137.36399976730345,72.29400292968751,136.94299976730346,72.29400292968751,136.42399976730346L72.29400292968751,135.85399976730346C72.29400292968751,135.33499976730346,72.7148029296875,134.91399976730347,73.2340029296875,134.91399976730347L75.7640029296875,134.91399976730347L75.7640029296875,132.38399976730346C75.7640029296875,131.86399976730348,76.1840029296875,131.44399976730347,76.7040029296875,131.44399976730347L77.27600292968751,131.44399976730347L77.2740029296875,131.44399976730347ZM85.4380029296875,106.09399976730347C88.0310029296875,106.09399976730347,90.1330029296875,108.19599976730346,90.1330029296875,110.78899976730347C90.1330029296875,113.38199976730347,88.0310029296875,115.48399976730347,85.4380029296875,115.48399976730347C82.8450029296875,115.48399976730347,80.74300292968749,113.38199976730347,80.74300292968749,110.78899976730347C80.74300292968749,108.19599976730346,82.8450029296875,106.09399976730347,85.4380029296875,106.09399976730347ZM85.4380029296875,107.97399976730347C83.8828029296875,107.97399976730347,82.6220029296875,109.23499976730346,82.6220029296875,110.78999976730347C82.6220029296875,112.34499976730346,83.8828029296875,113.60599976730347,85.4380029296875,113.60599976730347C86.99380292968749,113.60599976730347,88.25500292968749,112.34499976730346,88.25500292968749,110.78899976730347C88.25500292968749,109.23299976730347,86.99380292968749,107.97199976730347,85.4380029296875,107.97199976730347L85.4380029296875,107.97399976730347ZM57.5600029296875,61.96399976730347C58.0800029296875,61.96399976730347,58.5000029296875,62.383999767303465,58.5000029296875,62.90399976730347L58.5000029296875,65.43399976730348L61.0300029296875,65.43399976730348C61.5491529296875,65.43399976730348,61.9699929296875,65.85489976730346,61.9699929296875,66.37399976730347L61.9699929296875,66.94599976730348C61.9699929296875,67.46509976730346,61.5491529296875,67.88599976730347,61.0300029296875,67.88599976730347L58.4979929296875,67.88399976730346L58.4979929296875,70.41399976730347C58.4979929296875,70.93399976730346,58.0780029296875,71.35399976730346,57.558002929687504,71.35399976730346L56.9880029296875,71.35399976730346C56.4688529296875,71.35399976730346,56.0479929296875,70.93309976730346,56.0480029296875,70.41399976730347L56.0480029296875,67.88399976730346L53.5180019296875,67.88399976730346C52.9988559296875,67.88399976730346,52.5780029296875,67.46309976730348,52.5780029296875,66.94399976730347L52.5780029296875,66.37399976730347C52.5780029296875,65.85489976730346,52.9988519296875,65.43399976730348,53.5180019296875,65.43399976730348L56.0480029296875,65.43399976730348L56.0480029296875,62.90399976730347C56.0479929296875,62.384899767303466,56.4688529296875,61.96399976730347,56.9880029296875,61.96399976730347L57.5600029296875,61.96399976730347ZM322.9840029296875,51.33999976730347L326.7360029296875,55.09199976730347L330.4880029296875,51.33999976730347C330.8550029296875,50.97379976730347,331.4490029296875,50.97379976730347,331.8160029296875,51.33999976730347L333.6060029296875,53.127999767303464C333.9720029296875,53.494899767303465,333.9720029296875,54.089099767303466,333.6060029296875,54.45599976730347L329.8520029296875,58.209999767303465L333.6060029296875,61.96199976730347C333.9720029296875,62.32889976730347,333.9720029296875,62.92309976730347,333.6060029296875,63.28999976730346L331.8160029296875,65.07999976730346C331.4490029296875,65.44619976730347,330.8550029296875,65.44619976730347,330.4880029296875,65.07999976730346L326.7360029296875,61.325999767303465L322.9820029296875,65.07799976730347C322.6150029296875,65.44419976730347,322.0210029296875,65.44419976730347,321.6540029296875,65.07799976730347L319.8660029296875,63.28999976730346C319.5000029296875,62.92309976730347,319.5000029296875,62.32889976730347,319.8660029296875,61.96199976730347L323.6180029296875,58.20799976730347L319.8660029296875,54.45599976730347C319.5000029296875,54.089099767303466,319.5000029296875,53.494899767303465,319.8660029296875,53.127999767303464L321.6540029296875,51.33999976730347C322.0210029296875,50.97379976730347,322.6150029296875,50.97379976730347,322.9820029296875,51.33999976730347L322.9840029296875,51.33999976730347ZM331.1520029296875,53.32999976730347L326.7360029296875,57.74799976730347L322.3180029296875,53.32999976730347L321.8580029296875,53.791999767303466L326.2740029296875,58.20799976730347L321.8580029296875,62.62399976730347L322.3180029296875,63.08399976730347L326.7360029296875,58.669999767303466L331.1520029296875,63.08599976730347L331.6120029296875,62.62599976730347L327.1960029296875,58.20799976730347L331.6140029296875,53.791999767303466L331.1520029296875,53.32999976730347ZM98.31200292968751,37.761999767303465L104.9500029296875,44.39999976730347C105.3162029296875,44.766899767303464,105.3162029296875,45.361099767303465,104.9500029296875,45.727999767303466L98.3100029296875,52.367999767303466C97.9431029296875,52.734199767303465,97.3489029296875,52.734199767303465,96.9820029296875,52.367999767303466L90.34200292968751,45.727999767303466C89.97580292968749,45.361099767303465,89.97580292968749,44.766899767303464,90.34200292968751,44.39999976730347L96.9820029296875,37.761999767303465C97.3489029296875,37.395799767303465,97.9431029296875,37.395799767303465,98.3100029296875,37.761999767303465L98.31200292968751,37.761999767303465ZM97.6460029296875,39.75399976730347L92.33600292968751,45.063999767303464L97.6460029296875,50.37599976730347L102.9580029296875,45.063999767303464L97.6460029296875,39.75399976730347ZM205.6180029296875,14.081999767303467C210.2860029296875,14.080389767303467,214.0710029296875,17.864099767303465,214.0710029296875,22.531999767303468C214.0710029296875,27.199899767303467,210.2860029296875,30.983599767303467,205.6180029296875,30.981999767303467C200.9520029296875,30.980399767303467,197.1710029296875,27.197699767303465,197.1710029296875,22.531999767303468C197.1710029296875,17.866299767303467,200.9520029296875,14.083609767303466,205.6180029296875,14.081999767303467ZM205.6180029296875,15.959999767303467C201.9880029296875,15.959999767303467,199.0460029296875,18.902399767303464,199.0460029296875,22.531999767303468C199.0460029296875,26.161599767303468,201.9880029296875,29.103999767303467,205.6180029296875,29.103999767303467C209.2480029296875,29.103999767303467,212.1900029296875,26.161599767303468,212.1900029296875,22.531999767303468C212.1900029296875,18.902399767303464,209.2480029296875,15.959999767303467,205.6180029296875,15.959999767303467ZM163.6520029296875,4.693999767303467C164.1720029296875,4.693999767303467,164.5920029296875,5.113999767303467,164.5920029296875,5.633999767303466L164.5920029296875,8.163999767303467L167.12200292968748,8.163999767303467C167.6420029296875,8.163999767303467,168.06200292968748,8.583999767303467,168.06200292968748,9.103999767303467L168.06200292968748,9.675999767303466C168.06200292968748,10.193999767303467,167.6420029296875,10.615999767303467,167.12200292968748,10.615999767303467L164.5900029296875,10.613999767303467L164.5900029296875,13.143999767303466C164.5900029296875,13.662359767303467,164.17000292968748,14.082889767303467,163.6520029296875,14.083999767303467L163.08200292968752,14.083999767303467C162.5630029296875,14.083999767303467,162.1420029296875,13.663149767303468,162.1420029296875,13.143999767303466L162.1420029296875,10.613999767303467L159.6120029296875,10.613999767303467C159.0930029296875,10.613999767303467,158.6720029296875,10.193149767303467,158.6720029296875,9.673999767303467L158.6720029296875,9.103999767303467C158.6720029296875,8.583999767303467,159.0920029296875,8.163999767303467,159.6120029296875,8.163999767303467L162.1420029296875,8.163999767303467L162.1420029296875,5.633999767303466C162.1420029296875,5.113999767303467,162.56200292968748,4.693999767303467,163.08200292968752,4.693999767303467L163.6520029296875,4.693999767303467Z" fill="#126EE3" fill-opacity="1"/></g><g><path d="M250.68400903320313,26.288000106811523L291.9340090332031,26.288000106811523C293.56200903320314,26.288000106811523,295.11000903320314,26.992000106811524,296.1780090332031,28.220000106811522L300.9340090332031,33.67000010681152C301.8300090332031,34.696000106811525,302.32200903320313,36.01200010681153,302.32200903320313,37.37400010681152L302.32200903320313,86.37800010681153C302.32200903320313,88.45200010681152,300.6420090332031,90.13400010681153,298.5660090332031,90.13400010681153L250.68400903320313,90.13400010681153C248.60963903320314,90.13400010681153,246.92800903320312,88.45240010681152,246.92800903320312,86.37800010681153L246.92800903320312,30.044000106811524C246.92800903320312,27.970000106811522,248.60799903320313,26.288000106811523,250.68400903320313,26.288000106811523Z" fill="#3461EC" fill-opacity="0.800000011920929"/></g><g><path d="M253.50000329589844,29.106000901552733L289.9680032958984,29.106000901552733C291.69800329589845,29.106000901552733,293.33000329589845,29.900001091552735,294.39800329589843,31.262000091552736L298.30400329589844,36.238000091552735C299.08400329589847,37.23000009155273,299.5040032958984,38.454000091552736,299.5040032958984,39.714000091552734L299.5040032958984,83.56200009155273C299.5040032958984,85.63600009155273,297.8240032958984,87.31600009155274,295.7500032958984,87.31600009155274L253.50000329589844,87.31600009155274C251.42640329589844,87.31600009155274,249.74510192589844,85.63560009155273,249.74400329589844,83.56200009155273L249.74400329589844,32.860000091552735C249.74400329589844,30.785620091552733,251.42561329589844,29.104000091552734,253.50000329589844,29.104000091552734L253.50000329589844,29.106000901552733Z" fill="#FFFFFF" fill-opacity="1"/></g><g><path d="M277.90999389648437,42.25C278.42909389648435,42.25,278.84999389648436,42.670845,278.84999389648436,43.189999L278.84999389648436,48.822C278.84999389648436,49.34115,278.42909389648435,49.762,277.90999389648437,49.762L276.0339938964844,49.762L276.0339938964844,53.516L286.35999389648435,53.516C286.8799938964844,53.516,287.29999389648435,53.936,287.29999389648435,54.456L287.29999389648435,61.028L289.1779938964844,61.028C289.6979938964844,61.028,290.1179938964844,61.448,290.1179938964844,61.968L290.1179938964844,67.6C290.1179938964844,68.1191,289.6969938964844,68.53999999999999,289.1779938964844,68.53999999999999L283.5439938964844,68.53999999999999C283.02479389648437,68.53999999999999,282.6039938964844,68.1191,282.6039938964844,67.6L282.6039938964844,61.966C282.6039938964844,61.448,283.0239938964844,61.025999999999996,283.5439938964844,61.025999999999996L285.42199389648437,61.025999999999996L285.42199389648437,55.394L276.0339938964844,55.394L276.0339938964844,61.028L277.90999389648437,61.028C278.42909389648435,61.028,278.84999389648436,61.4488,278.84999389648436,61.968L278.84999389648436,67.6C278.84999389648436,68.1191,278.42909389648435,68.53999999999999,277.90999389648437,68.53999999999999L272.27799389648436,68.53999999999999C271.7588938964844,68.53999999999999,271.33799389648436,68.1191,271.33799389648436,67.6L271.33799389648436,61.966C271.33799389648436,61.448,271.7579938964844,61.025999999999996,272.27799389648436,61.025999999999996L274.15599389648435,61.025999999999996L274.15599389648435,55.394L264.76599389648436,55.394L264.76599389648436,61.028L266.64599389648436,61.028C267.1619938964844,61.028,267.58399389648434,61.448,267.58399389648434,61.968L267.58399389648434,67.6C267.58399389648434,68.12,267.1638938964844,68.53999999999999,266.6439938964844,68.53999999999999L261.0099938964844,68.53999999999999C260.49159389648435,68.5389,260.0719938964844,68.11840000000001,260.0719938964844,67.6L260.0719938964844,61.966C260.0719938964844,61.448,260.49199389648436,61.025999999999996,261.01199389648434,61.025999999999996L262.8879938964844,61.025999999999996L262.8879938964844,54.456C262.8879938964844,53.9369,263.30879389648436,53.516,263.8279938964844,53.516L274.15599389648435,53.516L274.15599389648435,49.762L272.27599389648435,49.762C271.75759389648437,49.76086,271.33799389648436,49.34035,271.33799389648436,48.822L271.33799389648436,43.188004C271.33799389648436,42.670002,271.7579938964844,42.2500038147,272.27799389648436,42.2500038147L277.90999389648437,42.25ZM213.2479938964844,74.918L214.15399389648437,75.16L213.18399389648437,78.788L212.27599389648438,78.54599999999999L213.2479938964844,74.918ZM216.30999389648437,74.02L218.18999389648437,77.27199999999999L217.37599389648437,77.74199999999999L215.49599389648438,74.49000000000001L216.30999389648437,74.02ZM207.49399389648437,73.23400000000001L207.49399389648437,74.174L185.89999389648438,74.174L185.89999389648438,73.23400000000001L207.49399389648437,73.23400000000001ZM255.0339938964844,59.15C256.0101938964844,59.1488,256.82449389648434,59.895700000000005,256.9073938964844,60.8684C256.99039389648436,61.841,256.3143938964844,62.715,255.35219389648438,62.8792C254.38989389648438,63.0434,253.46229389648437,62.4431,253.21799389648436,61.498000000000005L227.66799389648438,61.498000000000005C225.92399389648438,61.498000000000005,224.48199389648437,62.86,224.38799389648437,64.604L224.38199389648437,64.78399999999999L224.38199389648437,67.6C224.38229389648438,69.8561,222.60959389648437,71.7142,220.3559938964844,71.82L220.15599389648438,71.824L215.00599389648437,70.886L215.00599389648437,69.946L220.15799389648438,70.886C221.90199389648438,70.886,223.34199389648438,69.52199999999999,223.4379938964844,67.78L223.44399389648436,67.6L223.44399389648436,64.78399999999999C223.44399389648436,62.528,225.21599389648438,60.67,227.46999389648437,60.564L227.66999389648439,60.558L253.21799389648436,60.558C253.43239389648437,59.729,254.17999389648438,59.15,255.03599389648437,59.15L255.0339938964844,59.15ZM207.33999389648437,65.47200000000001L209.99599389648438,68.128L209.33199389648436,68.792L206.67599389648439,66.136L207.34199389648438,65.47200000000001L207.33999389648437,65.47200000000001ZM212.05999389648437,63.376000000000005L212.05999389648437,67.132L211.11999389648437,67.132L211.11999389648437,63.376000000000005L212.05999389648437,63.376000000000005Z" fill="#3461EC" fill-opacity="0.800000011920929"/></g><g><path d="M212.3079938964844,102.14600799560547L213.21599389648438,102.38800799560548L212.24399389648437,106.01600799560546L211.33799389648436,105.77400799560547L212.3079938964844,102.14600799560547ZM215.37199389648438,101.24600799560547L217.24999389648437,104.50000799560547L216.43599389648438,104.97000799560547L214.5579938964844,101.71800799560546L215.37199389648438,101.24800799560546L215.37199389648438,101.24600799560547ZM207.49399389648437,100.46200799560546L207.49399389648437,101.40000799560548L185.89999389648438,101.40000799560548L185.89999389648438,100.46000799560547L207.49399389648437,100.46000799560547L207.49399389648437,100.46200799560546ZM255.0339938964844,70.41600799560547C256.0101938964844,70.41486358560547,256.82449389648434,71.16175099560547,256.9073938964844,72.13438799560546C256.99039389648436,73.10700799560547,256.3143938964844,73.98103799560548,255.35219389648438,74.14524799560547C254.38989389648438,74.30945799560547,253.46229389648437,73.70910799560546,253.21799389648436,72.76400799560547L233.30199389648436,72.76400799560547C231.55599389648438,72.76400799560547,230.11599389648438,74.12800799560547,230.0219938964844,75.87000799560546L230.01599389648436,76.05000799560547L230.01599389648436,93.89000799560547C230.01629389648437,96.14610799560546,228.24359389648438,98.00420799560547,225.98999389648438,98.11000799560547L225.78999389648436,98.11400799560548L215.00599389648437,97.17400799560546L215.00599389648437,96.23600799560546L225.78999389648436,97.17600799560547C227.53599389648437,97.17600799560547,228.97599389648437,95.81200799560547,229.0699938964844,94.07000799560547L229.07599389648436,93.89000799560547L229.07599389648436,76.05000799560547C229.07599389648436,73.79400799560547,230.84999389648436,71.93600799560546,233.10199389648437,71.82999799560547L233.30199389648436,71.82400799560547L253.21799389648436,71.82400799560547C253.43239389648437,70.99506399560546,254.17999389648438,70.41600799560547,255.03599389648437,70.41600799560547L255.0339938964844,70.41600799560547ZM206.40399389648437,92.70000799560546L209.05999389648437,95.35600799560547L208.39599389648438,96.02000799560547L205.73999389648438,93.36400799560548L206.40399389648437,92.70000799560546ZM211.12199389648438,90.60400799560547L211.12199389648438,94.36000799560547L210.18199389648439,94.36000799560547L210.18199389648439,90.60400799560547L211.12199389648438,90.60400799560547Z" fill="#FF8236" fill-opacity="1"/></g><g><path d="M212.68399389648437,129.05999810791016L213.59199389648438,129.30399810791016L212.61999389648437,132.93199810791015L211.7119938964844,132.68799810791015L212.68399389648437,129.06199810791014L212.68399389648437,129.05999810791016ZM215.7479938964844,128.16399810791015L217.62599389648437,131.41599810791016L216.81199389648438,131.88599810791015L214.93399389648437,128.63399810791014L215.7479938964844,128.16399810791015ZM207.49399389648437,126.74999810791016L207.49399389648437,127.68999810791016L185.89999389648438,127.68999810791016L185.89999389648438,126.74999810791016L207.49399389648437,126.74999810791016ZM255.0339938964844,81.68399810791016C256.0101938964844,81.68285369791016,256.82449389648434,82.42973310791015,256.9073938964844,83.40236810791015C256.99039389648436,84.37498810791016,256.3143938964844,85.24901810791016,255.35219389648438,85.41322810791016C254.38989389648438,85.57744810791016,253.46229389648437,84.97709810791015,253.21799389648436,84.03199810791016L238.93399389648437,84.03199810791016C237.18999389648437,84.03199810791016,235.74999389648437,85.39399810791015,235.65399389648437,87.13599810791015L235.64799389648437,87.31599810791016L235.64799389648437,120.17599810791015C235.64939389648438,122.43289810791015,233.8763938964844,124.29219810791015,231.62199389648438,124.39799810791015L231.42199389648437,124.40199810791016L215.00599389648437,123.46199810791015L215.00599389648437,122.52399810791016L231.42399389648438,123.46399810791016C233.16799389648438,123.46399810791016,234.60999389648438,122.09999810791015,234.70399389648438,120.35799810791016L234.70999389648438,120.17799810791016L234.70999389648438,87.31799810791016C234.70999389648438,85.05998810791016,236.48199389648437,83.20199810791016,238.7359938964844,83.09798810791015L238.93599389648438,83.09199810791016L253.21599389648438,83.09199810791016C253.4304938964844,82.26242810791015,254.17919389648438,81.68318176291015,255.03599389648437,81.68399810791016L255.0339938964844,81.68399810791016ZM206.77999389648437,119.61599810791016L209.43599389648438,122.27199810791015L208.7719938964844,122.93599810791017L206.11599389648438,120.27999810791016L206.77999389648437,119.61599810791016ZM211.4979938964844,117.51999810791015L211.4979938964844,121.27599810791015L210.5579938964844,121.27599810791015L210.5579938964844,117.51999810791015L211.4979938964844,117.51999810791015Z" fill="#A9D9D5" fill-opacity="1"/></g></g></svg>