<?xml version="1.0" standalone="no"?><!DOCTYPE svg PUBLIC "-//W3C//DTD SVG 1.1//EN" "http://www.w3.org/Graphics/SVG/1.1/DTD/svg11.dtd"><svg t="1666072421986" class="icon" viewBox="0 0 1024 1024" version="1.1" xmlns="http://www.w3.org/2000/svg" p-id="1797" xmlns:xlink="http://www.w3.org/1999/xlink" width="200" height="200"><path d="M0 0m64 0l896 0q64 0 64 64l0 896q0 64-64 64l-896 0q-64 0-64-64l0-896q0-64 64-64Z" fill="#126EE3" fill-opacity=".06" p-id="1798"></path><path d="M832 725.344v35.584A71.072 71.072 0 0 1 760.864 832h-35.552c-26.24 0-48.928-14.4-61.28-35.552h-304.128A70.752 70.752 0 0 1 298.656 832h-35.52A71.104 71.104 0 0 1 192 760.864v-35.552c0-26.24 14.4-48.928 35.552-61.28v-304.128A70.752 70.752 0 0 1 192 298.656v-35.52C192 223.808 223.808 192 263.136 192h35.552c26.24 0 48.928 14.4 61.28 35.552h304.16A70.624 70.624 0 0 1 725.344 192h35.584C800.192 192 832 223.808 832 263.136v35.552c0 26.24-14.4 48.928-35.552 61.28v304.16A70.624 70.624 0 0 1 832 725.344z m-106.656 71.104h35.584a35.52 35.52 0 0 0 35.552-35.584v-35.552a35.52 35.52 0 0 0-35.552-35.584h-35.584a35.52 35.52 0 0 0-35.552 35.584v35.552a35.52 35.52 0 0 0 35.552 35.584zM227.552 760.864a35.52 35.52 0 0 0 35.584 35.584h35.552a35.52 35.52 0 0 0 35.584-35.584v-35.552a35.52 35.52 0 0 0-35.584-35.584H263.136a35.52 35.52 0 0 0-35.584 35.584v35.552z m106.656-497.728A35.52 35.52 0 0 0 298.656 227.52h-35.52A35.52 35.52 0 0 0 227.52 263.136v35.552a35.52 35.52 0 0 0 35.584 35.584h35.552a35.52 35.52 0 0 0 35.584-35.584V263.136h-0.064zM648.864 352h-273.728c-5.6 9.6-13.504 17.536-23.136 23.136v273.728c9.6 5.6 17.536 13.536 23.136 23.136h273.728c5.6-9.6 13.536-17.536 23.136-23.136v-273.728a63.584 63.584 0 0 1-23.136-23.136z m147.584-88.864a35.52 35.52 0 0 0-35.584-35.584h-35.552a35.52 35.52 0 0 0-35.584 35.584v35.552a35.52 35.52 0 0 0 35.584 35.584h35.552a35.52 35.52 0 0 0 35.584-35.584V263.136z" fill="#126EE3" p-id="1799"></path></svg>