<?xml version="1.0" encoding="UTF-8"?>
<svg width="358px" height="192px" viewBox="0 0 358 192" version="1.1" xmlns="http://www.w3.org/2000/svg" xmlns:xlink="http://www.w3.org/1999/xlink">
    <title>图</title>
    <defs>
        <filter id="filter-1">
            <feColorMatrix in="SourceGraphic" type="matrix" values="0 0 0 0 0.000000 0 0 0 0 0.000000 0 0 0 0 0.000000 0 0 0 0.060000 0"></feColorMatrix>
        </filter>
    </defs>
    <g id="页面-1" stroke="none" stroke-width="1" fill="none" fill-rule="evenodd">
        <g id="工作流程-草稿" transform="translate(-682.000000, -241.000000)">
            <g id="1" transform="translate(662.000000, 221.000000)">
                <g id="图" transform="translate(20.000000, 20.000000)">
                    <rect id="矩形" fill-opacity="0" fill="#000000" x="0" y="0" width="358" height="192" rx="3"></rect>
                    <g filter="url(#filter-1)" id="编组">
                        <g transform="translate(110.000000, 82.000000)">
                            <path d="M13.3987284,0.889953613 L9.22774427,0.889953613 C9.17696819,1.01158447 2.20598336,19.286638 0.827744126,22.8899536 L5.0277442,22.8899536 C8.59665411,13.5395727 10.6978635,8.03830578 11.3313724,6.38615273 C11.8028762,7.6328708 13.3479508,11.7075074 14.7914726,15.4628621 C12.5585591,14.7229965 10.1622177,14.7229965 7.92929845,15.4628621 C9.46592296,15.7775393 10.9278848,16.4079512 12.2308525,17.3177361 C14.3127094,18.5917694 16.0989679,20.3339154 17.4609029,22.4186349 L17.6277444,22.8595496 L21.8277441,22.8595496 C20.3334419,19.0661822 13.5800758,1.39168165 13.3987284,0.889953613 Z" id="路径" fill="#FFFFFF" fill-rule="nonzero"></path>
                            <path d="M36.8277441,22.8899536 L33.0519029,22.8899536 L33.0519029,15.3826575 C33.1049105,14.3526983 33.0238532,13.3200757 32.8108905,12.312173 C32.6676787,11.8741826 32.3943477,11.4934381 32.0294304,11.2236146 C31.6396454,10.9607673 31.1808105,10.8271336 30.7148215,10.8407422 C30.0870548,10.8316254 29.472031,11.0231211 28.9547074,11.3887744 C28.4483098,11.7386057 28.0723816,12.2547184 27.8884156,12.852698 C27.6493814,13.9584796 27.5536092,15.0918897 27.6035846,16.2234742 L27.6035846,22.8674307 L23.8277441,22.8674307 L23.8277441,8.22820351 L27.3333637,8.22820351 L27.3333637,10.3752907 C28.4105426,8.80900843 30.1634139,7.88148033 32.0294304,7.89037602 C32.8145959,7.88064051 33.5931199,8.03915936 34.3153835,8.3558283 C34.9279221,8.60097592 35.4669374,9.00746307 35.8783037,9.53447442 C36.2321388,10.0176559 36.4811743,10.5731468 36.6086406,11.1635579 C36.7679341,12.0243208 36.8364928,12.9002274 36.8131348,13.7760965 L36.8277441,22.8899536 Z" id="路径" fill="#FFFFFF" fill-rule="nonzero"></path>
                            <path d="M39.8277441,8.88995361 L43.9342695,8.88995361 L47.4210773,18.987944 L50.833216,8.88995361 L54.8277441,8.88995361 L49.6759332,22.5797977 L48.7575691,25.0569406 C48.5058675,25.7256718 48.1804203,26.3657167 47.7869355,26.9657964 C47.50306,27.3781857 47.1466466,27.738307 46.7341695,28.0295082 C46.2781041,28.3241612 45.772718,28.5386804 45.2408897,28.6633639 C44.5967855,28.8223913 43.9340987,28.8983239 43.2697608,28.8892217 C42.5367921,28.891339 41.8057602,28.8156068 41.0895732,28.6633639 L40.7461195,25.712653 C41.2841114,25.8222703 41.8317132,25.8808291 42.3812628,25.8875106 C43.1230836,25.9571393 43.856229,25.6881927 44.3673223,25.1589398 C44.8325709,24.5763094 45.170539,23.906826 45.3603547,23.1917982 L39.8277441,8.88995361 Z" id="路径" fill="#FFFFFF" fill-rule="nonzero"></path>
                            <path d="M56.8277441,22.8899536 L56.8277441,2.88995361 L70.8277441,2.88995361 L70.8277441,6.26773115 L60.9845884,6.26773115 L60.9845884,10.9936561 L69.5027029,10.9936561 L69.5027029,14.3714336 L60.9542952,14.3714336 L60.9542952,22.8899536 L56.8277441,22.8899536 Z" id="路径" fill="#FFFFFF" fill-rule="nonzero"></path>
                            <path d="M76.8212749,12.5999149 L73.2551388,11.9838767 C73.547993,10.754702 74.280204,9.66421898 75.3233455,8.9036875 C76.6411139,8.1555006 78.1621553,7.8079093 79.6878722,7.90629309 C81.0225108,7.83854461 82.3569395,8.04347492 83.6037715,8.50766317 C84.3578645,8.8206095 84.9909224,9.35422623 85.4134549,10.0330902 C85.8470236,11.1134639 86.0262317,12.273272 85.9381129,13.4286333 L85.9381129,17.8289037 C85.9141308,18.761213 85.9751939,19.6937503 86.1206052,20.6157411 C86.2750431,21.2814066 86.5124848,21.9265842 86.8277441,22.5371927 L82.9422537,22.5371927 C82.835802,22.2805116 82.7141402,21.9064851 82.5620688,21.4151236 C82.5246862,21.2637764 82.4790082,21.114445 82.4252076,20.9677623 C81.7952944,21.5786618 81.0491845,22.0667051 80.2277282,22.4051831 C79.4537261,22.7231089 78.6205863,22.8853228 77.7793368,22.8818803 C76.4512651,22.955487 75.1462476,22.5236364 74.1447701,21.6791413 C73.2754777,20.8956335 72.7964875,19.7900624 72.8293336,18.6429541 C72.8158633,17.8818097 73.0239626,17.1322738 73.4300206,16.4794878 C73.8273074,15.8409327 74.4121456,15.3304646 75.1104429,15.0127303 C76.1095189,14.5918853 77.1594362,14.2937538 78.235563,14.1253436 C79.5299993,13.9289967 80.8027397,13.6171957 82.0374116,13.1939523 L82.0374116,12.8199295 C82.0980921,12.2459982 81.8952717,11.6752071 81.4823455,11.2578338 C80.849543,10.8839308 80.1066233,10.7215487 79.3685179,10.7958058 C78.7943888,10.7630907 78.223694,10.9013376 77.7337278,11.1918308 C77.2890341,11.5614702 76.97091,12.0524016 76.8212749,12.5999149 Z M82.075433,15.6801053 C81.5735864,15.841448 80.7751952,16.0321266 79.6878722,16.2594747 C78.9428638,16.3646158 78.220944,16.5876262 77.5512351,16.9195147 C77.0770363,17.2090481 76.7899716,17.712958 76.790865,18.2542633 C76.7875005,18.7766425 77.0108218,19.2765699 77.4067627,19.6330137 C77.8275212,20.0204225 78.3916722,20.2290909 78.9731229,20.2123831 C79.7073872,20.2034211 80.4191782,19.9668631 81.0033087,19.5376759 C81.4524346,19.2330133 81.7819401,18.7911877 81.9385596,18.2835971 C82.0701074,17.6762446 82.1212035,17.0552466 82.0906318,16.4354839 L82.075433,15.6801053 Z" id="路径" fill="#FFFFFF" fill-rule="nonzero"></path>
                            <path d="M89.8277441,22.5978056 L89.8277441,2.88995361 L93.6212463,2.88995361 L93.6212463,9.97748068 C94.6349379,8.7230478 96.1636872,7.99082722 97.7816257,7.98479827 C99.4346979,7.9471759 101.019718,8.63934157 102.110764,9.8752926 C103.255418,11.1307554 103.827744,12.9360919 103.827744,15.2913021 C103.827744,17.7243703 103.243188,19.5978329 102.074075,20.91169 C101.03433,22.1757835 99.4748245,22.9031565 97.8329829,22.8899536 C96.9879166,22.8829426 96.1570928,22.6725666 95.4115947,22.2766404 C94.592023,21.8540727 93.885275,21.2435965 93.3497504,20.4956343 L93.3497504,22.5905066 L89.8277441,22.5978056 Z M93.5992349,15.1599179 C93.5177154,16.2957973 93.7592841,17.4315632 94.2962983,18.4372616 C94.8302104,19.3602568 95.8159786,19.9325196 96.886446,19.9408953 C97.7515969,19.9590898 98.5720091,19.5591903 99.0877055,18.8679124 C99.7612789,17.8827902 100.074683,16.6975895 99.9755514,15.5102778 C99.9755514,13.8752562 99.6820544,12.7073829 99.0877055,11.9847623 C98.5411518,11.2864887 97.6951802,10.8860088 96.805732,10.9044804 C95.9276607,10.8892116 95.0914063,11.2768866 94.5384381,11.9555661 C93.8544407,12.8796576 93.5216901,14.0149383 93.5992349,15.1599179 Z" id="路径" fill="#FFFFFF" fill-rule="nonzero"></path>
                            <path d="M110.506005,22.8899536 L106.827744,22.8899536 L106.827744,8.22829586 L110.242768,8.22829586 L110.242768,10.3078041 C110.636332,9.55152488 111.174109,8.88948581 111.822216,8.36342654 C112.295258,8.04404474 112.847278,7.87948575 113.408775,7.89046981 C114.265155,7.90140877 115.102115,8.16115935 115.827744,8.64119467 L114.6894,12.0194575 C114.184939,11.6388411 113.587119,11.4198817 112.967661,11.3888482 C112.494857,11.3732763 112.031781,11.5326148 111.658572,11.8392837 C111.230115,12.2720076 110.937197,12.8325501 110.819051,13.4458329 C110.550461,15.0660956 110.447893,16.712152 110.513127,18.3555741 L110.506005,22.8899536 Z" id="路径" fill="#FFFFFF" fill-rule="nonzero"></path>
                            <path d="M116.827744,6.43594755 L116.827744,2.88995361 L120.827744,2.88995361 L120.827744,6.43594755 L116.827744,6.43594755 Z M116.827744,22.8899536 L116.827744,8.40182323 L120.827744,8.40182323 L120.827744,22.8899536 L116.827744,22.8899536 Z" id="路径" fill="#FFFFFF" fill-rule="nonzero"></path>
                            <path d="M137.599108,12.4625873 L133.712331,13.1376133 C133.635766,12.4901065 133.319169,11.8909165 132.820661,11.4500492 C132.311954,11.0582907 131.672875,10.8575453 131.022075,10.8850813 C130.126044,10.8488869 129.261795,11.2081819 128.674767,11.8609339 C128.087938,12.5139476 127.798343,13.6071961 127.798343,15.1333431 C127.798343,16.8355819 128.095566,18.0364431 128.690013,18.7359267 C129.265679,19.4329409 130.151104,19.8251221 131.075428,19.7924891 C131.746742,19.8191429 132.403438,19.5987805 132.912122,19.1761615 C133.493195,18.601409 133.862611,17.859157 133.963829,17.0630345 L137.827744,17.7013755 C137.556826,19.2073649 136.748163,20.5750014 135.541407,21.5680996 C134.217874,22.4961133 132.604072,22.9596317 130.968733,22.8814656 C129.017681,22.9684707 127.121831,22.2442602 125.763505,20.893074 C124.467916,19.5723717 123.827744,17.7453979 123.827744,15.4048193 C123.827744,13.0642422 124.475544,11.1932456 125.771133,9.87987897 C127.154718,8.52499124 129.073872,7.804083 131.044949,7.89882484 C132.573396,7.82436828 134.086805,8.22010682 135.366125,9.02875953 C136.484861,9.90374 137.270266,11.1115053 137.599108,12.4625873 Z" id="路径" fill="#FFFFFF" fill-rule="nonzero"></path>
                        </g>
                    </g>
                </g>
            </g>
        </g>
    </g>
</svg>