<svg xmlns="http://www.w3.org/2000/svg" xmlns:xlink="http://www.w3.org/1999/xlink" viewBox="0 0 184.64 130.96"><defs><style>.cls-1{fill:url(#未命名的渐变_14);}.cls-2{fill:#3e75ff;}.cls-3{fill:#1b1464;}</style><linearGradient id="未命名的渐变_14" x1="32.7" y1="70.54" x2="55.45" y2="25.96" gradientUnits="userSpaceOnUse"><stop offset="0" stop-color="#fa0"/><stop offset="0.41" stop-color="#ffa700"/><stop offset="0.75" stop-color="#ff9c00"/><stop offset="0.9" stop-color="#ff9500"/></linearGradient></defs><g id="图层_2" data-name="图层 2"><g id="图层_1-2" data-name="图层 1"><path class="cls-1" d="M56.2,3.42H54.46L24.86,74a.93.93,0,0,0,.86,1.3H42.19a.94.94,0,0,0,.87-.58l21.19-51a.94.94,0,0,0,0-.68L64,22.37Z"/><path class="cls-2" d="M72.4,1.36A1.88,1.88,0,0,0,70.67.2H55.8a1.88,1.88,0,0,0-1.74,2.6L83.49,74.12a1.85,1.85,0,0,0,1.17,1.07l-.06.11,3.81,0h12.14a2.1,2.1,0,0,0,1.93-2.91Z"/><path class="cls-2" d="M170.76,0H103.25a3.93,3.93,0,0,0-3.92,3.92l-3.49,14H157c3.41,0,5.93-2.61,7.41-5.49Z"/><path class="cls-2" d="M155.53,27.55H99.63a3.79,3.79,0,0,0-3.79,3.78V44.79h46.37a7.48,7.48,0,0,0,7.16-5.3Z"/><path class="cls-2" d="M95.84,30.49,84.91,75.08,100.23,75a2.77,2.77,0,0,0,2.67-2.1l10.61-42.41Z"/><path class="cls-3" d="M17.37,93.57H11.58c-.07.16-9.68,24.2-11.58,28.94H5.79l8.68-21.71,4.78,11.94a15.34,15.34,0,0,0-4.67-.72,15.83,15.83,0,0,0-4.79.75,16.42,16.42,0,0,1,5.93,2.45,22.34,22.34,0,0,1,7.2,6.71l.24.58h5.78Z"/><path class="cls-3" d="M49.08,123H43.91v-10a15.53,15.53,0,0,0-.33-4.1,2.87,2.87,0,0,0-1.08-1.44,3.07,3.07,0,0,0-1.79-.51,4.13,4.13,0,0,0-2.41.73,3.69,3.69,0,0,0-1.46,2,16.56,16.56,0,0,0-.4,4.49V123H31.28V103.5h4.8v2.87a8,8,0,0,1,9.56-2.69,5.2,5.2,0,0,1,2.14,1.57,5.62,5.62,0,0,1,1,2.17,16.12,16.12,0,0,1,.29,3.48Z"/><path class="cls-3" d="M51.87,103.5h5.5L62,117.37l4.57-13.87H72l-6.9,18.8-1.23,3.4a14.25,14.25,0,0,1-1.3,2.61,5.83,5.83,0,0,1-1.41,1.47,6.38,6.38,0,0,1-2,.87,10.18,10.18,0,0,1-2.64.31,13.69,13.69,0,0,1-2.93-.31l-.46-4.05a11.41,11.41,0,0,0,2.19.24A3.24,3.24,0,0,0,58,125.78a7.13,7.13,0,0,0,1.32-2.69Z"/><path class="cls-3" d="M75.34,123v-27H93.82v4.56h-13V107H92v4.56H80.78V123Z"/><path class="cls-3" d="M102.14,109.46l-4.69-.84a7.28,7.28,0,0,1,2.72-4.2,10,10,0,0,1,5.74-1.36,12.48,12.48,0,0,1,5.15.82,5.2,5.2,0,0,1,2.38,2.08,10.64,10.64,0,0,1,.69,4.62l-.06,6a20.41,20.41,0,0,0,.25,3.79,11.36,11.36,0,0,0,.93,2.62h-5.11c-.14-.34-.3-.85-.5-1.52l-.18-.61a9.36,9.36,0,0,1-2.84,1.93,8,8,0,0,1-3.21.65,6.66,6.66,0,0,1-4.76-1.64,5.44,5.44,0,0,1-1.74-4.14,5.61,5.61,0,0,1,.79-3,5.23,5.23,0,0,1,2.22-2,17.18,17.18,0,0,1,4.11-1.2,27.85,27.85,0,0,0,5-1.27v-.52a2.67,2.67,0,0,0-.73-2.12,4.44,4.44,0,0,0-2.78-.63,3.09,3.09,0,0,0-3.4,2.44Zm6.91,4.2c-.66.22-1.71.48-3.14.79a9.11,9.11,0,0,0-2.82.9,2.16,2.16,0,0,0-1,1.82,2.52,2.52,0,0,0,.81,1.87,2.82,2.82,0,0,0,2.06.79,4.51,4.51,0,0,0,2.67-.91,3.3,3.3,0,0,0,1.23-1.72,10.44,10.44,0,0,0,.2-2.51Z"/><path class="cls-3" d="M119,123v-27h5.17v9.71a7.31,7.31,0,0,1,5.66-2.72,7.61,7.61,0,0,1,5.91,2.59q2.32,2.58,2.33,7.42,0,5-2.38,7.7a7.44,7.44,0,0,1-5.78,2.71,7.1,7.1,0,0,1-3.3-.84,7.93,7.93,0,0,1-2.81-2.47V123Zm5.13-10.18a8.26,8.26,0,0,0,1,4.48,4.06,4.06,0,0,0,3.57,2.06,3.63,3.63,0,0,0,2.91-1.46,7.14,7.14,0,0,0,1.21-4.61q0-3.34-1.22-4.82a3.83,3.83,0,0,0-3.11-1.48,3.92,3.92,0,0,0-3.09,1.44A6.63,6.63,0,0,0,124.13,112.85Z"/><path class="cls-3" d="M147.18,123H142V103.5h4.8v2.78a8.33,8.33,0,0,1,2.21-2.59,4.09,4.09,0,0,1,2.24-.63,6.55,6.55,0,0,1,3.4,1l-1.6,4.5a4.56,4.56,0,0,0-2.43-.84,2.89,2.89,0,0,0-1.83.59,4.06,4.06,0,0,0-1.19,2.17,30.54,30.54,0,0,0-.43,6.54Z"/><path class="cls-3" d="M156.89,100.86V96.07h5.17v4.79Zm0,22.17V103.5h5.17V123Z"/><path class="cls-3" d="M184.38,109.28l-5.09.92a3.66,3.66,0,0,0-1.17-2.3,3.49,3.49,0,0,0-2.36-.77,3.84,3.84,0,0,0-3.08,1.33c-.77.89-1.15,2.38-1.15,4.46,0,2.32.39,4,1.16,4.91a3.83,3.83,0,0,0,3.14,1.43,3.48,3.48,0,0,0,2.41-.83,5,5,0,0,0,1.32-2.88l5.08.86a9.05,9.05,0,0,1-3,5.28,9.42,9.42,0,0,1-6,1.79,9,9,0,0,1-6.83-2.71,10.45,10.45,0,0,1-2.55-7.48q0-4.85,2.56-7.53a9.06,9.06,0,0,1,6.91-2.7,9.42,9.42,0,0,1,5.68,1.54A8.48,8.48,0,0,1,184.38,109.28Z"/></g></g></svg>