<svg xmlns="http://www.w3.org/2000/svg" xmlns:xlink="http://www.w3.org/1999/xlink" fill="none" version="1.1" width="122.49760437011719" height="20" viewBox="0 0 122.49760437011719 20"><defs><clipPath id="master_svg0_5_0943"><rect x="0" y="0" width="122.49760437011719" height="20" rx="0"/></clipPath><linearGradient x1="0.20178623497486115" y1="0.9336977601051331" x2="0.7755398154258728" y2="0.31368622183799744" id="master_svg1_5_898"><stop offset="0%" stop-color="#FFAA00" stop-opacity="1"/><stop offset="40.99999964237213%" stop-color="#FFA700" stop-opacity="1"/><stop offset="75%" stop-color="#FF9C00" stop-opacity="1"/><stop offset="89.99999761581421%" stop-color="#FF9500" stop-opacity="1"/></linearGradient></defs><g clip-path="url(#master_svg0_5_0943)"><g><g><g><path d="M7.3875989205551145,0.8038330078125L6.976108920555115,0.8038330078125L0.00003512055511474543,17.3923330078125C-0.07057567944488526,17.5461330078125,0.051592420555114746,17.7188330078125,0.22013092055511474,17.7033330078125L4.090948920555115,17.7033330078125C4.186228920555115,17.7072330078125,4.273158920555114,17.6492330078125,4.3062589205551145,17.5598330078125L9.287118920555114,5.5980930078125C9.308658920555114,5.5476630078125,9.308658920555114,5.4906230078125,9.287118920555114,5.4401930078125L9.224918920555115,5.2631630078125L7.3875989205551145,0.8038330078125Z" fill="url(#master_svg1_5_898)" fill-opacity="1"/></g><g><path d="M11.196204037742614,0.3205815625C11.126664037742614,0.1549485625,10.964364037742616,0.0473715525,10.784724037742615,0.04785466037L7.291899037742615,0.04785466037C6.975725037742615,0.0466986625,6.761476737742615,0.3693315625,6.885200237742615,0.6602945625L13.799074037742614,17.4067515625C13.853104037742614,17.5255515625,13.953364037742615,17.6171515625,14.076584037742615,17.6602515625L17.827824037742616,17.6602515625C18.187224037742617,17.6737515625,18.432424037742614,17.3007515625,18.277524037742616,16.9760515625L11.196204037742614,0.3205815625Z" fill="#3E75FF" fill-opacity="1"/></g><g><path d="M34.32058380336761,0.000012813L18.449793803367616,0.000012813C17.938683803367613,-0.00265735,17.523680803367615,0.412351,17.526350803367613,0.923458L16.703383803367615,4.20097L31.100483803367617,4.20097C31.877683803367617,4.13173,32.550383803367616,3.63272,32.84218380336762,2.9091L34.32058380336761,0.000012813Z" fill="#3E75FF" fill-opacity="1"/></g><g><path d="M30.736883803367615,6.47369384765625L17.598119803367616,6.47369384765625C17.103970803367616,6.47369476026325,16.703383803367615,6.87428184765625,16.703383803367615,7.36843084765625L16.703383803367615,10.52632384765625L27.607683803367614,10.52632384765625C28.381483803367615,10.525563847656251,29.063583803367614,10.01836384765625,29.287083803367615,9.27752384765625L30.736883803367615,6.47369384765625Z" fill="#3E75FF" fill-opacity="1"/></g><g><path d="M16.703427865867614,7.177001953125L14.134047865867615,17.650701953125L17.736917865867614,17.650701953125C18.029697865867615,17.650401953124998,18.286207865867617,17.454601953125,18.363717865867613,17.172221953125L20.861317865867615,7.177001953125L16.703427865867614,7.177001953125Z" fill="#3E75FF" fill-opacity="1"/></g><g><path d="M42.46412587368012,2.11004638671875L39.71292587368011,2.11004638671875C39.67943587368011,2.18660138671875,35.081347873680116,13.68894638671875,34.172255873680115,15.95694638671875L36.94259587368011,15.95694638671875Q40.47368587368011,7.12918638671875,41.100485873680114,5.56937638671875C41.41149587368012,6.35406638671875,42.430625873680114,8.91865638671875,43.38278587368011,11.28229638671875C41.909945873680115,10.81661638671875,40.32930587368011,10.81661638671875,38.856465873680115,11.28229638671875C39.87002587368011,11.48035638671875,40.834345873680114,11.87713638671875,41.69378587368011,12.44974638671875C43.06698587368011,13.25164638671875,44.245255873680115,14.34814638671875,45.143555873680114,15.66024638671875L45.253555873680114,15.93784638671875L48.023955873680116,15.93784638671875C47.038255873680114,13.55024638671875,42.58373587368011,2.42583638671875,42.46412587368012,2.11004638671875Z" fill="#FFFFFF" fill-opacity="1"/></g><g><path d="M57.63639356899262,16.21053166015625L55.16270356899261,16.21053166015625L55.16270356899261,11.42584166015625C55.197433568992615,10.769411660156251,55.144333568992614,10.11128166015625,55.00481356899262,9.46890166015625C54.910993568992616,9.18975166015625,54.73192356899261,8.94709166015625,54.492853568992615,8.77512166015625C54.23749356899261,8.60760166015625,53.936893568992616,8.52243166015625,53.63160356899262,8.53110166015625C53.220333568992615,8.52529166015625,52.81741356899261,8.64734166015625,52.47849356899261,8.88038166015625C52.146733568992616,9.10334166015625,51.90045356899262,9.43228166015625,51.77993356899262,9.81340166015625C51.623333568992614,10.51816166015625,51.56058356899261,11.24052166015625,51.593323568992616,11.96172166015625L51.593323568992616,16.19617166015625L49.119643568992615,16.19617166015625L49.119643568992615,6.86603166015625L51.416293568992614,6.86603166015625L51.416293568992614,8.23445166015625C52.121993568992615,7.23620066015625,53.270363568992614,6.64505131015625,54.492853568992615,6.65072087915625C55.007243568992614,6.64451606015625,55.517273568992614,6.74554626015625,55.99045356899261,6.94737166015625C56.39175356899261,7.10361366015625,56.74488356899261,7.36268366015625,57.01438356899261,7.69857166015625C57.24619356899262,8.00652166015625,57.40934356899261,8.36055166015625,57.492853568992615,8.73684166015625C57.59720356899261,9.28544166015625,57.642123568992616,9.84369166015625,57.62682356899261,10.40192166015625L57.63639356899262,16.21053166015625Z" fill="#FFFFFF" fill-opacity="1"/></g><g><path d="M58.976088881492615,6.86602783203125L61.607668881492614,6.86602783203125L63.84211888149262,13.49760783203125L66.02871888149261,6.86602783203125L68.5885288814926,6.86602783203125L65.28709888149261,15.85645783203125L64.69858888149261,17.48322783203125C64.53728888149261,17.92242783203125,64.32872888149261,18.34272783203125,64.07656888149262,18.73682783203125C63.89465888149262,19.00762783203125,63.66625888149262,19.24412783203125,63.401928881492616,19.43542783203125C63.10966888149262,19.628927832031252,62.78579888149262,19.76982783203125,62.44498888149261,19.851627832031248C62.032228881492614,19.95612783203125,61.607558881492615,20.00592783203125,61.18183888149262,20.00002783203125C60.71212888149262,20.00142783203125,60.243658881492614,19.95162783203125,59.78470588149261,19.851627832031248L59.56461088149261,17.913827832031252C59.90937188149262,17.985827832031248,60.26028888149261,18.02432783203125,60.612458881492614,18.02872783203125C61.087838881492615,18.074427832031247,61.557658881492614,17.89782783203125,61.88518888149262,17.55022783203125C62.18332888149261,17.16762783203125,62.399908881492614,16.727947832031248,62.52154888149261,16.25836783203125L58.976088881492615,6.86602783203125Z" fill="#FFFFFF" fill-opacity="1"/></g><g><path d="M70.20094239711761,16.2105701171875L70.20094239711761,3.2918701171875L79.04783239711762,3.2918701171875L79.04783239711762,5.4736901171875L72.82774239711762,5.4736901171875L72.82774239711762,8.526320117187499L78.21051239711761,8.526320117187499L78.21051239711761,10.7081401171875L72.80859239711762,10.7081401171875L72.80859239711762,16.2105701171875L70.20094239711761,16.2105701171875Z" fill="#FFFFFF" fill-opacity="1"/></g><g><path d="M83.02396099086762,9.71293568359375L80.77994299086761,9.31102568359375C80.96422399086761,8.50908568359375,81.42497299086762,7.79763568359375,82.08138099086761,7.30145368359375C82.91059099086762,6.81332368359375,83.86772099086761,6.58654858359375,84.82779099086761,6.65073588359375C85.66762099086762,6.60653558359375,86.50732099086761,6.74023568359375,87.29190099086762,7.04308068359375C87.76642099086762,7.24725168359375,88.16478099086761,7.59539268359375,88.43066099086761,8.03829568359375C88.7034909908676,8.74314568359375,88.81626099086762,9.49982568359375,88.76081099086761,10.25360568359375L88.76081099086761,13.12441568359375C88.74572099086761,13.732675683593751,88.78414099086761,14.34107568359375,88.87564099086761,14.94260568359375C88.97282099086762,15.37689568359375,89.12224099086761,15.79781568359375,89.32062099086761,16.19619568359375L86.87564099086761,16.19619568359375C86.80865099086762,16.02872568359375,86.73210099086762,15.78470568359375,86.63640099086761,15.46413568359375C86.61288099086761,15.36539568359375,86.58414099086761,15.26796568359375,86.55028099086762,15.17226568359375C86.15390099086761,15.57082568359375,85.68441099086762,15.88923568359375,85.16750099086761,16.11006568359375C84.68045099086761,16.317485683593752,84.15619099086761,16.42331568359375,83.62683099086762,16.42107568359375C82.79113099086761,16.46909568359375,81.96994099086761,16.187345683593747,81.33974999086762,15.63638568359375C80.79274099086761,15.12520568359375,80.49133249086762,14.40391568359375,80.51200121086761,13.655525683593751C80.50352491086761,13.15893568359375,80.63447299086762,12.66992568359375,80.88998799086761,12.24403568359375C81.13998399086762,11.82743568359375,81.50799899086762,11.494395683593751,81.94741099086761,11.287095683593751C82.57608099086761,11.01253568359375,83.23675099086762,10.81802568359375,83.91391099086762,10.70815568359375C84.72845099086761,10.58005568359375,85.52933099086762,10.37662568359375,86.30626099086761,10.10049568359375L86.30626099086761,9.85647568359375C86.34444099086761,9.48203568359375,86.21682099086762,9.109645683593751,85.95698099086762,8.83733568359375C85.55878099086762,8.59339568359375,85.09129099086762,8.48745568359375,84.62684099086762,8.53590568359375C84.26556099086761,8.51455568359375,83.90645099086761,8.60475568359375,83.59813099086762,8.79427568359375C83.31830099086761,9.03543568359375,83.11812099086761,9.35572568359375,83.02396099086762,9.71293568359375ZM86.33018099086762,11.722505683593749C86.01439099086761,11.82776568359375,85.51200099086762,11.952175683593751,84.82779099086761,12.10049568359375C84.35899099086761,12.16909568359375,83.90472099086762,12.31458568359375,83.48330099086762,12.53111568359375C83.18490099086762,12.72001568359375,83.00426099086762,13.04877568359375,83.00483099086762,13.40193568359375C83.00271099086761,13.74274568359375,83.14324099086761,14.06890568359375,83.39239099086761,14.301455683593751C83.65715099086762,14.55420568359375,84.01215099086761,14.69034568359375,84.37803099086761,14.67944568359375C84.84007099086762,14.67359568359375,85.28797099086762,14.519265683593751,85.65554099086762,14.23925568359375C85.93816099086762,14.04048568359375,86.14550099086762,13.75223568359375,86.24406099086761,13.42106568359375C86.32683099086762,13.02482568359375,86.35899099086761,12.61967568359375,86.33975099086761,12.21532568359375L86.33018099086762,11.722505683593749Z" fill="#FFFFFF" fill-opacity="1"/></g><g><path d="M91.09095704555511,16.2105701171875L91.09095704555511,3.2918701171875L93.56463704555512,3.2918701171875L93.56463704555512,7.9378001171875C94.22565704555511,7.1155101171875,95.22252704555511,6.6355301171875,96.27755704555511,6.6315801171875C97.35549704555511,6.606920117187499,98.38906704555511,7.0606401171875,99.10051704555511,7.8708201171875Q100.22013704555512,9.1052701171875,100.22013704555512,11.4210601171875Q100.22013704555512,13.8133701171875,99.07659704555512,15.1052701171875C98.39859704555512,15.9338701171875,97.38166704555512,16.4106701171875,96.31104704555511,16.4018701171875C95.75999704555511,16.397470117187503,95.21822704555511,16.2595701171875,94.73209704555512,15.9999701171875C94.19766704555512,15.7229701171875,93.73680704555511,15.3228701171875,93.38759704555511,14.8325701171875L93.38759704555511,16.205770117187498L91.09095704555511,16.2105701171875ZM93.55028704555511,11.3349301171875C93.49712704555512,12.0795101171875,93.65465704555511,12.8240201171875,94.00482704555512,13.4832701171875C94.35298704555511,14.0882701171875,94.99578704555512,14.4633701171875,95.69382704555511,14.4688701171875C96.25797704555511,14.4808701171875,96.79295704555511,14.2186701171875,97.12923704555512,13.7655701171875C97.56845704555512,13.1198001171875,97.77282704555512,12.3428901171875,97.70818704555512,11.5646001171875C97.70818704555512,10.4928301171875,97.51679704555511,9.727280117187501,97.12923704555512,9.2535901171875C96.77283704555512,8.7958701171875,96.22118704555511,8.5333501171875,95.64119704555512,8.545460117187499C95.06861704555511,8.5354501171875,94.52330704555511,8.7895701171875,94.16272704555512,9.2344501171875C93.71670704555511,9.8402001171875,93.49971704555512,10.5843901171875,93.55028704555511,11.3349301171875Z" fill="#FFFFFF" fill-opacity="1"/></g><g><path d="M104.57415852993012,16.210530625L102.10047852993011,16.210530625L102.10047852993011,6.866030625L104.39712852993011,6.866030625L104.39712852993011,8.191390625C104.66180852993011,7.709380625,105.02346852993011,7.287434625,105.45932852993012,6.952154625C105.77745852993012,6.748599425,106.14869852993012,6.643719015,106.52631852993011,6.65071962C107.10224852993011,6.657691485,107.66510852993011,6.823241625,108.15310852993011,7.129188625L107.38755852993012,9.282300625C107.04829852993012,9.039720625000001,106.64625852993011,8.900160625,106.22965852993012,8.880380625C105.91168852993012,8.870460625,105.60026852993012,8.972010625,105.34927852993012,9.167470625C105.06113852993012,9.443260625,104.86414852993012,9.800520625,104.78468852993012,10.191390625C104.60405852993011,11.224050625,104.53507852993012,12.273150625,104.57894852993012,13.320580625L104.57415852993012,16.210530625Z" fill="#FFFFFF" fill-opacity="1"/></g><g><path d="M109.22010743618011,5.59805412109375L109.22010743618011,3.31097412109375L111.69378743618012,3.31097412109375L111.69378743618012,5.59805412109375L109.22010743618011,5.59805412109375ZM109.22010743618011,16.21047412109375L109.22010743618011,6.86599412109375L111.69378743618012,6.86599412109375L111.69378743618012,16.21047412109375L109.22010743618011,16.21047412109375Z" fill="#FFFFFF" fill-opacity="1"/></g><g><path d="M122.37800032680511,9.626818496093751L119.93781032680512,10.06700849609375C119.88974032680511,9.64476849609375,119.69097032680511,9.25402849609375,119.37800032680511,8.96653849609375C119.05862032680511,8.71106849609375,118.65740032680512,8.58015849609375,118.24881032680511,8.59810849609375C117.68626032680511,8.57450849609375,117.14367032680511,8.80880849609375,116.77513032680511,9.23447849609375C116.40670032680511,9.66030849609375,116.22489032680511,10.37322849609375,116.22489032680511,11.36844849609375Q116.22489032680511,13.03351849609375,116.78470032680511,13.71772849609375C117.14611032680511,14.17225849609375,117.70200032680512,14.42800849609375,118.28231032680512,14.40672849609375C118.70377032680511,14.42410849609375,119.11606032680511,14.280408496093749,119.43542032680512,14.00480849609375C119.80023032680512,13.630008496093751,120.03215032680511,13.14597849609375,120.09570032680512,12.626818496093751L122.52154032680511,13.04308849609375C122.35145032680512,14.02515849609375,121.84376032680511,14.91700849609375,121.08613032680512,15.56461849609375C120.25520032680511,16.16978849609375,119.24202032680512,16.47204849609375,118.21532032680511,16.42107849609375C116.99041032680512,16.47781849609375,115.80016032680511,16.005548496093752,114.94738032680512,15.12442849609375C114.13398232680511,14.26318849609375,113.73207032680511,13.07179849609375,113.73207032680511,11.54547849609375C113.73207032680511,10.01916849609375,114.13877232680511,8.79906849609375,114.95217032680512,7.94260849609375C115.82081032680512,7.05907349609375,117.02569032680512,6.58896139609375,118.26317032680511,6.65074351609375C119.22276032680512,6.60218959609375,120.17291032680511,6.86025449609375,120.97609032680512,7.38758549609375C121.67845032680512,7.95816849609375,122.17155032680512,8.74576849609375,122.37800032680511,9.626818496093751Z" fill="#FFFFFF" fill-opacity="1"/></g></g></g></g></svg>