<?xml version="1.0" encoding="UTF-8"?>
<svg width="22px" height="24px" viewBox="0 0 22 24" version="1.1" xmlns="http://www.w3.org/2000/svg" xmlns:xlink="http://www.w3.org/1999/xlink">
    <title>ppt</title>
    <g id="页面-1" stroke="none" stroke-width="1" fill="none" fill-rule="evenodd">
        <g id="编组" transform="translate(-1.000000, 0.000000)" fill-rule="nonzero">
            <g id="ppt" transform="translate(1.560000, 0.480000)">
                <path d="M0.96,0 L15.288,0 C15.5276823,0.00123171933 15.7584583,0.0909779467 15.936,0.252 L20.568,4.548 C20.7656122,4.73057166 20.8785981,4.9869628 20.88,5.256 L20.88,22.08 C20.88,22.6101934 20.4501934,23.04 19.92,23.04 L0.96,23.04 C0.42980664,23.04 0,22.6101934 0,22.08 L0,0.96 C0,0.42980664 0.42980664,0 0.96,0 Z" id="路径" fill="#FF764B"></path>
                <path d="M16.92,8.04 L13.44,8.04 L13.44,6.36 C13.4150201,6.16395648 13.241108,6.02166471 13.044,6.036 L3.924,6.984 C3.74222528,7.0081084 3.60489388,7.16069885 3.6,7.344 L3.6,16.896 C3.60489388,17.0793012 3.74222528,17.2318916 3.924,17.256 L13.044,18.204 L13.08,18.204 C13.2788225,18.204 13.44,18.0428225 13.44,17.844 L13.44,16.2 L16.92,16.2 C17.1188225,16.2 17.28,16.0388225 17.28,15.84 L17.28,8.4 C17.28,8.20117749 17.1188225,8.04 16.92,8.04 Z M8.616,13.104 L7.944,13.104 L7.944,15 L6.576,15 L6.576,9.288 L8.58,9.288 C9.84,9.288 10.872,9.732 10.872,11.148 C10.872,12.504 9.816,13.104 8.616,13.104 Z M16.56,15.48 L13.44,15.48 L13.44,13.68 L15.36,13.68 L15.36,12.84 L13.44,12.84 L13.44,11.28 L15.36,11.28 L15.36,10.44 L13.44,10.44 L13.44,8.76 L16.56,8.76 L16.56,15.48 Z" id="形状" fill="#FFFFFF"></path>
                <path d="M8.52,10.368 L7.956,10.368 L7.956,12.024 L8.556,12.024 C9.228,12.024 9.552,11.712 9.552,11.148 C9.552,10.584 9.18,10.368 8.52,10.368 Z" id="路径" fill="#FFFFFF"></path>
            </g>
        </g>
    </g>
</svg>