<?xml version="1.0" encoding="UTF-8"?>
<svg width="20px" height="22px" viewBox="0 0 20 22" version="1.1" xmlns="http://www.w3.org/2000/svg" xmlns:xlink="http://www.w3.org/1999/xlink">
    <title>word</title>
    <g id="帮助中心" stroke="none" stroke-width="1" fill="none" fill-rule="evenodd">
        <g id="前台-帮助中心" transform="translate(-101.000000, -516.000000)" fill-rule="nonzero">
            <g id="PPT卡片111备份" transform="translate(100.000000, 515.000000)">
                <g id="编组" transform="translate(0.000000, 1.000000)">
                    <g id="word" transform="translate(1.431154, 0.440000)">
                        <path d="M0.88071025,0 L14.0253107,0 C14.2454883,0 14.4656659,0.088 14.6197902,0.231 L18.8692171,4.169 C19.0453592,4.334 19.1554479,4.565 19.1554479,4.818 L19.1554479,20.24 C19.1554479,20.724 18.7591283,21.12 18.2747377,21.12 L0.88071025,21.12 C0.396319613,21.12 0,20.724 0,20.24 L0,0.88 C0,0.396 0.396319613,0 0.88071025,0 Z" id="路径" fill="#2A92FF"></path>
                        <path d="M15.5225182,7.37 L12.3299435,7.37 L12.3299435,5.863 L12.3299435,5.83 C12.3079257,5.654 12.1538015,5.522 11.9666505,5.533 L3.59990315,6.402 C3.43476998,6.424 3.30266344,6.556 3.30266344,6.732 L3.30266344,15.488 C3.30266344,15.653 3.43476998,15.796 3.59990315,15.818 L11.9666505,16.687 L11.9996772,16.687 C12.1868281,16.687 12.3299435,16.544 12.3299435,16.357 L12.3299435,14.85 L15.5225182,14.85 C15.7096691,14.85 15.8527845,14.707 15.8527845,14.52 L15.8527845,7.7 C15.8527845,7.513 15.7096691,7.37 15.5225182,7.37 Z M10.0951412,13.706 L8.50986279,13.706 L8.03648103,11.429 C7.94841001,11.033 7.88235674,10.604 7.82731235,10.208 L7.79428571,10.208 C7.72823245,10.604 7.66217918,11.022 7.58511703,11.429 L7.12274415,13.706 L5.58150121,13.706 L4.62372881,8.47 L5.91176755,8.47 L6.2420339,10.857 L6.45120258,12.518 L6.48422922,12.518 C6.58330912,11.957 6.6933979,11.396 6.7924778,10.857 L7.33191283,8.47 L8.38876513,8.47 L8.93920904,10.857 C9.04929782,11.396 9.13736885,11.957 9.24745763,12.518 L9.28048426,12.518 C9.34653753,11.957 9.4125908,11.396 9.47864407,10.857 L9.81991929,8.47 L11.0088781,8.47 L10.0951412,13.706 Z M15.1922518,14.19 L12.3299435,14.19 L12.3299435,12.54 L14.091364,12.54 L14.091364,11.77 L12.3299435,11.77 L12.3299435,10.34 L14.091364,10.34 L14.091364,9.57 L12.3299435,9.57 L12.3299435,8.03 L15.1922518,8.03 L15.1922518,14.19 Z" id="形状" fill="#FFFFFF"></path>
                    </g>
                </g>
            </g>
        </g>
    </g>
</svg>