<?xml version="1.0" standalone="no"?><!DOCTYPE svg PUBLIC "-//W3C//DTD SVG 1.1//EN" "http://www.w3.org/Graphics/SVG/1.1/DTD/svg11.dtd"><svg t="1666072416627" class="icon" viewBox="0 0 1024 1024" version="1.1" xmlns="http://www.w3.org/2000/svg" p-id="1660" xmlns:xlink="http://www.w3.org/1999/xlink" width="200" height="200"><path d="M916.48 1009.265778H185.173333a32.312889 32.312889 0 0 1-32.142222-32.312889V47.672889c0-17.749333 14.506667-32.312889 32.142222-32.312889h557.681778l205.653333 226.247111v735.345778a31.857778 31.857778 0 0 1-32.142222 32.312889z" p-id="1661"></path><path d="M749.340444 0.796444H185.230222c-25.713778 0-46.592 21.048889-46.592 46.876445v929.28c0 25.884444 20.878222 46.876444 46.648889 46.876444h731.136c25.713778 0 46.648889-21.048889 46.648889-46.876444V235.975111L749.340444 0.796444z m-8.078222 33.166223l180.792889 198.769777h-163.100444a17.863111 17.863111 0 0 1-17.635556-17.806222V33.962667zM916.48 995.555556H185.173333a17.863111 17.863111 0 0 1-17.635555-17.806223V47.672889c0-9.671111 7.964444-17.749333 17.635555-17.749333h527.132445v184.206222c0 25.884444 20.878222 46.876444 46.648889 46.876444h175.900444v716.8a18.602667 18.602667 0 0 1-18.488889 17.749334z" p-id="1662"></path><path d="M574.976 221.411556l-487.765333 50.915555a32.426667 32.426667 0 0 0-29.696 32.312889v467.057778c0 16.156444 12.003556 30.72 28.899555 32.369778l487.765334 47.672888a31.744 31.744 0 0 0 35.328-32.369777V253.724444a32.426667 32.426667 0 0 0-34.531556-32.312888z m-208.156444 448.512l-24.064-50.915556c-6.428444-13.767111-12.060444-27.477333-19.342223-43.633778h-1.592889c-6.428444 16.156444-12.003556 29.866667-17.635555 43.633778l-22.528 50.915556H215.04l71.509333-134.997334-67.470222-126.862222h69.859556l20.935111 46.876444c5.575111 12.117333 11.207111 25.884444 19.285333 42.837334h1.592889c5.632-16.952889 11.264-30.72 16.839111-42.837334l18.488889-46.876444h65.934222L364.430222 538.168889l71.509334 131.754667H366.819556z" p-id="1663"></path></svg>