<?xml version="1.0" standalone="no"?><!DOCTYPE svg PUBLIC "-//W3C//DTD SVG 1.1//EN" "http://www.w3.org/Graphics/SVG/1.1/DTD/svg11.dtd"><svg t="1744335576319" class="icon" viewBox="0 0 1024 1024" version="1.1" xmlns="http://www.w3.org/2000/svg" p-id="15496" xmlns:xlink="http://www.w3.org/1999/xlink" width="200" height="200"><path d="M475.34592 19.82976l-416.70656 208.4864a71.68 71.68 0 0 0-29.6448 27.648C8.8576 290.05312 20.1728 334.0032 54.25152 354.13504l416.08704 245.73952a81.92 81.92 0 0 0 83.31264 0l416.08704-245.73952a71.68 71.68 0 0 0 27.648-29.6448c17.7152-35.4048 3.3792-78.464-32.03072-96.1792L548.6592 19.82464a81.92 81.92 0 0 0-73.30816 0z" p-id="15497"></path><path d="M24.9856 490.85952a30.72 30.72 0 0 1 41.1904-10.8032l1.04448 0.6144 439.43936 268.544a10.24 10.24 0 0 0 9.9072 0.42496l0.768-0.42496 439.4496-268.544a30.72 30.72 0 0 1 33.0496 51.77344l-1.01376 0.65024-439.44448 268.544a71.68 71.68 0 0 1-73.18016 0.93696l-1.57184-0.93696L35.1744 533.0944a30.72 30.72 0 0 1-10.1888-42.23488z" p-id="15498"></path><path d="M24.9856 690.53952a30.72 30.72 0 0 1 41.1904-10.8032l1.04448 0.6144 439.43936 268.544a10.24 10.24 0 0 0 9.9072 0.42496l0.768-0.42496 439.4496-268.544a30.72 30.72 0 0 1 33.0496 51.77344l-1.01376 0.65024-439.44448 268.544a71.68 71.68 0 0 1-73.18016 0.93696l-1.57184-0.93696L35.1744 732.7744a30.72 30.72 0 0 1-10.1888-42.23488z" p-id="15499"></path></svg>