<?xml version="1.0" standalone="no"?><!DOCTYPE svg PUBLIC "-//W3C//DTD SVG 1.1//EN" "http://www.w3.org/Graphics/SVG/1.1/DTD/svg11.dtd"><svg t="1693635774121" class="icon" viewBox="0 0 1024 1024" version="1.1" xmlns="http://www.w3.org/2000/svg" p-id="7289" xmlns:xlink="http://www.w3.org/1999/xlink" width="200" height="200"><path d="M0 0m64 0l896 0q64 0 64 64l0 896q0 64-64 64l-896 0q-64 0-64-64l0-896q0-64 64-64Z" fill="#3AC4FF" p-id="7290"></path><path d="M325.305 412.12a591.436 591.436 0 0 1 59.73-182.968 314.864 314.864 0 0 0-40.888 22.213A308.248 308.248 0 0 0 239.36 364.217a416.279 416.279 0 0 0 85.944 47.869v0.034z m51.152 231.836c88.217 30.546 185.804 31.062 276.604-1.619a537.96 537.96 0 0 0-2.72-190.303c-53.737 21.076-110.126 31.614-166.446 31.614-41.886 0-83.635-5.855-124.11-17.22a559.825 559.825 0 0 0 16.672 177.528z m301.681-248.641a420.728 420.728 0 0 0 87.494-61.54 308.847 308.847 0 0 0-177.157-122.117 591.512 591.512 0 0 1 89.698 183.657h-0.035z m16.259 36.917c-2.067 1.102-4.271 2.032-6.338 3.1 13.055 61.953 15.914 125.663 8.267 188.65a417.825 417.825 0 0 0 125.143-94.153 308.774 308.774 0 0 0-34.584-161.1 456.762 456.762 0 0 1-92.488 63.503z m-330.444-6.405c90.112 26.999 188.077 23.073 277.19-13.259a548.893 548.893 0 0 0-110.78-210.002 309.954 309.954 0 0 0-87.665 7.198 549.61 549.61 0 0 0-78.745 216.063zM643.52 687.898a455.385 455.385 0 0 1-252.699 2.755A540.174 540.174 0 0 0 451.206 810.6c1.378 2.066 2.859 4.133 4.271 6.13a309.609 309.609 0 0 0 140.369-6.199 544.69 544.69 0 0 0 47.674-122.598v-0.035z m-312.704-62.78a600.794 600.794 0 0 1-10.334-171.672 456.797 456.797 0 0 1-98.172-52.001 311.179 311.179 0 0 0-19.91 126.352 413.001 413.001 0 0 0 128.45 97.356l-0.034-0.035z m405.33 23.521c-15.57 8.713-31.484 16.392-47.605 23.142-8.267 39.845-20.805 79.207-37.615 117.399 77.823-38.851 135.654-108.708 159.28-192.404-22.838 19.63-47.536 36.986-74.06 51.863z m-392.93 26a454.814 454.814 0 0 1-130.172-79.895 310.73 310.73 0 0 0 38.201 85.061 308.657 308.657 0 0 0 146.018 120.188 587.088 587.088 0 0 1-54.046-125.353z" fill="#FFFFFF" p-id="7291"></path></svg>
