<?xml version="1.0" standalone="no"?><!DOCTYPE svg PUBLIC "-//W3C//DTD SVG 1.1//EN" "http://www.w3.org/Graphics/SVG/1.1/DTD/svg11.dtd"><svg t="1693635750939" class="icon" viewBox="0 0 1024 1024" version="1.1" xmlns="http://www.w3.org/2000/svg" p-id="6470" xmlns:xlink="http://www.w3.org/1999/xlink" width="200" height="200"><path d="M0 0m64 0l896 0q64 0 64 64l0 896q0 64-64 64l-896 0q-64 0-64-64l0-896q0-64 64-64Z" fill="#8894FF" p-id="6471"></path><path d="M441.988 598.639c0-18.016 1.471-9.737-93.02-202.244-8.919-18.077-27.076-29.485-46.93-29.485s-38.012 11.408-46.93 29.485c-95.376 194.137-93.103 184.786-93.103 202.2 0 49.243 62.671 89.134 139.948 89.134 77.277 0 139.991-39.891 139.991-89.133l0.044 0.043zM302.046 419.35l78.747 167.215H223.299l78.747-167.17v-0.045z m559.912 179.258c0-18.013 1.516-9.736-93.047-202.217-8.921-18.075-27.084-29.481-46.945-29.481-19.86 0-38.023 11.406-46.944 29.48-95.278 194.112-93.005 184.762-93.005 202.218 0 49.235 62.733 89.12 139.992 89.12 77.3 0 139.991-39.885 139.991-89.12h-0.042zM721.974 419.434l78.747 167.215H643.228l78.746-167.215z m17.49 314.017H546.99V387.66a87.58 87.58 0 0 0 50.729-62.614h141.702c9.64 0 17.47-7.832 17.47-17.474v-35.118c0-9.65-7.821-17.474-17.47-17.474H581.596A86.716 86.716 0 0 0 512.008 220a86.716 86.716 0 0 0-69.588 34.979H284.552c-9.649 0-17.47 7.823-17.47 17.474v34.95c0 9.642 7.788 17.432 17.47 17.432h141.66a87.58 87.58 0 0 0 50.812 62.824v345.75H284.552c-9.649 0-17.47 7.824-17.47 17.475v34.949c0 9.643 7.788 17.475 17.47 17.475h454.954c9.64 0 17.428-7.832 17.428-17.475v-34.95c-0.023-9.617-7.812-17.409-17.428-17.432h-0.042z" fill="#FFFFFF" p-id="6472"></path></svg>