<?xml version="1.0" standalone="no"?><!DOCTYPE svg PUBLIC "-//W3C//DTD SVG 1.1//EN" "http://www.w3.org/Graphics/SVG/1.1/DTD/svg11.dtd"><svg t="1693895417761" class="icon" viewBox="0 0 1024 1024" version="1.1" xmlns="http://www.w3.org/2000/svg" p-id="6503" xmlns:xlink="http://www.w3.org/1999/xlink" width="200" height="200"><path d="M0 0m64 0l896 0q64 0 64 64l0 896q0 64-64 64l-896 0q-64 0-64-64l0-896q0-64 64-64Z" fill="#59A3FF" p-id="6504"></path><path d="M322 212v78c0 22.091 17.909 40 40 40h300c22.091 0 40-17.909 40-40v-78h46c35.346 0 64 28.654 64 64v472c0 35.346-28.654 64-64 64H276c-35.346 0-64-28.654-64-64V276c0-35.346 28.654-64 64-64h46z m352.826 228.228c-10.92-10.95-28.648-10.974-39.598-0.054L475.9 599.06l-85.82-98.16-0.307-0.346c-10.224-11.319-27.676-12.38-39.202-2.304-11.642 10.178-12.828 27.867-2.65 39.51l105.5 120.67 0.322 0.362c10.706 11.835 29.183 12.35 40.53 1.034l180.5-180 0.325-0.33c10.624-10.943 10.54-28.427-0.27-39.268z" fill="#FFFFFF" p-id="6505"></path><path d="M364 212h296v44c0 17.673-14.327 32-32 32H396c-17.673 0-32-14.327-32-32v-44z" fill="#FFFFFF" p-id="6506"></path></svg>