<?xml version="1.0" standalone="no"?><!DOCTYPE svg PUBLIC "-//W3C//DTD SVG 1.1//EN" "http://www.w3.org/Graphics/SVG/1.1/DTD/svg11.dtd"><svg t="1712728078063" class="icon" viewBox="0 0 1024 1024" version="1.1" xmlns="http://www.w3.org/2000/svg" p-id="9747" xmlns:xlink="http://www.w3.org/1999/xlink" width="64" height="64"><path d="M0 0m64 0l896 0q64 0 64 64l0 896q0 64-64 64l-896 0q-64 0-64-64l0-896q0-64 64-64Z" fill="#3AC4FF" p-id="9748"></path><path d="M256 222h201.305a64 64 0 0 1 41 14.858l69.291 57.812a64 64 0 0 0 41.001 14.858H768c35.346 0 64 28.654 64 64V738c0 35.346-28.654 64-64 64H256c-35.346 0-64-28.654-64-64V286c0-35.346 28.654-64 64-64z" fill="#FFFFFF" p-id="9749"></path><path d="M624 375c38.108 0 69 30.892 69 69 0 38.108-30.892 69-69 69-18.584 0-35.451-7.347-47.857-19.294l-106.593 54.31c0.297 2.62 0.45 5.284 0.45 7.984 0 4.166-0.364 8.246-1.062 12.212l106.298 49.568C587.841 605.538 605.04 598 624 598c38.66 0 70 31.34 70 70s-31.34 70-70 70-70-31.34-70-70c0-2.362 0.117-4.697 0.346-6.999L444.7 609.871C432.575 619.945 416.995 626 400 626c-38.66 0-70-31.34-70-70s31.34-70 70-70c18.605 0 35.515 7.258 48.052 19.098l107.246-54.645A69.862 69.862 0 0 1 555 444c0-38.108 30.892-69 69-69z" fill="#3AC4FF" p-id="9750"></path></svg>