<?xml version="1.0" encoding="UTF-8"?>
<svg width="200px" height="200px" viewBox="0 0 200 200" version="1.1" xmlns="http://www.w3.org/2000/svg" xmlns:xlink="http://www.w3.org/1999/xlink">
    <!-- Generator: Sketch 64 (93537) - https://sketch.com -->
    <title>审核管理</title>
    <desc>Created with Sketch.</desc>
    <g id="审核管理" stroke="none" stroke-width="1" fill="none" fill-rule="evenodd">
        <path d="M100,11 C88.954305,11 78.954305,15.4771525 71.7157288,22.7157288 C64.4771525,29.954305 60,39.954305 60,51 C60,65.7692416 68.0055547,78.6674243 79.9102159,85.5979721 L76.1720625,105 L28,105 C23.3055796,105 19.0555796,106.90279 15.9791847,109.979185 C12.9027898,113.05558 11,117.30558 11,122 C11,126.69442 12.9027898,130.94442 15.9791847,134.020815 C19.0555796,137.09721 23.3055796,139 28,139 L172,139 C176.69442,139 180.94442,137.09721 184.020815,134.020815 C187.09721,130.94442 189,126.69442 189,122 C189,117.30558 187.09721,113.05558 184.020815,109.979185 C180.94442,106.90279 176.69442,105 172,105 L123.826316,105 L120.090236,85.597709 C131.994648,78.6670978 140,65.7690547 140,51 C140,39.954305 135.522847,29.954305 128.284271,22.7157288 C121.045695,15.4771525 111.045695,11 100,11 Z" id="形状结合" stroke="#000000" stroke-width="14" fill="#070707"></path>
        <rect id="矩形" fill="#000000" x="8" y="172" width="184" height="24" rx="12"></rect>
    </g>
</svg>