<?xml version="1.0" standalone="no"?><!DOCTYPE svg PUBLIC "-//W3C//DTD SVG 1.1//EN" "http://www.w3.org/Graphics/SVG/1.1/DTD/svg11.dtd"><svg t="1693876653950" class="icon" viewBox="0 0 1024 1024" version="1.1" xmlns="http://www.w3.org/2000/svg" p-id="12525" xmlns:xlink="http://www.w3.org/1999/xlink" width="200" height="200"><path d="M0 0m64 0l896 0q64 0 64 64l0 896q0 64-64 64l-896 0q-64 0-64-64l0-896q0-64 64-64Z" fill="#59A3FF" p-id="12526"></path><path d="M832 717.78c0 35.346-28.654 64-64 64H256c-35.346 0-64-28.654-64-64V441.02h0.088a2 2 0 0 1 0.366-0.683L335.84 265.764a64 64 0 0 1 49.457-23.38H645.57a64 64 0 0 1 50.321 24.455l135.68 172.65a2 2 0 0 1 0.428 1.237zM643.627 310.383H387.186L279.889 441.021h80.338c17.496 0 31.713 14.042 31.995 31.47l0.005 0.53v32.594c0 17.673 14.327 32 32 32h196.34c17.674 0 32-14.327 32-32V473.02c0-17.673 14.328-32 32-32h61.723L643.627 310.384z" fill="#FFFFFF" p-id="12527"></path></svg>