<?xml version="1.0" standalone="no"?><!DOCTYPE svg PUBLIC "-//W3C//DTD SVG 1.1//EN" "http://www.w3.org/Graphics/SVG/1.1/DTD/svg11.dtd"><svg t="1690772623062" class="icon" viewBox="0 0 1024 1024" version="1.1" xmlns="http://www.w3.org/2000/svg" p-id="16333" xmlns:xlink="http://www.w3.org/1999/xlink" width="200" height="200"><path d="M353.462857 686.701714a333.202286 333.202286 0 0 1 166.582857-621.714285 333.202286 333.202286 0 0 1 166.582857 621.714285v117.76a32.475429 32.475429 0 0 1-32.548571 32.475429h-268.105143a32.475429 32.475429 0 0 1-32.512-32.512v-117.723429z m44.690286 215.259429h243.785143c4.461714 0 8.118857 3.657143 8.118857 8.118857v32.512a32.475429 32.475429 0 0 1-32.512 32.475429h-194.998857a32.475429 32.475429 0 0 1-32.548572-32.475429v-32.548571c0-4.425143 3.657143-8.082286 8.155429-8.082286z" p-id="16334"></path></svg>