<?xml version="1.0" standalone="no"?><!DOCTYPE svg PUBLIC "-//W3C//DTD SVG 1.1//EN" "http://www.w3.org/Graphics/SVG/1.1/DTD/svg11.dtd"><svg t="1690772619581" class="icon" viewBox="0 0 1024 1024" version="1.1" xmlns="http://www.w3.org/2000/svg" p-id="16185" xmlns:xlink="http://www.w3.org/1999/xlink" width="200" height="200"><path d="M847.104 336.091429h-227.510857V235.593143a28.416 28.416 0 0 0-28.452572-28.416H228.534857v-35.547429a7.131429 7.131429 0 0 0-7.094857-7.131428H171.666286a7.131429 7.131429 0 0 0-7.131429 7.131428v696.758857c0 3.913143 3.218286 7.094857 7.131429 7.094858h49.737143a7.131429 7.131429 0 0 0 7.131428-7.094858V633.782857h220.416v100.461714c0 15.725714 12.690286 28.416 28.416 28.416h369.737143c15.725714 0 28.416-12.690286 28.416-28.416V364.507429a28.416 28.416 0 0 0-28.416-28.452572z" p-id="16186"></path></svg>