<?xml version="1.0" standalone="no"?><!DOCTYPE svg PUBLIC "-//W3C//DTD SVG 1.1//EN" "http://www.w3.org/Graphics/SVG/1.1/DTD/svg11.dtd"><svg class="icon" width="200px" height="200.00px" viewBox="0 0 1024 1024" version="1.1" xmlns="http://www.w3.org/2000/svg"><path d="M662.08256 590.53056c-8.93952-3.61472-19.97312-6.89152-33.10592-15.5904-19.08736-12.544-33.65376-38.53312 1.65376-70.4 116.9664-177.73568 74.37312-295.93088 56.60672-340.33664 14.78656-6.10304 31.77984-9.71776 50.97984-9.71776h6.0672c112 0 141.68064 107.34592 143.99488 167.57248 1.54624 142.0288-80.88064 198.528-80.88064 198.528s-5.0688 7.45984-5.0688 29.15328c0 4.864 3.08224 19.6608 8.2688 24.18176 45.9008 39.20896 199.28064 80.11264 209.98144 164.6336 5.632 24.5248 2.31424 49.83296 1.21344 73.33376-25.15968 20.33664-105.48736 37.51424-105.48736 37.51424s-6.7328-21.35552-13.4656-56.72448c-9.81504-52.20352-76.9024-136.72448-240.75776-202.14784z"  /><path d="M302.22336 592.69632c6.62016-5.53472 10.48576-23.95136 10.48576-30.0544 0-26.89536-6.4-36.15744-6.4-36.15744 0.10752 0.11264-103.72096-59.10016-101.62688-246.32832 2.75968-74.8032 46.45376-208.0256 180.96128-208.0256h7.72608c140.79488 0 178.19648 133.2224 180.95616 208.0256 1.87392 176.27136-101.62688 246.3232-101.62688 246.3232s-12.57472 15.14496-12.57472 42.0352c0 6.10304 10.0352 18.64704 16.54784 24.18176 57.82016 48.70144 265.81504 97.85344 279.27552 202.71616 10.37312 44.5184 72.16128 115.13856-133.18144 143.49824-56.49408 7.79776-133.4016 12.43136-237.12256 12.43136-476.23168 0-381.12256-98.07872-368.5376-155.3664 22.61504-102.48704 227.3024-154.57792 285.11744-203.27936z"  /></svg>