<?xml version="1.0" standalone="no"?><!DOCTYPE svg PUBLIC "-//W3C//DTD SVG 1.1//EN" "http://www.w3.org/Graphics/SVG/1.1/DTD/svg11.dtd"><svg class="icon" width="200px" height="200.00px" viewBox="0 0 1024 1024" version="1.1" xmlns="http://www.w3.org/2000/svg"><path d="M410.092 512c0-56.332 45.668-102 102-102 56.335 0 102 45.668 102 102 0 56.335-45.665 102-102 102-56.332 0-102-45.665-102-102z m320.583-27.21l44.954-27.148c15.128-9.137 19.985-28.807 10.849-43.935a31.998 31.998 0 0 0-0.384-0.62l-62.469-98.31c-9.326-14.676-28.667-19.22-43.552-10.229l-47.346 28.595a219.812 219.812 0 0 0-29.726-15.76V264c0-17.673-14.327-32-32-32H451.185c-17.673 0-32 14.327-32 32v55.84a219.37 219.37 0 0 0-26.892 15.016l-50.185-30.309c-14.886-8.99-34.226-4.446-43.552 10.23l-62.467 98.31c-9.479 14.917-5.07 34.692 9.847 44.17 0.205 0.13 0.41 0.259 0.619 0.384l50.123 30.27c-0.912 7.912-1.427 15.94-1.427 24.09 0 8.146 0.515 16.176 1.427 24.085l-50.125 30.275c-15.128 9.137-19.985 28.808-10.848 43.936a32 32 0 0 0 0.383 0.618l62.468 98.306c9.326 14.676 28.666 19.22 43.551 10.23l50.186-30.31a219.787 219.787 0 0 0 26.892 15.022V760c0 17.674 14.327 32 32 32h119.816c17.673 0 32-14.326 32-32v-53.382a220.135 220.135 0 0 0 29.726-15.76l47.35 28.593c14.885 8.99 34.224 4.447 43.55-10.23l62.468-98.307c9.479-14.916 5.07-34.692-9.846-44.17-0.205-0.13-0.41-0.258-0.618-0.383l-44.956-27.154c1.168-8.913 1.833-17.98 1.833-27.207 0-9.226-0.665-18.294-1.833-27.21z" fill="#000000" /></svg>