<?xml version="1.0" standalone="no"?><!DOCTYPE svg PUBLIC "-//W3C//DTD SVG 1.1//EN" "http://www.w3.org/Graphics/SVG/1.1/DTD/svg11.dtd"><svg class="icon" width="200px" height="200.00px" viewBox="0 0 1024 1024" version="1.1" xmlns="http://www.w3.org/2000/svg"><path d="M896.2048 395.2384h-0.01024c0.39936 45.89568-7.11168 89.96352-21.28384 130.944-53.1456 153.67168-199.95648 263.9872-374.66112 265.1648-219.2128 1.44384-396.76928-173.2096-397.6704-391.23456-0.86528-218.2656 173.7216-393.23648 394.00448-394.86464 219.14624-1.62816 397.7216 172.71808 399.616 389.9904zM501.9392 189.55776l-61.696 125.0048-137.95328 20.04992L402.1248 431.91296l-23.56736 137.3952 123.392-64.8704 123.38688 64.8704-23.56736-137.3952 99.82464-97.30048-137.95328-20.04992-61.696-125.0048zM401.19296 846.42816c-4.3008 9.6768-6.38464 15.8976-9.6768 21.57056-25.088 43.0848-50.24768 86.1696-75.78624 129.00352-14.1568 23.7824-26.10176 25.09824-45.89056 5.07904-26.6752-26.94656-51.51232-55.68512-79.89248-80.896-14.22336-12.61568-33.50528-22.71232-52.34176-27.5456-36.72576-9.4464-74.83904-13.7472-112.128-21.27872-26.49088-5.31456-31.48288-16.18944-18.20672-38.53824 27.68384-46.42816 56.064-92.49792 84.25472-138.624 19.72224-32.2048 29.26592-33.8176 56.32-7.58784 52.65408 51.02592 111.5648 93.51168 180.97152 122.13248 16.6912 6.87104 34.44736 11.4688 50.75968 18.944 8.27904 3.88096 14.5408 11.8272 21.61664 17.7408z m591.8976 25.5744c-39.57248 8.66304-80.0256 13.86496-119.53152 23.00416-14.91968 3.46624-30.40256 11.71456-41.40032 21.87264-29.6448 27.48416-56.76544 57.35936-85.33504 85.91872-18.77504 18.7648-31.22688 17.8688-44.37504-4.3008-26.35776-44.21632-51.70176-88.9088-77.30176-133.4784-10.68544-18.5856-5.05856-30.95552 16.3072-37.5808 91.904-28.3904 167.94624-79.7184 234.38336-145.02912 18.83648-18.46272 31.16032-17.02912 44.81536 4.72064 30.464 48.57856 60.42624 97.39776 90.44992 146.21696 3.03616 4.89984 4.99712 10.3424 10.24 21.26848-9.1648 5.85728-17.82272 15.05792-28.25216 17.38752z" /></svg>
