<?xml version="1.0" standalone="no"?><!DOCTYPE svg PUBLIC "-//W3C//DTD SVG 1.1//EN" "http://www.w3.org/Graphics/SVG/1.1/DTD/svg11.dtd"><svg t="1689143660192" class="icon" viewBox="0 0 1024 1024" version="1.1" xmlns="http://www.w3.org/2000/svg" p-id="16128" xmlns:xlink="http://www.w3.org/1999/xlink" width="200" height="200"><path d="M500.111967 794.050443C280.898296 795.522428 103.348182 619.092302 102.452192 398.886642 101.572201 178.408984 276.162346 1.658862 496.432006 0.02688 715.581678-1.621103 894.15578 174.473026 896.04376 393.926695a396.987782 396.987782 0 0 1-21.279774 132.270594c-53.151435 155.214351-199.949876 266.653167-374.652019 267.837154zM401.057019 849.697852c-4.287954 9.759896-6.383932 16.047829-9.663897 21.775769a15033.120273 15033.120273 0 0 1-75.791195 130.318615c-14.15985 23.999745-26.111723 25.343731-45.887512 5.119946-26.671717-27.215711-51.519453-56.255402-79.903151-81.711132-14.223849-12.735865-33.503644-22.943756-52.319444-27.839704-36.73561-9.519899-74.847205-13.871853-112.158809-21.471772C-1.130707 870.513631-6.122654 859.521748 7.157205 836.961987c27.679706-46.895502 56.063404-93.439007 84.255104-140.030512 19.72779-32.527654 29.279689-34.159637 56.319402-7.663918 52.639441 51.551452 111.566815 94.462996 180.958077 123.358689 16.703823 6.943926 34.463634 11.599877 50.767461 19.135797 8.287912 3.919958 14.543845 11.951873 21.61577 17.919809z m591.897711 25.823726c-39.56758 8.751907-80.03115 13.999851-119.51873 23.231753-14.927841 3.519963-30.415677 11.839874-41.42356 22.095765-29.631685 27.759705-56.751397 57.935384-85.327093 86.783078-18.767801 18.959799-31.215668 18.047808-44.367529-4.335954-26.36772-44.671525-51.711451-89.807046-77.311178-134.830567-10.671887-18.767801-5.055946-31.263668 16.319826-37.967597 91.903024-28.671695 167.934216-80.511145 234.36551-146.478444 18.8478-18.655802 31.167669-17.199817 44.815524 4.76795 30.479676 49.071479 60.431358 98.382955 90.463039 147.678431 3.039968 4.959947 4.991947 10.447889 10.239891 21.487771-9.167903 5.919937-17.823811 15.215838-28.2557 17.567814z" fill="#FAAD15" p-id="16129"></path><path d="M488.736088 599.620509c80.511145 0 149.598411-42.431549 149.59841-118.046746 0-52.223445-33.183647-84.863098-78.335167-98.462954v-2.719971c43.519538-17.407815 65.279306-48.95948 65.279306-89.215052 0-72.351231-54.943416-111.518815-138.718526-111.518815-47.871491 0-88.127064 18.495803-125.662665 50.047468l48.95948 59.29537c24.47974-21.215775 45.15152-33.727642 72.351231-33.727641 29.919682 0 46.239509 15.231838 46.239509 42.975543 0 32.095659-21.759769 53.311434-90.847035 53.311434v67.999277c84.863098 0 103.358902 20.67178 103.358902 55.487411 0 30.463676-24.47974 46.239509-62.015341 46.239508-31.551665 0-59.839364-15.775832-84.319104-39.167584l-44.607526 60.927353c29.375688 34.271636 74.527208 56.575399 138.718526 56.575399z" fill="#FFFFFF" p-id="16130"></path></svg>