<?xml version="1.0" standalone="no"?><!DOCTYPE svg PUBLIC "-//W3C//DTD SVG 1.1//EN" "http://www.w3.org/Graphics/SVG/1.1/DTD/svg11.dtd"><svg t="1683942204102" class="icon" viewBox="0 0 1024 1024" version="1.1" xmlns="http://www.w3.org/2000/svg" p-id="6514" xmlns:xlink="http://www.w3.org/1999/xlink" width="200" height="200"><path d="M49.194667 88.704h344.32q49.152 0 49.152 49.237333v344.704q0 49.237333-49.152 49.237334h-344.32Q0 531.882667 0 482.645333v-344.746666Q0 88.746667 49.194667 88.746667zM49.194667 580.821333h344.32q49.152 0 49.152 49.237334v344.704Q442.709333 1024 393.557333 1024h-344.32Q0 1024 0 974.762667v-344.704q0-49.237333 49.194667-49.237334z" fill="#126EE3" p-id="6515"></path><path d="M653.952 2.688l332.586667 89.216q47.488 12.757333 34.773333 60.330667l-89.130667 332.928q-12.714667 47.573333-60.245333 34.816l-332.544-89.173334q-47.530667-12.8-34.816-60.330666L593.706667 37.504q12.714667-47.573333 60.245333-34.816z" fill="#126EE3" fill-opacity=".4" p-id="6516"></path><path d="M541.056 580.821333h344.32q49.194667 0 49.194667 49.237334v344.704Q934.570667 1024 885.333333 1024h-344.32q-49.194667 0-49.194666-49.237333v-344.704q0-49.237333 49.194666-49.237334z" fill="#126EE3" p-id="6517"></path></svg>