<svg t="1692773837110" class="icon" viewBox="0 0 1024 1024" version="1.1" xmlns="http://www.w3.org/2000/svg" p-id="5876" width="200" height="200"><path d="M157.859858 0h191.652981c1.421336 14.725044 0.113707 29.961768 5.230518 44.118277a66.291123 66.291123 0 0 0 61.003752 43.777157h175.108626c12.109785-0.17056 24.617544 0.966509 36.329355-3.183793 24.276423-7.390949 42.810648-30.132329 45.48276-55.318407 0.795948-9.835647 1.250776-19.557587 1.705604-29.393234h191.31186a135.368065 135.368065 0 0 1 83.915692 32.29276c23.992156 20.353535 40.36595 49.291941 45.369054 80.333925 1.080216 5.401078 1.137069 10.972716 1.989871 16.430647v764.792613c-0.341121 2.387845-0.568535 4.832543-0.795949 7.277241A134.344703 134.344703 0 0 1 861.535012 1023.362104H177.872273c-12.394052-0.113707-24.901811 0.568535-37.125303-1.64875a134.742677 134.742677 0 0 1-113.706901-134.742677V131.558884A134.060436 134.060436 0 0 1 74.569554 31.951639 136.27772 136.27772 0 0 1 157.859858 0m84.711641 308.714235a26.948535 26.948535 0 0 0-16.089526 43.208622c4.889397 6.25388 12.735173 10.233621 20.751509 10.347328h523.620277c4.320862 0 8.869138 0.341121 13.133147-1.080216a27.119096 27.119096 0 0 0 14.49763-41.389311 26.266294 26.266294 0 0 0-20.296682-11.37069H246.153267a12.735173 12.735173 0 0 0-3.581768 0.227413m-1.364482 202.34143a27.062242 27.062242 0 0 0 5.003103 53.214829h531.181786a26.721122 26.721122 0 0 0 24.901811-34.510044 26.948535 26.948535 0 0 0-24.901811-19.44388H247.347189a26.948535 26.948535 0 0 0-6.140172 0.739095m4.377715 201.261214a27.005389 27.005389 0 0 0-16.658061 46.278708c4.94625 5.116811 12.166638 7.732069 19.216466 7.732069h521.85782c5.287371 0 10.859009 0.227414 15.918966-1.705603a26.777975 26.777975 0 0 0 17.056035-20.353535 26.948535 26.948535 0 0 0-26.380001-32.065346H547.249139c-100.573753 0.113707-201.147507-0.113707-301.72126 0.113707zM436.04379 0h158.166299c13.076294 0.909655 24.446984 12.507759 24.731251 25.584053a26.948535 26.948535 0 0 1-25.242932 28.369871H437.52198a26.03888 26.03888 0 0 1-20.126121-10.06306A27.232803 27.232803 0 0 1 415.349135 12.84888 27.573923 27.573923 0 0 1 436.100644 0z" p-id="5877"></path></svg>