<?xml version="1.0" standalone="no"?><!DOCTYPE svg PUBLIC "-//W3C//DTD SVG 1.1//EN" "http://www.w3.org/Graphics/SVG/1.1/DTD/svg11.dtd"><svg class="icon" width="200px" height="200.00px" viewBox="0 0 1024 1024" version="1.1" xmlns="http://www.w3.org/2000/svg"><path d="M921.6 20.48c45.24544 0 81.92 36.67456 81.92 81.92v583.68c0 45.24544-36.67456 81.92-81.92 81.92h-373.76v163.84h215.04a35.84 35.84 0 0 1 0 71.68H261.12a35.84 35.84 0 0 1 0-71.68h215.04v-163.84H102.4c-45.24544 0-81.92-36.67456-81.92-81.92V102.4c0-45.24544 36.67456-81.92 81.92-81.92h819.2z m0 71.68H102.4a10.24 10.24 0 0 0-10.2144 9.472L92.16 102.4v583.68a10.24 10.24 0 0 0 9.472 10.2144L102.4 696.32h819.2a10.24 10.24 0 0 0 10.2144-9.472L931.84 686.08V102.4a10.24 10.24 0 0 0-9.472-10.2144L921.6 92.16z"  /><path d="M163.84 163.84h696.32v460.8H163.84z"  /></svg>