<?xml version="1.0" standalone="no"?><!DOCTYPE svg PUBLIC "-//W3C//DTD SVG 1.1//EN" "http://www.w3.org/Graphics/SVG/1.1/DTD/svg11.dtd"><svg class="icon" width="200px" height="200.00px" viewBox="0 0 1024 1024" version="1.1" xmlns="http://www.w3.org/2000/svg"><path d="M890.88 87.04c45.24544 0 81.92 36.67456 81.92 81.92v741.9392c0 45.24544-36.67456 81.92-81.92 81.92h-0.45568l-757.76-4.20864c-45.06624-0.25088-81.46432-36.84864-81.46432-81.92V168.96c0-45.24544 36.67456-81.92 81.92-81.92h133.12v133.12c0 44.70272 35.80928 81.0496 80.3072 81.90464L348.16 302.08h327.68c45.24544 0 81.92-36.67456 81.92-81.92V87.04h133.12z m-189.44 655.36H322.56a35.84 35.84 0 0 0 0 71.68h378.88a35.84 35.84 0 0 0 0-71.68z m0-194.56H322.56a35.84 35.84 0 0 0 0 71.68h378.88a35.84 35.84 0 0 0 0-71.68z"  /><path d="M512 15.36c43.85792 0 80.5632 30.63808 89.87648 71.68H675.84v112.64a40.96 40.96 0 0 1-40.96 40.96H389.12a40.96 40.96 0 0 1-40.96-40.96V87.04h73.96352C431.4368 45.99808 468.14208 15.36 512 15.36z"  /></svg>