<svg t="1695805884097" class="icon" viewBox="0 0 1024 1024" version="1.1" xmlns="http://www.w3.org/2000/svg" p-id="6737" width="200" height="200"><path d="M0 0m64 0l896 0q64 0 64 64l0 896q0 64-64 64l-896 0q-64 0-64-64l0-896q0-64 64-64Z" fill="#14CEAA" p-id="6738"></path><path d="M322 212v78c0 22.091 17.909 40 40 40h300c22.091 0 40-17.909 40-40v-78h46c35.346 0 64 28.654 64 64v472c0 35.346-28.654 64-64 64H276c-35.346 0-64-28.654-64-64V276c0-35.346 28.654-64 64-64h46z m322 444H380c-15.464 0-28 12.536-28 28s12.536 28 28 28h264c15.464 0 28-12.536 28-28s-12.536-28-28-28z m0-116H380c-15.464 0-28 12.536-28 28s12.536 28 28 28h264c15.464 0 28-12.536 28-28s-12.536-28-28-28z m0-116H380c-15.464 0-28 12.536-28 28s12.536 28 28 28h264c15.464 0 28-12.536 28-28s-12.536-28-28-28z" fill="#FFFFFF" p-id="6739"></path><path d="M364 212h296v44c0 17.673-14.327 32-32 32H396c-17.673 0-32-14.327-32-32v-44z" fill="#FFFFFF" p-id="6740"></path></svg>