<?xml version="1.0" standalone="no"?><!DOCTYPE svg PUBLIC "-//W3C//DTD SVG 1.1//EN" "http://www.w3.org/Graphics/SVG/1.1/DTD/svg11.dtd"><svg t="1673090570039" class="icon" viewBox="0 0 1024 1024" version="1.1" xmlns="http://www.w3.org/2000/svg" p-id="2186" xmlns:xlink="http://www.w3.org/1999/xlink" width="200" height="200"><path d="M203.631677 347.04014A977.033889 977.033889 0 0 1 302.262216 44.834804a519.886461 519.886461 0 0 0-67.516983 36.68783A509.079194 509.079194 0 0 0 61.715187 267.919563a687.342232 687.342232 0 0 0 141.91649 79.063696z m84.46733 382.918562c145.670594 50.452877 306.812645 51.306082 456.749266-2.673377a888.755576 888.755576 0 0 0-4.493548-314.320852c-88.733357 34.810778-181.846501 52.216168-274.845885 52.216168-69.166514 0-138.105506-9.669661-204.939925-28.440179a924.874602 924.874602 0 0 0 27.530092 293.21824z m498.158166-410.676177a694.736678 694.736678 0 0 0 144.476106-101.645197A509.989279 509.989279 0 0 0 638.197604 15.939582a977.09077 977.09077 0 0 1 148.116449 303.342943z m26.847528 60.975743c-3.412821 1.820171-7.053164 3.355941-10.465986 5.119232 21.557655 102.327762 26.278725 207.556422 13.651286 311.590595a689.958728 689.958728 0 0 0 206.646336-155.510896 510.10304 510.10304 0 0 0-57.107878-266.086309 754.233532 754.233532 0 0 1-152.723758 104.887378z m-545.653263-10.579746c148.799013 44.5942 310.566748 38.109839 457.716231-21.898938A906.672888 906.672888 0 0 0 542.240442 0.923168a511.69569 511.69569 0 0 0-144.760508 11.887995 907.924256 907.924256 0 0 0-130.028496 356.867359z m461.640976 432.859515a751.787676 751.787676 0 0 1-417.274298 4.550429 892.282158 892.282158 0 0 0 99.711266 198.114282c2.275214 3.412821 4.72107 6.825643 7.053164 10.124704a511.126887 511.126887 0 0 0 231.787454-10.238464 899.790365 899.790365 0 0 0 78.722414-202.494071zM212.732535 698.845147a992.562227 992.562227 0 0 1-17.064107-283.548579 754.233532 754.233532 0 0 1-162.109017-85.889339A514.084665 514.084665 0 0 0 0.682564 538.101258a681.995478 681.995478 0 0 0 212.106851 160.800769z m669.311158 38.849283c-25.709921 14.39073-51.988646 27.07505-78.608653 38.2236-13.651286 65.810573-34.355736 130.824821-62.113349 193.905137a510.04616 510.04616 0 0 0 263.01477-317.790554c-37.711677 32.421803-78.494892 61.089503-122.292768 85.661817zM233.209463 780.6391a750.991351 750.991351 0 0 1-214.950868-131.962428 513.28834 513.28834 0 0 0 63.080315 140.494481 509.704878 509.704878 0 0 0 241.115833 198.512446 969.810084 969.810084 0 0 1-89.24528-207.044499z" p-id="2187"></path></svg>