<?xml version="1.0" standalone="no"?><!DOCTYPE svg PUBLIC "-//W3C//DTD SVG 1.1//EN" "http://www.w3.org/Graphics/SVG/1.1/DTD/svg11.dtd"><svg t="1702710740850" class="icon" viewBox="0 0 1024 1024" version="1.1" xmlns="http://www.w3.org/2000/svg" p-id="8453" xmlns:xlink="http://www.w3.org/1999/xlink" width="200" height="200"><path d="M614.4 20.48v268.06272c0 44.70272 35.80928 81.0496 80.3072 81.90464l1.6128 0.01536h276.48V921.6c0 45.24544-36.67456 81.92-81.92 81.92H133.12c-45.24544 0-81.92-36.67456-81.92-81.92V102.4c0-45.24544 36.67456-81.92 81.92-81.92h481.28z m87.04 716.8H322.56a35.84 35.84 0 0 0 0 71.68h378.88a35.84 35.84 0 0 0 0-71.68z m0-194.56H322.56a35.84 35.84 0 0 0 0 71.68h378.88a35.84 35.84 0 0 0 0-71.68z" p-id="8454"></path><path d="M706.56 20.48l266.24 266.24h-184.32c-45.24544 0-81.92-36.67456-81.92-81.92V20.48z" p-id="8455"></path></svg>