<?xml version="1.0" standalone="no"?><!DOCTYPE svg PUBLIC "-//W3C//DTD SVG 1.1//EN" "http://www.w3.org/Graphics/SVG/1.1/DTD/svg11.dtd"><svg class="icon" width="200px" height="200.00px" viewBox="0 0 1024 1024" version="1.1" xmlns="http://www.w3.org/2000/svg"><path d="M1013.787063 132.534857l-5.266286-2.852571a34.816 34.816 0 0 0-7.094857-7.168L796.333349 4.754286a35.254857 35.254857 0 0 0-33.353143 0l-205.019429 117.76-5.705143 5.778285-8.118857 4.754286a10.459429 10.459429 0 0 0-5.266286 9.069714v19.968l-10.020571-5.705142a35.254857 35.254857 0 0 0-35.254857 0l-10.020572 5.705142v-19.017142a10.459429 10.459429 0 0 0-6.656-10.532572l-8.118857-4.754286s-3.364571-4.315429-5.705143-5.705142L258.075063 4.754286a35.254857 35.254857 0 0 0-35.328 0L17.727634 122.514286a34.377143 34.377143 0 0 0-7.606857 7.68l-5.266286 2.852571a10.459429 10.459429 0 0 0-4.754285 10.020572v257.901714c0 3.803429 1.974857 7.241143 5.266285 9.069714l5.193143 2.925714c2.194286 2.925714 4.754286 5.485714 7.68 7.606858l205.019429 117.76c10.898286 6.290286 24.356571 6.290286 35.254857 0l11.483429-6.656v9.947428a35.766857 35.766857 0 0 0 16.164571 30.573714l5.266286 2.852572-18.578286 10.459428a10.459429 10.459429 0 0 0-5.266286 9.069715v259.364571c0 3.510857 1.755429 6.802286 4.754286 8.630857 2.852571 6.729143 7.68 12.361143 13.897143 16.164572l204.946286 117.76c10.971429 6.363429 24.429714 6.363429 35.328 0L731.455634 878.811429a34.816 34.816 0 0 0 13.824-16.164572 10.020571 10.020571 0 0 0 4.754286-8.630857V594.651429a10.459429 10.459429 0 0 0-5.266286-9.069715l-18.066285-10.459428 5.193142-2.925715a35.766857 35.766857 0 0 0 17.700572-30.500571V531.748571l11.410286 6.582858c10.971429 6.363429 24.356571 6.363429 35.328 0l205.019428-117.76a35.254857 35.254857 0 0 0 7.094857-7.094858l5.266286-2.925714a10.459429 10.459429 0 0 0 5.266286-8.996571V143.067429a10.459429 10.459429 0 0 0-5.266286-10.532572z m-499.2 323.291429a10.459429 10.459429 0 0 0-10.020572 0l-160.182857 90.112-23.405714-13.824v-30.500572l143.067429-81.554285 5.705142-5.705143 7.168-4.315429a10.459429 10.459429 0 0 0 5.266286-9.069714v-179.2l27.648-15.798857 27.648 15.725714v179.273143c0 3.803429 1.974857 7.241143 5.193143 9.069714l8.118857 4.315429a34.377143 34.377143 0 0 0 5.705143 5.705143l143.067429 81.554285v29.988572l-23.405715 13.897143-161.645714-89.673143z" /></svg>