<?xml version="1.0" standalone="no"?><!DOCTYPE svg PUBLIC "-//W3C//DTD SVG 1.1//EN" "http://www.w3.org/Graphics/SVG/1.1/DTD/svg11.dtd"><svg class="icon" width="200px" height="200.00px" viewBox="0 0 1024 1024" version="1.1" xmlns="http://www.w3.org/2000/svg"><path d="M40.96 40.96m71.68 0l245.76 0q71.68 0 71.68 71.68l0 245.76q0 71.68-71.68 71.68l-245.76 0q-71.68 0-71.68-71.68l0-245.76q0-71.68 71.68-71.68Z"  /><path d="M788.48-25.147844m50.685414 50.685414l159.297016 159.297016q50.685414 50.685414 0 101.370828l-159.297016 159.297016q-50.685414 50.685414-101.370828 0l-159.297016-159.297016q-50.685414-50.685414 0-101.370828l159.297016-159.297016q50.685414-50.685414 101.370828 0Z"  /><path d="M40.96 593.92m81.92 0l225.28 0q81.92 0 81.92 81.92l0 225.28q0 81.92-81.92 81.92l-225.28 0q-81.92 0-81.92-81.92l0-225.28q0-81.92 81.92-81.92Z"  /><path d="M593.92 593.92m71.68 0l245.76 0q71.68 0 71.68 71.68l0 245.76q0 71.68-71.68 71.68l-245.76 0q-71.68 0-71.68-71.68l0-245.76q0-71.68 71.68-71.68Z"  /></svg>