<?xml version="1.0" standalone="no"?><!DOCTYPE svg PUBLIC "-//W3C//DTD SVG 1.1//EN" "http://www.w3.org/Graphics/SVG/1.1/DTD/svg11.dtd"><svg class="icon" width="200px" height="196.92px" viewBox="0 0 1040 1024" version="1.1" xmlns="http://www.w3.org/2000/svg"><path d="M922.575779 866.131115L520.110326 117.169319 117.681454 866.131115H922.575779zM520.110326 271.761121l280.065035 521.171178H240.045292l280.065034-521.171178z"  /><path d="M520.110326 201.196145m-201.196145 0a201.196145 201.196145 0 1 0 402.392291 0 201.196145 201.196145 0 1 0-402.392291 0Z"  /><path d="M201.196145 790.152135m-201.196145 0a201.196145 201.196145 0 1 0 402.392291 0 201.196145 201.196145 0 1 0-402.392291 0Z"  /><path d="M839.061088 790.152135m-201.196145 0a201.196145 201.196145 0 1 0 402.392291 0 201.196145 201.196145 0 1 0-402.392291 0Z"  /></svg>