<svg t="1708917958263" class="icon" viewBox="0 0 1170 1024" version="1.1" xmlns="http://www.w3.org/2000/svg" p-id="9343" width="200" height="200"><path d="M370.468571 641.316571H0.804571V374.125714h369.664v267.190857z m422.546286 53.394286v320.731429h303.616c36.425143 0 65.974857-29.988571 66.048-66.779429V694.784h-369.664z m0-53.394286h369.664V374.125714h-369.664v267.190857z m369.664-320.658285V66.852571A66.486857 66.486857 0 0 0 1096.630857 0H66.779429a66.486857 66.486857 0 0 0-65.974858 66.779429v253.878857h1161.874286zM370.541714 694.857143H0.731429v253.805714c0 36.937143 29.622857 66.779429 66.048 66.852572h303.616V694.784z m52.736 320.658286h316.854857V694.784H423.277714v320.658286z m0-374.125715h316.854857V374.125714H423.277714v267.190857z" fill="#BFBFBF" p-id="9344"></path><path d="M524.507429 311.369143l-160.914286 417.792H431.542857l39.204572-107.666286h179.638857l39.204571 107.666286h68.461714l-160.914285-417.792h-72.557715zM490.057143 568.832l69.632-189.001143h2.340571l69.046857 189.001143H490.057143z" fill="#000000" fill-opacity=".65" p-id="9345"></path></svg>