<?xml version="1.0" standalone="no"?><!DOCTYPE svg PUBLIC "-//W3C//DTD SVG 1.1//EN" "http://www.w3.org/Graphics/SVG/1.1/DTD/svg11.dtd"><svg t="1703124343854" class="icon" viewBox="0 0 1024 1024" version="1.1" xmlns="http://www.w3.org/2000/svg" p-id="22642" xmlns:xlink="http://www.w3.org/1999/xlink" width="200" height="200"><path d="M512 512m-460.8 0a460.8 460.8 0 1 0 921.6 0 460.8 460.8 0 1 0-921.6 0Z" fill="#FFFFFF" p-id="22643"></path><path d="M512 51.2a460.8 460.8 0 1 1 0 921.6 460.8 460.8 0 0 1 0-921.6z m0 51.2a409.6 409.6 0 1 0 0 819.2 409.6 409.6 0 0 0 0-819.2z" fill="#98A1C3" p-id="22644"></path><path d="M512 0c282.7776 0 512 229.2224 512 512s-229.2224 512-512 512S0 794.7776 0 512 229.2224 0 512 0z m0 51.2a460.8 460.8 0 1 0 0 921.6 460.8 460.8 0 0 0 0-921.6z" fill="#FFFFFF" p-id="22645"></path><path d="M321.2288 230.4A91.2896 91.2896 0 0 0 230.4 321.2288a91.136 91.136 0 0 0 60.5184 85.1968v126.7712h60.6208V406.3744a91.0336 91.0336 0 0 0 60.5184-85.1456A91.2896 91.2896 0 0 0 321.28 230.4z m363.3664 0c-38.4512 0.0512-72.704 24.32-85.504 60.5696H472.576v60.5696H599.04A90.8288 90.8288 0 1 0 684.6464 230.4zM321.2288 290.9696a29.8496 29.8496 0 0 1 30.2592 30.3104 29.8496 29.8496 0 0 1-30.208 30.208 29.8496 29.8496 0 0 1-30.3616-30.208 29.8496 29.8496 0 0 1 30.3104-30.3616zM654.336 472.576v121.1392l-69.4784 69.4272a30.208 30.208 0 0 0 0 42.8032l78.336 78.2848a30.208 30.208 0 0 0 42.8032 0l78.2848-78.2848a30.208 30.208 0 0 0 0-42.8032l-69.4272-69.4272V472.6784H654.336zM260.608 593.7664a30.2592 30.2592 0 0 0-30.2592 30.208v121.1904c0 16.6912 13.568 30.2592 30.2592 30.2592h121.1392a30.3104 30.3104 0 0 0 30.3104-30.2592v-121.1392a30.3104 30.3104 0 0 0-30.3104-30.2592H260.7104z" fill="#98A1C3" p-id="22646"></path></svg>