<?xml version="1.0" standalone="no"?><!DOCTYPE svg PUBLIC "-//W3C//DTD SVG 1.1//EN" "http://www.w3.org/Graphics/SVG/1.1/DTD/svg11.dtd"><svg t="1702710729637" class="icon" viewBox="0 0 1024 1024" version="1.1" xmlns="http://www.w3.org/2000/svg" p-id="8044" xmlns:xlink="http://www.w3.org/1999/xlink" width="200" height="200"><path d="M409.6 153.6a102.4 102.4 0 0 1 88.6784 51.1488L921.6 204.8v102.4l-423.3216 0.0512a102.4 102.4 0 0 1-177.3568 0L102.4 307.2V204.8l218.5216-0.0512A102.4 102.4 0 0 1 409.6 153.6zM409.6 665.6a102.4 102.4 0 0 1 88.6784 51.2H921.6v102.4l-423.3216 0.0512a102.4 102.4 0 0 1-177.3568 0L102.4 819.2v-102.4h218.5216A102.4 102.4 0 0 1 409.6 665.6zM614.4 409.6a102.4 102.4 0 0 0-88.6784 51.1488L102.4 460.8v102.4l423.3216 0.0512a102.4 102.4 0 0 0 177.3568 0L921.6 563.2V460.8l-218.5216-0.0512A102.4 102.4 0 0 0 614.4 409.6z" fill="#000000" p-id="8045"></path><path d="M400.384 128.3072a127.8464 127.8464 0 0 0-91.5456 48.6912l-1.536 2.0992L76.8 179.2v153.6l230.5024 0.0512 1.536 2.1504A127.8464 127.8464 0 0 0 409.6 384l9.216-0.3072a127.8464 127.8464 0 0 0 91.5456-48.6912l1.4848-2.1504L947.2 332.8v-153.6l-435.3536-0.1024-1.536-2.048A127.8464 127.8464 0 0 0 409.6 128l-9.216 0.3072zM409.6 179.2c27.7504 0 52.8384 14.848 66.56 38.4l7.3728 12.7488H896V281.6l-412.4672 0.0512-7.424 12.8a76.7488 76.7488 0 0 1-133.0176 0l-7.424-12.8L128 281.6V230.3488h207.6672l7.424-12.8C356.7616 194.048 381.8496 179.2 409.6 179.2zM400.384 640.3072a127.8464 127.8464 0 0 0-91.5456 48.7424L307.2 691.2 76.8 691.2v153.6l230.5024 0.0512 1.536 2.1504A127.8464 127.8464 0 0 0 409.6 896l9.216-0.3072a127.8464 127.8464 0 0 0 91.5456-48.6912l1.4848-2.1504L947.2 844.8v-153.6l-435.3024-0.0512-1.536-2.048A127.8464 127.8464 0 0 0 409.6 640l-9.216 0.3072zM409.6 691.2c27.7504 0 52.8896 14.848 66.56 38.4l7.3728 12.8 412.4672-0.0512V793.6l-412.4672 0.0512-7.424 12.8a76.7488 76.7488 0 0 1-133.0176 0l-7.424-12.8L128 793.6v-51.2512h207.6672l7.3728-12.7488c13.6704-23.552 38.8096-38.4 66.56-38.4zM623.616 384.3072c36.352 2.6112 69.4784 20.5824 91.5456 48.6912l1.536 2.0992L947.2 435.2v153.6l-230.5024 0.0512-1.536 2.1504A127.8464 127.8464 0 0 1 614.4 640l-9.216-0.3072a127.8464 127.8464 0 0 1-91.5456-48.6912l-1.4848-2.1504L76.8 588.8v-153.6l435.3536-0.1024 1.536-2.048A127.8464 127.8464 0 0 1 614.4 384l9.216 0.3072zM614.4 435.2c-27.7504 0-52.8384 14.848-66.56 38.4l-7.3728 12.7488H128V537.6l412.4672 0.0512 7.424 12.8a76.7488 76.7488 0 0 0 133.0176 0l7.424-12.8L896 537.6V486.3488h-207.6672l-7.424-12.8A76.7488 76.7488 0 0 0 614.4 435.2z" fill="#FFFFFF" p-id="8046"></path></svg>