<?xml version="1.0" standalone="no"?><!DOCTYPE svg PUBLIC "-//W3C//DTD SVG 1.1//EN" "http://www.w3.org/Graphics/SVG/1.1/DTD/svg11.dtd"><svg t="1702710733650" class="icon" viewBox="0 0 1024 1024" version="1.1" xmlns="http://www.w3.org/2000/svg" p-id="8179" xmlns:xlink="http://www.w3.org/1999/xlink" width="200" height="200"><path d="M512 512m-460.8 0a460.8 460.8 0 1 0 921.6 0 460.8 460.8 0 1 0-921.6 0Z" fill="#FAAD14" p-id="8180"></path><path d="M512 0c282.7776 0 512 229.2224 512 512s-229.2224 512-512 512S0 794.7776 0 512 229.2224 0 512 0z m0 51.2a460.8 460.8 0 1 0 0 921.6 460.8 460.8 0 0 0 0-921.6z" fill="#FFFFFF" p-id="8181"></path><path d="M568.8832 204.8v164.1984a51.2 51.2 0 0 0 45.2096 50.8416l5.9904 0.3584L768 420.1472v338.432a51.2 51.2 0 0 1-51.2 51.2H307.2a51.2 51.2 0 0 1-51.2-51.2V256a51.2 51.2 0 0 1 51.2-51.2h261.6832z m46.2336 441.088H408.8832a22.016 22.016 0 1 0 0 44.1344h206.2336a22.016 22.016 0 0 0 0-44.1344z m0-119.7056H408.8832a22.016 22.016 0 1 0 0 44.0832h206.2336a22.016 22.016 0 0 0 0-44.0832z" fill="#FFFFFF" p-id="8182"></path><path d="M620.0832 204.8L768 368.64h-96.7168a51.2 51.2 0 0 1-51.2-51.2V204.8z" fill="#FFFFFF" p-id="8183"></path></svg>