<svg t="1692007552315" class="icon" viewBox="0 0 1024 1024" version="1.1" xmlns="http://www.w3.org/2000/svg" p-id="11180" width="200" height="200"><path d="M177.758354 468.845714L30.375497 322.340571a102.546286 102.546286 0 0 1 0-145.700571l147.382857-146.285714c40.521143-40.228571 106.057143-40.228571 146.578286 0L471.79264 176.786286c40.521143 40.228571 40.521143 105.472 0 145.700571l-147.382857 146.285714c-40.448 40.228571-106.057143 40.228571-146.578286 0v0.073143z m732.452572 3.364572H683.029211c-61.001143 0-110.445714-49.078857-110.445714-109.714286V136.630857c0-60.635429 49.444571-109.714286 110.445714-109.714286h227.181715c61.001143 0 110.445714 49.078857 110.445714 109.714286v225.865143c0 60.489143-49.444571 109.714286-110.445714 109.714286z m-545.499429 549.156571H137.529783c-61.001143 0-110.445714-49.005714-110.445714-109.714286V685.860571c0-60.708571 49.444571-109.714286 110.445714-109.714285h227.181714c61.001143 0 110.445714 49.005714 110.445714 109.714285v225.792c0 60.708571-49.517714 109.714286-110.445714 109.714286z m545.499429 0H683.029211c-61.001143 0-110.445714-49.005714-110.445714-109.714286V685.860571c0-60.708571 49.444571-109.714286 110.445714-109.714285h227.181715c61.001143 0 110.445714 49.005714 110.445714 109.714285v225.792c0 60.708571-49.444571 109.714286-110.445714 109.714286z" p-id="11181"></path></svg>