<?xml version="1.0" standalone="no"?><!DOCTYPE svg PUBLIC "-//W3C//DTD SVG 1.1//EN" "http://www.w3.org/Graphics/SVG/1.1/DTD/svg11.dtd"><svg t="1685946916082" class="icon" viewBox="0 0 1024 1024" version="1.1" xmlns="http://www.w3.org/2000/svg" p-id="4209" xmlns:xlink="http://www.w3.org/1999/xlink" width="200" height="200"><path d="M916.8 1003.2h-728c-17.6 0-32-14.4-32-32v-920c0-17.6 14.4-32 32-32H744l204.8 224v728c0 17.6-13.6 32-32 32z" fill="#FFFFFF" p-id="4210"></path><path d="M750.4 4.8H188.8c-25.6 0-46.4 20.8-46.4 46.4v920c0 25.6 20.8 46.4 46.4 46.4h728c25.6 0 46.4-20.8 46.4-46.4V237.6L750.4 4.8z m-8 32.8l180 196.8H760c-9.6 0-17.6-8-17.6-17.6V37.6z m174.4 952h-728c-9.6 0-17.6-8-17.6-17.6V51.2c0-9.6 8-17.6 17.6-17.6h524.8V216c0 25.6 20.8 46.4 46.4 46.4h175.2V972c0 8.8-8 17.6-18.4 17.6z" fill="#C0C0C0" p-id="4211"></path><path d="M576.8 223.2L91.2 273.6c-16.8 1.6-29.6 15.2-29.6 32V768c0 16 12 30.4 28.8 32L576 847.2c19.2 2.4 35.2-12.8 35.2-32v-560c0-18.4-16-33.6-34.4-32z" fill="#F43D83" p-id="4212"></path><path d="M350.4 400c-1.6 32.8-9.6 62.4-18.4 92-1.6 5.6-0.8 10.4 1.6 15.2 13.6 24 30.4 46.4 48.8 67.2 1.6 2.4 6.4 4 9.6 4 25.6-0.8 50.4 1.6 75.2 9.6 12 4 22.4 10.4 29.6 20.8 8 10.4 9.6 26.4 3.2 36-6.4 10.4-21.6 16.8-34.4 13.6-9.6-2.4-19.2-6.4-28-11.2-20.8-12-37.6-28-53.6-45.6-4-4-8-5.6-12.8-4.8-32.8 4.8-64.8 12-96 23.2-3.2 1.6-7.2 4-9.6 8-14.4 17.6-28 36-43.2 52.8-9.6 10.4-21.6 19.2-36.8 21.6-12 1.6-20-4-20.8-15.2-0.8-12.8 5.6-23.2 13.6-32 16-16.8 36-27.2 56.8-36.8 0.8-0.8 1.6-0.8 1.6-0.8 16.8-4 26.4-14.4 33.6-28.8 12-25.6 24.8-51.2 36.8-77.6 1.6-4 1.6-10.4 0-15.2-9.6-28-16.8-54.4-13.6-82.4 0.8-7.2 1.6-13.6 4-19.2 7.2-16.8 30.4-23.2 45.6-6.4 4.8 1.6 7.2 6.4 7.2 12z m12.8 179.2c-14.4-19.2-28-37.6-41.6-56.8-12 24-24 48.8-36.8 73.6 26.4-4.8 52-11.2 78.4-16.8z m38.4 14.4c0.8 1.6 0.8 3.2 1.6 3.2 15.2 15.2 31.2 30.4 50.4 40 4 2.4 9.6 4 14.4 4 6.4 0.8 13.6-0.8 16.8-7.2 4-7.2 1.6-13.6-3.2-18.4-6.4-5.6-13.6-11.2-20.8-14.4-10.4-4-21.6-5.6-32.8-7.2-8 0.8-16.8 0.8-26.4 0z m-83.2-122.4c0.8-2.4 1.6-3.2 2.4-4 4-21.6 7.2-44 10.4-65.6 0.8-4-3.2-8-8.8-7.2-5.6 0.8-8.8 4-10.4 9.6-4 21.6-0.8 44 6.4 67.2z m-80 163.2c-19.2 7.2-36.8 16.8-49.6 32.8-4 4-5.6 10.4-8 15.2 0.8 0.8 1.6 1.6 3.2 2.4 24.8-8.8 39.2-30.4 54.4-50.4z" fill="#FFFFFF" p-id="4213"></path></svg>