<?xml version="1.0" encoding="UTF-8"?>
<svg width="20px" height="22px" viewBox="0 0 20 22" version="1.1" xmlns="http://www.w3.org/2000/svg" xmlns:xlink="http://www.w3.org/1999/xlink">
    <title>duihua</title>
    <defs>
        <filter id="filter-1">
            <feColorMatrix in="SourceGraphic" type="matrix" values="0 0 0 0 0.070588 0 0 0 0 0.431373 0 0 0 0 0.890196 0 0 0 1.000000 0"></feColorMatrix>
        </filter>
    </defs>
    <g id="页面-1" stroke="none" stroke-width="1" fill="none" fill-rule="evenodd">
        <g id="AnyFabric认知助手" transform="translate(-184.000000, -361.000000)">
            <g id="编组-5" transform="translate(168.000000, 310.000000)">
                <g id="duihua" transform="translate(0.000000, 32.000000)" filter="url(#filter-1)">
                    <g transform="translate(16.000000, 19.000000)">
                        <path d="M9.94318182,21.279147 L2.33987603,21.279147 C1.06714876,21.279147 0.0258264463,20.1634445 0.0258264463,18.7998081 L0.0258264463,10.6534091 C0.0258264463,4.79154368 4.47210744,0.0276711924 9.94318182,0.0276711924 C15.4142562,0.0276711924 19.8605372,4.79154368 19.8605372,10.6534091 C19.8605372,16.5152745 15.4142562,21.279147 9.94318182,21.279147 Z M9.94318182,1.44443625 C5.19938017,1.44443625 1.3481405,5.57076446 1.3481405,10.6534091 L1.3481405,18.7998081 C1.3481405,19.3842237 1.79442149,19.8623819 2.33987603,19.8623819 L9.94318182,19.8623819 C14.6869835,19.8623819 18.5382231,15.7360537 18.5382231,10.6534091 C18.5382231,5.57076446 14.6869835,1.44443625 9.94318182,1.44443625 Z" id="形状" fill="#000000" fill-rule="nonzero"></path>
                        <path d="M4.98450413,10.8305047 C4.98450413,11.417348 5.42851926,11.8930785 5.97623967,11.8930785 C6.52396008,11.8930785 6.96797521,11.417348 6.96797521,10.8305047 C6.96797521,10.2436614 6.52396008,9.76793093 5.97623967,9.76793093 C5.42851926,9.76793093 4.98450413,10.2436614 4.98450413,10.8305047 Z" id="路径" fill="#000000" fill-rule="nonzero"></path>
                        <path d="M8.95144628,10.8305047 C8.95144628,11.417348 9.39546141,11.8930785 9.94318182,11.8930785 C10.4909022,11.8930785 10.9349174,11.417348 10.9349174,10.8305047 C10.9349174,10.4508837 10.7458936,10.1000993 10.4390496,9.91028879 C10.1322055,9.72047825 9.75415809,9.72047825 9.44731404,9.91028879 C9.14046999,10.1000993 8.95144628,10.4508837 8.95144628,10.8305047 L8.95144628,10.8305047 Z" id="路径" fill="#000000" fill-rule="nonzero"></path>
                        <path d="M12.9183884,10.8305047 C12.9183884,11.2101258 13.1074121,11.5609101 13.4142562,11.7507207 C13.7211002,11.9405312 14.0991477,11.9405312 14.4059918,11.7507207 C14.7128358,11.5609101 14.9018595,11.2101258 14.9018595,10.8305047 C14.9018595,10.2436614 14.4578444,9.76793093 13.910124,9.76793093 C13.3624036,9.76793093 12.9183884,10.2436614 12.9183884,10.8305047 L12.9183884,10.8305047 Z" id="路径" fill="#000000" fill-rule="nonzero"></path>
                    </g>
                </g>
            </g>
        </g>
    </g>
</svg>