<?xml version="1.0" standalone="no"?><!DOCTYPE svg PUBLIC "-//W3C//DTD SVG 1.1//EN" "http://www.w3.org/Graphics/SVG/1.1/DTD/svg11.dtd"><svg class="icon" width="200px" height="200.00px" viewBox="0 0 1024 1024" version="1.1" xmlns="http://www.w3.org/2000/svg"><path d="M978.944 292.352l-160.256-65.024 74.24-174.08c3.072-7.68-0.512-16.384-8.192-19.968l-28.16-12.288c-7.68-3.072-16.384 0.512-19.968 8.192L761.856 204.8l-177.152-71.68-1.024-0.512c-16.384-6.144-34.304-2.56-47.104 9.216l-4.096 4.096-2.56 5.12c-0.512 1.536-69.632 134.656-180.736 240.64-91.648 84.992-314.88 223.744-317.44 225.28l-2.56 1.536-2.048 2.048c-11.264 10.24-16.384 25.6-13.824 40.96s12.288 28.16 27.136 34.816l691.2 305.152 1.536 0.512c5.12 2.048 10.752 3.072 16.384 3.072 7.168 0 13.824-1.536 19.968-4.608 8.704-4.096 15.36-10.752 19.968-18.944 19.456-22.016 121.856-142.336 168.96-288.256 46.08-142.336 47.616-320 47.616-349.184 4.096-21.504-7.168-43.52-27.136-51.712z m-403.968-97.28L944.64 345.088c0 17.408-1.024 84.992-10.752 164.864l-441.344-189.44c40.448-53.76 68.608-100.864 82.432-125.44z m169.472 744.96L581.12 867.84l119.808-118.272c3.072-7.68-0.512-16.384-8.192-19.968l-28.16-12.288c-7.68-3.072-16.384 0.512-19.968 8.192l-119.296 117.76-144.896-64 117.248-116.736c3.072-7.68-0.512-16.384-8.192-19.968l-28.16-12.288c-7.68-3.072-16.384 0.512-19.968 8.192L324.096 754.688 91.648 651.776c64-40.96 222.208-143.872 299.008-216.576 22.528-21.504 43.008-43.52 61.952-65.536l472.064 202.24c-6.144 34.816-14.336 69.632-24.576 102.4C857.6 805.888 763.904 918.016 744.448 940.032z" /></svg>