<svg xmlns="http://www.w3.org/2000/svg" xmlns:xlink="http://www.w3.org/1999/xlink" fill="none" version="1.1" width="36.2620849609375" height="36" viewBox="0 0 36.2620849609375 36"><defs><linearGradient x1="0.02042105421423912" y1="0.49932143092155457" x2="1.0246316194534302" y2="0.49932143092155457" id="master_svg0_1_0127"><stop offset="0%" stop-color="#00C692" stop-opacity="1"/><stop offset="100%" stop-color="#00AB7E" stop-opacity="1"/></linearGradient><linearGradient x1="0.27400001883506775" y1="0.4988219141960144" x2="1.2340000867843628" y2="0.4988219141960144" id="master_svg1_1_0123"><stop offset="0%" stop-color="#00C692" stop-opacity="1"/><stop offset="100%" stop-color="#00AB7E" stop-opacity="1"/></linearGradient><linearGradient x1="0.03620000183582306" y1="0.5002995729446411" x2="1.079200029373169" y2="0.5002995729446411" id="master_svg2_1_0119"><stop offset="0%" stop-color="#00C692" stop-opacity="1"/><stop offset="100%" stop-color="#00AB7E" stop-opacity="1"/></linearGradient><linearGradient x1="-0.013799999840557575" y1="0.5005976557731628" x2="1.0027999877929688" y2="0.5005976557731628" id="master_svg3_1_0115"><stop offset="0%" stop-color="#00C692" stop-opacity="1"/><stop offset="100%" stop-color="#00AB7E" stop-opacity="1"/></linearGradient><linearGradient x1="-0.08742857724428177" y1="0.500708281993866" x2="0.9585714340209961" y2="0.500708281993866" id="master_svg4_1_0111"><stop offset="0%" stop-color="#00C692" stop-opacity="1"/><stop offset="100%" stop-color="#00AB7E" stop-opacity="1"/></linearGradient><linearGradient x1="-0.000045392022002488375" y1="0.5000937581062317" x2="1.0000296831130981" y2="0.5000937581062317" id="master_svg5_1_0100"><stop offset="0%" stop-color="#00C692" stop-opacity="1"/><stop offset="100%" stop-color="#00AB7E" stop-opacity="1"/></linearGradient><linearGradient x1="0.00006232334999367595" y1="0.49998563528060913" x2="0.999932050704956" y2="0.49998563528060913" id="master_svg6_1_0105"><stop offset="0%" stop-color="#00AB7E" stop-opacity="1"/><stop offset="100%" stop-color="#00C692" stop-opacity="1"/></linearGradient><linearGradient x1="-0.00009103037155000493" y1="0.5000203847885132" x2="0.9999891519546509" y2="0.5000203847885132" id="master_svg7_1_0079"><stop offset="0%" stop-color="#FFCB27" stop-opacity="1"/><stop offset="100%" stop-color="#FFA21E" stop-opacity="1"/></linearGradient><linearGradient x1="0.0007708095945417881" y1="0.5008382797241211" x2="1.0008848905563354" y2="0.5008382797241211" id="master_svg8_1_0147"><stop offset="0%" stop-color="#FFA21E" stop-opacity="1"/><stop offset="100%" stop-color="#FFCB27" stop-opacity="1"/></linearGradient><linearGradient x1="-0.00037113402504473925" y1="0.5005287528038025" x2="0.9996907114982605" y2="0.5005287528038025" id="master_svg9_1_0156"><stop offset="0%" stop-color="#FFA21E" stop-opacity="1"/><stop offset="100%" stop-color="#FFCB27" stop-opacity="1"/></linearGradient><linearGradient x1="-0.0007762073073536158" y1="0.5008478760719299" x2="0.9997361898422241" y2="0.5008478760719299" id="master_svga_1_0152"><stop offset="0%" stop-color="#FFA21E" stop-opacity="1"/><stop offset="100%" stop-color="#FFCB27" stop-opacity="1"/></linearGradient><linearGradient x1="-0.0000065704703047231305" y1="0.49996063113212585" x2="0.9998089075088501" y2="0.49996063113212585" id="master_svgb_1_0161"><stop offset="0%" stop-color="#FFA21E" stop-opacity="1"/><stop offset="100%" stop-color="#FFCB27" stop-opacity="1"/></linearGradient><linearGradient x1="-0.00009846878674579784" y1="0.5000910758972168" x2="1.000722050666809" y2="0.5000910758972168" id="master_svgc_1_0142"><stop offset="0%" stop-color="#FFA21E" stop-opacity="1"/><stop offset="100%" stop-color="#FFCB27" stop-opacity="1"/></linearGradient><linearGradient x1="0.0010000000474974513" y1="0.5000232458114624" x2="1.0012030601501465" y2="0.5000232458114624" id="master_svgd_1_0135"><stop offset="0%" stop-color="#D7D8D5" stop-opacity="1"/><stop offset="100%" stop-color="#F6F6F9" stop-opacity="1"/></linearGradient><linearGradient x1="0.000122179786558263" y1="0.4999159276485443" x2="0.9999205470085144" y2="0.4999159276485443" id="master_svge_1_0169"><stop offset="0%" stop-color="#D7D8D5" stop-opacity="1"/><stop offset="100%" stop-color="#F6F6F9" stop-opacity="1"/></linearGradient><linearGradient x1="0.00015550156240351498" y1="0.5000991821289062" x2="0.9999535083770752" y2="0.5000991821289062" id="master_svgf_1_0074"><stop offset="0%" stop-color="#D7D8D5" stop-opacity="1"/><stop offset="100%" stop-color="#F6F6F9" stop-opacity="1"/></linearGradient><linearGradient x1="0.00015136809088289738" y1="0.5001841187477112" x2="1.0001962184906006" y2="0.5001841187477112" id="master_svgg_1_0094"><stop offset="0%" stop-color="#D7D8D5" stop-opacity="1"/><stop offset="100%" stop-color="#F6F6F9" stop-opacity="1"/></linearGradient><linearGradient x1="0.0003352726635057479" y1="0.500089168548584" x2="1.0003790855407715" y2="0.500089168548584" id="master_svgh_1_0165"><stop offset="0%" stop-color="#D7D8D5" stop-opacity="1"/><stop offset="100%" stop-color="#F6F6F9" stop-opacity="1"/></linearGradient><linearGradient x1="-0.0003119584289379418" y1="0.49972933530807495" x2="0.999839186668396" y2="0.49972933530807495" id="master_svgi_1_0090"><stop offset="0%" stop-color="#D6D9E4" stop-opacity="1"/><stop offset="100%" stop-color="#F9F9FB" stop-opacity="1"/></linearGradient><linearGradient x1="-0.0002922303683590144" y1="0.499799519777298" x2="1.0001252889633179" y2="0.499799519777298" id="master_svgj_1_0086"><stop offset="0%" stop-color="#EFF0F4" stop-opacity="1"/><stop offset="0.4950494971126318%" stop-color="#EFF0F4" stop-opacity="1"/><stop offset="100%" stop-color="#FEFFFF" stop-opacity="1"/></linearGradient></defs><g style="mix-blend-mode:passthrough"><g style="mix-blend-mode:passthrough"><g style="opacity:0.25;mix-blend-mode:passthrough"><g style="opacity:0.25;mix-blend-mode:passthrough"><g style="opacity:0.25;mix-blend-mode:passthrough"><path d="M36.0177,0.161719C36.0177,0.161719,36.0177,35.6765,36.0177,35.6765C36.0177,35.6765,0.244344,35.6765,0.244344,35.6765C0.244344,35.6765,0.244344,0.161719,0.244344,0.161719C0.244344,0.161719,36.0177,0.161719,36.0177,0.161719C36.0177,0.161719,36.0177,0.161719,36.0177,0.161719ZM36.1806,0C36.1806,0,35.9362,0,35.9362,0C35.9362,0,0.162896,0,0.162896,0C0.162896,0,0,0,0,0C0,0,0,0.242578,0,0.242578C0,0.242578,0,35.7574,0,35.7574C0,35.7574,0,36,0,36C0,36,0.244344,36,0.244344,36C0.244344,36,36.0177,36,36.0177,36C36.0177,36,36.262,36,36.262,36C36.262,36,36.262,35.7574,36.262,35.7574C36.262,35.7574,36.262,0.242578,36.262,0.242578C36.262,0.242578,36.262,0,36.262,0C36.262,0,36.1806,0,36.1806,0C36.1806,0,36.1806,0,36.1806,0Z" fill="#000000" fill-opacity="1"/></g></g><g style="opacity:0.25;mix-blend-mode:passthrough"><g style="opacity:0.25;mix-blend-mode:passthrough"><path d="M18.130979470252992,0.97031275C27.56127947025299,0.97031275,35.20677947025299,8.55705375,35.20677947025299,17.92259375C35.20677947025299,27.28829375,27.56127947025299,34.87149375,18.130979470252992,34.87149375C8.70074947025299,34.87149375,1.0552814702529907,27.28479375,1.0552814702529907,17.91919375C1.0552814702529907,8.55351375,8.70074947025299,0.97031275,18.130979470252992,0.97031275C18.130979470252992,0.97031275,18.130979470252992,0.97031275,18.130979470252992,0.97031275ZM18.130979470252992,0.80859375C8.61933947025299,0.80859375,0.8144794702529907,8.476173750000001,0.8144794702529907,17.91919375C0.8144794702529907,27.36209375,8.537869470252991,35.02969375,18.130979470252992,35.02969375C27.72417947025299,35.02969375,35.44757947025299,27.36209375,35.44757947025299,17.91919375C35.44757947025299,8.476173750000001,27.64267947025299,0.80859375,18.130979470252992,0.80859375C18.130979470252992,0.80859375,18.130979470252992,0.80859375,18.130979470252992,0.80859375Z" fill="#000000" fill-opacity="1"/></g></g><g style="opacity:0.25;mix-blend-mode:passthrough"><g style="opacity:0.25;mix-blend-mode:passthrough"><path d="M33.57779729881287,2.5839845296325685C33.57779729881287,2.5839845296325685,33.57779729881287,33.25786552963257,33.57779729881287,33.25786552963257C33.57779729881287,33.25786552963257,2.684241298812866,33.25786552963257,2.684241298812866,33.25786552963257C2.684241298812866,33.25786552963257,2.684241298812866,2.5839845296325685,2.684241298812866,2.5839845296325685C2.684241298812866,2.5839845296325685,33.57779729881287,2.5839845296325685,33.57779729881287,2.5839845296325685C33.57779729881287,2.5839845296325685,33.57779729881287,2.5839845296325685,33.57779729881287,2.5839845296325685ZM33.74069729881286,2.4222655296325684C33.74069729881286,2.4222655296325684,33.49629729881286,2.4222655296325684,33.49629729881286,2.4222655296325684C33.49629729881286,2.4222655296325684,2.602793298812866,2.4222655296325684,2.602793298812866,2.4222655296325684C2.602793298812866,2.4222655296325684,2.439897298812866,2.4222655296325684,2.439897298812866,2.4222655296325684C2.439897298812866,2.4222655296325684,2.439897298812866,2.6648435296325683,2.439897298812866,2.6648435296325683C2.439897298812866,2.6648435296325683,2.439897298812866,33.338665529632564,2.439897298812866,33.338665529632564C2.439897298812866,33.338665529632564,2.439897298812866,33.58126552963257,2.439897298812866,33.58126552963257C2.439897298812866,33.58126552963257,2.684241298812866,33.58126552963257,2.684241298812866,33.58126552963257C2.684241298812866,33.58126552963257,33.58129729881287,33.58126552963257,33.58129729881287,33.58126552963257C33.58129729881287,33.58126552963257,33.82569729881287,33.58126552963257,33.82569729881287,33.58126552963257C33.82569729881287,33.58126552963257,33.82569729881287,33.338665529632564,33.82569729881287,33.338665529632564C33.82569729881287,33.338665529632564,33.82569729881287,2.6648435296325683,33.82569729881287,2.6648435296325683C33.82569729881287,2.6648435296325683,33.82569729881287,2.4222655296325684,33.82569729881287,2.4222655296325684C33.82569729881287,2.4222655296325684,33.74069729881286,2.4222655296325684,33.74069729881286,2.4222655296325684C33.74069729881286,2.4222655296325684,33.74069729881286,2.4222655296325684,33.74069729881286,2.4222655296325684C33.74069729881286,2.4222655296325684,33.74069729881286,2.4222655296325684,33.74069729881286,2.4222655296325684Z" fill="#000000" fill-opacity="1"/></g></g><g style="opacity:0.25;mix-blend-mode:passthrough"><g style="opacity:0.25;mix-blend-mode:passthrough"><path d="M35.203238239097594,0.97031275C35.203238239097594,0.97031275,35.203238239097594,34.87149375,35.203238239097594,34.87149375C35.203238239097594,34.87149375,1.055282239097595,34.87149375,1.055282239097595,34.87149375C1.055282239097595,34.87149375,1.055282239097595,0.97031275,1.055282239097595,0.97031275C1.055282239097595,0.97031275,35.203238239097594,0.97031275,35.203238239097594,0.97031275C35.203238239097594,0.97031275,35.203238239097594,0.97031275,35.203238239097594,0.97031275ZM35.366138239097594,0.80859375C35.366138239097594,0.80859375,35.121738239097596,0.80859375,35.121738239097596,0.80859375C35.121738239097596,0.80859375,0.9738342390975953,0.80859375,0.9738342390975953,0.80859375C0.9738342390975953,0.80859375,0.8109382390975952,0.80859375,0.8109382390975952,0.80859375C0.8109382390975952,0.80859375,0.8109382390975952,1.05117175,0.8109382390975952,1.05117175C0.8109382390975952,1.05117175,0.8109382390975952,34.95229375,0.8109382390975952,34.95229375C0.8109382390975952,34.95229375,0.8109382390975952,35.19489375,0.8109382390975952,35.19489375C0.8109382390975952,35.19489375,1.055282239097595,35.19489375,1.055282239097595,35.19489375C1.055282239097595,35.19489375,35.203238239097594,35.19489375,35.203238239097594,35.19489375C35.203238239097594,35.19489375,35.4475382390976,35.19489375,35.4475382390976,35.19489375C35.4475382390976,35.19489375,35.4475382390976,34.95229375,35.4475382390976,34.95229375C35.4475382390976,34.95229375,35.4475382390976,1.05117175,35.4475382390976,1.05117175C35.4475382390976,1.05117175,35.4475382390976,0.80859375,35.4475382390976,0.80859375C35.4475382390976,0.80859375,35.366138239097594,0.80859375,35.366138239097594,0.80859375C35.366138239097594,0.80859375,35.366138239097594,0.80859375,35.366138239097594,0.80859375Z" fill="#000000" fill-opacity="1"/></g></g><g style="opacity:0.25;mix-blend-mode:passthrough"><g style="opacity:0.25;mix-blend-mode:passthrough"><path d="M35.203238239097594,6.619922315734863C35.203238239097594,6.619922315734863,35.203238239097594,29.221803315734864,35.203238239097594,29.221803315734864C35.203238239097594,29.221803315734864,1.055282239097595,29.221803315734864,1.055282239097595,29.221803315734864C1.055282239097595,29.221803315734864,1.055282239097595,6.619922315734863,1.055282239097595,6.619922315734863C1.055282239097595,6.619922315734863,35.203238239097594,6.619922315734863,35.203238239097594,6.619922315734863C35.203238239097594,6.619922315734863,35.203238239097594,6.619922315734863,35.203238239097594,6.619922315734863ZM35.366138239097594,6.458203315734863C35.366138239097594,6.458203315734863,35.121738239097596,6.458203315734863,35.121738239097596,6.458203315734863C35.121738239097596,6.458203315734863,0.9738342390975953,6.458203315734863,0.9738342390975953,6.458203315734863C0.9738342390975953,6.458203315734863,0.8109382390975952,6.458203315734863,0.8109382390975952,6.458203315734863C0.8109382390975952,6.458203315734863,0.8109382390975952,6.619922315734863,0.8109382390975952,6.619922315734863C0.8109382390975952,6.619922315734863,0.8109382390975952,29.221803315734864,0.8109382390975952,29.221803315734864C0.8109382390975952,29.221803315734864,0.8109382390975952,29.464403315734863,0.8109382390975952,29.464403315734863C0.8109382390975952,29.464403315734863,1.055282239097595,29.464403315734863,1.055282239097595,29.464403315734863C1.055282239097595,29.464403315734863,35.203238239097594,29.464403315734863,35.203238239097594,29.464403315734863C35.203238239097594,29.464403315734863,35.4475382390976,29.464403315734863,35.4475382390976,29.464403315734863C35.4475382390976,29.464403315734863,35.4475382390976,29.221803315734864,35.4475382390976,29.221803315734864C35.4475382390976,29.221803315734864,35.4475382390976,6.619922315734863,35.4475382390976,6.619922315734863C35.4475382390976,6.619922315734863,35.4475382390976,6.458203315734863,35.4475382390976,6.458203315734863C35.4475382390976,6.458203315734863,35.366138239097594,6.458203315734863,35.366138239097594,6.458203315734863C35.366138239097594,6.458203315734863,35.366138239097594,6.458203315734863,35.366138239097594,6.458203315734863C35.366138239097594,6.458203315734863,35.366138239097594,6.458203315734863,35.366138239097594,6.458203315734863Z" fill="#000000" fill-opacity="1"/></g></g></g></g><g style="mix-blend-mode:passthrough"><g style="mix-blend-mode:passthrough"><g style="mix-blend-mode:passthrough"><g style="mix-blend-mode:passthrough"><g style="mix-blend-mode:passthrough"><path d="M32.31004559541512,22.281991958618164C32.31004559541512,22.281991958618164,32.302962895415114,24.574181958618166,32.302962895415114,24.574181958618166C32.302962895415114,24.662071958618164,32.28171549541511,24.753471958618164,32.242762595415115,24.841361958618165C32.242762595415115,24.841361958618165,32.24984535541512,22.549180958618162,32.24984535541512,22.549180958618162C32.29233939541511,22.457774958618163,32.31004559541512,22.369882358618163,32.31004559541512,22.281991958618164C32.31004559541512,22.281991958618164,32.31004559541512,22.281991958618164,32.31004559541512,22.281991958618164Z" fill="url(#master_svg0_1_0127)" fill-opacity="1"/></g><g style="mix-blend-mode:passthrough"><g style="mix-blend-mode:passthrough"><path d="M32.31004513592348,22.281991958618164C32.31004513592348,22.281991958618164,32.30296267592348,24.574181958618166,32.30296267592348,24.574181958618166C32.30296267592348,24.581211958618162,32.30296267592348,24.584721958618164,32.30296267592348,24.591761958618164C32.30296267592348,24.591761958618164,32.31004513592348,22.299570058618166,32.31004513592348,22.299570058618166C32.31004513592348,22.292538858618165,32.31004513592348,22.285507578618166,32.31004513592348,22.281991958618164C32.31004513592348,22.281991958618164,32.31004513592348,22.281991958618164,32.31004513592348,22.281991958618164Z" fill="url(#master_svg1_1_0123)" fill-opacity="1"/></g><g style="mix-blend-mode:passthrough"><path d="M32.31004513088607,22.29605446010828C32.31004513088607,22.29605446010828,32.30296223088607,24.58824446010828,32.30296223088607,24.58824446010828C32.30296223088607,24.62340446010828,32.29942149088607,24.65855446010828,32.29233903088607,24.69019446010828C32.29233903088607,24.69019446010828,32.299419740886066,22.39800646010828,32.299419740886066,22.39800646010828C32.30650213088607,22.36636546010828,32.31004513088607,22.33121076010828,32.31004513088607,22.29605446010828C32.31004513088607,22.29605446010828,32.31004513088607,22.29605446010828,32.31004513088607,22.29605446010828Z" fill="url(#master_svg2_1_0119)" fill-opacity="1"/></g><g style="mix-blend-mode:passthrough"><path d="M32.29942151016542,22.398007601499557C32.29942151016542,22.398007601499557,32.29234081016542,24.69019760149956,32.29234081016542,24.69019760149956C32.28525831016542,24.725357601499557,32.27463291016542,24.756987601499556,32.26400931016542,24.792147601499558C32.26400931016542,24.792147601499558,32.27109219016542,22.499961601499557,32.27109219016542,22.499961601499557C32.28171581016542,22.468321001499557,32.29233901016542,22.433163801499557,32.29942151016542,22.398007601499557C32.29942151016542,22.398007601499557,32.29942151016542,22.398007601499557,32.29942151016542,22.398007601499557Z" fill="url(#master_svg3_1_0115)" fill-opacity="1"/></g><g style="mix-blend-mode:passthrough"><path d="M32.271091734482184,22.499960750341415C32.271091734482184,22.499960750341415,32.264009034482186,24.792150750341417,32.264009034482186,24.792150750341417C32.256926634482184,24.806210750341414,32.25338551448218,24.823790750341416,32.246303234482184,24.837850750341417C32.246303234482184,24.837850750341417,32.25338599448219,22.545663450341415,32.25338599448219,22.545663450341415C32.25692713448218,22.531600950341414,32.26400943448218,22.517538850341417,32.271091734482184,22.499960750341415C32.271091734482184,22.499960750341415,32.271091734482184,22.499960750341415,32.271091734482184,22.499960750341415Z" fill="url(#master_svg4_1_0111)" fill-opacity="1"/></g></g></g><g style="mix-blend-mode:passthrough"><path d="M28.97774706196785,29.65777479751587C28.96004706196785,29.692934797515868,28.93884706196785,29.72809479751587,28.91754706196785,29.75971479751587C28.90694706196785,29.77381479751587,28.89984706196785,29.78785479751587,28.88924706196785,29.80189479751587C28.87154706196785,29.823014797515867,28.85384706196785,29.84407479751587,28.83614706196785,29.86519479751587C28.81844706196785,29.88631479751587,28.80074706196785,29.90737479751587,28.77944706196785,29.928494797515867C28.75114706196785,29.95657479751587,28.71924706196785,29.98471479751587,28.68384706196785,30.00931479751587C28.67674706196785,30.01639479751587,28.66964706196785,30.02341479751587,28.66264706196785,30.02689479751587C28.62014706196785,30.05857479751587,28.57404706196785,30.09019479751587,28.52454706196785,30.11833479751587C28.46434706196785,30.15349479751587,28.40054706196785,30.18511479751587,28.33324706196785,30.21673479751587C28.33324706196785,30.21673479751587,28.33324706196785,30.21673479751587,28.32974706196785,30.21673479751587C28.26244706196785,30.24487479751587,28.19164706196785,30.27301479751587,28.11724706196785,30.29761479751587C28.05704706196785,30.31873479751587,27.99334706196785,30.33631479751587,27.92604706196785,30.35389479751587C27.91184706196785,30.35737479751587,27.90124706196785,30.35737479751587,27.88704706196785,30.360914797515868C27.82334706196785,30.37495479751587,27.75604706196785,30.38899479751587,27.68874706196785,30.39955479751587C27.68874706196785,30.39955479751587,15.32994706196785,32.30857479751587,15.32994706196785,32.30857479751587C15.262647061967849,32.31907479751587,15.19184706196785,32.32615479751587,15.12094706196785,32.333174797515866C15.092647061967849,32.33665479751587,15.06434706196785,32.33665479751587,15.03954706196785,32.34019479751587C14.98994706196785,32.34373479751587,14.94034706196785,32.34373479751587,14.89084706196785,32.34721479751587C14.86604706196785,32.34721479751587,14.84474706196785,32.34721479751587,14.81994706196785,32.34721479751587C14.75984706196785,32.34721479751587,14.703147061967849,32.34373479751587,14.642947061967849,32.34019479751587C14.62874706196785,32.34019479751587,14.61814706196785,32.34019479751587,14.60394706196785,32.33665479751587C14.53314706196785,32.329634797515865,14.462347061967849,32.32261479751587,14.39504706196785,32.31205479751587C14.37374706196785,32.30857479751587,14.35604706196785,32.30503479751587,14.33484706196785,32.30149479751587C14.28524706196785,32.29447479751587,14.23924706196785,32.28397479751587,14.18964706196785,32.27341479751587C14.16134706196785,32.26639479751587,14.133047061967849,32.25931479751587,14.10464706196785,32.25229479751587C14.06564706196785,32.24173479751587,14.03024706196785,32.23123479751587,13.99484706196785,32.22067479751587C13.95594706196785,32.20657479751587,13.91344706196785,32.19607479751587,13.87446706196785,32.18197479751587C13.83904706196785,32.16793479751587,13.80012706196785,32.15389479751587,13.764707061967849,32.13979479751587C13.75050706196785,32.13277479751587,13.73285706196785,32.12575479751587,13.71865706196785,32.11873479751587C13.66202706196785,32.09407479751587,13.60533706196785,32.06599479751587,13.55577706196785,32.03785479751587C13.55577706196785,32.03785479751587,4.476094061967849,26.834724797515868,4.476094061967849,26.834724797515868C4.125514061967849,26.63433479751587,3.93428822196785,26.36011479751587,3.93428822196785,26.082384797515868C3.93428822196785,26.082384797515868,3.9307470619678497,28.371054797515868,3.9307470619678497,28.371054797515868C3.9307470619678497,28.64881479751587,4.12197206196785,28.919474797515868,4.47255306196785,29.12341479751587C4.47255306196785,29.12341479751587,13.55221706196785,34.32649479751587,13.55221706196785,34.32649479751587C13.60533706196785,34.35459479751587,13.65846706196785,34.38279479751587,13.71515706196785,34.40739479751587C13.72929706196785,34.41439479751587,13.74700706196785,34.42139479751587,13.761147061967849,34.42849479751587C13.77885706196785,34.43549479751587,13.79655706196785,34.44249479751587,13.81426706196785,34.44959479751587C13.83197706196785,34.45659479751587,13.85324706196785,34.46009479751587,13.87095706196785,34.46709479751587C13.90987706196785,34.48119479751587,13.94884706196785,34.49529479751587,13.99134706196785,34.50579479751587C14.00544706196785,34.50929479751587,14.023247061967849,34.51639479751587,14.03744706196785,34.51989479751587C14.05864706196785,34.526894797515865,14.07984706196785,34.53039479751587,14.10114706196785,34.53399479751587C14.12944706196785,34.54099479751587,14.15774706196785,34.54799479751587,14.18614706196785,34.55499479751587C14.20024706196785,34.558594797515866,14.21444706196785,34.56209479751587,14.22864706196785,34.56559479751587C14.26044706196785,34.57259479751587,14.29584706196785,34.57619479751587,14.32774706196785,34.58319479751587C14.34904706196785,34.58669479751587,14.36674706196785,34.59019479751587,14.38794706196785,34.593694797515866C14.39504706196785,34.593694797515866,14.402147061967849,34.59719479751587,14.40924706196785,34.59719479751587C14.46944706196785,34.60419479751587,14.52604706196785,34.61129479751587,14.58624706196785,34.61829479751587C14.58974706196785,34.61829479751587,14.59334706196785,34.61829479751587,14.59684706196785,34.61829479751587C14.61104706196785,34.61829479751587,14.62174706196785,34.61829479751587,14.63584706196785,34.62179479751587C14.67834706196785,34.62539479751587,14.72434706196785,34.62889479751587,14.76684706196785,34.62889479751587C14.78104706196785,34.62889479751587,14.79524706196785,34.62889479751587,14.812947061967849,34.62889479751587C14.83774706196785,34.62889479751587,14.85894706196785,34.62889479751587,14.88364706196785,34.62889479751587C14.90854706196785,34.62889479751587,14.92974706196785,34.62889479751587,14.95454706196785,34.62889479751587C14.97934706196785,34.62889479751587,15.00764706196785,34.62539479751587,15.032447061967849,34.62539479751587C15.06074706196785,34.62539479751587,15.08914706196785,34.62179479751587,15.11744706196785,34.61829479751587C15.13164706196785,34.61829479751587,15.14574706196785,34.61829479751587,15.15994706196785,34.61479479751587C15.21654706196785,34.607794797515865,15.26974706196785,34.60079479751587,15.32634706196785,34.593694797515866C15.32634706196785,34.593694797515866,27.67814706196785,32.69529479751587,27.67814706196785,32.69529479751587C27.70294706196785,32.691694797515865,27.724147061967848,32.688294797515866,27.74894706196785,32.68469479751587C27.79144706196785,32.67769479751587,27.833947061967848,32.66709479751587,27.87644706196785,32.656594797515865C27.89054706196785,32.65309479751587,27.90124706196785,32.65309479751587,27.91534706196785,32.64959479751587C27.975647061967848,32.63549479751587,28.03584706196785,32.61789479751587,28.09244706196785,32.60039479751587C28.096047061967848,32.60039479751587,28.10304706196785,32.59679479751587,28.10664706196785,32.59679479751587C28.18094706196785,32.57219479751587,28.25184706196785,32.54761479751587,28.31904706196785,32.51599479751587C28.31904706196785,32.51599479751587,28.31904706196785,32.51599479751587,28.32264706196785,32.51599479751587C28.38994706196785,32.48431479751587,28.45364706196785,32.45269479751587,28.51384706196785,32.41753479751587C28.51734706196785,32.41399479751587,28.52094706196785,32.41399479751587,28.52454706196785,32.41051479751587C28.57054706196785,32.382374797515865,28.61294706196785,32.35423479751587,28.65194706196785,32.32615479751587C28.65904706196785,32.31907479751587,28.66614706196785,32.31205479751587,28.67324706196785,32.30857479751587C28.70154706196785,32.28745479751587,28.72984706196785,32.26639479751587,28.754647061967848,32.24173479751587C28.76174706196785,32.23825479751587,28.765247061967848,32.23123479751587,28.76884706196785,32.224154797515865C28.79004706196785,32.20309479751587,28.80774706196785,32.18197479751587,28.82544706196785,32.16091479751587C28.83964706196785,32.14681479751587,28.85384706196785,32.13277479751587,28.86794706196785,32.11873479751587C28.87154706196785,32.11165479751587,28.875047061967848,32.10463479751587,28.88214706196785,32.10115479751587C28.89274706196785,32.08705479751587,28.90334706196785,32.07301479751587,28.91044706196785,32.05897479751587C28.92114706196785,32.04487479751587,28.93174706196785,32.02729479751587,28.94234706196785,32.01325479751587C28.95294706196785,31.995674797515868,28.96354706196785,31.97455479751587,28.97064706196785,31.95697479751587C28.97064706196785,31.95697479751587,32.24274706196785,24.84488479751587,32.24274706196785,24.84488479751587C32.24274706196785,24.84488479751587,32.24984706196785,22.55269479751587,32.24984706196785,22.55269479751587C32.24984706196785,22.55269479751587,28.97774706196785,29.65777479751587,28.97774706196785,29.65777479751587C28.97774706196785,29.65777479751587,28.97774706196785,29.65777479751587,28.97774706196785,29.65777479751587Z" fill="url(#master_svg5_1_0100)" fill-opacity="1"/></g><g style="mix-blend-mode:passthrough"><g style="mix-blend-mode:passthrough"><path d="M31.77174418522045,21.52965413986206C32.23564418522045,21.79684413986206,32.419844185220455,22.18356413986206,32.25334418522045,22.54920413986206C32.25334418522045,22.54920413986206,28.98124418522045,29.66134413986206,28.98124418522045,29.66134413986206C28.81484418522045,30.02694413986206,28.31904418522045,30.30814413986206,27.68874418522045,30.40664413986206C27.68874418522045,30.40664413986206,15.32984418522045,32.308544139862065,15.32984418522045,32.308544139862065C14.69604418522045,32.40704413986206,14.01964418522045,32.30154413986206,13.55577418522045,32.03784413986206C13.55577418522045,32.03784413986206,4.47609418522045,26.83474413986206,4.47609418522045,26.83474413986206C4.01219488522045,26.56754413986206,3.82805218522045,26.18084413986206,3.99448898522045,25.815184139862062C3.99448898522045,25.815184139862062,7.27011418522045,18.70308413986206,7.27011418522045,18.70308413986206C7.43654418522045,18.33746413986206,7.93232418522045,18.05621413986206,8.56266418522045,17.95777413986206C8.56266418522045,17.95777413986206,20.91794418522045,16.05230213986206,20.91794418522045,16.05230213986206C21.55184418522045,15.953864339862061,22.224644185220452,16.05933293986206,22.69214418522045,16.32652113986206C22.69214418522045,16.32652113986206,31.77174418522045,21.52965413986206,31.77174418522045,21.52965413986206C31.77174418522045,21.52965413986206,31.77174418522045,21.52965413986206,31.77174418522045,21.52965413986206Z" fill="url(#master_svg6_1_0105)" fill-opacity="1"/></g></g></g></g><g style="opacity:0.550000011920929;mix-blend-mode:passthrough"><g style="opacity:0.550000011920929;mix-blend-mode:passthrough"><path d="M15.613220688829422,2.8933269046325685C16.09127068882942,2.6191080746325683,16.56933068882942,2.5347329046325684,16.941190688829423,2.699967504632568C16.941190688829423,2.699967504632568,21.027760688829424,4.542154904632568,21.027760688829424,4.542154904632568C21.72886068882942,4.855044904632568,22.323760688829424,5.983564904632568,22.309660688829425,7.066374904632569C22.309660688829425,7.066374904632569,22.35216068882942,18.27772490463257,22.35216068882942,18.27772490463257C22.355660688829424,18.82262490463257,22.153860688829422,19.46592490463257,21.824460688829422,20.032024904632568C21.477460688829424,20.633124904632567,21.034860688829422,21.09722490463257,20.55676068882942,21.37142490463257C20.55676068882942,21.37142490463257,10.832570688829422,26.957724904632567,10.832570688829422,26.957724904632567C10.354510688829421,27.232024904632567,9.890612688829423,27.267124904632567,9.561279688829423,27.07732490463257C9.210698688829423,26.88042490463257,9.023014688829422,26.483124904632568,9.019473488829423,25.934724904632567C9.019473488829423,25.934724904632567,8.976979020429422,14.723424904632568,8.976979020429422,14.723424904632568C8.973437808829422,13.714424904632569,9.483372688829421,12.033944904632568,10.142040688829422,10.894904904632568C10.142040688829422,10.894904904632568,10.234110688829421,10.736684904632568,10.234110688829421,10.736684904632568C10.234110688829421,10.736684904632568,14.288800688829422,4.218714904632568,14.288800688829422,4.218714904632568C14.657090688829422,3.635124904632568,15.135160688829423,3.1710609046325686,15.613220688829422,2.8933269046325685C15.613220688829422,2.8933269046325685,15.613220688829422,2.8933269046325685,15.613220688829422,2.8933269046325685Z" fill="url(#master_svg7_1_0079)" fill-opacity="1"/></g></g><g style="mix-blend-mode:passthrough"><g style="mix-blend-mode:passthrough"><g style="mix-blend-mode:passthrough"><g style="mix-blend-mode:passthrough"><g style="mix-blend-mode:passthrough"><path d="M24.891209712022782,6.078482947756958C24.891209712022782,6.078482947756958,27.883530712022782,7.804653247756958,27.883530712022782,7.804653247756958C27.84812071202278,7.783563247756958,27.80917071202278,7.762463247756958,27.77022071202278,7.748403247756958C27.77022071202278,7.748403247756958,24.77789071202278,6.022233247756958,24.77789071202278,6.022233247756958C24.816844112022782,6.039811347756958,24.85579791202278,6.057389147756958,24.891209712022782,6.078482947756958C24.891209712022782,6.078482947756958,24.891209712022782,6.078482947756958,24.891209712022782,6.078482947756958Z" fill="url(#master_svg8_1_0147)" fill-opacity="1"/></g><g style="mix-blend-mode:passthrough"><g style="mix-blend-mode:passthrough"><path d="M27.77376192711286,7.748403247756958C27.77376192711286,7.748403247756958,24.781431927112862,6.022233247756958,24.781431927112862,6.022233247756958C24.81330292711286,6.036295747756958,24.848714327112862,6.053873647756958,24.88058562711286,6.071451847756958C24.88058562711286,6.071451847756958,27.872911927112863,7.797623247756958,27.872911927112863,7.797623247756958C27.84104192711286,7.780043247756958,27.805631927112863,7.765983247756958,27.77376192711286,7.748403247756958C27.77376192711286,7.748403247756958,27.77376192711286,7.748403247756958,27.77376192711286,7.748403247756958Z" fill="url(#master_svg9_1_0156)" fill-opacity="1"/></g><g style="mix-blend-mode:passthrough"><path d="M27.8729159524291,7.7976220066976545C27.8729159524291,7.7976220066976545,24.8805859524291,6.071452006697655,24.8805859524291,6.071452006697655C24.884127162429102,6.074967626697655,24.8912104524291,6.078483166697655,24.8947516524291,6.078483166697655C24.8947516524291,6.078483166697655,27.8870759524291,7.804652006697655,27.8870759524291,7.804652006697655C27.879995952429102,7.804652006697655,27.8764559524291,7.8011420066976545,27.8729159524291,7.7976220066976545C27.8729159524291,7.7976220066976545,27.8729159524291,7.7976220066976545,27.8729159524291,7.7976220066976545Z" fill="url(#master_svga_1_0152)" fill-opacity="1"/></g></g></g><g style="mix-blend-mode:passthrough"><g style="mix-blend-mode:passthrough"><path d="M22.362804820604325,6.1030929349441525C22.840864820604324,5.828874104944153,23.318914820604324,5.744498934944152,23.690724820604323,5.909733534944153C23.690724820604323,5.909733534944153,27.777284820604322,7.7519209349441525,27.777284820604322,7.7519209349441525C28.478484820604322,8.064810934944152,29.073384820604325,9.193330934944154,29.059184820604322,10.276140934944152C29.059184820604322,10.276140934944152,29.101684820604326,21.49099093494415,29.101684820604326,21.49099093494415C29.105284820604325,22.035890934944153,28.903384820604323,22.679290934944152,28.574084820604327,23.24529093494415C28.227084820604325,23.846490934944153,27.784384820604323,24.310490934944152,27.306284820604326,24.584790934944152C27.306284820604326,24.584790934944152,17.578594820604323,30.16759093494415,17.578594820604323,30.16759093494415C17.100534820604324,30.44179093494415,16.640178820604323,30.47689093494415,16.307303820604325,30.287090934944153C15.956722820604325,30.090190934944154,15.769039320604325,29.692890934944153,15.765498120604324,29.14449093494415C15.765498120604324,29.14449093494415,15.723003152204324,17.93319093494415,15.723003152204324,17.93319093494415C15.719461940604324,16.924190934944153,16.229396820604325,15.243710934944152,16.888064820604324,14.104670934944153C16.888064820604324,14.104670934944153,16.980134820604324,13.946450934944153,16.980134820604324,13.946450934944153C16.980134820604324,13.946450934944153,21.034824820604324,7.428480934944153,21.034824820604324,7.428480934944153C21.403114820604323,6.841380934944153,21.881184820604325,6.377311934944153,22.362804820604325,6.1030929349441525C22.362804820604325,6.1030929349441525,22.362804820604325,6.1030929349441525,22.362804820604325,6.1030929349441525Z" fill="url(#master_svgb_1_0161)" fill-opacity="1"/></g></g><g style="mix-blend-mode:passthrough"><path d="M24.781476203966143,6.022229307022094C24.781476203966143,6.022229307022094,20.69484620396614,4.183561307022095,20.69484620396614,4.183561307022095C20.68777620396614,4.1800459070220946,20.677136203966143,4.176529907022095,20.67006620396614,4.173014507022095C20.63821620396614,4.1589518070220945,20.60636620396614,4.148404907022095,20.57095620396614,4.1378580070220945C20.56738620396614,4.1378580070220945,20.56382620396614,4.134342507022095,20.556746203966142,4.134342507022095C20.54611620396614,4.130826807022094,20.53904620396614,4.130826907022095,20.528406203966142,4.127311307022095C20.50719620396614,4.1237957070220945,20.48591620396614,4.116764407022095,20.46470620396614,4.113248807022095C20.450506203966142,4.109733167022095,20.43635620396614,4.109733227022095,20.41865620396614,4.109733227022095C20.40450620396614,4.106217597022095,20.39030620396614,4.106217637022095,20.37616620396614,4.106217637022095C20.36552620396614,4.106217637022095,20.358456203966142,4.102701807022095,20.34781620396614,4.102701807022095C20.31947620396614,4.099186177022094,20.29119620396614,4.102701807022095,20.26284620396614,4.102701807022095C20.25220620396614,4.102701807022095,20.24157620396614,4.102701807022095,20.230996203966143,4.102701807022095C20.22742620396614,4.102701807022095,20.22386620396614,4.102701807022095,20.22386620396614,4.102701807022095C20.17430620396614,4.106217427022095,20.12825620396614,4.109733107022095,20.07869620396614,4.116764307022095C20.07869620396614,4.116764307022095,20.07869620396614,4.116764307022095,20.075126203966143,4.116764307022095C20.01850620396614,4.127311207022094,19.958306203966142,4.1378580070220945,19.901616203966142,4.1554362070220945C19.89810620396614,4.1554362070220945,19.89810620396614,4.155436407022095,19.89454620396614,4.158952007022095C19.82727620396614,4.176529907022095,19.756446203966142,4.201139307022094,19.68561620396614,4.2292643070220945C19.678546203966143,4.232780307022095,19.66790620396614,4.232780307022095,19.66083620396614,4.236295307022095C19.63605620396614,4.246842307022095,19.611276203966142,4.257389307022095,19.58643620396614,4.271451307022095C19.56879620396614,4.2784833070220945,19.55108620396614,4.285514307022095,19.533376203966142,4.296061307022095C19.480256203966142,4.324186307022095,19.42356620396614,4.352311307022095,19.36693620396614,4.383951307022095C19.30673620396614,4.4191083070220945,19.250046203966143,4.454264307022095,19.18985620396614,4.492936307022095C19.16857620396614,4.506998307022095,19.15086620396614,4.521061307022094,19.129656203966142,4.535123307022094C19.09067620396614,4.563248307022095,19.051756203966143,4.591373307022095,19.01277620396614,4.619498307022095C18.98799620396614,4.637076307022094,18.96677620396614,4.658170307022095,18.94194620396614,4.675748307022094C18.906586203966143,4.703875307022095,18.87116620396614,4.731997307022095,18.83925620396614,4.760125307022094C18.81447620396614,4.781215307022094,18.78969620396614,4.805827307022095,18.768446203966143,4.826923307022095C18.74011620396614,4.8550453070220945,18.70824620396614,4.879657307022095,18.67991620396614,4.9077793070220945C18.676376203966143,4.911295307022095,18.676376203966143,4.914811307022095,18.672836203966142,4.914811307022095C18.605546203966142,4.981609307022095,18.54180620396614,5.048407307022095,18.47806620396614,5.118719307022094C18.474526203966143,5.122229307022095,18.47098620396614,5.129259307022094,18.46390620396614,5.132779307022094C18.43911620396614,5.160909307022095,18.417866203966142,5.1890293070220945,18.39307620396614,5.2171593070220945C18.36829620396614,5.245279307022095,18.34704620396614,5.273409307022095,18.32225620396614,5.301529307022095C18.31871620396614,5.305049307022095,18.31516620396614,5.312079307022095,18.30809620396614,5.315589307022095C18.26559620396614,5.3718393070220944,18.22309620396614,5.428089307022095,18.18414620396614,5.484339307022095C18.18414620396614,5.484339307022095,18.18414620396614,5.484339307022095,18.18414620396614,5.487859307022095C18.180606203966143,5.491379307022095,18.180606203966143,5.4948893070220945,18.17706620396614,5.498399307022095C18.14164620396614,5.547629307022095,18.10978620396614,5.596839307022095,18.07791620396614,5.646059307022095C18.06374620396614,5.667159307022095,18.05312620396614,5.684729307022095,18.03895620396614,5.7058293070220945C18.03895620396614,5.7058293070220945,13.98780620396614,12.220279307022095,13.98780620396614,12.220279307022095C13.98780620396614,12.220279307022095,13.895736203966141,12.378499307022095,13.895736203966141,12.378499307022095C13.856786203966141,12.445279307022094,13.81782620396614,12.515599307022095,13.77887620396614,12.585919307022095C13.77887620396614,12.589399307022095,13.775336203966141,12.589399307022095,13.775336203966141,12.592939307022094C13.72929720396614,12.677299307022095,13.686803203966141,12.761659307022095,13.64431020396614,12.853099307022095C13.64076920396614,12.860119307022094,13.637227203966141,12.863659307022095,13.637227203966141,12.870679307022094C13.630144203966141,12.884719307022095,13.623061203966142,12.902299307022094,13.61597820396614,12.919879307022095C13.57702620396614,12.997219307022094,13.541616203966141,13.078099307022095,13.506200203966142,13.158919307022094C13.49911720396614,13.173019307022095,13.49203420396614,13.190599307022095,13.484957203966141,13.204639307022095C13.477874203966142,13.218739307022094,13.47433220396614,13.229239307022095,13.470790203966141,13.243339307022095C13.42121420396614,13.355839307022094,13.375179203966141,13.471819307022095,13.329141203966142,13.587859307022095C13.329141203966142,13.591399307022094,13.325600203966141,13.594879307022095,13.325600203966141,13.598419307022095C13.322059203966141,13.605439307022095,13.318518203966141,13.615999307022095,13.31497720396614,13.623019307022094C13.26185820396614,13.756579307022095,13.215822203966141,13.890199307022094,13.16978620396614,14.027299307022094C13.16624520396614,14.037859307022094,13.162704203966141,14.044879307022095,13.159163203966141,14.055439307022095C13.159163203966141,14.058919307022094,13.155622203966141,14.062459307022095,13.155622203966141,14.065999307022095C13.10250320396614,14.224139307022094,13.05292720396614,14.382339307022095,13.010432203966142,14.537039307022095C13.006891203966141,14.544039307022095,13.003350203966141,14.554639307022095,13.003350203966141,14.561639307022094C13.003350203966141,14.568739307022094,12.99980920396614,14.572239307022095,12.99980920396614,14.579239307022094C12.98210320396614,14.639039307022095,12.967937203966141,14.695239307022094,12.95377220396614,14.755039307022095C12.94669020396614,14.783139307022095,12.939608203966142,14.814839307022094,12.928984203966142,14.842939307022094C12.90773720396614,14.927339307022095,12.89003120396614,15.011639307022095,12.86878320396614,15.096039307022094C12.86878320396614,15.099539307022095,12.86878320396614,15.099539307022095,12.86878320396614,15.103139307022095C12.85107720396614,15.191039307022095,12.833371203966141,15.278839307022094,12.815665403966142,15.366739307022094C12.812123803966141,15.394839307022094,12.805041803966141,15.423039307022094,12.80150080396614,15.447639307022095C12.79087690396614,15.507339307022095,12.78379480396614,15.563639307022095,12.773171203966141,15.619839307022096C12.773171203966141,15.630439307022094,12.769629603966141,15.644439307022095,12.76608840396614,15.655039307022095C12.762547203966141,15.672639307022095,12.762546903966141,15.686639307022094,12.762546903966141,15.700739307022095C12.755464503966142,15.764039307022095,12.74838210396614,15.827339307022095,12.744840803966142,15.890639307022095C12.74129960396614,15.915239307022095,12.74130030396614,15.939839307022094,12.737759083966141,15.964439307022095C12.73067663613814,16.045239307022094,12.73067620396614,16.126139307022093,12.73067620396614,16.203539307022094C12.73067620396614,16.203539307022094,12.773171203966141,27.414839307022095,12.773171203966141,27.414839307022095C12.773171203966141,27.689039307022096,12.82274790396614,27.924539307022094,12.911278203966141,28.114439307022096C13.003350203966141,28.307739307022096,13.13791620396614,28.455439307022093,13.311435203966141,28.553839307022095C13.311435203966141,28.553839307022095,16.30376620396614,30.280039307022093,16.30376620396614,30.280039307022093C15.95318620396614,30.083139307022094,15.76549620396614,29.685939307022096,15.761956203966141,29.137439307022095C15.761956203966141,29.137439307022095,15.72300620396614,17.933139307022095,15.72300620396614,17.933139307022095C15.72300620396614,17.859339307022097,15.72654620396614,17.778539307022093,15.730086203966142,17.694039307022095C15.730086203966142,17.669439307022095,15.733626203966141,17.644839307022096,15.73716620396614,17.620239307022096C15.740706203966141,17.560539307022097,15.747796203966141,17.497239307022095,15.754876203966141,17.430439307022095C15.75841620396614,17.402339307022096,15.761956203966141,17.374139307022094,15.76550620396614,17.346039307022096C15.77257620396614,17.289839307022095,15.783206203966142,17.233539307022095,15.79028620396614,17.173839307022092C15.793826203966141,17.145639307022094,15.79736620396614,17.117539307022096,15.80445620396614,17.092939307022093C15.81861620396614,17.005039307022095,15.836316203966142,16.917139307022097,15.85756620396614,16.829239307022092C15.875276203966141,16.744839307022097,15.89652620396614,16.656939307022093,15.917776203966142,16.569039307022095C15.92485620396614,16.541039307022096,15.93193620396614,16.509339307022096,15.93901620396614,16.481239307022093C15.95318620396614,16.421439307022094,15.97088620396614,16.365239307022094,15.98505620396614,16.305439307022095C15.988596203966141,16.291339307022096,15.99213620396614,16.277339307022096,15.99921620396614,16.259739307022095C16.04524620396614,16.105039307022096,16.09129620396614,15.946839307022096,16.144406203966142,15.788639307022095C16.14794620396614,15.778139307022094,16.15149620396614,15.764039307022095,16.158566203966142,15.753539307022095C16.20460620396614,15.616339307022095,16.254186203966142,15.482739307022095,16.30376620396614,15.349139307022094C16.307306203966142,15.338639307022095,16.31084620396614,15.324539307022095,16.31792620396614,15.314039307022094C16.36396620396614,15.198039307022094,16.40999620396614,15.081939307022095,16.45957620396614,14.969439307022094C16.47019620396614,14.941339307022094,16.48436620396614,14.913239307022094,16.49852620396614,14.885139307022095C16.533946203966142,14.804239307022094,16.572896203966142,14.723439307022094,16.60830620396614,14.646039307022095C16.61892620396614,14.624939307022094,16.62955620396614,14.603839307022096,16.640176203966142,14.582739307022095C16.68266620396614,14.494839307022096,16.72870620396614,14.406939307022094,16.77120620396614,14.322639307022095C16.81015620396614,14.248839307022095,16.84910620396614,14.178539307022096,16.88806620396614,14.111639307022095C16.88806620396614,14.111639307022095,16.98013620396614,13.953499307022094,16.98013620396614,13.953499307022094C16.98013620396614,13.953499307022094,21.03480620396614,7.435509307022095,21.03480620396614,7.435509307022095C21.077296203966142,7.365199307022095,21.123346203966143,7.294889307022094,21.16939620396614,7.231609307022095C21.172906203966143,7.228089307022095,21.17296620396614,7.224579307022095,21.176466203966143,7.221059307022095C21.22252620396614,7.1577793070220945,21.26857620396614,7.094499307022095,21.31456620396614,7.034729307022095C21.33934620396614,7.006609307022095,21.36061620396614,6.978479307022095,21.38539620396614,6.946839307022095C21.41374620396614,6.915199307022094,21.43852620396614,6.8800493070220945,21.46686620396614,6.8483993070220945C21.53056620396614,6.7780893070220944,21.59432620396614,6.707779307022095,21.66159620396614,6.644499307022095C21.69350620396614,6.612859307022095,21.725356203966143,6.584729307022094,21.757206203966142,6.553089307022095C21.78204620396614,6.531999307022095,21.803256203966143,6.507389307022095,21.828036203966143,6.486299307022095C21.86345620396614,6.454649307022095,21.89886620396614,6.426529307022095,21.93428620396614,6.398399307022094C21.95555620396614,6.380829307022095,21.98033620396614,6.359729307022095,22.001546203966143,6.342149307022095C22.04053620396614,6.310509307022095,22.07945620396614,6.2858993070220945,22.11843620396614,6.257779307022094C22.136146203966142,6.243719307022095,22.157416203966143,6.229649307022095,22.17512620396614,6.2155893070220944C22.235316203966143,6.176919307022095,22.29194620396614,6.138249307022095,22.352146203966143,6.106609307022095C22.40883620396614,6.074969307022094,22.46195620396614,6.046839307022095,22.51858620396614,6.018719307022095C22.53629620396614,6.011679307022095,22.55400620396614,6.0046493070220945,22.57170620396614,5.994109307022095C22.603556203966143,5.980049307022095,22.63897620396614,5.965979307022095,22.67088620396614,5.951919307022095C22.74167620396614,5.923799307022095,22.80897620396614,5.899179307022095,22.87977620396614,5.881609307022095C22.88327620396614,5.881609307022095,22.88327620396614,5.881609307022095,22.88687620396614,5.878089307022095C22.94707620396614,5.864029307022095,23.00367620396614,5.849969307022095,23.060376203966143,5.839419307022094C23.11357620396614,5.832389307022095,23.16667620396614,5.825359307022095,23.216176203966143,5.825359307022095C23.226876203966142,5.825359307022095,23.23747620396614,5.825359307022095,23.248076203966143,5.825359307022095C23.28707620396614,5.825359307022095,23.325976203966142,5.825359307022095,23.361376203966138,5.828879307022095C23.37557620396614,5.828879307022095,23.38967620396614,5.832389307022095,23.403876203966142,5.832389307022095C23.43937620396614,5.835899307022094,23.47827620396614,5.842929307022095,23.513676203966142,5.853479307022095C23.52427620396614,5.856999307022095,23.53137620396614,5.856999307022095,23.54197620396614,5.860509307022095C23.587976203966143,5.874579307022095,23.63407620396614,5.888639307022094,23.676576203966142,5.909729307022094C23.676576203966142,5.909729307022094,27.763076203966143,7.751919307022095,27.763076203966143,7.751919307022095C27.763076203966143,7.751919307022095,24.781476203966143,6.022229307022094,24.781476203966143,6.022229307022094C24.781476203966143,6.022229307022094,24.781476203966143,6.022229307022094,24.781476203966143,6.022229307022094Z" fill="url(#master_svgc_1_0142)" fill-opacity="1"/></g></g></g></g><g style="mix-blend-mode:passthrough"><g style="mix-blend-mode:passthrough"><g style="mix-blend-mode:passthrough"><path d="M21.020659346055986,16.846851505584716C21.027739346055984,16.780051505584716,21.034819346055983,16.71326150558472,21.045449346055985,16.646461505584718C21.056069346055985,16.572631505584717,21.070239346055985,16.498801505584716,21.084409346055985,16.421461505584716C21.095019346055984,16.368721505584716,21.102109346055986,16.319511505584718,21.116269346055983,16.266771505584718C21.126899346055986,16.217551505584716,21.141059346055986,16.171851505584716,21.151679346055985,16.122631505584717C21.169389346055986,16.055831505584717,21.187089346055984,15.989031505584716,21.204799346055985,15.922241505584717C21.215429346055984,15.883561505584716,21.229589346055985,15.844891505584716,21.240219346055984,15.806221505584716C21.264999346055983,15.732391505584717,21.289789346055983,15.655051505584716,21.314579346055986,15.581221505584717C21.325199346055985,15.549581505584717,21.335829346055984,15.517941505584716,21.346449346055984,15.489811505584717C21.385399346055983,15.387861505584716,21.427899346055984,15.282391505584716,21.470389346055985,15.180441505584717C21.473929346055986,15.169891505584717,21.481019346055984,15.155831505584716,21.488099346055986,15.145281505584716C21.527049346055986,15.053881505584716,21.573089346055983,14.962471505584716,21.615579346055984,14.874581505584716C21.629749346055984,14.846461505584717,21.643909346055985,14.818331505584716,21.658079346055985,14.790211505584717C21.700569346055985,14.705831505584717,21.746609346055983,14.621461505584717,21.796189346055986,14.537081505584716C21.806809346055985,14.519501505584717,21.813889346055984,14.505441505584717,21.824509346055983,14.487861505584718C21.881169346055984,14.389431505584717,21.941369346055986,14.294501505584716,22.001579346055983,14.199581505584717C22.019279346055985,14.171451505584717,22.036989346055986,14.146851505584717,22.054689346055984,14.118721505584716C22.100729346055985,14.051931505584717,22.146769346055983,13.985131505584716,22.196339346055986,13.918331505584717C22.221129346055985,13.883171505584716,22.249459346055986,13.848021505584716,22.274249346055985,13.812861505584717C22.316749346055985,13.756611505584717,22.359239346055986,13.703881505584716,22.401729346055983,13.651141505584716C22.437139346055986,13.605441505584716,22.476099346055985,13.563251505584716,22.511509346055984,13.517551505584716C22.546929346055983,13.475361505584717,22.582339346055985,13.436691505584717,22.617749346055984,13.398021505584717C22.677949346055986,13.331221505584717,22.741689346055985,13.264421505584718,22.805429346055984,13.197631505584717C22.844379346055984,13.158951505584717,22.883339346055983,13.116771505584717,22.925829346055984,13.078101505584717C22.957699346055986,13.046451505584717,22.989579346055983,13.018331505584717,23.021449346055984,12.990201505584716C23.074559346055985,12.940981505584716,23.127679346055984,12.895281505584716,23.180799346055984,12.853101505584718C23.212669346055986,12.824971505584717,23.244539346055983,12.800361505584718,23.276419346055985,12.775751505584717C23.336619346055983,12.730051505584717,23.393279346055984,12.684351505584717,23.453469346055986,12.642151505584717C23.481799346055986,12.621061505584716,23.510139346055986,12.599971505584717,23.538459346055983,12.582391505584717C23.626999346055985,12.522621505584716,23.715519346055984,12.466371505584718,23.807589346055984,12.413639505584717C23.896129346055986,12.364421505584717,23.981109346055984,12.318719505584717,24.066109346055985,12.280049505584717C24.087349346055984,12.269501505584717,24.112139346055983,12.258953505584717,24.133389346055985,12.248405505584717C24.214829346055986,12.213251505584717,24.296289346055985,12.178097505584716,24.377729346055986,12.149969505584718C24.381269346055984,12.149969505584718,24.388359346055985,12.146453505584716,24.391899346055986,12.146453505584716C24.462719346055984,12.121847505584716,24.529999346055984,12.104267505584717,24.597289346055984,12.090203505584716C24.636239346055984,12.079655505584716,24.675189346055983,12.072623505584717,24.714149346055983,12.065597505584718C24.763729346055985,12.055049505584718,24.813299346055985,12.048017505584717,24.862869346055984,12.044501505584718C24.891209346055984,12.040985505584716,24.919539346055984,12.037469505584717,24.947869346055985,12.037469505584717C25.008069346055983,12.033953505584718,25.068269346055985,12.030437505584716,25.128469346055986,12.033953505584718C25.142639346055986,12.033953505584718,25.156799346055983,12.033953505584718,25.170959346055984,12.033953505584718C25.241789346055985,12.037469505584717,25.312609346055986,12.048017505584717,25.379899346055986,12.058565505584717C25.397599346055983,12.062081505584716,25.411769346055983,12.065591505584717,25.429469346055985,12.069107505584716C25.482589346055985,12.079655505584716,25.535709346055985,12.097235505584717,25.585289346055983,12.114815505584717C25.599449346055984,12.121847505584716,25.617149346055985,12.125357505584716,25.631319346055985,12.132389505584717C25.695059346055984,12.157001505584716,25.758809346055983,12.185123505584716,25.815469346055984,12.220283505584717C25.815469346055984,12.220283505584717,24.795599346055987,11.633172505584717,24.795599346055987,11.633172505584717C24.792049346055983,11.629656505584716,24.784969346055984,11.626141505584716,24.781429346055987,11.626141505584716C24.735389346055985,11.601531505584717,24.689359346055983,11.576922505584717,24.639779346055985,11.555828505584717C24.629159346055985,11.552313505584717,24.622079346055983,11.548797505584718,24.611449346055984,11.545281105584717C24.597289346055984,11.538249705584716,24.579579346055986,11.534734305584717,24.565419346055982,11.527702905584716C24.540629346055987,11.520671505584717,24.515839346055984,11.510125305584717,24.491049346055984,11.503094305584717C24.462719346055984,11.496063005584716,24.437929346055984,11.489031805584716,24.409599346055984,11.485516105584717C24.391899346055986,11.482000505584717,24.377729346055986,11.478484205584717,24.360029346055985,11.474968605584717C24.349399346055986,11.474968605584717,24.342319346055984,11.471453605584717,24.331699346055984,11.467938005584717C24.275039346055983,11.457391105584717,24.218379346055983,11.450359635584716,24.161719346055985,11.446844005584717C24.158179346055984,11.446844005584717,24.154629346055984,11.446844005584717,24.151089346055983,11.446844005584717C24.136929346055986,11.446844005584717,24.122769346055986,11.446844005584717,24.108599346055986,11.446844005584717C24.062569346055984,11.446844005584717,24.020069346055983,11.443328375584716,23.974029346055985,11.446844005584717C23.959869346055985,11.446844005584717,23.942159346055984,11.450359855584717,23.927999346055984,11.450359855584717C23.899669346055983,11.453875485584717,23.871339346055983,11.453874825584716,23.843009346055986,11.457390505584717C23.818219346055983,11.460906105584717,23.789889346055986,11.460906505584717,23.765099346055983,11.464422205584716C23.743849346055985,11.467937805584716,23.719069346055985,11.474968805584718,23.694279346055986,11.478484405584716C23.655319346055983,11.485515705584717,23.616369346055983,11.492547405584716,23.577409346055983,11.503094305584717C23.556169346055984,11.506609905584718,23.534919346055986,11.510125305584717,23.513679346055984,11.517156705584716C23.467639346055986,11.531218905584717,23.418059346055983,11.545281105584717,23.368489346055984,11.562859505584717C23.364939346055984,11.562859505584717,23.357859346055985,11.566375505584716,23.354319346055984,11.566375505584716C23.297659346055983,11.587468505584717,23.237459346055985,11.608562505584716,23.180799346055984,11.633172505584717C23.159559346055985,11.643718505584717,23.134759346055986,11.654265505584716,23.109969346055983,11.664812505584717C23.088729346055985,11.675359505584717,23.063939346055985,11.685906505584716,23.042689346055983,11.696454505584716C22.957699346055986,11.735125505584717,22.872719346055984,11.780828505584717,22.784189346055985,11.830047505584718C22.692109346055986,11.882781505584717,22.603579346055984,11.939031505584717,22.515049346055985,11.998797505584717C22.486729346055984,12.019890505584717,22.458389346055984,12.040984505584717,22.430069346055983,12.058565505584717C22.369859346055986,12.100751505584716,22.309659346055984,12.146453505584716,22.252999346055983,12.192155505584717C22.221129346055985,12.216767505584716,22.189259346055984,12.244889505584716,22.157389346055986,12.269501505584717C22.104269346055986,12.315203505584718,22.051149346055986,12.360905505584716,21.998029346055986,12.406607505584716C21.966169346055985,12.434735505584717,21.934289346055984,12.466371505584718,21.902419346055986,12.494501505584717C21.881169346055984,12.512081505584717,21.863469346055986,12.529651505584717,21.842219346055984,12.550751505584717C21.820969346055985,12.571851505584718,21.803269346055984,12.592941505584717,21.782019346055986,12.614031505584716C21.718279346055983,12.677311505584717,21.654539346055984,12.744111505584717,21.594329346055986,12.814421505584717C21.573089346055983,12.835521505584717,21.555379346055986,12.856611505584716,21.534129346055984,12.877701505584717C21.516429346055986,12.895281505584716,21.502269346055986,12.916381505584717,21.488099346055986,12.933951505584716C21.449149346055986,12.976141505584717,21.413739346055984,13.021851505584717,21.378319346055985,13.067551505584717C21.353539346055985,13.095671505584717,21.328739346055983,13.123801505584717,21.307499346055984,13.155441505584717C21.289789346055983,13.180051505584716,21.272089346055985,13.204651505584717,21.250839346055983,13.229271505584716C21.226049346055984,13.264421505584718,21.197719346055983,13.299581505584717,21.172929346055984,13.334731505584717C21.155229346055986,13.359351505584717,21.137519346055985,13.383951505584717,21.119819346055984,13.408561505584716C21.091479346055984,13.450751505584716,21.063159346055983,13.492941505584717,21.034819346055983,13.535131505584717C21.017119346055985,13.563251505584716,20.999409346055984,13.587861505584717,20.981709346055986,13.615981505584717C20.974619346055984,13.626531505584717,20.967544346055984,13.637081505584717,20.960461346055986,13.651141505584716C20.910884346055983,13.728481505584718,20.861302346055986,13.809351505584717,20.815268346055984,13.886691505584716C20.811726346055984,13.893721505584717,20.808184346055985,13.897231505584717,20.804643346055986,13.904271505584717C20.794024346055984,13.921851505584717,20.786941346055986,13.935911505584716,20.776316346055985,13.953481505584717C20.744442346055983,14.009731505584718,20.712573346055983,14.065981505584716,20.680705346055984,14.125751505584716C20.666539346055984,14.153881505584717,20.652372346055984,14.178481505584717,20.638206346055984,14.206611505584718C20.624040346055985,14.234731505584717,20.609879346055983,14.262861505584716,20.595713346055984,14.290981505584718C20.585088346055983,14.315601505584716,20.570924346055985,14.340211505584717,20.556760346055984,14.364811505584717C20.524888346055985,14.431611505584717,20.496560346055986,14.494891505584716,20.464689346055984,14.561691505584717C20.457606346055986,14.572231505584718,20.454065346055984,14.586301505584718,20.446983346055983,14.596851505584716C20.446983346055983,14.600361505584717,20.443440346055983,14.603881505584717,20.443440346055983,14.607391505584717C20.408028346055985,14.691771505584716,20.372617346055986,14.776141505584716,20.340746346055983,14.860521505584718C20.333664346055983,14.874581505584716,20.330122346055983,14.892161505584717,20.323040346055983,14.906221505584718C20.312416346055983,14.937861505584717,20.301792346055983,14.965991505584716,20.291168346055983,14.997631505584717C20.277003346055984,15.039811505584716,20.259298346055985,15.082001505584717,20.245133346055983,15.124191505584717C20.234509346055983,15.155831505584716,20.223885346055983,15.190991505584716,20.213261346055983,15.222631505584717C20.202638346055984,15.261301505584717,20.188473346055986,15.299971505584717,20.177849346055986,15.338641505584716C20.170766346055984,15.363251505584717,20.163685346055985,15.387861505584716,20.156602346055983,15.408961505584717C20.145979346055984,15.451141505584717,20.135355346055984,15.493331505584717,20.124731346055984,15.539031505584717C20.114107346055984,15.588261505584716,20.099942346055986,15.633961505584717,20.089319346055984,15.683181505584717C20.085777346055984,15.700761505584717,20.082237346055983,15.714811505584716,20.078695346055984,15.732391505584717C20.071613046055983,15.767551505584716,20.068072046055985,15.799191505584716,20.060989546055985,15.834351505584717C20.046824946055985,15.908181505584718,20.032660846055986,15.985521505584718,20.022037246055984,16.059351505584715C20.018496046055983,16.080441505584716,20.014953046055986,16.101541505584716,20.011411846055985,16.122631505584717C20.004329346055986,16.168331505584717,20.000789446055986,16.214041505584717,19.997248246055985,16.263261505584715C19.993707046055984,16.29490150558472,19.990166246055985,16.330051505584716,19.986625046055984,16.361691505584716C19.979542656055983,16.467161505584716,19.972459346055984,16.569111505584715,19.972459346055984,16.671071505584717C19.976000566055983,17.55352150558472,20.287627346055984,18.175781505584716,20.797560346055985,18.46756150558472C20.797560346055985,18.46756150558472,21.817429346055984,19.05466150558472,21.817429346055984,19.05466150558472C21.311039346055985,18.762881505584716,20.995869346055983,18.14062150558472,20.992329346055985,17.258181505584716C20.992329346055985,17.156221505584718,20.995869346055983,17.050761505584717,21.006499346055985,16.94880150558472C21.013579346055984,16.913651505584717,21.017119346055985,16.882011505584718,21.020659346055986,16.846851505584716C21.020659346055986,16.846851505584716,21.020659346055986,16.846851505584716,21.020659346055986,16.846851505584716Z" fill="url(#master_svgd_1_0135)" fill-opacity="1"/></g><g style="mix-blend-mode:passthrough"><g style="mix-blend-mode:passthrough"><path d="M23.814681810426713,12.417157831054688C25.372821810426714,11.524187831054688,26.64412181042671,12.241375831054688,26.647661810426712,14.020286831054687C26.651201810426713,15.799186831054687,25.39053181042671,17.964826831054687,23.832391810426714,18.861306831054687C22.274251810426712,19.75428683105469,21.002952730426713,19.037106831054686,20.999411506526712,17.258176831054687C20.99232908042671,15.479266831054687,22.253001810426714,13.310126831054687,23.814681810426713,12.417157831054688C23.814681810426713,12.417157831054688,23.814681810426713,12.417157831054688,23.814681810426713,12.417157831054688Z" fill="#FFFFFF" fill-opacity="1"/></g></g></g></g><g style="mix-blend-mode:passthrough"><path d="M25.797761470079422,29.559322571868897C25.797761470079422,29.559322571868897,27.327571470079423,21.413632571868895,34.32502147007942,20.425741693468897C34.32502147007942,20.425741693468897,35.87956147007942,20.397616771868897,36.00006147007942,21.849572571868897C36.00006147007942,21.849572571868897,35.93626147007942,23.146832571868895,33.81862147007942,23.382382571868895C33.81862147007942,23.382382571868895,28.184541470079424,24.004652571868895,25.797761470079422,29.559322571868897C25.797761470079422,29.559322571868897,25.797761470079422,29.559322571868897,25.797761470079422,29.559322571868897Z" fill="url(#master_svge_1_0169)" fill-opacity="1"/></g><g style="mix-blend-mode:passthrough"><path d="M10.620163398790359,22.310102677459717C10.620163398790359,22.310102677459717,9.09029339879036,14.164412677459717,2.0928633987903593,13.176521799059717C2.0928633987903593,13.176521799059717,0.5382643987903595,13.148396877459717,0.4178633987903595,14.600352677459718C0.4178633987903595,14.600352677459718,0.48160539879035946,15.897612677459717,2.5992533987903594,16.133162677459715C2.6027933987903595,16.133162677459715,8.233303398790358,16.755432677459716,10.620163398790359,22.310102677459717C10.620163398790359,22.310102677459717,10.620163398790359,22.310102677459717,10.620163398790359,22.310102677459717Z" fill="url(#master_svgf_1_0074)" fill-opacity="1"/></g><g style="mix-blend-mode:passthrough"><path d="M10.559900025682449,3.378483160856247C11.19732002568245,4.0710651608562465,12.74129002568245,6.247235160856247,12.13220002568245,10.666345160856247C12.13220002568245,10.666345160856247,12.390710025682449,6.711295160856247,9.41963202568245,5.051925160856246C9.019474025682449,4.851525160856247,8.82470702568245,4.647625160856247,8.82470702568245,4.647625160856247C8.544951425682449,4.327695160856247,8.17666502568245,3.698407160856247,8.80700102568245,3.026920160856247C8.80700102568245,3.026920160856247,9.19653602568245,2.576920160856247,10.06059002568245,2.995280160856247C10.06059002568245,2.995280160856247,10.35097002568245,3.160514160856247,10.559900025682449,3.378483160856247C10.559900025682449,3.378483160856247,10.559900025682449,3.378483160856247,10.559900025682449,3.378483160856247Z" fill="url(#master_svgg_1_0094)" fill-opacity="1"/></g><g style="mix-blend-mode:passthrough"><path d="M29.264600167589187,5.21012414944458C28.627190167589188,5.90270614944458,27.083224167589186,8.07887614944458,27.69231116758919,12.49798614944458C27.69231116758919,12.49798614944458,27.43380216758919,8.54293614944458,30.404870167589188,6.8835661494445795C30.805020167589188,6.68316614944458,30.99979016758919,6.47926614944458,30.99979016758919,6.47926614944458C31.27955016758919,6.15933614944458,31.647830167589188,5.53004814944458,31.017500167589187,4.85856114944458C31.017500167589187,4.85856114944458,30.627970167589186,4.40856114944458,29.763910167589188,4.82692114944458C29.763910167589188,4.82692114944458,29.477080167589186,4.98863914944458,29.264600167589187,5.21012414944458C29.264600167589187,5.21012414944458,29.264600167589187,5.21012414944458,29.264600167589187,5.21012414944458Z" fill="url(#master_svgh_1_0165)" fill-opacity="1"/></g><g style="mix-blend-mode:passthrough"><g style="mix-blend-mode:passthrough"><g style="mix-blend-mode:passthrough"><path d="M27.685244383897782,19.954644363250733C27.72416438389778,19.94410236325073,27.75958438389778,19.93355436325073,27.79499438389778,19.930038363250734C27.79855438389778,19.930038363250734,27.802054383897783,19.930038363250734,27.80565438389778,19.930038363250734C27.84455438389778,19.926522363250733,27.879954383897783,19.930038363250734,27.911854383897783,19.937070363250733C27.915354383897782,19.937070363250733,27.915354383897782,19.937070363250733,27.91895438389778,19.937070363250733C27.95435438389778,19.94410236325073,27.98625438389778,19.954644363250733,28.01455438389778,19.97222436325073C28.01455438389778,19.97222436325073,26.768054383897784,19.251521863250733,26.768054383897784,19.251521863250733C26.768054383897784,19.251521863250733,26.76448438389778,19.251522663250732,26.76448438389778,19.248007063250732C26.75391438389778,19.24097576325073,26.74327438389778,19.23746016325073,26.732634383897782,19.230428963250734C26.722004383897783,19.226913263250733,26.707864383897782,19.219881163250733,26.697224383897783,19.216365563250733C26.69015438389778,19.212849963250733,26.683084383897782,19.21285166325073,26.672444383897783,19.20933606325073C26.66887438389778,19.20933606325073,26.66887438389778,19.20933606325073,26.66537438389778,19.20933606325073C26.66180438389778,19.20933606325073,26.66180438389778,19.209334743250732,26.658304383897782,19.205819123250734C26.64409438389778,19.202303504890732,26.63346438389778,19.202304363250942,26.619324383897784,19.202304363250942C26.605174383897783,19.202304363250942,26.59097438389778,19.202304363250942,26.576834383897783,19.202304363250942C26.57326438389778,19.202304363250942,26.56619438389778,19.202304363250942,26.56269438389778,19.202304363250942C26.55912438389778,19.202304363250942,26.555554383897782,19.202304363250942,26.552054383897783,19.202304363250942C26.54498438389778,19.202304363250942,26.534344383897782,19.202303504890732,26.527274383897783,19.205819123250734C26.509564383897782,19.209334743250732,26.48829438389778,19.212851263250734,26.46708438389778,19.219882463250734C26.45994438389778,19.22339816325073,26.449374383897784,19.226914163250733,26.44224438389778,19.226914163250733C26.43516438389778,19.230429763250733,26.42809438389778,19.23042806325073,26.41746438389778,19.23394366325073C26.40682438389778,19.237459363250732,26.39624438389778,19.240976663250734,26.389114383897784,19.24449226325073C26.357264383897782,19.258554763250732,26.328924383897782,19.272617163250732,26.29707438389778,19.29019476325073C26.29707438389778,19.29019476325073,18.456818383897783,23.790194363250734,18.456818383897783,23.790194363250734C18.414325383897783,23.814804363250733,18.37183138389778,23.84292436325073,18.332878383897782,23.874574363250733C18.31871338389778,23.885114363250732,18.308088383897783,23.89566436325073,18.29392338389778,23.90972436325073C18.27267638389778,23.927304363250734,18.25497238389778,23.941364363250734,18.23372438389778,23.962454363250732C18.226642383897783,23.969494363250732,18.216018383897783,23.98003436325073,18.20893538389778,23.990584363250733C18.20185338389778,23.997614363250733,18.194769383897782,24.004644363250733,18.18768738389778,24.015194363250732C18.18060438389778,24.02574436325073,18.169983383897783,24.03277436325073,18.16290038389778,24.043324363250733C18.14519438389778,24.064414363250734,18.127486383897782,24.085504363250735,18.10978038389778,24.11011436325073C18.10269838389778,24.117154363250734,18.099157383897783,24.12417436325073,18.09207438389778,24.134724363250733C18.088533383897783,24.138244363250735,18.08499238389778,24.141754363250733,18.081451383897782,24.148784363250734C18.074369383897782,24.155824363250733,18.07082838389778,24.16285436325073,18.063745383897782,24.173394363250733C18.04958138389778,24.19097436325073,18.03895638389778,24.212074363250732,18.024792383897783,24.22965436325073C18.014168383897783,24.247224363250734,18.00000338389778,24.268324363250734,17.98937938389778,24.285904363250733C17.98937938389778,24.285904363250733,17.98937938389778,24.28941436325073,17.985838383897782,24.28941436325073C17.985838383897782,24.28941436325073,17.985838383897782,24.292934363250733,17.982296383897783,24.292934363250733C17.97167338389778,24.30699436325073,17.96459138389778,24.324574363250733,17.957509383897783,24.338634363250733C17.946885383897783,24.356204363250733,17.936261383897783,24.377304363250733,17.92917838389778,24.394884363250732C17.92209638389778,24.41245436325073,17.91501438389778,24.430034363250734,17.90439038389778,24.44410436325073C17.90439038389778,24.44410436325073,17.90439038389778,24.447614363250732,17.90439038389778,24.447614363250732C17.90439038389778,24.447614363250732,17.90439038389778,24.45113436325073,17.90439038389778,24.45113436325073C17.89730868389778,24.47222436325073,17.886684583897782,24.489804363250734,17.879601983897782,24.51090436325073C17.87251938389778,24.531994363250732,17.86543678389778,24.553084363250733,17.85835438389778,24.574174363250734C17.854813183897782,24.584724363250732,17.851272383897783,24.59527436325073,17.847731183897782,24.605824363250733C17.847731183897782,24.60933436325073,17.844189783897782,24.61636436325073,17.844189783897782,24.619884363250733C17.84064858389778,24.626914363250734,17.84064918389778,24.633944363250734,17.83710798389778,24.644494363250733C17.83002548389778,24.66910436325073,17.82294308389778,24.69370436325073,17.819401883897783,24.721834363250732C17.81586068389778,24.735904363250732,17.81586028389778,24.75347436325073,17.812318983897782,24.767534363250732C17.812318983897782,24.774574363250732,17.808777583897783,24.785114363250734,17.808777583897783,24.79215436325073C17.808777583897783,24.79918436325073,17.805236183897783,24.806204363250732,17.805236183897783,24.813244363250732C17.798153735374783,24.855424363250734,17.798154383897803,24.901134363250733,17.798154383897803,24.94332436325073C17.798154383897803,25.15074436325073,17.87251998389778,25.29842436325073,17.99292138389778,25.365204363250733C17.99292138389778,25.365204363250733,19.23942438389778,26.085924363250733,19.23942438389778,26.085924363250733C19.11903438389778,26.01560436325073,19.044664383897782,25.871424363250732,19.044664383897782,25.664004363250733C19.044664383897782,25.614804363250734,19.048204383897783,25.56560436325073,19.05528438389778,25.51286436325073C19.05528438389778,25.50584436325073,19.058824383897782,25.495284363250732,19.058824383897782,25.48826436325073C19.06591438389778,25.43900436325073,19.07653438389778,25.393344363250733,19.09069438389778,25.344084363250733C19.09069438389778,25.340604363250733,19.09423438389778,25.333584363250733,19.09423438389778,25.33004436325073C19.111944383897782,25.27730436325073,19.12964438389778,25.22456436325073,19.150894383897782,25.175354363250733C19.150894383897782,25.175354363250733,19.150894383897782,25.17183436325073,19.150894383897782,25.17183436325073C19.17568438389778,25.119104363250734,19.20047438389778,25.066364363250734,19.22880438389778,25.017144363250733C19.22880438389778,25.017144363250733,19.22880438389778,25.01363436325073,19.232344383897782,25.01363436325073C19.260674383897783,24.964414363250732,19.29255438389778,24.918704363250733,19.324414383897782,24.873004363250732C19.327964383897783,24.86949436325073,19.33150438389778,24.865974363250732,19.33504438389778,24.858944363250732C19.366914383897782,24.81675436325073,19.39878438389778,24.778084363250734,19.43065438389778,24.742924363250733C19.43773438389778,24.735904363250732,19.44482438389778,24.728864363250732,19.45190438389778,24.718324363250733C19.48023438389778,24.690194363250733,19.50856438389778,24.665584363250733,19.53688438389778,24.640974363250734C19.55105438389778,24.630434363250732,19.56168438389778,24.61636436325073,19.57584438389778,24.605824363250733C19.61479438389778,24.574184363250733,19.65729438389778,24.546054363250732,19.699784383897782,24.521444363250733C19.699784383897782,24.521444363250733,27.53294438389778,20.03199036325073,27.53294438389778,20.03199036325073C27.57543438389778,20.007384363250733,27.61441438389778,19.989804363250734,27.65689438389778,19.975740363250733C27.671034383897783,19.961682363250734,27.678174383897783,19.958160363250734,27.685244383897782,19.954644363250733C27.685244383897782,19.954644363250733,27.685244383897782,19.954644363250733,27.685244383897782,19.954644363250733Z" fill="url(#master_svgi_1_0090)" fill-opacity="1"/></g><g style="mix-blend-mode:passthrough"><g style="mix-blend-mode:passthrough"><path d="M27.540012147760393,20.021445083721925C27.90831214776039,19.810508283721923,28.20578214776039,19.979258083721923,28.20578214776039,20.397617283721925C28.20578214776039,20.815978283721925,27.90831214776039,21.329256283721925,27.54358214776039,21.536676283721924C27.54358214776039,21.536676283721924,19.71040914776039,26.029666283721923,19.71040914776039,26.029666283721923C19.34212414776039,26.240566283721925,19.04466214776039,26.071846283721925,19.04466214776039,25.653476283721922C19.04466214776039,25.235116283721922,19.34212414776039,24.721836283721924,19.70686714776039,24.514416283721925C19.70686714776039,24.514416283721925,27.540012147760393,20.021445083721925,27.540012147760393,20.021445083721925C27.540012147760393,20.021445083721925,27.540012147760393,20.021445083721925,27.540012147760393,20.021445083721925Z" fill="url(#master_svgj_1_0086)" fill-opacity="1"/></g></g></g></g></g></g></svg>