<?xml version="1.0" standalone="no"?><!DOCTYPE svg PUBLIC "-//W3C//DTD SVG 1.1//EN" "http://www.w3.org/Graphics/SVG/1.1/DTD/svg11.dtd"><svg class="icon" width="200px" height="200.00px" viewBox="0 0 1024 1024" version="1.1" xmlns="http://www.w3.org/2000/svg"><path d="M921.6 450.56c45.24544 0 81.92 36.67456 81.92 81.92v378.88c0 45.24544-36.67456 81.92-81.92 81.92H102.4c-45.24544 0-81.92-36.67456-81.92-81.92v-378.88c0-45.24544 36.67456-81.92 81.92-81.92h819.2z m-220.16 235.52H322.56a35.84 35.84 0 0 0 0 71.68h378.88a35.84 35.84 0 0 0 0-71.68zM286.49472 30.72h451.01056a71.68 71.68 0 0 1 58.09664 29.696l125.78816 174.08c23.18848 32.09216 15.9744 76.9024-16.11776 100.08576a71.68 71.68 0 0 1-41.984 13.57824H160.7168c-39.58784 0-71.68-32.09216-71.68-71.68a71.68 71.68 0 0 1 13.57824-41.984l125.78816-174.08A71.68 71.68 0 0 1 286.49472 30.72z" /></svg>