<?xml version="1.0" standalone="no"?><!DOCTYPE svg PUBLIC "-//W3C//DTD SVG 1.1//EN" "http://www.w3.org/Graphics/SVG/1.1/DTD/svg11.dtd"><svg class="icon" width="200px" height="200.00px" viewBox="0 0 1024 1024" version="1.1" xmlns="http://www.w3.org/2000/svg"><path d="M102.4 0h819.2c68.2496 0 102.4 34.1504 102.4 102.4v819.2c0 68.2496-34.1504 102.4-102.4 102.4H102.4c-68.2496 0-102.4-34.1504-102.4-102.4V102.4C0 34.1504 34.1504 0 102.4 0z" fill="#000000" fill-opacity=".15" /><path d="M660.3776 204.8c17.408 0 34.7136 13.0048 39.0656 34.7136v69.4272c0 4.352 4.352 8.704 8.704 8.704h69.376c17.408 0 34.7136 13.0048 39.0656 34.6624v91.136c-47.7184-43.3664-108.4416-65.0752-173.568-65.0752-143.1552 0-260.3008 117.1456-260.3008 260.352 0 65.024 26.0096 125.7984 65.024 173.568H361.0624c-17.408 0-34.7136-13.056-39.0656-34.7648v-69.376a9.3184 9.3184 0 0 0-8.704-8.704H243.9168c-17.408 0-34.7136-13.0048-39.0656-34.7136v-420.864c0-21.7088 13.0048-34.7136 34.7136-39.0656h420.864z m-21.6576 260.352a174.08 174.08 0 0 1 173.568 173.568 174.08 174.08 0 0 1-173.568 173.568 174.08 174.08 0 0 1-173.568-173.568 174.08 174.08 0 0 1 173.568-173.568z m-4.352 143.1552l-52.0704-65.024-43.4176 34.6624 60.7744 73.728-60.7744 73.7792 43.4176 34.7136 56.4224-65.024 56.3712 65.024 43.4176-34.7136-60.7744-73.728 60.7744-73.728-47.7184-34.7648-56.4224 65.0752z m17.3568-364.4416H252.5184c-4.352 0-8.704 0-8.704 4.3008v403.5584c0 4.352 4.352 8.704 8.704 8.704H313.344c4.3008 0 8.704-4.352 8.704-8.704V356.6592c0-17.3568 12.9536-34.7136 34.6624-39.0656h299.4176c4.3008 0 8.704-4.3008 8.704-8.704v-56.32c-4.4032-4.4032-8.704-8.704-13.056-8.704z" fill="#FFFFFF" /></svg>