<?xml version="1.0" standalone="no"?><!DOCTYPE svg PUBLIC "-//W3C//DTD SVG 1.1//EN" "http://www.w3.org/Graphics/SVG/1.1/DTD/svg11.dtd"><svg class="icon" width="200px" height="200.00px" viewBox="0 0 1024 1024" version="1.1" xmlns="http://www.w3.org/2000/svg"><path d="M0 921.6V102.4a102.4 102.4 0 0 1 102.4-102.4h819.2a102.4 102.4 0 0 1 102.4 102.4v819.2a102.4 102.4 0 0 1-102.4 102.4H102.4a102.4 102.4 0 0 1-102.4-102.4z" fill="#8C7BEB" /><path d="M427.4176 261.1968c10.2912 0 19.0976 3.5584 26.4192 10.6752 7.3216 7.1424 10.9824 15.8464 10.9824 26.112v148.4032c0 10.2912-3.6608 19.0976-11.008 26.4192-7.296 7.3216-16.128 11.008-26.3936 11.008h-148.4032c-10.2912 0-18.9952-3.6864-26.112-11.008a36.5312 36.5312 0 0 1-10.7008-26.4192V297.984c0-10.2656 3.584-18.9952 10.7008-26.112a35.5328 35.5328 0 0 1 26.112-10.6752h148.4032z m0 296.8064c10.2912 0 19.0976 3.5584 26.4192 10.6752 7.3216 7.1424 10.9824 15.8464 10.9824 26.112v148.992c0 10.3168-3.6608 19.0208-11.008 26.1376-7.296 7.1168-16.128 10.6752-26.3936 10.6752h-148.4032c-10.2912 0-18.9952-3.5584-26.112-10.6752a35.5328 35.5328 0 0 1-10.7008-26.112v-148.992c0-10.2912 3.584-18.9952 10.7008-26.112a35.5328 35.5328 0 0 1 26.112-10.7008h148.4032z m297.3952 0c10.2912 0 18.9952 3.5584 26.112 10.6752 7.1424 7.1424 10.7008 15.8464 10.7008 26.112v148.992c0 10.3168-3.584 19.0208-10.7008 26.1376a35.5328 35.5328 0 0 1-26.112 10.6752h-148.4032c-10.2912 0-19.0976-3.5584-26.4192-10.6752a35.072 35.072 0 0 1-10.9824-26.112v-148.992c0-10.2912 3.6608-18.9952 11.008-26.112 7.296-7.1424 16.128-10.7008 26.3936-10.7008h148.4032z m82.5088-231.5008c7.936 7.9104 11.8784 17.2032 11.8784 27.904 0 10.6752-3.968 19.7632-11.8784 27.2896l-110.4128 110.4128c-7.9104 7.936-17.1008 11.8784-27.5968 11.8784-10.496 0-19.712-3.968-27.5968-11.8784l-110.4128-110.4128a37.1968 37.1968 0 0 1-11.264-27.3152c0-10.6752 3.7376-19.968 11.264-27.904l110.4128-110.3872c7.9104-7.5264 17.1008-11.2896 27.5968-11.2896 10.496 0 19.6864 3.7632 27.5968 11.264l110.4128 110.4384z" fill="#FFFFFF" /></svg>