<?xml version="1.0" standalone="no"?><!DOCTYPE svg PUBLIC "-//W3C//DTD SVG 1.1//EN" "http://www.w3.org/Graphics/SVG/1.1/DTD/svg11.dtd"><svg class="icon" width="200px" height="200.00px" viewBox="0 0 1024 1024" version="1.1" xmlns="http://www.w3.org/2000/svg"><path d="M0 512.031998q0-12.575214 0.63996-25.11843 0.607962-12.543216 1.823886-25.054434 1.247922-12.511218 3.071808-24.95844 1.855884-12.415224 4.287732-24.734454 2.463846-12.351228 5.503656-24.542466 3.071808-12.15924 6.71958-24.222487 3.647772-11.99925 7.871508-23.83851 4.255734-11.83926 9.055434-23.454534 4.7997-11.615274 10.175364-22.974564t11.295294-22.430598q5.91963-11.103306 12.383226-21.886632 6.463596-10.783326 13.43916-21.214674 7.007562-10.463346 14.495094-20.542716 7.487532-10.111368 15.455034-19.83876 7.967502-9.695394 16.414975-19.006812t17.310918-18.206862q8.895444-8.863446 18.23886-17.310918 9.27942-8.447472 19.006812-16.414975 9.695394-7.9995 19.806762-15.455034 10.07937-7.487532 20.542716-14.495094 10.431348-6.975564 21.214674-13.43916 10.783326-6.463596 21.886632-12.383226 11.071308-5.91963 22.430598-11.295294 11.35929-5.375664 22.974564-10.175364t23.454534-9.055434q11.83926-4.223736 23.83851-7.871508 12.031248-3.647772 24.222487-6.71958 12.191238-3.03981 24.542466-5.503656 12.31923-2.431848 24.734454-4.287732 12.447222-1.823886 24.95844-3.071808 12.47922-1.215924 25.054434-1.855884Q499.392788 0.063996 511.968002 0.063996t25.11843 0.63996q12.543216 0.607962 25.054434 1.823886 12.511218 1.247922 24.95844 3.071808 12.415224 1.855884 24.734454 4.287732 12.351228 2.463846 24.542466 5.503656 12.15924 3.071808 24.222487 6.71958 11.99925 3.647772 23.83851 7.871508 11.83926 4.255734 23.454534 9.055434 11.615274 4.7997 22.974564 10.175364t22.430598 11.295294q11.103306 5.91963 21.886632 12.383226 10.783326 6.463596 21.214674 13.43916 10.463346 7.007562 20.542716 14.495094 10.111368 7.487532 19.83876 15.455034 9.695394 7.967502 19.006812 16.414975t18.206862 17.310918q8.863446 8.895444 17.310918 18.23886 8.447472 9.27942 16.414975 19.006812 7.9995 9.695394 15.455034 19.806762 7.487532 10.07937 14.495094 20.542716 6.975564 10.431348 13.43916 21.214674 6.463596 10.783326 12.383226 21.886632 5.91963 11.071308 11.295294 22.430598 5.375664 11.35929 10.175364 22.974564t9.055434 23.454534q4.223736 11.83926 7.871508 23.83851 3.647772 12.031248 6.71958 24.222487 3.03981 12.191238 5.503656 24.542466 2.431848 12.31923 4.287732 24.734454 1.823886 12.447222 3.071808 24.95844 1.247922 12.47922 1.855884 25.054434 0.607962 12.543216 0.607962 25.11843t-0.63996 25.11843q-0.575964 12.543216-1.823886 25.054434-1.215924 12.511218-3.071808 24.95844-1.855884 12.415224-4.287732 24.734454-2.463846 12.351228-5.535654 24.542466-3.03981 12.15924-6.687582 24.222487-3.647772 11.99925-7.871508 23.83851-4.255734 11.83926-9.055434 23.454534-4.7997 11.615274-10.175364 22.974564t-11.295294 22.430598q-5.91963 11.103306-12.383226 21.886632-6.463596 10.783326-13.43916 21.214674-7.007562 10.463346-14.495094 20.542716-7.487532 10.111368-15.455034 19.83876-7.967502 9.695394-16.414975 19.006812t-17.310918 18.206862q-8.895444 8.863446-18.23886 17.310918-9.27942 8.447472-19.006812 16.414975-9.695394 7.9995-19.806762 15.455034-10.07937 7.487532-20.542716 14.495094-10.431348 6.975564-21.214674 13.43916-10.783326 6.463596-21.886632 12.383226-11.071308 5.91963-22.430598 11.295294-11.35929 5.375664-22.974564 10.175364t-23.454534 9.055434q-11.83926 4.223736-23.83851 7.871508-12.031248 3.647772-24.222487 6.71958-12.191238 3.03981-24.542466 5.503656-12.31923 2.431848-24.734454 4.287732-12.447222 1.823886-24.95844 3.071808-12.47922 1.247922-25.054434 1.855884Q524.543216 1024 511.968002 1024t-25.11843-0.63996q-12.543216-0.575964-25.054434-1.823886-12.511218-1.215924-24.95844-3.071808-12.415224-1.855884-24.734454-4.287732-12.351228-2.463846-24.542466-5.535654-12.15924-3.03981-24.222487-6.687582-11.99925-3.647772-23.83851-7.871508-11.83926-4.255734-23.454534-9.055434-11.615274-4.7997-22.974564-10.175364t-22.430598-11.295294q-11.103306-5.91963-21.886632-12.383226-10.783326-6.463596-21.214674-13.43916-10.463346-7.007562-20.542716-14.495094-10.111368-7.487532-19.83876-15.455034-9.695394-7.967502-19.006812-16.414975t-18.206862-17.310918q-8.863446-8.895444-17.310918-18.23886-8.447472-9.27942-16.414975-19.006812-7.9995-9.695394-15.455034-19.806762-7.487532-10.07937-14.495094-20.542716-6.975564-10.431348-13.43916-21.214674-6.463596-10.783326-12.383226-21.886632-5.91963-11.071308-11.295294-22.430598-5.375664-11.35929-10.175364-22.974564t-9.055434-23.454534q-4.223736-11.83926-7.871508-23.83851-3.647772-12.031248-6.71958-24.222487-3.03981-12.191238-5.503656-24.542466-2.431848-12.31923-4.287732-24.734454-1.823886-12.447222-3.071808-24.95844-1.215924-12.47922-1.855884-25.054434Q0 524.607212 0 512.031998z" fill="#8C7BEB" /><path d="M457.475408 303.053059a30.3981 30.3981 0 0 1 22.014624 8.895444c6.07962 5.91963 9.151428 13.183176 9.151428 21.75864v123.672271a30.014124 30.014124 0 0 1-9.151428 22.014624 30.014124 30.014124 0 0 1-22.014624 9.151428h-123.640273a29.214174 29.214174 0 0 1-21.75864-9.151428 30.430098 30.430098 0 0 1-8.927442-22.014624v-123.672271c0-8.575464 2.975814-15.83901 8.895444-21.75864a29.59815 29.59815 0 0 1 21.75864-8.895444h123.672271z m0 247.312543a30.3981 30.3981 0 0 1 22.014624 8.895444c6.07962 5.951628 9.151428 13.183176 9.151428 21.75864v124.152241a29.214174 29.214174 0 0 1-9.151428 21.75864 30.3981 30.3981 0 0 1-22.014624 8.927442h-123.640273a29.59815 29.59815 0 0 1-21.75864-8.895444 29.59815 29.59815 0 0 1-8.927442-21.75864v-124.152241c0-8.607462 2.975814-15.83901 8.895444-21.75864a29.59815 29.59815 0 0 1 21.75864-8.95944h123.672271z m247.824511 0c8.575464 0 15.83901 2.975814 21.75864 8.895444a29.59815 29.59815 0 0 1 8.895444 21.75864v124.152241a29.59815 29.59815 0 0 1-8.895444 21.75864 29.59815 29.59815 0 0 1-21.75864 8.927442h-123.672271a30.3981 30.3981 0 0 1-22.014624-8.895444 29.214174 29.214174 0 0 1-9.151428-21.75864v-124.152241c0-8.607462 3.071808-15.83901 9.183426-21.75864a30.3981 30.3981 0 0 1 21.982626-8.95944h123.672271z m68.763702-192.915943c6.591588 6.591588 9.887382 14.335104 9.887382 23.262546a30.23811 30.23811 0 0 1-9.91938 22.718581l-91.99425 92.026248a31.550028 31.550028 0 0 1-45.981127 0l-91.99425-91.99425a31.006062 31.006062 0 0 1-9.407412-22.750579c0-8.927442 3.135804-16.63896 9.407412-23.262546l91.99425-91.99425c6.591588-6.271608 14.23911-9.407412 23.006563-9.407412 8.735454 0 16.382976 3.135804 22.974564 9.407412l92.026248 91.99425z" fill="#FFFFFF" /></svg>