<?xml version="1.0" standalone="no"?><!DOCTYPE svg PUBLIC "-//W3C//DTD SVG 1.1//EN" "http://www.w3.org/Graphics/SVG/1.1/DTD/svg11.dtd"><svg class="icon" width="200px" height="200.00px" viewBox="0 0 1024 1024" version="1.1" xmlns="http://www.w3.org/2000/svg"><path d="M102.4 0h819.2c68.2496 0 102.4 34.1504 102.4 102.4v819.2c0 68.2496-34.1504 102.4-102.4 102.4H102.4c-68.2496 0-102.4-34.1504-102.4-102.4V102.4C0 34.1504 34.1504 0 102.4 0z" fill="#000000" fill-opacity=".15" /><path d="M284.672 433.152c0 22.1184 17.92 40.0896 40.0896 40.0896a40.0896 40.0896 0 1 0-28.2624-68.5568 40.2432 40.2432 0 0 0-11.776 28.416z m211.0976 146.4832a36.4544 36.4544 0 1 0 50.2784-33.5872 36.4544 36.4544 0 0 0-39.6288 7.7312 36.6592 36.6592 0 0 0-10.6496 25.856zM387.072 369.664c0 22.2208 17.92 40.192 39.936 40.192a40.192 40.192 0 1 0 19.968-74.9568 39.8336 39.8336 0 0 0-59.904 34.816z m0 277.8624c0 22.1696 17.92 40.192 39.936 40.192a40.0896 40.0896 0 1 0-28.2112-68.608 40.2432 40.2432 0 0 0-11.776 28.416z m-5.888-138.9056c0 25.4464 20.48 46.08 45.9264 46.08a46.0288 46.0288 0 0 0-0.0512-91.9552 45.8752 45.8752 0 0 0-45.8752 45.8752z m-96.4096 71.168c0.1024 23.7568 19.3024 43.008 43.008 43.008a43.1104 43.1104 0 0 0 0-86.1184 43.1104 43.1104 0 0 0-43.008 43.0592v0.0512z m336.4864-64.768c0 14.5408 8.704 27.648 22.1696 33.28a35.7376 35.7376 0 0 0 46.6944-46.9504 36.1472 36.1472 0 0 0-32.9728-22.3744c-19.8144 0-35.84 16.128-35.84 36.0448h-0.0512z m75.9296-73.1136c0 19.8656 16.0256 35.9936 35.84 35.9936 19.8144 0 35.84-16.128 35.84-35.9936a35.9424 35.9424 0 0 0-35.84-36.0448c-19.8144 0-35.84 16.128-35.84 36.0448z m0 146.176a35.8912 35.8912 0 1 0 71.68 0 35.9424 35.9424 0 0 0-35.84-35.9936c-19.8144 0-35.84 16.128-35.84 35.9936zM498.1248 427.52a34.0992 34.0992 0 0 0 68.0448 0 34.0992 34.0992 0 0 0-58.112-24.1664 34.0992 34.0992 0 0 0-9.9328 24.1664zM204.8 508.5184a25.2416 25.2416 0 1 0 50.3808 2.4064 25.2416 25.2416 0 0 0-50.3808-2.4064z" fill="#FFFFFF" /><path d="M675.5328 656.896v18.0736c0 13.8752-12.544 30.8736-28.8768 38.2464l-75.8784 34.0992c-24.2688 10.8544-64 30.4128-64-13.824V290.4064c0-42.0864 39.68-24.576 64-13.7728l75.8784 34.0992c16.384 7.3728 28.8768 24.3712 28.8768 38.2464v18.1248h28.6208v-33.1776c0-12.9536-10.8544-29.184-24.9856-36.4544l-161.28-83.2c-29.44-15.36-56.0128-11.8784-56.0128 9.1136v577.1776c0 20.992 26.5728 24.576 56.1152 9.216l161.2288-83.2c14.08-7.3216 24.9344-23.5008 24.9344-36.4544v-33.1776h-28.672v-0.1024z m97.5872-141.9264a35.8912 35.8912 0 1 0 61.2352-25.4464 35.9424 35.9424 0 0 0-61.2864 25.4464z" fill="#FFFFFF" /></svg>