<?xml version="1.0" standalone="no"?><!DOCTYPE svg PUBLIC "-//W3C//DTD SVG 1.1//EN" "http://www.w3.org/Graphics/SVG/1.1/DTD/svg11.dtd"><svg class="icon" width="200px" height="200.00px" viewBox="0 0 1024 1024" version="1.1" xmlns="http://www.w3.org/2000/svg"><path d="M911.36 40.96c33.93024 0 61.44 27.50976 61.44 61.44v828.928c0 33.93536-27.50976 61.44-61.44 61.44a61.44 61.44 0 0 1-29.14816-7.35232l-330.25536-178.00192a61.44 61.44 0 0 0-57.18016-0.5888L140.672 988.3648c-30.19776 15.47776-67.2256 3.55328-82.70336-26.64448A61.44 61.44 0 0 1 51.2 933.69344V122.88c0-45.24544 36.67456-81.92 81.92-81.92h778.24z m-209.90976 409.6H322.54976a35.82976 35.82976 0 0 0 0 71.6544h378.90048a35.82976 35.82976 0 0 0 0-71.6544z m0-194.56H322.54976a35.82976 35.82976 0 0 0 0 71.6544h378.90048a35.82976 35.82976 0 0 0 0-71.6544z" /></svg>