<?xml version="1.0" standalone="no"?><!DOCTYPE svg PUBLIC "-//W3C//DTD SVG 1.1//EN" "http://www.w3.org/Graphics/SVG/1.1/DTD/svg11.dtd"><svg class="icon" width="200px" height="200.00px" viewBox="0 0 1024 1024" version="1.1" xmlns="http://www.w3.org/2000/svg"><path d="M926.72 20.48c39.58784 0 71.68 32.09216 71.68 71.68v102.4c0 39.58784-32.09216 71.68-71.68 71.68H97.28c-39.58784 0-71.68-32.09216-71.68-71.68V92.16c0-39.58784 32.09216-71.68 71.68-71.68h829.44zM138.24 81.92a30.72 30.72 0 0 0-30.72 30.72v61.44a30.72 30.72 0 1 0 61.44 0V112.64a30.72 30.72 0 0 0-30.72-30.72z m133.12 0a30.72 30.72 0 0 0-30.72 30.72v61.44a30.72 30.72 0 1 0 61.44 0V112.64a30.72 30.72 0 0 0-30.72-30.72zM558.30528 1003.52512L97.28 1003.52c-39.58784 0-71.68-32.09216-71.68-71.68v-102.4c0-39.58784 32.09216-71.68 71.68-71.68h318.8224c9.14944 101.5552 63.22688 190.15168 142.20288 245.76512zM138.24 819.2a30.72 30.72 0 0 0-30.69952 29.568L107.52 849.92v61.44a30.72 30.72 0 0 0 61.41952 1.152L168.96 911.36v-61.44a30.72 30.72 0 0 0-30.72-30.72z m133.12 0a30.72 30.72 0 0 0-30.69952 29.568L240.64 849.92v61.44a30.72 30.72 0 0 0 61.41952 1.152L302.08 911.36v-61.44a30.72 30.72 0 0 0-30.72-30.72zM691.2 389.12c6.66624 0 13.12256 0.91136 19.2512 2.6112-135.81312 16.91136-246.59968 114.41664-283.01312 243.1488H97.28c-39.58784 0-71.68-32.09216-71.68-71.68V460.8c0-39.58784 32.09216-71.68 71.68-71.68h593.92zM138.24 450.56a30.72 30.72 0 0 0-30.69952 29.568L107.52 481.28v61.44a30.72 30.72 0 0 0 61.41952 1.152L168.96 542.72V481.28a30.72 30.72 0 0 0-30.72-30.72z m133.12 0a30.72 30.72 0 0 0-30.69952 29.568L240.64 481.28v61.44a30.72 30.72 0 0 0 61.41952 1.152L302.08 542.72V481.28a30.72 30.72 0 0 0-30.72-30.72zM625.47456 503.424l122.3168 234.39872 122.19392-234.16832C949.5552 547.07712 1003.52 631.49568 1003.52 728.51456c0 141.3888-114.61632 256-256 256s-256-114.6112-256-256c0-97.19296 54.16448-181.7344 133.95456-225.09056z" /></svg>