<svg xmlns="http://www.w3.org/2000/svg" xmlns:xlink="http://www.w3.org/1999/xlink" fill="none" version="1.1" width="36" height="36" viewBox="0 0 36 36"><defs><linearGradient x1="0.000009351675544166937" y1="0.4997223913669586" x2="1.0000425577163696" y2="0.4997223913669586" id="master_svg0_1_0238"><stop offset="0%" stop-color="#8EB0EC" stop-opacity="1"/><stop offset="100%" stop-color="#6386DB" stop-opacity="1"/></linearGradient><linearGradient x1="0.00004150211316300556" y1="0.5000039339065552" x2="0.9999903440475464" y2="0.5000039339065552" id="master_svg1_1_0244"><stop offset="0%" stop-color="#6386DB" stop-opacity="1"/><stop offset="100%" stop-color="#8EB0EC" stop-opacity="1"/></linearGradient><linearGradient x1="-0.00027351395692676306" y1="0.4997236430644989" x2="1.0001612901687622" y2="0.4997236430644989" id="master_svg2_1_0383"><stop offset="0%" stop-color="#8EB0EC" stop-opacity="1"/><stop offset="100%" stop-color="#6386DB" stop-opacity="1"/></linearGradient><linearGradient x1="-0.00031369764474220574" y1="0.4998283386230469" x2="0.9995755553245544" y2="0.4998283386230469" id="master_svg3_1_0379"><stop offset="0%" stop-color="#8EB0EC" stop-opacity="1"/><stop offset="100%" stop-color="#6386DB" stop-opacity="1"/></linearGradient><linearGradient x1="0.00006128550012363121" y1="0.4995528757572174" x2="1.0004611015319824" y2="0.4995528757572174" id="master_svg4_1_0351"><stop offset="0%" stop-color="#8EB0EC" stop-opacity="1"/><stop offset="100%" stop-color="#6386DB" stop-opacity="1"/></linearGradient><linearGradient x1="-0.0005289691616781056" y1="0.5005412101745605" x2="1.0000429153442383" y2="0.5005412101745605" id="master_svg5_1_0327"><stop offset="0%" stop-color="#8EB0EC" stop-opacity="1"/><stop offset="100%" stop-color="#6386DB" stop-opacity="1"/></linearGradient><linearGradient x1="-0.00019924528896808624" y1="0.5003523826599121" x2="0.9999577403068542" y2="0.5003523826599121" id="master_svg6_1_0335"><stop offset="0%" stop-color="#8EB0EC" stop-opacity="1"/><stop offset="100%" stop-color="#6386DB" stop-opacity="1"/></linearGradient><linearGradient x1="-0.00028517397004179657" y1="0.5000789761543274" x2="1.0000755786895752" y2="0.5000789761543274" id="master_svg7_1_0355"><stop offset="0%" stop-color="#8EB0EC" stop-opacity="1"/><stop offset="100%" stop-color="#6386DB" stop-opacity="1"/></linearGradient><linearGradient x1="-0.0001674242375884205" y1="0.500299334526062" x2="1.0002400875091553" y2="0.500299334526062" id="master_svg8_1_0331"><stop offset="0%" stop-color="#8EB0EC" stop-opacity="1"/><stop offset="100%" stop-color="#6386DB" stop-opacity="1"/></linearGradient><linearGradient x1="-0.0000030326004889502656" y1="0.5003086924552917" x2="1.000038743019104" y2="0.5003086924552917" id="master_svg9_1_0339"><stop offset="0%" stop-color="#8EB0EC" stop-opacity="1"/><stop offset="100%" stop-color="#6386DB" stop-opacity="1"/></linearGradient><linearGradient x1="-0.000204855838092044" y1="0.5002216696739197" x2="0.9996805787086487" y2="0.5002216696739197" id="master_svga_1_0343"><stop offset="0%" stop-color="#8EB0EC" stop-opacity="1"/><stop offset="100%" stop-color="#6386DB" stop-opacity="1"/></linearGradient><linearGradient x1="-0.000563829846214503" y1="0.5002598762512207" x2="1.000038743019104" y2="0.5002598762512207" id="master_svgb_1_0363"><stop offset="0%" stop-color="#8EB0EC" stop-opacity="1"/><stop offset="100%" stop-color="#6386DB" stop-opacity="1"/></linearGradient><linearGradient x1="-0.0002051671763183549" y1="0.49999871850013733" x2="0.9996709823608398" y2="0.49999871850013733" id="master_svgc_1_0347"><stop offset="0%" stop-color="#8EB0EC" stop-opacity="1"/><stop offset="100%" stop-color="#6386DB" stop-opacity="1"/></linearGradient><linearGradient x1="0.00018707224808167666" y1="0.5001319646835327" x2="1.0001482963562012" y2="0.5001319646835327" id="master_svgd_1_0359"><stop offset="0%" stop-color="#8EB0EC" stop-opacity="1"/><stop offset="100%" stop-color="#6386DB" stop-opacity="1"/></linearGradient><linearGradient x1="-0.00009512936958344653" y1="0.5003784894943237" x2="0.9999687671661377" y2="0.5003784894943237" id="master_svge_1_0367"><stop offset="0%" stop-color="#8EB0EC" stop-opacity="1"/><stop offset="100%" stop-color="#6386DB" stop-opacity="1"/></linearGradient><linearGradient x1="-0.00027570451493375003" y1="0.5003841519355774" x2="0.9998370409011841" y2="0.5003841519355774" id="master_svgf_1_0375"><stop offset="0%" stop-color="#8EB0EC" stop-opacity="1"/><stop offset="100%" stop-color="#6386DB" stop-opacity="1"/></linearGradient><linearGradient x1="-0.0004080854414496571" y1="0.5000686645507812" x2="1.00019371509552" y2="0.5000686645507812" id="master_svgg_1_0323"><stop offset="0%" stop-color="#8EB0EC" stop-opacity="1"/><stop offset="100%" stop-color="#6386DB" stop-opacity="1"/></linearGradient><linearGradient x1="-0.00005045871512265876" y1="0.49954092502593994" x2="1.0002033710479736" y2="0.49954092502593994" id="master_svgh_1_0371"><stop offset="0%" stop-color="#8EB0EC" stop-opacity="1"/><stop offset="100%" stop-color="#6386DB" stop-opacity="1"/></linearGradient><linearGradient x1="-0.00003514132913551293" y1="0.5001509189605713" x2="1.0002024173736572" y2="0.5001509189605713" id="master_svgi_1_0308"><stop offset="0%" stop-color="#8EB0EC" stop-opacity="1"/><stop offset="100%" stop-color="#6386DB" stop-opacity="1"/></linearGradient><linearGradient x1="-0.000020249892259016633" y1="0.5000389814376831" x2="0.9995136260986328" y2="0.5000389814376831" id="master_svgj_1_0317"><stop offset="0%" stop-color="#8EB0EC" stop-opacity="1"/><stop offset="100%" stop-color="#6386DB" stop-opacity="1"/></linearGradient><linearGradient x1="0.00006719925295328721" y1="0.49991878867149353" x2="0.9999716281890869" y2="0.49991878867149353" id="master_svgk_1_0388"><stop offset="0%" stop-color="#8EB0EC" stop-opacity="1"/><stop offset="100%" stop-color="#6386DB" stop-opacity="1"/></linearGradient><linearGradient x1="-0.0004086444096174091" y1="0.4997139275074005" x2="0.9997419714927673" y2="0.4997139275074005" id="master_svgl_1_0251"><stop offset="0%" stop-color="#8EB0EC" stop-opacity="1"/><stop offset="100%" stop-color="#6386DB" stop-opacity="1"/></linearGradient><linearGradient x1="-0.0004773946711793542" y1="0.4994466304779053" x2="1.00031578540802" y2="0.4994466304779053" id="master_svgm_1_0268"><stop offset="0%" stop-color="#8EB0EC" stop-opacity="1"/><stop offset="100%" stop-color="#6386DB" stop-opacity="1"/></linearGradient><linearGradient x1="0.00006893940008012578" y1="0.49923890829086304" x2="1.000113606452942" y2="0.49923890829086304" id="master_svgn_1_0264"><stop offset="0%" stop-color="#8EB0EC" stop-opacity="1"/><stop offset="100%" stop-color="#6386DB" stop-opacity="1"/></linearGradient><linearGradient x1="-0.00012944739137310535" y1="0.5002369284629822" x2="0.9997690916061401" y2="0.5002369284629822" id="master_svgo_1_0288"><stop offset="0%" stop-color="#8EB0EC" stop-opacity="1"/><stop offset="100%" stop-color="#6386DB" stop-opacity="1"/></linearGradient><linearGradient x1="-0.0004738834104500711" y1="0.500166654586792" x2="1.0002135038375854" y2="0.500166654586792" id="master_svgp_1_0284"><stop offset="0%" stop-color="#8EB0EC" stop-opacity="1"/><stop offset="100%" stop-color="#6386DB" stop-opacity="1"/></linearGradient><linearGradient x1="-0.000028722601200570352" y1="0.5003434419631958" x2="1.0001556873321533" y2="0.5003434419631958" id="master_svgq_1_0260"><stop offset="0%" stop-color="#8EB0EC" stop-opacity="1"/><stop offset="100%" stop-color="#6386DB" stop-opacity="1"/></linearGradient><linearGradient x1="-0.00008679245365783572" y1="0.5000671744346619" x2="0.9999494552612305" y2="0.5000671744346619" id="master_svgr_1_0272"><stop offset="0%" stop-color="#8EB0EC" stop-opacity="1"/><stop offset="100%" stop-color="#6386DB" stop-opacity="1"/></linearGradient><linearGradient x1="-0.0002923888387158513" y1="0.4991631805896759" x2="1.0002132654190063" y2="0.4991631805896759" id="master_svgs_1_0276"><stop offset="0%" stop-color="#8EB0EC" stop-opacity="1"/><stop offset="100%" stop-color="#6386DB" stop-opacity="1"/></linearGradient><linearGradient x1="-0.000027777778086601757" y1="0.500328540802002" x2="0.9998784065246582" y2="0.500328540802002" id="master_svgt_1_0256"><stop offset="0%" stop-color="#8EB0EC" stop-opacity="1"/><stop offset="100%" stop-color="#6386DB" stop-opacity="1"/></linearGradient><linearGradient x1="-0.00036017896491102874" y1="0.5005797743797302" x2="0.99979567527771" y2="0.5005797743797302" id="master_svgu_1_0292"><stop offset="0%" stop-color="#8EB0EC" stop-opacity="1"/><stop offset="100%" stop-color="#6386DB" stop-opacity="1"/></linearGradient><linearGradient x1="-0.0004406528314575553" y1="0.4995807409286499" x2="0.9997076988220215" y2="0.4995807409286499" id="master_svgv_1_0280"><stop offset="0%" stop-color="#8EB0EC" stop-opacity="1"/><stop offset="100%" stop-color="#6386DB" stop-opacity="1"/></linearGradient><linearGradient x1="-0.00010171919711865485" y1="0.4993962347507477" x2="0.9997836351394653" y2="0.4993962347507477" id="master_svgw_1_0301"><stop offset="0%" stop-color="#8EB0EC" stop-opacity="1"/><stop offset="100%" stop-color="#6386DB" stop-opacity="1"/></linearGradient><linearGradient x1="-0.00010171919711865485" y1="0.4993962347507477" x2="0.9997836351394653" y2="0.4993962347507477" id="master_svgx_1_0301"><stop offset="0%" stop-color="#8EB0EC" stop-opacity="1"/><stop offset="100%" stop-color="#6386DB" stop-opacity="1"/></linearGradient><linearGradient x1="-0.0000840978609630838" y1="0.49996060132980347" x2="1.0001368522644043" y2="0.49996060132980347" id="master_svgy_1_0313"><stop offset="0%" stop-color="#8EB0EC" stop-opacity="1"/><stop offset="100%" stop-color="#6386DB" stop-opacity="1"/></linearGradient><linearGradient x1="-0.00015657619223929942" y1="0.5000913739204407" x2="1.000036358833313" y2="0.5000913739204407" id="master_svgz_1_0296"><stop offset="0%" stop-color="#8EB0EC" stop-opacity="1"/><stop offset="100%" stop-color="#6386DB" stop-opacity="1"/></linearGradient><linearGradient x1="-0.00009068492363439873" y1="0.5000276565551758" x2="1.0001705884933472" y2="0.5000276565551758" id="master_svg10_1_0392"><stop offset="0%" stop-color="#8EB0EC" stop-opacity="1"/><stop offset="100%" stop-color="#6386DB" stop-opacity="1"/></linearGradient><linearGradient x1="-0.0005662544281221926" y1="0.5000529885292053" x2="0.9999584555625916" y2="0.5000529885292053" id="master_svg11_1_0405"><stop offset="0%" stop-color="#D7D8D5" stop-opacity="1"/><stop offset="100%" stop-color="#E2E3DA" stop-opacity="1"/></linearGradient><linearGradient x1="0.00015662252553738654" y1="0.5000191926956177" x2="1.0000633001327515" y2="0.5000191926956177" id="master_svg12_1_0401"><stop offset="0%" stop-color="#FBFBFB" stop-opacity="1"/><stop offset="100%" stop-color="#FBFBFB" stop-opacity="1"/></linearGradient><linearGradient x1="-0.00021075454424135387" y1="0.4997791647911072" x2="1.0002740621566772" y2="0.4997791647911072" id="master_svg13_1_0232"><stop offset="0%" stop-color="#D1D1E4" stop-opacity="1"/><stop offset="100%" stop-color="#EBE1EE" stop-opacity="1"/></linearGradient><linearGradient x1="-0.00021075454424135387" y1="0.4999992251396179" x2="1.0002740621566772" y2="0.4999992251396179" id="master_svg14_1_0218"><stop offset="0%" stop-color="#D1D1E4" stop-opacity="1"/><stop offset="100%" stop-color="#EBE1EE" stop-opacity="1"/></linearGradient><linearGradient x1="-0.00021075454424135387" y1="0.4999992251396179" x2="1.0002740621566772" y2="0.4999992251396179" id="master_svg15_1_0218"><stop offset="0%" stop-color="#D1D1E4" stop-opacity="1"/><stop offset="100%" stop-color="#EBE1EE" stop-opacity="1"/></linearGradient><linearGradient x1="-0.00021075454424135387" y1="0.500382125377655" x2="1.0002740621566772" y2="0.500382125377655" id="master_svg16_1_0212"><stop offset="0%" stop-color="#D1D1E4" stop-opacity="1"/><stop offset="100%" stop-color="#EBE1EE" stop-opacity="1"/></linearGradient><linearGradient x1="-0.00021075454424135387" y1="0.5000344514846802" x2="1.0002740621566772" y2="0.5000344514846802" id="master_svg17_1_0226"><stop offset="0%" stop-color="#D1D1E4" stop-opacity="1"/><stop offset="100%" stop-color="#EBE1EE" stop-opacity="1"/></linearGradient></defs><g style="mix-blend-mode:passthrough"><g style="mix-blend-mode:passthrough"><g style="opacity:0.25;mix-blend-mode:passthrough"><g style="opacity:0.25;mix-blend-mode:passthrough"><g style="opacity:0.25;mix-blend-mode:passthrough"><path d="M35.7574,0.161719C35.7574,0.161719,35.7574,35.6765,35.7574,35.6765C35.7574,35.6765,0.242578,35.6765,0.242578,35.6765C0.242578,35.6765,0.242578,0.161719,0.242578,0.161719C0.242578,0.161719,35.7574,0.161719,35.7574,0.161719C35.7574,0.161719,35.7574,0.161719,35.7574,0.161719ZM35.9191,0C35.9191,0,35.6765,0,35.6765,0C35.6765,0,0.161719,0,0.161719,0C0.161719,0,0,0,0,0C0,0,0,0.242578,0,0.242578C0,0.242578,0,35.7574,0,35.7574C0,35.7574,0,36,0,36C0,36,0.242578,36,0.242578,36C0.242578,36,35.7574,36,35.7574,36C35.7574,36,36,36,36,36C36,36,36,35.7574,36,35.7574C36,35.7574,36,0.242578,36,0.242578C36,0.242578,36,0,36,0C36,0,35.9191,0,35.9191,0C35.9191,0,35.9191,0,35.9191,0Z" fill="#000000" fill-opacity="1"/></g></g><g style="opacity:0.25;mix-blend-mode:passthrough"><g style="opacity:0.25;mix-blend-mode:passthrough"><path d="M17.99999375,0.97031275C27.36209375,0.97031275,34.95229375,8.55705375,34.95229375,17.92259375C34.95229375,27.28829375,27.36209375,34.87149375,17.99999375,34.87149375C8.63787375,34.87149375,1.04765575,27.28469375,1.04765575,17.91919375C1.04765575,8.55351375,8.63787375,0.97031275,17.99999375,0.97031275C17.99999375,0.97031275,17.99999375,0.97031275,17.99999375,0.97031275ZM17.99999375,0.80859375C8.55705375,0.80859375,0.80859375,8.476173750000001,0.80859375,17.91919375C0.80859375,27.36209375,8.476173750000001,35.02969375,17.99999375,35.02969375C27.52379375,35.02969375,35.19139375,27.36209375,35.19139375,17.91919375C35.19139375,8.476173750000001,27.44299375,0.80859375,17.99999375,0.80859375C17.99999375,0.80859375,17.99999375,0.80859375,17.99999375,0.80859375Z" fill="#000000" fill-opacity="1"/></g></g><g style="opacity:0.25;mix-blend-mode:passthrough"><g style="opacity:0.25;mix-blend-mode:passthrough"><path d="M33.33516552963257,2.5839845296325685C33.33516552963257,2.5839845296325685,33.33516552963257,33.25786552963257,33.33516552963257,33.25786552963257C33.33516552963257,33.25786552963257,2.6648435296325683,33.25786552963257,2.6648435296325683,33.25786552963257C2.6648435296325683,33.25786552963257,2.6648435296325683,2.5839845296325685,2.6648435296325683,2.5839845296325685C2.6648435296325683,2.5839845296325685,33.33516552963257,2.5839845296325685,33.33516552963257,2.5839845296325685C33.33516552963257,2.5839845296325685,33.33516552963257,2.5839845296325685,33.33516552963257,2.5839845296325685ZM33.49686552963257,2.4222655296325684C33.49686552963257,2.4222655296325684,33.25426552963257,2.4222655296325684,33.25426552963257,2.4222655296325684C33.25426552963257,2.4222655296325684,2.5839845296325685,2.4222655296325684,2.5839845296325685,2.4222655296325684C2.5839845296325685,2.4222655296325684,2.4222655296325684,2.4222655296325684,2.4222655296325684,2.4222655296325684C2.4222655296325684,2.4222655296325684,2.4222655296325684,2.6648435296325683,2.4222655296325684,2.6648435296325683C2.4222655296325684,2.6648435296325683,2.4222655296325684,33.338665529632564,2.4222655296325684,33.338665529632564C2.4222655296325684,33.338665529632564,2.4222655296325684,33.58126552963257,2.4222655296325684,33.58126552963257C2.4222655296325684,33.58126552963257,2.6648435296325683,33.58126552963257,2.6648435296325683,33.58126552963257C2.6648435296325683,33.58126552963257,33.338665529632564,33.58126552963257,33.338665529632564,33.58126552963257C33.338665529632564,33.58126552963257,33.58126552963257,33.58126552963257,33.58126552963257,33.58126552963257C33.58126552963257,33.58126552963257,33.58126552963257,33.338665529632564,33.58126552963257,33.338665529632564C33.58126552963257,33.338665529632564,33.58126552963257,2.6648435296325683,33.58126552963257,2.6648435296325683C33.58126552963257,2.6648435296325683,33.58126552963257,2.4222655296325684,33.58126552963257,2.4222655296325684C33.58126552963257,2.4222655296325684,33.49686552963257,2.4222655296325684,33.49686552963257,2.4222655296325684C33.49686552963257,2.4222655296325684,33.49686552963257,2.4222655296325684,33.49686552963257,2.4222655296325684C33.49686552963257,2.4222655296325684,33.49686552963257,2.4222655296325684,33.49686552963257,2.4222655296325684Z" fill="#000000" fill-opacity="1"/></g></g><g style="opacity:0.25;mix-blend-mode:passthrough"><g style="opacity:0.25;mix-blend-mode:passthrough"><path d="M34.94877814884186,0.97031275C34.94877814884186,0.97031275,34.94877814884186,34.87149375,34.94877814884186,34.87149375C34.94877814884186,34.87149375,1.0476561488418579,34.87149375,1.0476561488418579,34.87149375C1.0476561488418579,34.87149375,1.0476561488418579,0.97031275,1.0476561488418579,0.97031275C1.0476561488418579,0.97031275,34.94877814884186,0.97031275,34.94877814884186,0.97031275C34.94877814884186,0.97031275,34.94877814884186,0.97031275,34.94877814884186,0.97031275ZM35.11057814884186,0.80859375C35.11057814884186,0.80859375,34.86797814884186,0.80859375,34.86797814884186,0.80859375C34.86797814884186,0.80859375,0.9667971488418579,0.80859375,0.9667971488418579,0.80859375C0.9667971488418579,0.80859375,0.8050781488418579,0.80859375,0.8050781488418579,0.80859375C0.8050781488418579,0.80859375,0.8050781488418579,1.05117175,0.8050781488418579,1.05117175C0.8050781488418579,1.05117175,0.8050781488418579,34.95239375,0.8050781488418579,34.95239375C0.8050781488418579,34.95239375,0.8050781488418579,35.19499375,0.8050781488418579,35.19499375C0.8050781488418579,35.19499375,1.0476561488418579,35.19499375,1.0476561488418579,35.19499375C1.0476561488418579,35.19499375,34.94877814884186,35.19499375,34.94877814884186,35.19499375C34.94877814884186,35.19499375,35.191378148841856,35.19499375,35.191378148841856,35.19499375C35.191378148841856,35.19499375,35.191378148841856,34.95239375,35.191378148841856,34.95239375C35.191378148841856,34.95239375,35.191378148841856,1.05117175,35.191378148841856,1.05117175C35.191378148841856,1.05117175,35.191378148841856,0.80859375,35.191378148841856,0.80859375C35.191378148841856,0.80859375,35.11057814884186,0.80859375,35.11057814884186,0.80859375C35.11057814884186,0.80859375,35.11057814884186,0.80859375,35.11057814884186,0.80859375Z" fill="#000000" fill-opacity="1"/></g></g><g style="opacity:0.25;mix-blend-mode:passthrough"><g style="opacity:0.25;mix-blend-mode:passthrough"><path d="M34.94877814884186,6.619922315734863C34.94877814884186,6.619922315734863,34.94877814884186,29.221803315734864,34.94877814884186,29.221803315734864C34.94877814884186,29.221803315734864,1.0476561488418579,29.221803315734864,1.0476561488418579,29.221803315734864C1.0476561488418579,29.221803315734864,1.0476561488418579,6.619922315734863,1.0476561488418579,6.619922315734863C1.0476561488418579,6.619922315734863,34.94877814884186,6.619922315734863,34.94877814884186,6.619922315734863C34.94877814884186,6.619922315734863,34.94877814884186,6.619922315734863,34.94877814884186,6.619922315734863ZM35.11057814884186,6.458203315734863C35.11057814884186,6.458203315734863,34.86797814884186,6.458203315734863,34.86797814884186,6.458203315734863C34.86797814884186,6.458203315734863,0.9667971488418579,6.458203315734863,0.9667971488418579,6.458203315734863C0.9667971488418579,6.458203315734863,0.8050781488418579,6.458203315734863,0.8050781488418579,6.458203315734863C0.8050781488418579,6.458203315734863,0.8050781488418579,6.619922315734863,0.8050781488418579,6.619922315734863C0.8050781488418579,6.619922315734863,0.8050781488418579,29.221803315734864,0.8050781488418579,29.221803315734864C0.8050781488418579,29.221803315734864,0.8050781488418579,29.464403315734863,0.8050781488418579,29.464403315734863C0.8050781488418579,29.464403315734863,1.0476561488418579,29.464403315734863,1.0476561488418579,29.464403315734863C1.0476561488418579,29.464403315734863,34.94877814884186,29.464403315734863,34.94877814884186,29.464403315734863C34.94877814884186,29.464403315734863,35.191378148841856,29.464403315734863,35.191378148841856,29.464403315734863C35.191378148841856,29.464403315734863,35.191378148841856,29.221803315734864,35.191378148841856,29.221803315734864C35.191378148841856,29.221803315734864,35.191378148841856,6.619922315734863,35.191378148841856,6.619922315734863C35.191378148841856,6.619922315734863,35.191378148841856,6.458203315734863,35.191378148841856,6.458203315734863C35.191378148841856,6.458203315734863,35.11057814884186,6.458203315734863,35.11057814884186,6.458203315734863C35.11057814884186,6.458203315734863,35.11057814884186,6.458203315734863,35.11057814884186,6.458203315734863C35.11057814884186,6.458203315734863,35.11057814884186,6.458203315734863,35.11057814884186,6.458203315734863Z" fill="#000000" fill-opacity="1"/></g></g></g></g><g style="mix-blend-mode:passthrough"><g style="mix-blend-mode:passthrough"><g style="mix-blend-mode:passthrough"><g style="mix-blend-mode:passthrough"><path d="M33.59770009536743,22.594920257707216C33.59410009536743,22.619529657707215,33.59410009536743,22.647655657707215,33.58710009536743,22.672264657707213C33.58360009536743,22.693358657707215,33.576500095367436,22.714451657707215,33.57310009536744,22.735545657707213C33.56600009536743,22.760154657707215,33.55900009536743,22.784763657707213,33.55190009536743,22.809372657707215C33.54490009536743,22.830466657707213,33.53440009536743,22.848045657707214,33.52730009536744,22.869138657707214C33.51680009536743,22.893748657707214,33.506300095367436,22.921873657707213,33.49220009536743,22.946482657707215C33.48160009536743,22.964061657707216,33.47110009536743,22.981638657707215,33.46060009536743,23.002731657707216C33.44300009536743,23.030856657707215,33.425400095367436,23.058982657707215,33.40430009536743,23.087107657707215C33.38320009536743,23.115230657707215,33.36210009536743,23.139842657707213,33.341000095367434,23.167964657707213C33.33400009536743,23.174996657707215,33.33050009536743,23.182028657707214,33.323500095367436,23.185544657707215C33.291800095367435,23.220698657707214,33.25660009536743,23.252342657707214,33.22150009536743,23.287496657707216C33.19690009536743,23.308592657707216,33.17230009536743,23.329688657707216,33.147700095367426,23.350778657707213C33.12650009536743,23.368358657707216,33.10190009536743,23.385938657707214,33.08090009536743,23.403512657707214C33.05270009536743,23.424608657707214,33.02110009536743,23.442188657707213,32.993000095367435,23.463278657707214C32.961300095367434,23.484374657707214,32.93320009536743,23.505464657707215,32.90150009536743,23.523044657707214C32.90150009536743,23.523044657707214,19.788300095367433,31.137884657707215,19.788300095367433,31.137884657707215C19.71440009536743,31.180064657707213,19.637100095367433,31.218764657707215,19.556300095367433,31.253924657707216C19.53160009536743,31.264424657707217,19.510600095367433,31.274984657707215,19.48600009536743,31.282004657707212C19.422700095367432,31.306664657707216,19.35940009536743,31.331264657707216,19.292600095367433,31.355864657707215C19.26800009536743,31.362884657707212,19.246900095367433,31.373444657707214,19.22230009536743,31.380464657707215C19.180100095367433,31.394504657707216,19.13790009536743,31.405064657707214,19.09570009536743,31.415624657707212C19.064000095367433,31.422644657707217,19.032400095367432,31.433204657707215,19.00080009536743,31.440224657707212C18.95510009536743,31.450784657707214,18.90940009536743,31.461344657707215,18.86370009536743,31.468364657707212C18.83200009536743,31.475384657707217,18.803900095367432,31.482404657707214,18.77230009536743,31.485944657707215C18.68090009536743,31.503524657707214,18.58600009536743,31.514084657707215,18.49450009536743,31.524584657707216C18.466400095367433,31.528124657707217,18.43830009536743,31.528124657707217,18.40660009536743,31.531664657707214C18.350400095367434,31.535144657707214,18.294100095367433,31.538684657707215,18.241400095367432,31.542164657707215C18.206300095367432,31.542164657707215,18.171100095367432,31.545704657707212,18.136000095367432,31.545704657707212C18.090200095367432,31.545704657707212,18.044500095367432,31.545704657707212,18.00230009536743,31.545704657707212C17.963700095367432,31.545704657707212,17.928500095367433,31.545704657707212,17.889800095367434,31.542164657707215C17.84770009536743,31.542164657707215,17.80550009536743,31.538684657707215,17.763300095367434,31.535144657707214C17.724600095367432,31.531664657707214,17.689400095367432,31.528124657707217,17.65080009536743,31.524584657707216C17.608600095367432,31.521104657707212,17.56990009536743,31.517564657707215,17.527700095367432,31.510544657707214C17.49260009536743,31.507004657707213,17.45390009536743,31.499984657707216,17.41880009536743,31.496504657707213C17.376500095367433,31.489424657707215,17.330900095367433,31.482404657707214,17.28870009536743,31.475384657707217C17.253500095367432,31.468364657707212,17.22190009536743,31.461344657707215,17.18670009536743,31.454264657707213C17.134000095367433,31.443764657707213,17.08480009536743,31.429664657707214,17.035600095367432,31.415624657707212C17.00740009536743,31.408604657707215,16.97930009536743,31.401584657707215,16.951200095367433,31.394504657707216C16.859800095367433,31.369904657707217,16.77190009536743,31.338284657707213,16.687500095367433,31.306664657707216C16.645300095367432,31.289084657707214,16.60310009536743,31.271504657707215,16.564400095367432,31.253924657707216C16.54340009536743,31.243364657707215,16.52230009536743,31.236344657707214,16.50120009536743,31.225784657707216C16.437900095367432,31.197644657707215,16.37810009536743,31.166024657707215,16.321900095367432,31.130864657707214C16.321900095367432,31.130864657707214,3.131250095367432,23.523044657707214,3.131250095367432,23.523044657707214C2.6460940953674315,23.241794657707214,2.4035156153674317,22.876169657707216,2.4070312553674316,22.510544657707214C2.4070312553674316,22.510544657707214,2.4000000953674316,24.876564657707213,2.4000000953674316,24.876564657707213C2.4000000953674316,25.242184657707213,2.6390620953674317,25.611324657707215,3.1242180953674317,25.889064657707216C3.1242180953674317,25.889064657707216,16.311300095367432,33.503944657707216,16.311300095367432,33.503944657707216C16.36760009536743,33.53554465770721,16.430900095367434,33.56714465770722,16.490600095367434,33.59884465770722C16.51170009536743,33.60934465770721,16.53280009536743,33.61644465770721,16.553900095367432,33.62694465770721C16.58900009536743,33.644544657707215,16.62770009536743,33.658644657707214,16.662900095367434,33.67614465770721C16.666400095367432,33.67614465770721,16.67350009536743,33.679644657707215,16.67690009536743,33.679644657707215C16.76130009536743,33.711344657707215,16.84920009536743,33.74294465770721,16.94060009536743,33.76754465770721C16.94770009536743,33.77114465770721,16.954700095367432,33.77114465770721,16.961700095367434,33.77454465770721C16.98280009536743,33.78164465770722,17.00390009536743,33.785144657707214,17.02500009536743,33.788644657707216C17.07420009536743,33.802744657707215,17.126900095367432,33.813244657707216,17.17620009536743,33.827344657707215C17.19020009536743,33.83084465770722,17.20430009536743,33.83434465770721,17.21480009536743,33.837844657707215C17.23600009536743,33.841444657707214,17.25700009536743,33.84494465770722,17.274600095367433,33.84844465770721C17.316800095367434,33.85544465770722,17.36250009536743,33.866044657707214,17.40470009536743,33.869544657707216C17.422300095367433,33.87304465770721,17.43980009536743,33.876544657707214,17.457400095367433,33.88004465770722C17.47500009536743,33.883644657707215,17.49610009536743,33.883644657707215,17.513700095367433,33.887044657707214C17.555900095367434,33.89064465770721,17.59450009536743,33.89764465770722,17.63670009536743,33.90114465770721C17.65780009536743,33.904644657707216,17.67540009536743,33.904644657707216,17.696500095367433,33.908244657707215C17.71400009536743,33.908244657707215,17.731600095367433,33.908244657707215,17.75270009536743,33.911644657707214C17.79490009536743,33.91524465770721,17.837100095367433,33.91524465770721,17.879300095367434,33.918744657707215C17.90040009536743,33.918744657707215,17.92150009536743,33.92224465770721,17.942600095367432,33.92224465770721C17.960200095367433,33.92224465770721,17.97420009536743,33.92224465770721,17.99180009536743,33.92224465770721C18.03750009536743,33.92224465770721,18.08320009536743,33.92224465770721,18.125400095367432,33.92224465770721C18.14650009536743,33.92224465770721,18.171100095367432,33.92224465770721,18.192200095367433,33.92224465770721C18.206300095367432,33.92224465770721,18.216800095367432,33.918744657707215,18.23090009536743,33.918744657707215C18.287100095367432,33.91524465770721,18.343400095367432,33.91174465770722,18.39610009536743,33.908244657707215C18.41720009536743,33.904644657707216,18.44180009536743,33.904644657707216,18.46290009536743,33.904644657707216C18.469900095367432,33.904644657707216,18.47690009536743,33.90114465770721,18.48400009536743,33.90114465770721C18.57890009536743,33.89064465770721,18.67030009536743,33.88004465770722,18.76170009536743,33.862444657707215C18.765200095367433,33.862444657707215,18.77230009536743,33.862444657707215,18.775800095367433,33.859044657707216C18.803900095367432,33.85544465770722,18.82850009536743,33.84844465770721,18.85310009536743,33.841444657707214C18.89890009536743,33.83084465770722,18.94450009536743,33.82384465770721,18.99020009536743,33.813244657707216C19.02190009536743,33.80624465770721,19.053500095367433,33.79574465770722,19.08520009536743,33.788644657707216C19.12730009536743,33.778144657707216,19.169500095367432,33.76404465770722,19.21170009536743,33.75354465770722C19.22230009536743,33.74994465770722,19.22930009536743,33.74994465770722,19.239800095367432,33.74654465770722C19.25390009536743,33.74294465770721,19.26800009536743,33.735944657707215,19.282000095367433,33.72894465770722C19.34880009536743,33.70784465770721,19.412100095367432,33.68324465770721,19.47540009536743,33.655044657707215C19.500000095367433,33.644544657707215,19.52110009536743,33.634044657707214,19.545700095367433,33.62694465770721C19.626500095367433,33.59174465770722,19.70390009536743,33.553144657707215,19.777700095367432,33.51094465770721C19.777700095367432,33.51094465770721,32.88050009536743,25.896094657707213,32.88050009536743,25.896094657707213C32.89100009536743,25.889064657707216,32.90150009536743,25.885544657707214,32.912100095367435,25.878514657707214C32.93320009536743,25.864444657707214,32.95430009536743,25.850394657707213,32.97540009536743,25.836324657707216C33.00350009536743,25.815234657707215,33.03520009536743,25.797654657707213,33.06330009536743,25.776564657707215C33.08790009536743,25.758984657707213,33.109000095367435,25.741404657707214,33.13360009536743,25.723824657707215C33.158200095367434,25.702734657707214,33.18640009536743,25.681644657707213,33.20740009536743,25.660544657707213C33.21100009536743,25.657024657707215,33.21800009536743,25.653514657707213,33.22150009536743,25.646484657707216C33.25310009536743,25.618354657707215,33.28130009536743,25.586714657707216,33.30940009536744,25.558594657707214C33.31640009536743,25.551564657707214,33.31990009536743,25.544524657707214,33.326900095367435,25.541014657707215C33.34450009536744,25.523434657707213,33.358600095367436,25.505854657707214,33.37620009536743,25.484764657707213C33.38320009536743,25.477734657707213,33.38670009536743,25.467184657707215,33.393700095367436,25.460154657707214C33.41480009536743,25.432024657707213,33.43240009536743,25.403904657707216,33.45000009536743,25.375774657707215C33.457000095367434,25.365234657707216,33.46760009536743,25.351164657707216,33.474600095367435,25.340624657707213C33.47810009536743,25.333594657707213,33.48160009536743,25.326564657707216,33.48160009536743,25.323044657707214C33.49570009536743,25.298434657707215,33.506300095367436,25.273824657707216,33.51680009536743,25.245694657707215C33.523800095367434,25.231634657707215,33.53090009536743,25.217574657707214,33.53790009536743,25.199994657707215C33.541400095367436,25.196484657707213,33.541400095367436,25.189454657707216,33.541400095367436,25.185934657707215C33.54850009536743,25.161324657707215,33.555500095367435,25.136714657707216,33.56250009536743,25.112104657707214C33.56600009536743,25.094524657707215,33.57310009536744,25.080464657707214,33.576500095367436,25.062894657707215C33.576500095367436,25.059374657707213,33.576500095367436,25.052344657707213,33.576500095367436,25.048824657707215C33.58010009536743,25.024214657707216,33.58360009536743,24.996094657707214,33.58710009536743,24.971484657707215C33.58710009536743,24.953904657707213,33.590600095367435,24.939844657707216,33.59410009536743,24.922264657707213C33.59410009536743,24.915234657707213,33.59410009536743,24.908194657707213,33.59410009536743,24.901164657707213C33.59410009536743,24.901164657707213,33.60120009536743,22.535154457707215,33.60120009536743,22.535154457707215C33.604700095367434,22.549216957707216,33.60120009536743,22.573826657707215,33.59770009536743,22.594920257707216C33.59770009536743,22.594920257707216,33.59770009536743,22.594920257707216,33.59770009536743,22.594920257707216Z" fill="url(#master_svg0_1_0238)" fill-opacity="1"/></g><g style="mix-blend-mode:passthrough"><g style="mix-blend-mode:passthrough"><g style="mix-blend-mode:passthrough"><path d="M32.880498109418156,21.51208031932831C33.840198109418154,22.067560319328308,33.847298109418155,22.967560319328307,32.89099810941815,23.52306031932831C32.89099810941815,23.52306031932831,19.788298109418154,31.137860319328308,19.788298109418154,31.137860319328308C18.831998109418155,31.69336031932831,17.278098109418153,31.69336031932831,16.318398109418155,31.137860319328308C16.318398109418155,31.137860319328308,3.131248109418154,23.52306031932831,3.131248109418154,23.52306031932831C2.167969109418154,22.967560319328307,2.1644541094181537,22.067560319328308,3.1171901094181536,21.51208031932831C3.1171901094181536,21.51208031932831,16.219898109418153,13.897262319328307,16.219898109418153,13.897262319328307C17.176198109418152,13.341793319328309,18.730098109418154,13.341793319328309,19.693398109418155,13.897262319328307C19.693398109418155,13.897262319328307,32.880498109418156,21.51208031932831,32.880498109418156,21.51208031932831C32.880498109418156,21.51208031932831,32.880498109418156,21.51208031932831,32.880498109418156,21.51208031932831Z" fill="url(#master_svg1_1_0244)" fill-opacity="1"/></g></g></g></g></g><g style="mix-blend-mode:passthrough"><g style="mix-blend-mode:passthrough"><g style="mix-blend-mode:passthrough"><g style="mix-blend-mode:passthrough"><path d="M23.7714875630188,15.342181459465028C23.7714875630188,15.342181459465028,19.1871075630188,12.677341459465026,19.1871075630188,12.677341459465026C19.795309563018797,12.325781459465027,20.2874975630188,11.474997459465026,20.283977563018798,10.775391459465027C20.283977563018798,10.775391459465027,24.8683675630188,13.440231459465027,24.8683675630188,13.440231459465027C24.8718775630188,14.136331459465026,24.3796875630188,14.990621459465027,23.7714875630188,15.342181459465028C23.7714875630188,15.342181459465028,23.7714875630188,15.342181459465028,23.7714875630188,15.342181459465028Z" fill="url(#master_svg2_1_0383)" fill-opacity="1"/></g><g style="mix-blend-mode:passthrough"><g style="mix-blend-mode:passthrough"><path d="M23.7714775630188,15.342188840255737C23.7714775630188,15.342188840255737,19.1871075630188,12.677344840255737,19.1871075630188,12.677344840255737C19.3171855630188,12.603516840255738,19.4402325630188,12.505078840255738,19.5562475630188,12.392578840255737C19.5562475630188,12.392578840255737,24.1406275630188,15.057418840255737,24.1406275630188,15.057418840255737C24.024607563018797,15.169918840255738,23.901557563018798,15.268358840255736,23.7714775630188,15.342188840255737C23.7714775630188,15.342188840255737,23.7714775630188,15.342188840255737,23.7714775630188,15.342188840255737Z" fill="url(#master_svg3_1_0379)" fill-opacity="1"/></g><g style="mix-blend-mode:passthrough"><path d="M24.137101454372406,15.057426364097594C24.137101454372406,15.057426364097594,19.552731454372406,12.392579364097596,19.552731454372406,12.392579364097596C19.594918854372406,12.350391364097595,19.633591654372406,12.308203864097596,19.672263454372406,12.266016364097595C19.672263454372406,12.266016364097595,24.256631454372407,14.930866364097595,24.256631454372407,14.930866364097595C24.221471454372406,14.973046364097595,24.179291454372404,15.015236364097596,24.137101454372406,15.057426364097594C24.137101454372406,15.057426364097594,24.137101454372406,15.057426364097594,24.137101454372406,15.057426364097594Z" fill="url(#master_svg4_1_0351)" fill-opacity="1"/></g><g style="mix-blend-mode:passthrough"><path d="M24.260148329372406,14.927336292572022C24.260148329372406,14.927336292572022,19.675778329372406,12.262499292572022,19.675778329372406,12.262499292572022C19.707418929372405,12.227343292572021,19.735543929372405,12.192188192572022,19.763668729372405,12.153516292572021C19.763668729372405,12.153516292572021,24.348048329372407,14.818356292572021,24.348048329372407,14.818356292572021C24.319918329372406,14.857036292572023,24.288278329372407,14.89218629257202,24.260148329372406,14.927336292572022C24.260148329372406,14.927336292572022,24.260148329372406,14.927336292572022,24.260148329372406,14.927336292572022Z" fill="url(#master_svg5_1_0327)" fill-opacity="1"/></g><g style="mix-blend-mode:passthrough"><path d="M24.348048954372405,14.818358864097595C24.348048954372405,14.818358864097595,19.763668954372406,12.153516664097594,19.763668954372406,12.153516664097594C19.788278354372405,12.121876264097596,19.812888954372404,12.086719464097595,19.837498354372407,12.055078864097595C19.837498354372407,12.055078864097595,24.421868954372407,14.719928864097595,24.421868954372407,14.719928864097595C24.397268954372407,14.755078864097595,24.372648954372405,14.786718864097596,24.348048954372405,14.818358864097595C24.348048954372405,14.818358864097595,24.348048954372405,14.818358864097595,24.348048954372405,14.818358864097595Z" fill="url(#master_svg6_1_0335)" fill-opacity="1"/></g><g style="mix-blend-mode:passthrough"><path d="M24.421867115135193,14.719926917572021C24.421867115135193,14.719926917572021,19.837497115135193,12.055078117572021,19.837497115135193,12.055078117572021C19.858590815135194,12.02343771757202,19.87968411513519,11.99179751757202,19.900777915135194,11.960156917572021C19.900777915135194,11.960156917572021,24.48514711513519,14.625006917572021,24.48514711513519,14.625006917572021C24.46405711513519,14.656636917572023,24.442957115135194,14.688286917572022,24.421867115135193,14.719926917572021C24.421867115135193,14.719926917572021,24.421867115135193,14.719926917572021,24.421867115135193,14.719926917572021Z" fill="url(#master_svg7_1_0355)" fill-opacity="1"/></g><g style="mix-blend-mode:passthrough"><path d="M24.485146028633118,14.625005090255737C24.485146028633118,14.625005090255737,19.900776028633118,11.960157490255737,19.900776028633118,11.960157490255737C19.92186972863312,11.928516490255737,19.93944702863312,11.896875690255737,19.957025228633118,11.865235090255737C19.957025228633118,11.865235090255737,24.54140602863312,14.530075090255737,24.54140602863312,14.530075090255737C24.523826028633117,14.561715090255738,24.506246028633118,14.593355090255738,24.485146028633118,14.625005090255737C24.485146028633118,14.625005090255737,24.485146028633118,14.625005090255737,24.485146028633118,14.625005090255737Z" fill="url(#master_svg8_1_0331)" fill-opacity="1"/></g><g style="mix-blend-mode:passthrough"><path d="M24.541398329372406,14.53007892370224C24.541398329372406,14.53007892370224,19.957028329372406,11.86523532370224,19.957028329372406,11.86523532370224C19.974606429372407,11.83359482370224,19.992184529372405,11.80195392370224,20.009762729372405,11.77382892370224C20.009762729372405,11.77382892370224,24.594138329372406,14.43867892370224,24.594138329372406,14.43867892370224C24.576558329372407,14.470308923702241,24.558978329372408,14.50195892370224,24.541398329372406,14.53007892370224C24.541398329372406,14.53007892370224,24.541398329372406,14.53007892370224,24.541398329372406,14.53007892370224Z" fill="url(#master_svg9_1_0339)" fill-opacity="1"/></g><g style="mix-blend-mode:passthrough"><path d="M24.594132704372406,14.438676977176666C24.594132704372406,14.438676977176666,20.009762704372406,11.773828177176666,20.009762704372406,11.773828177176666C20.027340804372407,11.742187777176666,20.041404204372405,11.710547577176666,20.058982304372407,11.678906977176666C20.058982304372407,11.678906977176666,24.643352704372404,14.343756977176666,24.643352704372404,14.343756977176666C24.625772704372405,14.375386977176667,24.611712704372408,14.407036977176666,24.594132704372406,14.438676977176666C24.594132704372406,14.438676977176666,24.594132704372406,14.438676977176666,24.594132704372406,14.438676977176666Z" fill="url(#master_svga_1_0343)" fill-opacity="1"/></g><g style="mix-blend-mode:passthrough"><path d="M24.643359153633117,14.343755149860382C24.643359153633117,14.343755149860382,20.058979153633118,11.678907549860382,20.058979153633118,11.678907549860382C20.07304165363312,11.647266549860381,20.09062025363312,11.615625749860381,20.101167153633117,11.583985149860382C20.101167153633117,11.583985149860382,24.685539153633115,14.248825149860382,24.685539153633115,14.248825149860382C24.67147915363312,14.280465149860383,24.657419153633118,14.312105149860383,24.643359153633117,14.343755149860382C24.643359153633117,14.343755149860382,24.643359153633117,14.343755149860382,24.643359153633117,14.343755149860382Z" fill="url(#master_svgb_1_0363)" fill-opacity="1"/></g><g style="mix-blend-mode:passthrough"><path d="M24.685538990135193,14.248827661781311C24.685538990135193,14.248827661781311,20.101168990135193,11.58398486178131,20.101168990135193,11.58398486178131C20.115231490135194,11.552343861781312,20.129292290135194,11.51718826178131,20.14335479013519,11.485547661781311C20.14335479013519,11.485547661781311,24.72772899013519,14.15039766178131,24.72772899013519,14.15039766178131C24.713668990135194,14.182027661781312,24.699608990135193,14.217187661781312,24.685538990135193,14.248827661781311C24.685538990135193,14.248827661781311,24.685538990135193,14.248827661781311,24.685538990135193,14.248827661781311Z" fill="url(#master_svgc_1_0347)" fill-opacity="1"/></g><g style="mix-blend-mode:passthrough"><path d="M24.72773090089798,14.150388911781311C24.72773090089798,14.150388911781311,20.13984090089798,11.48554791178131,20.13984090089798,11.48554791178131C20.15390340089798,11.450391111781311,20.16444940089798,11.41523511178131,20.17851190089798,11.380078911781311C20.17851190089798,11.380078911781311,24.76289090089798,14.044918911781311,24.76289090089798,14.044918911781311C24.75234090089798,14.08007891178131,24.73828090089798,14.115228911781312,24.72773090089798,14.150388911781311C24.72773090089798,14.150388911781311,24.72773090089798,14.150388911781311,24.72773090089798,14.150388911781311Z" fill="url(#master_svgd_1_0359)" fill-opacity="1"/></g><g style="mix-blend-mode:passthrough"><path d="M24.762888162498474,14.044928929662705C24.762888162498474,14.044928929662705,20.178508162498474,11.380079929662704,20.178508162498474,11.380079929662704C20.192570662498476,11.341407729662704,20.203117562498473,11.306250829662705,20.213664462498475,11.267578929662704C20.213664462498475,11.267578929662704,24.798048162498475,13.932428929662704,24.798048162498475,13.932428929662704C24.787498162498473,13.971098929662706,24.776948162498474,14.009768929662705,24.762888162498474,14.044928929662705C24.762888162498474,14.044928929662705,24.762888162498474,14.044928929662705,24.762888162498474,14.044928929662705Z" fill="url(#master_svge_1_0367)" fill-opacity="1"/></g><g style="mix-blend-mode:passthrough"><path d="M24.798044412498474,13.932416453504562C24.798044412498474,13.932416453504562,20.213664412498474,11.267579453504563,20.213664412498474,11.267579453504563C20.224211312498475,11.225391453504562,20.234759012498476,11.183203953504563,20.245305912498473,11.141016453504562C20.245305912498473,11.141016453504562,24.829684412498473,13.805866453504562,24.829684412498473,13.805866453504562C24.819134412498475,13.848046453504562,24.808594412498472,13.890236453504563,24.798044412498474,13.932416453504562C24.798044412498474,13.932416453504562,24.798044412498474,13.932416453504562,24.798044412498474,13.932416453504562Z" fill="url(#master_svgf_1_0375)" fill-opacity="1"/></g><g style="mix-blend-mode:passthrough"><path d="M24.829679591293335,13.805865722913742C24.829679591293335,13.805865722913742,20.245309591293335,11.141016722913742,20.245309591293335,11.141016722913742C20.255856491293336,11.088282922913741,20.266403691293334,11.039064422913743,20.269919391293335,10.989845722913742C20.269919391293335,10.989845722913742,24.854289591293334,13.654685722913742,24.854289591293334,13.654685722913742C24.847259591293337,13.703905722913742,24.840229591293337,13.756645722913742,24.829679591293335,13.805865722913742C24.829679591293335,13.805865722913742,24.829679591293335,13.805865722913742,24.829679591293335,13.805865722913742Z" fill="url(#master_svgg_1_0323)" fill-opacity="1"/></g><g style="mix-blend-mode:passthrough"><path d="M24.854296653633117,13.654691459465027C24.854296653633117,13.654691459465027,20.269916653633118,10.989844459465028,20.269916653633118,10.989844459465028C20.28046355363312,10.916016459465027,20.283977853633118,10.845704259465027,20.283977853633118,10.775391459465027C20.283977853633118,10.775391459465027,24.868356653633118,13.440241459465026,24.868356653633118,13.440241459465026C24.868356653633118,13.510541459465028,24.864846653633116,13.580861459465027,24.854296653633117,13.654691459465027C24.854296653633117,13.654691459465027,24.854296653633117,13.654691459465027,24.854296653633117,13.654691459465027Z" fill="url(#master_svgh_1_0371)" fill-opacity="1"/></g></g></g><g style="mix-blend-mode:passthrough"><g style="mix-blend-mode:passthrough"><path d="M24.868356536102297,13.4367145470047C24.868356536102297,13.4367145470047,20.283984636102296,10.7718745470047,20.283984636102296,10.7718745470047C20.283984636102296,10.7718745470047,20.266406536102295,4.5843745470047,20.266406536102295,4.5843745470047C20.266406536102295,4.5843745470047,24.850776536102295,7.249224547004699,24.850776536102295,7.249224547004699C24.850776536102295,7.249224547004699,24.868356536102297,13.4367145470047,24.868356536102297,13.4367145470047C24.868356536102297,13.4367145470047,24.868356536102297,13.4367145470047,24.868356536102297,13.4367145470047Z" fill="url(#master_svgi_1_0308)" fill-opacity="1"/></g></g><g style="mix-blend-mode:passthrough"><path d="M27.821486536102295,5.5546825238418585C27.846086536102295,5.544142523841858,27.874226536102295,5.5371125238418575,27.898826536102295,5.526562523841858C27.916406536102294,5.523042523841858,27.930446536102295,5.516012523841858,27.948026536102294,5.512502523841858C27.962126536102296,5.508982523841858,27.979706536102295,5.505462523841858,27.993746536102293,5.501952523841858C28.014866536102296,5.498432523841858,28.032446536102295,5.494922523841858,28.053506536102294,5.491412523841857C28.064066536102295,5.491412523841857,28.074626536102294,5.487892523841857,28.085126536102294,5.487892523841857C28.109786536102295,5.487892523841857,28.134386536102294,5.4843725238418575,28.155446536102296,5.487892523841857C28.158986536102294,5.487892523841857,28.166006536102294,5.487892523841857,28.173026536102295,5.487892523841857C28.201166536102296,5.487892523841857,28.229306536102296,5.491402523841858,28.253906536102296,5.498432523841858C28.260926536102296,5.498432523841858,28.267946536102293,5.501952523841858,28.274966536102294,5.501952523841858C28.296086536102294,5.505462523841858,28.317206536102297,5.512502523841858,28.334786536102293,5.519532523841858C28.341806536102297,5.523042523841858,28.348826536102294,5.523042523841858,28.352366536102295,5.526562523841858C28.376966536102294,5.5371125238418575,28.401566536102294,5.547662523841858,28.426166536102293,5.561712523841858C28.426166536102293,5.561712523841858,23.838276536102295,2.900390723841858,23.838276536102295,2.900390723841858C23.834766536102293,2.900390723841858,23.834766536102293,2.896874723841858,23.831246536102295,2.896874723841858C23.813676536102296,2.886328123841858,23.796096536102294,2.879296723841858,23.774996536102293,2.868749923841858C23.771486536102294,2.868749923841858,23.767966536102296,2.865234323841858,23.764446536102295,2.865234323841858C23.757426536102294,2.8617187238418578,23.753906536102296,2.861718823841858,23.746876536102295,2.858203223841858C23.736326536102297,2.854687623841858,23.729296536102296,2.8511718238418577,23.718746536102294,2.847656223841858C23.708196536102296,2.844140623841858,23.697656536102294,2.844140723841858,23.687106536102295,2.840625123841858C23.680076536102295,2.840625123841858,23.673046536102294,2.837109223841858,23.666016536102294,2.837109223841858C23.662496536102296,2.837109223841858,23.658976536102294,2.833593683841858,23.655466536102296,2.833593683841858C23.634376536102295,2.830078033841858,23.613276536102294,2.826562523841859,23.588676536102295,2.826562523841859C23.588676536102295,2.826562523841859,23.585156536102296,2.826562523841859,23.585156536102296,2.826562523841859C23.581636536102295,2.826562523841859,23.574606536102294,2.826562523841859,23.567576536102294,2.826562523841859C23.549996536102295,2.826562523841859,23.532426536102296,2.826562523841859,23.514846536102294,2.826562523841859C23.507806536102294,2.826562523841859,23.504296536102295,2.826562470145258,23.497266536102295,2.8300780938418577C23.486716536102296,2.8300780938418577,23.476176536102294,2.833593683841858,23.465626536102295,2.833593683841858C23.455076536102297,2.833593683841858,23.444526536102295,2.8335936238418578,23.433986536102296,2.837109223841858C23.423436536102294,2.837109223841858,23.416406536102294,2.840625023841858,23.405856536102295,2.844140623841858C23.391796536102294,2.847656223841858,23.377726536102294,2.851171723841858,23.360156536102295,2.854687323841858C23.353126536102295,2.858203023841858,23.342576536102296,2.858203223841858,23.335546536102296,2.858203223841858C23.328516536102295,2.861718823841858,23.317966536102293,2.865234323841858,23.310936536102297,2.865234323841858C23.286326536102294,2.872265623841858,23.258206536102296,2.882812623841858,23.233596536102294,2.893359323841858C23.223046536102295,2.896875323841858,23.216016536102295,2.900390723841858,23.205466536102296,2.9039061238418578C23.201956536102294,2.9074215238418577,23.194926536102294,2.910937523841858,23.191406536102296,2.910937523841858C23.145706536102296,2.9320315238418577,23.100006536102295,2.953125523841858,23.054296536102296,2.981250523841858C23.054296536102296,2.981250523841858,20.266406536102295,4.591412523841858,20.266406536102295,4.591412523841858C20.266406536102295,4.591412523841858,24.850776536102295,7.249212523841858,24.850776536102295,7.249212523841858C24.850776536102295,7.249212523841858,27.638666536102296,5.639062523841858,27.638666536102296,5.639062523841858C27.684386536102295,5.610932523841858,27.730046536102293,5.589842523841858,27.775766536102296,5.568752523841858C27.789866536102295,5.565232523841858,27.807446536102294,5.561712523841858,27.821486536102295,5.5546825238418585C27.821486536102295,5.5546825238418585,27.821486536102295,5.5546825238418585,27.821486536102295,5.5546825238418585Z" fill="url(#master_svgj_1_0317)" fill-opacity="1"/></g><g style="mix-blend-mode:passthrough"><g style="mix-blend-mode:passthrough"><path d="M13.396877021446228,21.33281943462372C13.396877021446228,21.33281943462372,8.808987021446228,18.667969434623718,8.808987021446228,18.667969434623718C8.808987021446228,18.667969434623718,19.187087021446228,12.677339434623718,19.187087021446228,12.677339434623718C19.187087021446228,12.677339434623718,23.771487021446227,15.342189434623718,23.771487021446227,15.342189434623718C23.771487021446227,15.342189434623718,13.396877021446228,21.33281943462372,13.396877021446228,21.33281943462372C13.396877021446228,21.33281943462372,13.396877021446228,21.33281943462372,13.396877021446228,21.33281943462372Z" fill="url(#master_svgk_1_0388)" fill-opacity="1"/></g></g><g style="mix-blend-mode:passthrough"><g style="mix-blend-mode:passthrough"><path d="M12.612894802455902,21.410155769767762C12.612894802455902,21.410155769767762,8.028514802455902,18.74530996976776,8.028514802455902,18.74530996976776C8.228904802455903,18.86132576976776,8.506639802455902,18.843746769767762,8.812498802455902,18.66796576976776C8.812498802455902,18.66796576976776,13.396874802455901,21.332815769767763,13.396874802455901,21.332815769767763C13.091014802455902,21.508595769767762,12.813284802455902,21.52617576976776,12.612894802455902,21.410155769767762C12.612894802455902,21.410155769767762,12.612894802455902,21.410155769767762,12.612894802455902,21.410155769767762Z" fill="url(#master_svgl_1_0251)" fill-opacity="1"/></g><g style="mix-blend-mode:passthrough"><g style="mix-blend-mode:passthrough"><path d="M12.612894802455902,21.410161819016935C12.612894802455902,21.410161819016935,8.028514802455902,18.745311819016933,8.028514802455902,18.745311819016933C8.032030432455903,18.745311819016933,8.032030322455903,18.748826589016932,8.035545962455902,18.748826589016932C8.035545962455902,18.748826589016932,12.616404802455902,21.413671819016933,12.616404802455902,21.413671819016933C12.616404802455902,21.410161819016935,12.612894802455902,21.410161819016935,12.612894802455902,21.410161819016935C12.612894802455902,21.410161819016935,12.612894802455902,21.410161819016935,12.612894802455902,21.410161819016935Z" fill="url(#master_svgm_1_0268)" fill-opacity="1"/></g><g style="mix-blend-mode:passthrough"><path d="M12.6164004275956,21.413675155198575C12.6164004275956,21.413675155198575,8.0320304275956,18.748825155198574,8.0320304275956,18.748825155198574C8.0496085275956,18.759372055198575,8.0671863275956,18.766402855198574,8.0882800275956,18.776949755198576C8.0882800275956,18.776949755198576,12.6726504275956,21.441795155198573,12.6726504275956,21.441795155198573C12.6550804275956,21.431255155198574,12.633980427595601,21.420705155198576,12.6164004275956,21.413675155198575C12.6164004275956,21.413675155198575,12.6164004275956,21.413675155198575,12.6164004275956,21.413675155198575Z" fill="url(#master_svgn_1_0264)" fill-opacity="1"/></g><g style="mix-blend-mode:passthrough"><path d="M12.672653866643905,21.438279109325407C12.672653866643905,21.438279109325407,8.088283866643906,18.77343910932541,8.088283866643906,18.77343910932541C8.105861966643905,18.780470329325407,8.126955566643906,18.78750070932541,8.148049366643905,18.79453200932541C8.148049366643905,18.79453200932541,12.732423866643906,21.459379109325408,12.732423866643906,21.459379109325408C12.711323866643905,21.452339109325408,12.693753866643906,21.44882910932541,12.672653866643905,21.438279109325407C12.672653866643905,21.438279109325407,12.672653866643905,21.438279109325407,12.672653866643905,21.438279109325407Z" fill="url(#master_svgo_1_0288)" fill-opacity="1"/></g><g style="mix-blend-mode:passthrough"><path d="M12.732426627640724,21.45937942311764C12.732426627640724,21.45937942311764,8.148046627640724,18.794529423117638,8.148046627640724,18.794529423117638C8.169140427640723,18.801560643117636,8.190234227640724,18.805077123117638,8.211328027640723,18.808592723117638C8.211328027640723,18.808592723117638,12.792186627640724,21.473429423117636,12.792186627640724,21.473429423117636C12.771096627640723,21.469919423117638,12.749996627640725,21.46640942311764,12.732426627640724,21.45937942311764C12.732426627640724,21.45937942311764,12.732426627640724,21.45937942311764,12.732426627640724,21.45937942311764Z" fill="url(#master_svgp_1_0284)" fill-opacity="1"/></g><g style="mix-blend-mode:passthrough"><path d="M12.792191683416366,21.47344535932541C12.792191683416366,21.47344535932541,8.207811683416367,18.80859535932541,8.207811683416367,18.80859535932541C8.228905483416366,18.812110989325408,8.249998983416367,18.815627059325408,8.274608483416367,18.815627059325408C8.274608483416367,18.815627059325408,12.858981683416367,21.480465359325407,12.858981683416367,21.480465359325407C12.837891683416366,21.480465359325407,12.813281683416367,21.47695535932541,12.792191683416366,21.47344535932541C12.792191683416366,21.47344535932541,12.792191683416366,21.47344535932541,12.792191683416366,21.47344535932541Z" fill="url(#master_svgq_1_0260)" fill-opacity="1"/></g><g style="mix-blend-mode:passthrough"><path d="M12.858988582258224,21.480474326467515C12.858988582258224,21.480474326467515,8.274608582258224,18.815624326467514,8.274608582258224,18.815624326467514C8.299217982258224,18.815624326467514,8.323827582258225,18.815624326467514,8.348436782258224,18.815624326467514C8.348436782258224,18.815624326467514,12.932808582258225,21.483984326467514,12.932808582258225,21.483984326467514C12.908208582258226,21.483984326467514,12.883588582258223,21.483984326467514,12.858988582258224,21.480474326467515C12.858988582258224,21.480474326467515,12.858988582258224,21.480474326467515,12.858988582258224,21.480474326467515Z" fill="url(#master_svgr_1_0272)" fill-opacity="1"/></g><g style="mix-blend-mode:passthrough"><path d="M12.932806713218689,21.48398754811764C12.932806713218689,21.48398754811764,8.348436713218689,18.819139248117636,8.348436713218689,18.819139248117636C8.376561713218688,18.819139248117636,8.401170613218689,18.815623178117637,8.42929571321869,18.812107548117638C8.42929571321869,18.812107548117638,13.01366671321869,21.47695754811764,13.01366671321869,21.47695754811764C12.985546713218689,21.47695754811764,12.96093671321869,21.480467548117637,12.932806713218689,21.48398754811764C12.932806713218689,21.48398754811764,12.932806713218689,21.48398754811764,12.932806713218689,21.48398754811764Z" fill="url(#master_svgs_1_0276)" fill-opacity="1"/></g><g style="mix-blend-mode:passthrough"><path d="M13.013666642541885,21.473440470876692C13.013666642541885,21.473440470876692,8.429296642541885,18.808593370876693,8.429296642541885,18.808593370876693C8.460937242541885,18.805077670876695,8.492578042541885,18.798047370876695,8.527734442541885,18.787500470876694C8.527734442541885,18.787500470876694,13.112106642541885,21.452340470876692,13.112106642541885,21.452340470876692C13.076946642541884,21.462890470876694,13.045316642541884,21.469920470876694,13.013666642541885,21.473440470876692C13.013666642541885,21.473440470876692,13.013666642541885,21.473440470876692,13.013666642541885,21.473440470876692Z" fill="url(#master_svgt_1_0256)" fill-opacity="1"/></g><g style="mix-blend-mode:passthrough"><path d="M13.112107021446228,21.45234504811764C13.112107021446228,21.45234504811764,8.527737021446228,18.787499848117637,8.527737021446228,18.787499848117637C8.569924421446228,18.776953048117637,8.612112021446228,18.76288874811764,8.657815021446227,18.741795048117638C8.657815021446227,18.741795048117638,13.242187021446227,21.40664504811764,13.242187021446227,21.40664504811764C13.196477021446228,21.427735048117636,13.154297021446228,21.441795048117637,13.112107021446228,21.45234504811764C13.112107021446228,21.45234504811764,13.112107021446228,21.45234504811764,13.112107021446228,21.45234504811764Z" fill="url(#master_svgu_1_0292)" fill-opacity="1"/></g><g style="mix-blend-mode:passthrough"><path d="M13.242192297344207,21.410155769767762C13.242192297344207,21.410155769767762,8.657812297344208,18.74530996976776,8.657812297344208,18.74530996976776C8.707031097344208,18.72421616976776,8.759765297344208,18.69960636976776,8.812500297344208,18.66796576976776C8.812500297344208,18.66796576976776,13.396872297344208,21.332815769767763,13.396872297344208,21.332815769767763C13.344142297344208,21.36093576976776,13.291412297344209,21.38906576976776,13.242192297344207,21.410155769767762C13.242192297344207,21.410155769767762,13.242192297344207,21.410155769767762,13.242192297344207,21.410155769767762Z" fill="url(#master_svgv_1_0280)" fill-opacity="1"/></g></g></g><g style="mix-blend-mode:passthrough"><g style="mix-blend-mode:passthrough"><path d="M12.61289012920618,21.410150420646666C12.61289012920618,21.410150420646666,8.02851712920618,18.745314420646668,8.02851712920618,18.745314420646668C7.83164212920618,18.629296420646668,7.7085957492061805,18.38671742064667,7.705080129206181,18.038670420646667C7.705080129206181,18.038670420646667,12.28945012920618,20.703510420646666,12.28945012920618,20.703510420646666C12.28945012920618,21.048040420646668,12.41250012920618,21.294140420646666,12.61289012920618,21.410150420646666C12.61289012920618,21.410150420646666,12.61289012920618,21.410150420646666,12.61289012920618,21.410150420646666Z" fill="url(#master_svgw_1_0301)" fill-opacity="1"/></g><g style="mix-blend-mode:passthrough"><g style="mix-blend-mode:passthrough"><path d="M12.61289012920618,21.410150420646666C12.61289012920618,21.410150420646666,8.02851712920618,18.745314420646668,8.02851712920618,18.745314420646668C7.83164212920618,18.629296420646668,7.7085957492061805,18.38671742064667,7.705080129206181,18.038670420646667C7.705080129206181,18.038670420646667,12.28945012920618,20.703510420646666,12.28945012920618,20.703510420646666C12.28945012920618,21.048040420646668,12.41250012920618,21.294140420646666,12.61289012920618,21.410150420646666C12.61289012920618,21.410150420646666,12.61289012920618,21.410150420646666,12.61289012920618,21.410150420646666Z" fill="url(#master_svgx_1_0301)" fill-opacity="1"/></g></g></g><g style="mix-blend-mode:passthrough"><g style="mix-blend-mode:passthrough"><path d="M12.289455339456499,20.700013513298035C12.289455339456499,20.700013513298035,7.705078139456498,18.035153513298035,7.705078139456498,18.035153513298035C7.705078139456498,18.035153513298035,7.691015339456499,13.116793513298035,7.691015339456499,13.116793513298035C7.691015339456499,13.116793513298035,12.275395339456498,15.781643513298034,12.275395339456498,15.781643513298034C12.275395339456498,15.781643513298034,12.289455339456499,20.700013513298035,12.289455339456499,20.700013513298035C12.289455339456499,20.700013513298035,12.289455339456499,20.700013513298035,12.289455339456499,20.700013513298035Z" fill="url(#master_svgy_1_0313)" fill-opacity="1"/></g></g><g style="mix-blend-mode:passthrough"><path d="M23.922585233306886,4.528130071525574C23.947285233306886,4.517580071525574,23.975385233306884,4.510550071525573,23.999985233306884,4.500000071525574C24.017585233306885,4.496480071525574,24.031685233306884,4.489450071525574,24.049185233306886,4.485940071525574C24.063285233306885,4.482420071525574,24.080885233306883,4.478900071525574,24.094985233306886,4.475390071525574C24.115985233306883,4.471870071525574,24.133585233306885,4.468360071525574,24.154685233306886,4.464850071525573C24.165185233306886,4.464850071525573,24.175785233306886,4.461330071525573,24.186285233306887,4.461330071525573C24.210885233306886,4.461330071525573,24.235485233306886,4.457810071525573,24.256685233306886,4.461330071525573C24.260085233306885,4.461330071525573,24.267185233306886,4.461330071525573,24.270685233306885,4.461330071525573C24.298785233306884,4.461330071525573,24.326985233306885,4.464850071525573,24.351585233306885,4.471870071525574C24.358585233306886,4.471870071525574,24.365585233306884,4.475390071525574,24.372585233306886,4.475390071525574C24.393785233306886,4.478900071525574,24.414885233306883,4.485940071525574,24.432385233306885,4.492970071525574C24.439485233306886,4.496480071525574,24.446485233306884,4.496480071525574,24.449985233306883,4.500000071525574C24.474585233306886,4.510550071525573,24.499185233306886,4.521100071525574,24.523785233306885,4.535150071525574C24.523785233306885,4.535150071525574,19.939485233306883,1.8738282715255736,19.939485233306883,1.8738282715255736C19.935885233306884,1.8738282715255736,19.935885233306884,1.8703122715255738,19.932485233306885,1.8703122715255738C19.914885233306883,1.8597656715255737,19.897285233306885,1.8527344715255738,19.876185233306884,1.8421875715255738C19.872585233306886,1.8421875715255738,19.869185233306887,1.8386718715255737,19.865585233306884,1.8386718715255737C19.858585233306883,1.8351562715255738,19.851585233306885,1.8351562715255738,19.847985233306886,1.8316405715255737C19.837485233306886,1.8281249715255736,19.830485233306884,1.8246093715255738,19.819985233306884,1.8210937715255737C19.809385233306884,1.8175781715255737,19.798785233306887,1.8175780715255738,19.788285233306887,1.8140624715255738C19.781285233306885,1.8140624715255738,19.774185233306884,1.8105469715255738,19.767185233306883,1.8105469715255738C19.763685233306887,1.8105469715255738,19.760085233306885,1.8070313515255738,19.756685233306882,1.8070313515255738C19.735485233306886,1.8035157215255737,19.714485233306885,1.8000000715255737,19.689885233306885,1.8000000715255737C19.689885233306885,1.8000000715255737,19.686285233306883,1.8000000715255737,19.686285233306883,1.8000000715255737C19.682785233306884,1.8000000715255737,19.675785233306883,1.8000000715255737,19.672285233306887,1.8000000715255737C19.654685233306886,1.8000000715255737,19.637085233306884,1.8000000715255737,19.619585233306886,1.8000000715255737C19.612485233306884,1.8000000715255737,19.608985233306885,1.8000000178289737,19.601985233306884,1.8035156415255738C19.591385233306887,1.8035156415255738,19.580885233306887,1.8070313515255738,19.570285233306883,1.8070313515255738C19.559785233306883,1.8070313515255738,19.549185233306886,1.8070312915255737,19.538685233306886,1.8105469715255738C19.528085233306882,1.8105469715255738,19.521085233306884,1.8140625715255738,19.510485233306884,1.8175781715255737C19.496485233306885,1.8210937715255737,19.478885233306883,1.8246094715255736,19.464885233306887,1.8281250715255737C19.457785233306886,1.8316406715255737,19.447285233306886,1.8316405715255737,19.440185233306885,1.8316405715255737C19.433185233306887,1.8351562715255738,19.422585233306883,1.8386718715255737,19.415585233306885,1.8386718715255737C19.390985233306886,1.8457031715255738,19.362885233306883,1.8562499715255738,19.338285233306884,1.8667968715255738C19.327685233306887,1.8703122715255738,19.320685233306882,1.8738282715255736,19.310085233306886,1.8773436715255738C19.306685233306887,1.8808596715255737,19.299585233306885,1.8843750715255738,19.296085233306883,1.8843750715255738C19.250385233306886,1.9054690715255738,19.204685233306883,1.9265620715255738,19.158985233306886,1.9546870715255737C19.158985233306886,1.9546870715255737,8.780855233306884,7.938300071525574,8.780855233306884,7.938300071525574C8.721095233306885,7.973460071525574,8.664847233306885,8.012100071525573,8.608597233306885,8.054280071525573C8.598049233306885,8.061300071525574,8.591017233306884,8.068380071525574,8.580469233306884,8.075400071525575C8.527735233306885,8.117580071525573,8.475001233306886,8.163300071525573,8.425783233306884,8.212500071525573C8.422267233306885,8.216040071525573,8.418751233306885,8.219520071525574,8.411719233306885,8.223060071525573C8.404687233306884,8.230080071525574,8.397655233306885,8.240640071525574,8.387107233306885,8.247660071525573C8.362501233306885,8.272260071525574,8.337889233306885,8.300400071525573,8.313283233306885,8.325000071525574C8.306251233306885,8.332020071525573,8.299219233306884,8.342580071525575,8.288671233306884,8.349600071525574C8.281641233306885,8.356620071525573,8.278125233306884,8.363700071525574,8.271094233306885,8.370720071525573C8.257032233306886,8.388300071525574,8.242969233306885,8.405880071525573,8.228907233306884,8.423460071525573C8.218360233306885,8.433960071525574,8.211329233306884,8.444520071525574,8.200782233306885,8.458620071525573C8.193750233306885,8.469120071525573,8.186720233306884,8.479680071525575,8.179688233306885,8.486700071525574C8.169141233306885,8.500800071525575,8.158594233306884,8.514840071525573,8.148047233306885,8.528880071525574C8.141016233306885,8.539440071525574,8.133985233306884,8.546460071525573,8.126954233306884,8.557020071525574C8.116407233306886,8.574600071525573,8.105860233306885,8.592180071525574,8.091798233306886,8.606280071525575C8.084766233306885,8.616780071525573,8.077735233306885,8.627340071525573,8.070704233306884,8.637900071525575C8.067188233306885,8.641380071525575,8.063672233306885,8.644920071525574,8.063672233306885,8.651940071525573C8.042579233306885,8.683620071525574,8.025000233306885,8.715240071525574,8.007422233306885,8.746860071525575C8.007422233306885,8.750400071525574,8.003907233306885,8.750400071525574,8.003907233306885,8.753880071525574C8.000391233306885,8.760960071525574,7.996875233306885,8.767980071525574,7.993360233306885,8.775000071525573C7.979298233306885,8.796120071525575,7.968750233306885,8.817180071525573,7.958204233306885,8.841780071525573C7.951172233306885,8.852340071525575,7.9476572333068845,8.862900071525573,7.940625233306885,8.873460071525574C7.933595233306884,8.883960071525575,7.930079233306885,8.894520071525573,7.923048233306885,8.905080071525575C7.919532233306885,8.915640071525573,7.912501233306885,8.922660071525573,7.908985233306884,8.933220071525573C7.894923233306884,8.957820071525575,7.8843762333068845,8.985960071525573,7.873829233306885,9.010560071525575C7.870313233306884,9.014040071525574,7.870313233306884,9.021120071525573,7.866797233306885,9.024600071525573C7.866797233306885,9.024600071525573,7.866797233306885,9.028140071525574,7.866797233306885,9.028140071525574C7.852735233306885,9.059760071525574,7.838672233306885,9.094920071525575,7.824610233306885,9.126540071525573C7.821095233306885,9.133620071525574,7.821095233306885,9.140640071525574,7.817579233306885,9.144120071525574C7.814063233306885,9.154680071525574,7.810548233306885,9.168720071525573,7.803516233306885,9.179280071525573C7.796485233306885,9.196860071525574,7.792970233306884,9.210960071525573,7.785938233306885,9.228540071525574C7.782423033306885,9.242580071525573,7.778907033306885,9.253140071525575,7.775391633306885,9.267180071525573C7.771876233306885,9.281280071525574,7.764844233306885,9.298800071525573,7.761328833306885,9.312900071525574C7.757813433306885,9.323460071525574,7.754297433306885,9.330480071525574,7.754297433306885,9.341040071525573C7.750782033306884,9.358620071525575,7.747266633306885,9.376200071525574,7.740235433306885,9.390240071525573C7.7367197333068845,9.407820071525574,7.729688233306884,9.428880071525573,7.726172633306885,9.446460071525575C7.726172633306885,9.453540071525573,7.722657333306885,9.460560071525574,7.722657333306885,9.467580071525575C7.719141733306885,9.481620071525573,7.719141833306884,9.495720071525573,7.715626133306885,9.509760071525573C7.708594933306885,9.537900071525574,7.7050789333068845,9.569520071525574,7.7015633333068845,9.597660071525574C7.7015633333068845,9.604680071525575,7.698048033306884,9.615240071525573,7.698048033306884,9.622260071525574C7.698048033306884,9.629280071525574,7.698048033306884,9.636300071525573,7.698048033306884,9.643380071525574C7.691016813306884,9.710160071525575,7.683985233306885,9.773460071525573,7.683985233306885,9.836700071525573C7.683985233306885,9.836700071525573,7.694532233306885,13.109800071525573,7.694532233306885,13.109800071525573C7.694532233306885,13.109800071525573,7.722657333306885,23.544100071525573,7.722657333306885,23.544100071525573C7.722657333306885,23.892200071525572,7.8457042333068845,24.134800071525575,8.042579233306885,24.250800071525575C8.042579233306885,24.250800071525575,12.626955233306884,26.915600071525574,12.626955233306884,26.915600071525574C12.430075233306884,26.799600071525575,12.307035233306884,26.557000071525575,12.307035233306884,26.209000071525573C12.307035233306884,26.209000071525573,12.278905233306885,15.774600071525574,12.278905233306885,15.774600071525574C12.278905233306885,15.774600071525574,12.268355233306885,12.501500071525573,12.268355233306885,12.501500071525573C12.268355233306885,12.438300071525573,12.271875233306885,12.375000071525573,12.282425233306885,12.308200071525574C12.285935233306885,12.294100071525573,12.285935233306885,12.276500071525573,12.289455233306885,12.262500071525574C12.292965233306884,12.234400071525574,12.300005233306884,12.202700071525573,12.303515233306886,12.174600071525573C12.307035233306884,12.153500071525574,12.310545233306884,12.136000071525574,12.314055233306885,12.114800071525574C12.317575233306885,12.097300071525574,12.324605233306885,12.076200071525573,12.328125233306885,12.058600071525573C12.335155233306885,12.034000071525574,12.342185233306886,12.005900071525573,12.349215233306886,11.981200071525574C12.352735233306884,11.967200071525573,12.359765233306884,11.949600071525573,12.363275233306885,11.935600071525574C12.373825233306885,11.907400071525574,12.380855233306885,11.875800071525573,12.391405233306884,11.847700071525574C12.394925233306886,11.837100071525574,12.398435233306884,11.823100071525573,12.405465233306884,11.812500071525573C12.419535233306885,11.770320071525573,12.437105233306884,11.731620071525574,12.454685233306884,11.692980071525573C12.458205233306884,11.689440071525574,12.458205233306884,11.682420071525573,12.461715233306885,11.678880071525574C12.479295233306885,11.643720071525573,12.493355233306886,11.608620071525573,12.510935233306885,11.573460071525574C12.517965233306885,11.562900071525574,12.521485233306885,11.552340071525574,12.528515233306884,11.541780071525574C12.546095233306886,11.510160071525574,12.563675233306885,11.475000071525574,12.581255233306884,11.443380071525574C12.584765233306886,11.436300071525574,12.588275233306884,11.429280071525573,12.591795233306884,11.422260071525574C12.612885233306883,11.383620071525574,12.637505233306886,11.344920071525573,12.662105233306885,11.309760071525574C12.669135233306886,11.299200071525574,12.676175233306886,11.288700071525573,12.683205233306886,11.278140071525574C12.700775233306885,11.250000071525573,12.718355233306884,11.225400071525574,12.739455233306884,11.200800071525574C12.750005233306885,11.186700071525573,12.760545233306885,11.172660071525573,12.771095233306884,11.158620071525574C12.788675233306884,11.137500071525574,12.802735233306885,11.116380071525574,12.820305233306886,11.095320071525574C12.834375233306885,11.077740071525573,12.848435233306885,11.060160071525575,12.862505233306884,11.042580071525574C12.876555233306885,11.025000071525573,12.890625233306885,11.010960071525574,12.904685233306886,10.993380071525573C12.929295233306885,10.965240071525574,12.953905233306884,10.940640071525573,12.978515233306885,10.916040071525574C12.989055233306885,10.901940071525575,13.003125233306886,10.891380071525573,13.013675233306884,10.880880071525574C13.062885233306885,10.831620071525574,13.115625233306885,10.785960071525574,13.168355233306885,10.743720071525575C13.178905233306885,10.736700071525574,13.185935233306886,10.729680071525573,13.196485233306884,10.722660071525574C13.252735233306884,10.680480071525574,13.308985233306885,10.641780071525574,13.368755233306885,10.606620071525574C13.368755233306885,10.606620071525574,23.743385233306885,4.616020071525574,23.743385233306885,4.616020071525574C23.789085233306885,4.587890071525574,23.834785233306885,4.566800071525574,23.880485233306885,4.545700071525573C23.894585233306884,4.538670071525574,23.908585233306884,4.531640071525574,23.922585233306886,4.528130071525574C23.922585233306886,4.528130071525574,23.922585233306886,4.528130071525574,23.922585233306886,4.528130071525574Z" fill="url(#master_svgz_1_0296)" fill-opacity="1"/></g><g style="mix-blend-mode:passthrough"><path d="M28.7426424949646,6.271871596870422C28.7390424949646,5.572271596870422,28.2468424949646,5.287501596870422,27.6386424949646,5.639061596870422C27.6386424949646,5.639061596870422,24.8507424949646,7.249221596870422,24.8507424949646,7.249221596870422C24.8507424949646,7.249221596870422,24.8437424949646,5.241799596870423,24.8437424949646,5.241799596870423C24.8402424949646,4.542188796870422,24.3445424949646,4.260938596870423,23.7398424949646,4.612500596870422C23.7398424949646,4.612500596870422,13.3652424949646,10.603141596870422,13.3652424949646,10.603141596870422C12.7570324949646,10.954681596870422,12.264845584964599,11.805481596870422,12.2683612120646,12.505081596870422C12.2683612120646,12.505081596870422,12.2789076949646,15.778161596870422,12.2789076949646,15.778161596870422C12.2789076949646,15.778161596870422,12.2929698949646,20.699961596870423,12.2929698949646,20.699961596870423C12.2929698949646,20.699961596870423,12.307033294964599,26.21596159687042,12.307033294964599,26.21596159687042C12.3105488949646,26.91566159687042,12.8027364949646,27.196861596870423,13.4109424949646,26.845361596870422C13.4109424949646,26.845361596870422,27.6738424949646,18.60826159687042,27.6738424949646,18.60826159687042C28.2820424949646,18.256661596870423,28.7742424949646,17.405861596870423,28.7706424949646,16.706261596870423C28.7706424949646,16.706261596870423,28.7426424949646,6.271871596870422,28.7426424949646,6.271871596870422C28.7426424949646,6.271871596870422,28.7426424949646,6.271871596870422,28.7426424949646,6.271871596870422Z" fill="url(#master_svg10_1_0392)" fill-opacity="1"/></g></g></g><g style="mix-blend-mode:passthrough"><g style="mix-blend-mode:passthrough"><g style="mix-blend-mode:passthrough"><g style="mix-blend-mode:passthrough"><path d="M29.333184397125244,6.989060505790711C29.354284397125245,6.98202850579071,29.375384397125245,6.975002505790711,29.396484397125242,6.96797050579071C29.410584397125245,6.964454505790711,29.42108439712524,6.96093850579071,29.435184397125244,6.95742250579071C29.445684397125245,6.953906505790711,29.459784397125244,6.95039050579071,29.470284397125244,6.95039050579071C29.484384397125243,6.94687450579071,29.501984397125245,6.943358505790711,29.515984397125244,6.943358505790711C29.526584397125244,6.943358505790711,29.533584397125246,6.93984250579071,29.544184397125242,6.93984250579071C29.561784397125244,6.93984250579071,29.582784397125245,6.93984250579071,29.600384397125246,6.93984250579071C29.603884397125242,6.93984250579071,29.607384397125244,6.93984250579071,29.614484397125246,6.93984250579071C29.635584397125243,6.93984250579071,29.660184397125242,6.943358505790711,29.681284397125246,6.94687450579071C29.68478439712524,6.94687450579071,29.691784397125247,6.95039050579071,29.695284397125242,6.95039050579071C29.712884397125244,6.953906505790711,29.726984397125243,6.95742250579071,29.744584397125244,6.964454505790711C29.748084397125243,6.96797050579071,29.755084397125245,6.96797050579071,29.758584397125244,6.97148650579071C29.779684397125244,6.97851850579071,29.797284397125246,6.989060505790711,29.814784397125244,6.99961050579071C29.814784397125244,6.99961050579071,28.190584397125242,6.053906005790711,28.190584397125242,6.053906005790711C28.190584397125242,6.053906005790711,28.187184397125243,6.0503907057907105,28.187184397125243,6.0503907057907105C28.173084397125244,6.04335950579071,28.158984397125245,6.03632800579071,28.141384397125243,6.02929680579071C28.137884397125244,6.02929680579071,28.134384397125245,6.02578090579071,28.134384397125245,6.02578090579071C28.130884397125243,6.02226530579071,28.123884397125245,6.02226560579071,28.120284397125246,6.02226560579071C28.113284397125245,6.018750005790711,28.106284397125243,6.01523450579071,28.095684397125247,6.01523450579071C28.088684397125242,6.011718805790711,28.078084397125245,6.0117184057907105,28.071084397125244,6.00820280579071C28.067584397125245,6.00820280579071,28.060584397125243,6.00468750579071,28.057084397125244,6.00468750579071C28.053484397125246,6.00468750579071,28.049984397125243,6.00468720579071,28.049984397125243,6.001171665790711C28.03238439712524,5.99765602579071,28.014784397125243,5.99765613579071,27.99728439712524,5.9941405057907104C27.99728439712524,5.9941405057907104,27.993784397125246,5.9941405057907104,27.993784397125246,5.9941405057907104C27.990184397125244,5.9941405057907104,27.986784397125245,5.9941405057907104,27.979684397125244,5.9941405057907104C27.965584397125244,5.9941405057907104,27.951584397125245,5.9941405057907104,27.937484397125246,5.9941405057907104C27.933984397125244,5.9941405057907104,27.926984397125246,5.9941405057907104,27.923484397125243,5.9941405057907104C27.916384397125242,5.9941405057907104,27.90588439712524,5.994140720315711,27.895284397125245,5.997656345790711C27.888284397125243,5.997656345790711,27.877684397125243,5.99765602579071,27.870704397125245,6.001171665790711C27.863684397125244,6.001171665790711,27.856664397125243,6.00468750579071,27.849644397125246,6.00468750579071C27.839084397125244,6.00820310579071,27.82498439712524,6.00820300579071,27.814484397125245,6.01171860579071C27.807404397125246,6.01171860579071,27.800384397125242,6.01523450579071,27.793364397125245,6.01523450579071C27.786344397125244,6.01523450579071,27.779324397125244,6.018750005790711,27.77224439712524,6.02226560579071C27.751184397125243,6.02929680579071,27.730064397125243,6.036327805790711,27.709004397125245,6.043359005790711C27.701984397125244,6.04687470579071,27.694904397125242,6.04687510579071,27.687884397125245,6.0503907057907105C27.684404397125242,6.0503907057907105,27.680864397125244,6.0539063057907105,27.673844397125244,6.057421905790711C27.638684397125246,6.07148410579071,27.599984397125244,6.092577705790711,27.561344397125247,6.113671505790711C27.561344397125247,6.113671505790711,18.747662397125243,11.20078050579071,18.747662397125243,11.20078050579071C18.701954397125245,11.228910505790711,18.656252397125243,11.260550505790711,18.610550397125245,11.29219050579071C18.603518397125246,11.29922050579071,18.596486397125243,11.30274050579071,18.589454397125245,11.30977050579071C18.547268397125244,11.34492050579071,18.505082397125243,11.38008050579071,18.466410397125244,11.418750505790712C18.462894397125243,11.42227050579071,18.459377397125245,11.42578050579071,18.455861397125243,11.42930050579071C18.448830397125246,11.43633050579071,18.441799397125244,11.44336050579071,18.438283397125243,11.450390505790711C18.417189397125245,11.471490505790712,18.399613397125243,11.49258050579071,18.378519397125245,11.51367050579071C18.371488397125244,11.52070050579071,18.364456397125245,11.52774050579071,18.360941397125245,11.53477050579071C18.357426397125245,11.541800505790711,18.350393397125245,11.54532050579071,18.346878397125245,11.55234050579071C18.336331397125242,11.56641050579071,18.322268397125246,11.58047050579071,18.311721397125243,11.594530505790711C18.304690397125245,11.60508050579071,18.297660397125245,11.61211050579071,18.290629397125244,11.62266050579071C18.283597397125245,11.62969050579071,18.280081397125244,11.63672050579071,18.273051397125244,11.647270505790711C18.266019397125245,11.65781050579071,18.255472397125246,11.66836050579071,18.248440397125243,11.67891050579071C18.241410397125243,11.685940505790711,18.237894397125245,11.692970505790711,18.230862397125243,11.700000505790712C18.220315397125244,11.71406050579071,18.213285397125244,11.72812050579071,18.202738397125245,11.738670505790711C18.195706397125242,11.74570050579071,18.192191397125246,11.75625050579071,18.185160397125244,11.76328050579071C18.181644397125243,11.76680050579071,18.181644397125243,11.770310505790711,18.178128397125246,11.77383050579071C18.164065397125245,11.79844050579071,18.146488397125243,11.823040505790711,18.132426397125244,11.84766050579071C18.132426397125244,11.84766050579071,18.128908397125244,11.85117050579071,18.128908397125244,11.85117050579071C18.125393397125244,11.85469050579071,18.121877397125242,11.86172050579071,18.121877397125242,11.86524050579071C18.111330397125244,11.882810505790712,18.100784397125246,11.90039050579071,18.090237397125243,11.91797050579071C18.086722397125243,11.92500050579071,18.083205397125244,11.935550505790712,18.076174397125243,11.94258050579071C18.072658397125245,11.94961050579071,18.065628397125245,11.96016050579071,18.062113397125245,11.967190505790711C18.058597397125244,11.974220505790711,18.055080397125245,11.981250505790712,18.051564397125244,11.99180050579071C18.041017397125245,12.01292050579071,18.030471397125243,12.03398050579071,18.023440397125245,12.05510050579071C18.023440397125245,12.058580505790712,18.019925397125245,12.06212050579071,18.019925397125245,12.06560050579071C18.019925397125245,12.06560050579071,18.019925397125245,12.06914050579071,18.019925397125245,12.06914050579071C18.009378397125243,12.09374050579071,17.998830397125243,12.12188050579071,17.988283397125244,12.14648050579071C17.984768397125244,12.15002050579071,17.984769397125245,12.157040505790711,17.984769397125245,12.16052050579071C17.981253397125244,12.17108050579071,17.977737397125246,12.18164050579071,17.974221597125243,12.188660505790711C17.970705597125246,12.20276050579071,17.963674797125243,12.21326050579071,17.960159397125246,12.22736050579071C17.956643397125244,12.237920505790711,17.953128597125243,12.24842050579071,17.949612597125245,12.25898050579071C17.946097197125244,12.269540505790712,17.942580597125243,12.28358050579071,17.939065197125245,12.294140505790711C17.935549597125245,12.30116050579071,17.935550297125243,12.30818050579071,17.932034597125245,12.315260505790711C17.928518997125245,12.32930050579071,17.925002797125245,12.34334050579071,17.921487097125244,12.35744050579071C17.917971497125244,12.37148050579071,17.914456297125245,12.38552050579071,17.910940697125245,12.40310050579071C17.910940697125245,12.40664050579071,17.907424797125245,12.41366050579071,17.907424797125245,12.42068050579071C17.903909197125245,12.431240505790711,17.903908697125246,12.44180050579071,17.900393197125243,12.452360505790711C17.896877497125246,12.47696050579071,17.893362297125243,12.49802050579071,17.889846697125243,12.52268050579071C17.889846697125243,12.52970050579071,17.886330797125243,12.536720505790711,17.886330797125243,12.54374050579071C17.886330797125243,12.55076050579071,17.886330797125243,12.55430050579071,17.886330797125243,12.561320505790711C17.879299597125243,12.614060505790711,17.875784397125244,12.666800505790711,17.875784397125244,12.71600050579071C17.875784397125244,12.71600050579071,17.914456497125244,26.57814050579071,17.914456497125244,26.57814050579071C17.914456497125244,26.85584050579071,18.012893397125243,27.05274050579071,18.171096397125243,27.14414050579071C18.171096397125243,27.14414050579071,19.795314397125246,28.08984050579071,19.795314397125246,28.08984050579071C19.637114397125245,27.99844050579071,19.538674397125245,27.80154050579071,19.538674397125245,27.52384050579071C19.538674397125245,27.52384050579071,19.500004397125245,13.661720505790711,19.500004397125245,13.661720505790711C19.500004397125245,13.61252050579071,19.503514397125244,13.55978050579071,19.510554397125244,13.50704050579071C19.510554397125244,13.49294050579071,19.514064397125246,13.48244050579071,19.514064397125246,13.46834050579071C19.517584397125244,13.44374050579071,19.521094397125243,13.42268050579071,19.524614397125244,13.398020505790711C19.528134397125243,13.38044050579071,19.531644397125245,13.366400505790711,19.535154397125243,13.34882050579071C19.538674397125245,13.334780505790711,19.542184397125244,13.31720050579071,19.545704397125245,13.30310050579071C19.552734397125246,13.282040505790711,19.556254397125244,13.260920505790711,19.563284397125244,13.23986050579071C19.566804397125246,13.229300505790711,19.570314397125244,13.21526050579071,19.573834397125243,13.204700505790711C19.580864397125243,13.18010050579071,19.587894397125243,13.15898050579071,19.598434397125246,13.13438050579071C19.601954397125244,13.123820505790711,19.605474397125246,13.11326050579071,19.608984397125244,13.10624050579071C19.619534397125243,13.07462050579071,19.633594397125243,13.04294050579071,19.647664397125244,13.00784050579071C19.647664397125244,13.00430050579071,19.651174397125246,13.00076050579071,19.651174397125246,12.99728050579071C19.665234397125243,12.96914050579071,19.675784397125245,12.941000505790711,19.689844397125245,12.91292050579071C19.693364397125244,12.90236050579071,19.700394397125244,12.89534050579071,19.703904397125243,12.884780505790712C19.717974397125243,12.856640505790711,19.732034397125243,12.832040505790712,19.746094397125244,12.803900505790711C19.749614397125246,12.800420505790711,19.753134397125244,12.79334050579071,19.753134397125244,12.78986050579071C19.770704397125243,12.75818050579071,19.788284397125246,12.73010050579071,19.809384397125243,12.698420505790711C19.816404397125243,12.69140050579071,19.819924397125245,12.68084050579071,19.826954397125245,12.673820505790712C19.841014397125242,12.65276050579071,19.855084397125243,12.63164050579071,19.869144397125243,12.61052050579071C19.876174397125244,12.60002050579071,19.886724397125246,12.589460505790711,19.893754397125242,12.57890050579071C19.907814397125243,12.561320505790711,19.918364397125245,12.54374050579071,19.932424397125246,12.52970050579071C19.942974397125244,12.515600505790712,19.953514397125243,12.50156050579071,19.967584397125243,12.48752050579071C19.978134397125245,12.47342050579071,19.988674397125244,12.46292050579071,20.002734397125245,12.44882050579071C20.020314397125244,12.427760505790712,20.041404397125245,12.40664050579071,20.062504397125245,12.38552050579071C20.073054397125244,12.375020505790712,20.083594397125243,12.36446050579071,20.090634397125243,12.35744050579071C20.129304397125246,12.31874050579071,20.171484397125244,12.28358050579071,20.213674397125246,12.24842050579071C20.220704397125246,12.241400505790711,20.227734397125243,12.237920505790711,20.238284397125245,12.23084050579071C20.283984397125245,12.19568050579071,20.329694397125245,12.164060505790712,20.375394397125245,12.13946050579071C20.375394397125245,12.13946050579071,29.189084397125242,7.052340505790711,29.189084397125242,7.052340505790711C29.227684397125245,7.031250505790711,29.262884397125244,7.01367050579071,29.301584397125247,6.99609050579071C29.308584397125244,6.99609050579071,29.319184397125245,6.99257650579071,29.333184397125244,6.989060505790711C29.333184397125244,6.989060505790711,29.333184397125244,6.989060505790711,29.333184397125244,6.989060505790711Z" fill="url(#master_svg11_1_0405)" fill-opacity="1"/></g><g style="mix-blend-mode:passthrough"><g style="mix-blend-mode:passthrough"><g style="mix-blend-mode:passthrough"><path d="M29.18555308921814,7.055859356254578C29.67427308921814,6.774609356254578,30.06797308921814,6.999609756254578,30.071473089218138,7.558594356254577C30.071473089218138,7.558594356254577,30.11017308921814,21.42069035625458,30.11017308921814,21.42069035625458C30.11017308921814,21.97969035625458,29.71987308921814,22.661690356254578,29.231273089218142,22.942990356254576C29.231273089218142,22.942990356254576,20.41758508921814,28.033590356254578,20.41758508921814,28.033590356254578C19.92891308921814,28.314890356254576,19.53516188921814,28.08989035625458,19.53164628921814,27.530790356254577C19.53164628921814,27.530790356254577,19.49297308921814,13.668730356254578,19.49297308921814,13.668730356254578C19.49297308921814,13.109770356254579,19.88320808921814,12.427730356254578,20.37187708921814,12.146480356254578C20.37187708921814,12.146480356254578,29.18555308921814,7.055859356254578,29.18555308921814,7.055859356254578C29.18555308921814,7.055859356254578,29.18555308921814,7.055859356254578,29.18555308921814,7.055859356254578Z" fill="url(#master_svg12_1_0401)" fill-opacity="1"/></g></g></g></g></g></g><g style="mix-blend-mode:passthrough"><g style="mix-blend-mode:passthrough"><g style="mix-blend-mode:passthrough"><path d="M28.440251345367432,10.743751804008484C28.72849134536743,10.575001804008483,28.96405134536743,10.712110904008483,28.96405134536743,11.042579804008485C28.96405134536743,11.376565804008484,28.73203134536743,11.777341804008485,28.443731345367432,11.946091804008484C28.443731345367432,11.946091804008484,21.380858345367432,16.024211804008484,21.380858345367432,16.024211804008484C21.09257734536743,16.192961804008483,20.85703134536743,16.059371804008485,20.85703134536743,15.725391804008485C20.85703134536743,15.394921804008483,21.08906234536743,14.990621804008484,21.377343345367432,14.821871804008484C21.377343345367432,14.821871804008484,28.440251345367432,10.743751804008484,28.440251345367432,10.743751804008484C28.440251345367432,10.743751804008484,28.440251345367432,10.743751804008484,28.440251345367432,10.743751804008484Z" fill="url(#master_svg13_1_0232)" fill-opacity="1"/></g></g></g><g style="mix-blend-mode:passthrough"><g style="mix-blend-mode:passthrough"><g style="mix-blend-mode:passthrough"><path d="M28.440251345367432,13.566794111784363C28.72849134536743,13.398044111784364,28.96405134536743,13.531637811784362,28.96405134536743,13.865622711784363C28.96405134536743,14.196089711784364,28.73203134536743,14.600385711784362,28.443731345367432,14.769135711784363C28.443731345367432,14.769135711784363,21.380858345367432,18.847265711784363,21.380858345367432,18.847265711784363C21.09257734536743,19.016015711784362,20.85703134536743,18.878905711784363,20.85703134536743,18.548435711784364C20.85703134536743,18.214455711784364,21.08906234536743,17.813665711784363,21.377343345367432,17.644915711784364C21.377343345367432,17.644915711784364,28.440251345367432,13.566794111784363,28.440251345367432,13.566794111784363C28.440251345367432,13.566794111784363,28.440251345367432,13.566794111784363,28.440251345367432,13.566794111784363Z" fill="url(#master_svg14_1_0218)" fill-opacity="1"/></g><g style="mix-blend-mode:passthrough"><g style="mix-blend-mode:passthrough"><path d="M28.440251345367432,13.566794111784363C28.72849134536743,13.398044111784364,28.96405134536743,13.531637811784362,28.96405134536743,13.865622711784363C28.96405134536743,14.196089711784364,28.73203134536743,14.600385711784362,28.443731345367432,14.769135711784363C28.443731345367432,14.769135711784363,21.380858345367432,18.847265711784363,21.380858345367432,18.847265711784363C21.09257734536743,19.016015711784362,20.85703134536743,18.878905711784363,20.85703134536743,18.548435711784364C20.85703134536743,18.214455711784364,21.08906234536743,17.813665711784363,21.377343345367432,17.644915711784364C21.377343345367432,17.644915711784364,28.440251345367432,13.566794111784363,28.440251345367432,13.566794111784363C28.440251345367432,13.566794111784363,28.440251345367432,13.566794111784363,28.440251345367432,13.566794111784363Z" fill="url(#master_svg15_1_0218)" fill-opacity="1"/></g></g></g></g><g style="mix-blend-mode:passthrough"><g style="mix-blend-mode:passthrough"><g style="mix-blend-mode:passthrough"><path d="M28.440251345367432,16.49882765060272C28.72849134536743,16.33007765060272,28.96405134536743,16.463671350602723,28.96405134536743,16.79765625060272C28.96405134536743,17.128123250602723,28.73203134536743,17.53241925060272,28.443731345367432,17.70116925060272C28.443731345367432,17.70116925060272,21.380858345367432,21.779299250602723,21.380858345367432,21.779299250602723C21.09257734536743,21.948049250602722,20.85703134536743,21.810939250602722,20.85703134536743,21.480469250602724C20.85703134536743,21.146489250602723,21.08906234536743,20.745699250602723,21.377343345367432,20.576949250602723C21.377343345367432,20.576949250602723,28.440251345367432,16.49882765060272,28.440251345367432,16.49882765060272C28.440251345367432,16.49882765060272,28.440251345367432,16.49882765060272,28.440251345367432,16.49882765060272Z" fill="url(#master_svg16_1_0212)" fill-opacity="1"/></g></g></g><g style="mix-blend-mode:passthrough"><g style="mix-blend-mode:passthrough"><g style="mix-blend-mode:passthrough"><path d="M28.440251345367432,19.434374487394713C28.72849134536743,19.265625087394714,28.96405134536743,19.402734187394714,28.96405134536743,19.733203087394713C28.96405134536743,20.067189087394713,28.73203134536743,20.467965087394713,28.443731345367432,20.636715087394712C28.443731345367432,20.636715087394712,21.380858345367432,24.714835087394714,21.380858345367432,24.714835087394714C21.09257734536743,24.883585087394714,20.85703134536743,24.749995087394716,20.85703134536743,24.416015087394715C20.85703134536743,24.085545087394713,21.08906234536743,23.681245087394714,21.377343345367432,23.512495087394715C21.377343345367432,23.512495087394715,28.440251345367432,19.434374487394713,28.440251345367432,19.434374487394713C28.440251345367432,19.434374487394713,28.440251345367432,19.434374487394713,28.440251345367432,19.434374487394713Z" fill="url(#master_svg17_1_0226)" fill-opacity="1"/></g></g></g></g></g></svg>