<?xml version="1.0" standalone="no"?><!DOCTYPE svg PUBLIC "-//W3C//DTD SVG 1.1//EN" "http://www.w3.org/Graphics/SVG/1.1/DTD/svg11.dtd"><svg class="icon" width="200px" height="200.00px" viewBox="0 0 1024 1024" version="1.1" xmlns="http://www.w3.org/2000/svg"><path d="M71.68 747.52h51.2c28.27776 0 51.2 22.92224 51.2 51.2v143.36c0 28.27776-22.92224 51.2-51.2 51.2H71.68c-28.27776 0-51.2-22.92224-51.2-51.2v-143.36c0-28.27776 22.92224-51.2 51.2-51.2zM624.64 747.52h51.2c28.27776 0 51.2 22.92224 51.2 51.2v143.36c0 28.27776-22.92224 51.2-51.2 51.2h-51.2c-28.27776 0-51.2-22.92224-51.2-51.2v-143.36c0-28.27776 22.92224-51.2 51.2-51.2zM901.12 532.48h51.2c28.27776 0 51.2 22.92224 51.2 51.2v358.4c0 28.27776-22.92224 51.2-51.2 51.2h-51.2c-28.27776 0-51.2-22.92224-51.2-51.2v-358.4c0-28.27776 22.92224-51.2 51.2-51.2zM348.16 645.12h51.2c28.27776 0 51.2 22.92224 51.2 51.2v256c0 28.27776-22.92224 51.2-51.2 51.2H348.16c-28.27776 0-51.2-22.92224-51.2-51.2v-256c0-28.27776 22.92224-51.2 51.2-51.2zM1013.76 61.44v241.57696a30.72 30.72 0 0 1-52.43904 21.71904l-85.6832-85.66784-293.4272 262.9888a40.96 40.96 0 0 1-55.40864-0.67584L379.11552 362.3936l-266.45504 215.97696a40.97024 40.97024 0 0 1-57.61536-6.02112l-19.01056-23.4496a40.96 40.96 0 0 1 6.02624-57.61024l314.752-255.1296a40.96 40.96 0 0 1 53.8624 1.98656l145.37728 136.81664 240.19456-215.28064-86.7584-86.75328A30.72 30.72 0 0 1 731.2128 20.48H972.8a40.96 40.96 0 0 1 40.96 40.96z" /></svg>