<?xml version="1.0" standalone="no"?><!DOCTYPE svg PUBLIC "-//W3C//DTD SVG 1.1//EN" "http://www.w3.org/Graphics/SVG/1.1/DTD/svg11.dtd"><svg t="1693388111771" class="icon" viewBox="0 0 1024 1024" version="1.1" xmlns="http://www.w3.org/2000/svg" p-id="6312" xmlns:xlink="http://www.w3.org/1999/xlink" width="200" height="200"><path d="M512 512m-512 0a512 512 0 1 0 1024 0 512 512 0 1 0-1024 0Z" fill="#8A90A5" p-id="6313"></path><path d="M514.133333 330.666667m-160 0a160 160 0 1 0 320 0 160 160 0 1 0-320 0Z" fill="#FFFFFF" p-id="6314"></path><path d="M298.666667 554.666667h426.666666a85.333333 85.333333 0 0 1 85.333334 85.333333v132.437333C711.125333 826.368 611.541333 853.333333 512 853.333333s-199.125333-26.965333-298.666667-80.896V640a85.333333 85.333333 0 0 1 85.333334-85.333333z" fill="#FFFFFF" p-id="6315"></path></svg>