<?xml version="1.0" standalone="no"?><!DOCTYPE svg PUBLIC "-//W3C//DTD SVG 1.1//EN" "http://www.w3.org/Graphics/SVG/1.1/DTD/svg11.dtd"><svg class="icon" width="200px" height="200.00px" viewBox="0 0 1024 1024" version="1.1" xmlns="http://www.w3.org/2000/svg"><path d="M102.4 0h819.2c68.2496 0 102.4 34.1504 102.4 102.4v819.2c0 68.2496-34.1504 102.4-102.4 102.4H102.4c-68.2496 0-102.4-34.1504-102.4-102.4V102.4C0 34.1504 34.1504 0 102.4 0z" fill="#000000" fill-opacity=".15" /><path d="M535.0912 670.464c8.96 35.4304 27.8528 67.584 54.4768 92.672h-30.72a23.7568 23.7568 0 0 1-23.7056-23.808v-68.864zM464.896 204.8512c13.1072 0 23.7568 10.5984 23.7568 23.7056v510.7712a23.7568 23.7568 0 0 1-23.7568 23.7568H279.7568A23.7568 23.7568 0 0 1 256 739.328V228.5568c0-13.1072 10.6496-23.7056 23.7568-23.7056h185.088z m279.0912 0c13.1072 0 23.7568 10.5984 23.7568 23.7056v208.7424a192 192 0 0 0-232.6528 139.264V228.5568c0-13.1072 10.6496-23.7568 23.7568-23.7568h185.1392z" fill="#FFFFFF" /><path d="M723.456 481.0752a144.2304 144.2304 0 1 0 0 288.4096 144.2304 144.2304 0 0 0 0-288.4096z m-7.3216 186.88l0.1024 0.1024-16.384 16.384-0.0512-0.1024-0.1024 0.1024-16.3328-16.384 0.1024-0.1024-38.144-38.144 16.384-16.384 38.144 38.2464 85.4528-85.5552 16.2816 16.3328-85.4528 85.504z" fill="#FFFFFF" /></svg>