<?xml version="1.0" standalone="no"?><!DOCTYPE svg PUBLIC "-//W3C//DTD SVG 1.1//EN" "http://www.w3.org/Graphics/SVG/1.1/DTD/svg11.dtd"><svg class="icon" width="200px" height="200.00px" viewBox="0 0 1024 1024" version="1.1" xmlns="http://www.w3.org/2000/svg"><path d="M991.67232 565.0944v318.7968c0.01536 28.3136-10.112 55.4752-28.14976 75.4688-18.03776 19.99872-42.496 31.1808-67.968 31.0784H127.24736c-52.97152 0-95.95904-47.65184-96.11264-106.5472V565.0944c136.9088 67.11296 300.032 105.7024 480.30208 105.7024 180.33664 0 343.45984-38.58944 480.3072-105.7024h-0.07168zM775.44448 31.2832c19.0976-0.04096 37.4272 8.36096 50.944 23.36256 13.5168 14.99648 21.10976 35.3536 21.10976 56.58624v106.3936h48.05632c52.89984 0 95.84128 47.66208 96.04608 106.5472V483.84c-134.70208 68.64896-300.7232 107.0848-480.30208 107.0848-179.44064 0-345.46176-38.43584-480.2304-106.8544v-159.8976c-0.02048-28.30336 10.09664-55.4496 28.11904-75.44832 18.0224-19.98848 42.46528-31.1808 67.92704-31.09888h47.98464v-106.3936c0-41.20576 28.2112-75.48928 65.20832-79.5648l6.912-0.3072h528.29184l-0.06656-0.0768z m-216.01792 346.3936H463.3088c-24.84224 0.90112-44.96896 22.72256-46.40768 50.30912-1.4336 27.59168 16.29184 51.84512 40.87808 55.93088l5.5296 0.384h96.11776c17.88416 1.3056 34.93888-8.55552 44.2368-25.58976 9.30304-17.03424 9.30304-38.41024 0-55.44448-9.29792-17.03424-26.35264-26.90048-44.2368-25.58976zM751.5136 137.984H271.28832v79.7184h480.2304V137.984z" /></svg>