<?xml version="1.0" standalone="no"?><!DOCTYPE svg PUBLIC "-//W3C//DTD SVG 1.1//EN" "http://www.w3.org/Graphics/SVG/1.1/DTD/svg11.dtd"><svg class="icon" width="200px" height="200.00px" viewBox="0 0 1024 1024" version="1.1" xmlns="http://www.w3.org/2000/svg"><path d="M102.4 0h819.2c68.2496 0 102.4 34.1504 102.4 102.4v819.2c0 68.2496-34.1504 102.4-102.4 102.4H102.4c-68.2496 0-102.4-34.1504-102.4-102.4V102.4C0 34.1504 34.1504 0 102.4 0z" fill="#0091FF" /><path d="M335.7696 688.0256V819.2H239.7696v-131.2256h96z m320 0V819.2h-96v-131.2256h96z m160-131.2256V819.2h-96v-262.4h96z m-320 67.2256V819.2H399.7696v-195.2256h96zM834.9696 256v224l-86.7328-86.7328-201.8304 180.9408-109.9776-103.4752-187.2896 151.808L204.8 567.8592l235.1104-190.5664 107.6224 101.3248 150.8352-135.168L610.9696 256h224z" fill="#FFFFFF" /></svg>