<?xml version="1.0" standalone="no"?><!DOCTYPE svg PUBLIC "-//W3C//DTD SVG 1.1//EN" "http://www.w3.org/Graphics/SVG/1.1/DTD/svg11.dtd"><svg class="icon" width="200px" height="200.00px" viewBox="0 0 1024 1024" version="1.1" xmlns="http://www.w3.org/2000/svg"><path d="M512 0c282.752 0 512 229.248 512 512s-229.248 512-512 512S0 794.752 0 512 229.248 0 512 0z m0 298.666667a213.333333 213.333333 0 1 0 0 426.666666 213.333333 213.333333 0 0 0 0-426.666666z" fill="#FFFFFF" /><path d="M597.333333 21.333333l186.197334 80.768L640.042667 341.333333A212.394667 212.394667 0 0 0 512 298.666667a212.394667 212.394667 0 0 0-128 42.666666L244.48 108.842667 384 42.666667l213.333333-21.333334z" fill="#59A3FF" /><path d="M512 0c282.752 0 512 229.248 512 512s-229.248 512-512 512S0 794.752 0 512 229.248 0 512 0z m0 42.666667C252.8 42.666667 42.666667 252.8 42.666667 512s210.133333 469.333333 469.333333 469.333333 469.333333-210.133333 469.333333-469.333333S771.2 42.666667 512 42.666667z" fill="#7F7F7F" /><path d="M512 298.666667a213.333333 213.333333 0 1 1 0 426.666666 213.333333 213.333333 0 0 1 0-426.666666z m0 42.666666a170.666667 170.666667 0 1 0 0 341.333334 170.666667 170.666667 0 0 0 0-341.333334z" fill="#7F7F7F" /></svg>