<?xml version="1.0" standalone="no"?><!DOCTYPE svg PUBLIC "-//W3C//DTD SVG 1.1//EN" "http://www.w3.org/Graphics/SVG/1.1/DTD/svg11.dtd"><svg class="icon" width="200px" height="200.00px" viewBox="0 0 1024 1024" version="1.1" xmlns="http://www.w3.org/2000/svg"><path d="M1002.666667 21.333333v981.333334H21.333333V21.333333h981.333334z m-42.666667 42.666667h-896v896h896v-896z" fill="#7F7F7F" /><path d="M340.992 732.501333c75.264 0 145.408-61.952 145.408-205.312 0-131.584-64.512-187.904-136.192-187.904-65.024 0-119.296 48.64-119.296 126.464 0 80.384 45.568 119.296 108.544 119.296 26.112 0 58.368-15.872 77.824-41.472-3.072 95.232-38.4 127.488-80.896 127.488-22.528 0-46.08-11.776-59.904-26.624l-39.424 45.056a142.08 142.08 0 0 0 103.936 43.008z m12.8-201.216c-32.768 0-53.76-20.992-53.76-65.536 0-46.592 23.04-69.632 51.2-69.632 32.256 0 58.368 25.6 65.024 94.72-18.432 29.184-41.984 40.448-62.464 40.448z m288.768 201.216c75.264 0 145.408-61.952 145.408-205.312 0-131.584-64.512-187.904-136.192-187.904-65.024 0-119.296 48.64-119.296 126.464 0 80.384 45.568 119.296 108.544 119.296 26.112 0 58.368-15.872 77.824-41.472-3.072 95.232-38.4 127.488-80.896 127.488-22.528 0-46.08-11.776-59.904-26.624l-39.424 45.056a142.08 142.08 0 0 0 103.936 43.008z m12.8-201.216c-32.768 0-53.76-20.992-53.76-65.536 0-46.592 23.04-69.632 51.2-69.632 32.256 0 58.368 25.6 65.024 94.72-18.432 29.184-41.984 40.448-62.464 40.448z" fill="#666666" /></svg>