<?xml version="1.0" standalone="no"?><!DOCTYPE svg PUBLIC "-//W3C//DTD SVG 1.1//EN" "http://www.w3.org/Graphics/SVG/1.1/DTD/svg11.dtd"><svg t="1684807974598" class="icon" viewBox="0 0 1024 1024" version="1.1" xmlns="http://www.w3.org/2000/svg" p-id="7083" xmlns:xlink="http://www.w3.org/1999/xlink" width="200" height="200"><path d="M866.533 469.67a279.602 279.602 0 0 0-165.9-54.227c-119.549 0-221.675 74.754-262.408 180.157H180.331c-35.529 0-64.331-28.869-64.331-64.48v-85.973c0-35.612 28.802-64.48 64.331-64.48h621.871c35.53 0 64.331 28.868 64.331 64.48v24.524zM423.397 649.334a284.426 284.426 0 0 0-4.074 48.07c0 62.438 20.264 120.148 54.531 166.864H180.331c-35.529 0-64.331-28.869-64.331-64.48v-85.974c0-35.611 28.802-64.48 64.331-64.48h243.066zM180.331 112h621.871c35.53 0 64.331 28.869 64.331 64.48v85.973c0 35.612-28.802 64.48-64.331 64.48h-621.87a64.256 64.256 0 0 1-45.49-18.885A64.556 64.556 0 0 1 116 262.453V176.48c0-35.611 28.802-64.48 64.331-64.48z m509.58 806c-121.554 0-220.088-98.762-220.088-220.597 0-121.835 98.534-220.597 220.088-220.597C811.466 476.806 910 575.568 910 697.403 910 819.238 811.466 918 689.911 918z" fill="#3A8FF0" p-id="7084"></path><path d="M687.447 476.973v203.255L808 883.558A218.3 218.3 0 0 1 689.985 918c-121.42 0-219.838-98.727-219.838-220.519 0-120.943 97.057-219.154 217.3-220.508zM202.418 166c11.83 0 21.419 9.62 21.419 21.486V241.2c0 11.866-9.59 21.486-21.419 21.486S181 253.066 181 241.2v-53.714a21.52 21.52 0 0 1 6.273-15.193A21.384 21.384 0 0 1 202.418 166z m0 279.314c5.68 0 11.129 2.264 15.145 6.293a21.52 21.52 0 0 1 6.274 15.193v53.714c0 11.866-9.59 21.486-21.419 21.486S181 532.38 181 520.514V466.8a21.52 21.52 0 0 1 6.273-15.193 21.384 21.384 0 0 1 15.145-6.293z m0 268.571c5.68 0 11.129 2.264 15.145 6.293a21.52 21.52 0 0 1 6.274 15.193v53.714c0 11.866-9.59 21.486-21.419 21.486S181 800.951 181 789.085v-53.714a21.52 21.52 0 0 1 6.273-15.193 21.384 21.384 0 0 1 15.145-6.293zM288.092 166c5.68 0 11.128 2.264 15.145 6.293a21.52 21.52 0 0 1 6.273 15.193V241.2c0 11.866-9.59 21.486-21.418 21.486-11.83 0-21.419-9.62-21.419-21.486v-53.714c0-11.867 9.59-21.486 21.419-21.486z m0 279.314c5.68 0 11.128 2.264 15.145 6.293a21.52 21.52 0 0 1 6.273 15.193v53.714c0 11.866-9.59 21.486-21.418 21.486-11.83 0-21.419-9.62-21.419-21.486V466.8a21.52 21.52 0 0 1 6.274-15.193 21.384 21.384 0 0 1 15.145-6.293z m0 268.571c5.68 0 11.128 2.264 15.145 6.293a21.52 21.52 0 0 1 6.273 15.193v53.714c0 11.866-9.59 21.486-21.418 21.486-11.83 0-21.419-9.62-21.419-21.486v-53.714a21.52 21.52 0 0 1 6.274-15.193 21.384 21.384 0 0 1 15.145-6.293z" fill="#FFFFFF" p-id="7085"></path><path d="M687.394 477v203.243L808 883.56A218.474 218.474 0 0 1 689.934 918C568.46 918 470 819.279 470 697.494 470 576.56 567.1 478.354 687.394 477z" fill="#3A8FF0" opacity=".807" p-id="7086"></path></svg>