<?xml version="1.0" encoding="UTF-8"?>
<svg width="1920px" height="911px" viewBox="0 0 1920 911" version="1.1" xmlns="http://www.w3.org/2000/svg" xmlns:xlink="http://www.w3.org/1999/xlink">
    <title>血缘关系-业务视角1</title>
    <defs>
        <rect id="path-1" x="0" y="0" width="199" height="44" rx="3"></rect>
        <filter x="-3.5%" y="-11.4%" width="107.0%" height="131.8%" filterUnits="objectBoundingBox" id="filter-2">
            <feOffset dx="0" dy="2" in="SourceAlpha" result="shadowOffsetOuter1"></feOffset>
            <feGaussianBlur stdDeviation="2" in="shadowOffsetOuter1" result="shadowBlurOuter1"></feGaussianBlur>
            <feColorMatrix values="0 0 0 0 0   0 0 0 0 0   0 0 0 0 0  0 0 0 0.1 0" type="matrix" in="shadowBlurOuter1"></feColorMatrix>
        </filter>
    </defs>
    <g id="页面-1" stroke="none" stroke-width="1" fill="none" fill-rule="evenodd">
        <g id="血缘关系-业务视角1" transform="translate(0.000000, -230.000000)">
            <rect fill="#EFF2F5" x="0" y="0" width="1920" height="1141"></rect>
            <g id="工具栏" transform="translate(1697.000000, 1073.000000)">
                <g id="矩形">
                    <use fill="black" fill-opacity="1" filter="url(#filter-2)" xlink:href="#path-1"></use>
                    <use fill="#FFFFFF" fill-rule="evenodd" xlink:href="#path-1"></use>
                </g>
                <g id="定位" transform="translate(161.000000, 6.000000)" fill="#000000" fill-opacity="0.85" fill-rule="nonzero">
                    <g id="dingwei" transform="translate(8.000000, 8.000000)">
                        <path d="M6.64893617,7.9787234 C6.64893617,8.71314461 7.24430219,9.30851064 7.9787234,9.30851064 C8.71314461,9.30851064 9.30851064,8.71314461 9.30851064,7.9787234 C9.30851064,7.24430219 8.71314461,6.64893617 7.9787234,6.64893617 C7.24430219,6.64893617 6.64893617,7.24430219 6.64893617,7.9787234 Z" id="路径"></path>
                        <path d="M15.4255319,7.44680851 L14.8664894,7.44680851 C14.6069149,4.05851064 11.8989362,1.35053191 8.5106383,1.09095745 L8.5106383,0.531914894 C8.5106383,0.23814641 8.27249189,0 7.9787234,0 C7.68495492,0 7.44680851,0.23814641 7.44680851,0.531914894 L7.44680851,1.09095745 C4.05851064,1.35053191 1.35053191,4.05851064 1.09095745,7.44680851 L0.531914894,7.44680851 C0.23814641,7.44680851 0,7.68495492 0,7.9787234 C0,8.27249189 0.23814641,8.5106383 0.531914894,8.5106383 L1.09095745,8.5106383 C1.35053191,11.8989362 4.05851064,14.6069149 7.44680851,14.8664894 L7.44680851,15.4255319 C7.44680851,15.7193004 7.68495492,15.9574468 7.9787234,15.9574468 C8.27249189,15.9574468 8.5106383,15.7193004 8.5106383,15.4255319 L8.5106383,14.8664894 C11.8989362,14.6069149 14.6069149,11.8989362 14.8664894,8.5106383 L15.4255319,8.5106383 C15.7193004,8.5106383 15.9574468,8.27249189 15.9574468,7.9787234 C15.9574468,7.68495492 15.7193004,7.44680851 15.4255319,7.44680851 Z M8.5106383,13.8026596 L8.5106383,12.7659574 C8.5106383,12.472189 8.27249189,12.2340426 7.9787234,12.2340426 C7.68495492,12.2340426 7.44680851,12.472189 7.44680851,12.7659574 L7.44680851,13.8026596 C4.64468085,13.5489362 2.40851064,11.312766 2.15478723,8.5106383 L3.19148936,8.5106383 C3.48525785,8.5106383 3.72340426,8.27249189 3.72340426,7.9787234 C3.72340426,7.68495492 3.48525785,7.44680851 3.19148936,7.44680851 L2.15478723,7.44680851 C2.40851064,4.64468085 4.64468085,2.40851064 7.44680851,2.15478723 L7.44680851,3.19148936 C7.44680851,3.48525785 7.68495492,3.72340426 7.9787234,3.72340426 C8.27249189,3.72340426 8.5106383,3.48525785 8.5106383,3.19148936 L8.5106383,2.15478723 C11.312766,2.40904255 13.5489362,4.64468085 13.8026596,7.44680851 L12.7659574,7.44680851 C12.472189,7.44680851 12.2340426,7.68495492 12.2340426,7.9787234 C12.2340426,8.27249189 12.472189,8.5106383 12.7659574,8.5106383 L13.8026596,8.5106383 C13.5489362,11.312766 11.312766,13.5489362 8.5106383,13.8026596 L8.5106383,13.8026596 Z" id="形状"></path>
                    </g>
                </g>
                <line x1="151" y1="14" x2="151" y2="30" id="直线" stroke-opacity="0.15" stroke="#000000" stroke-linecap="round"></line>
                <g id="放大" transform="translate(109.000000, 6.000000)" fill="#000000" fill-opacity="0.85" fill-rule="nonzero">
                    <g id="icon" transform="translate(9.000000, 9.000000)">
                        <path d="M13.7258158,6.53979492 L7.47319984,6.53979492 L7.47319984,0.215384617 C7.47319984,0.0969230756 7.37627697,0 7.25781536,0 L6.75525141,0 C6.6367898,0 6.53986645,0.0969230756 6.53986645,0.215384617 L6.53986645,6.53979492 L0.215384617,6.53979492 C0.0969230756,6.53979492 0,6.6367178 0,6.75517941 L0,7.25774336 C0,7.37620497 0.0969230756,7.47312832 0.215312824,7.47312832 L6.53979492,7.47312832 L6.53979492,13.7257433 C6.53979492,13.8442049 6.6367178,13.9411278 6.75517941,13.9411278 L7.25774336,13.9411278 C7.37620497,13.9411278 7.47312832,13.8442049 7.47312832,13.7258158 L7.47312832,7.47312832 L13.7257433,7.47312832 C13.8442049,7.47312832 13.9411278,7.37620497 13.9411278,7.25774336 L13.9411278,6.75517941 C13.9411278,6.6367178 13.8442774,6.53979492 13.7258158,6.53979492 Z" id="路径"></path>
                    </g>
                </g>
                <g id="数值" transform="translate(46.000000, 6.000000)">
                    <text id="100%" font-family="PingFangSC-Regular, PingFang SC" font-size="12" font-weight="normal" fill="#000000" fill-opacity="0.85">
                        <tspan x="6" y="21">100%</tspan>
                    </text>
                    <g id="返回" transform="translate(46.000000, 17.000000) rotate(-90.000000) translate(-46.000000, -17.000000) translate(41.000000, 12.000000)">
                        <rect id="矩形" fill="#D8D8D8" opacity="0" x="0" y="0" width="10" height="10"></rect>
                        <g id="编组" transform="translate(2.500000, 1.250000)" fill="#000000" fill-opacity="0.85" fill-rule="nonzero">
                            <path d="M4.37498922,7.38455823 C4.24612536,7.52766056 4.02569416,7.53931477 3.88245922,7.41059833 L0.115571916,4.01943255 C0.0385821975,3.95030694 -0.00367664939,3.85052153 0.000251444525,3.74712744 C-0.00367664939,3.64373336 0.0385821975,3.54394795 0.115571916,3.47482234 L3.88245922,0.0821685519 C4.02646151,-0.039241737 4.24082959,-0.0244551941 4.36679827,0.115576978 C4.49276696,0.255609151 4.48486693,0.470341323 4.34894911,0.600738656 L0.855854918,3.74638344 L4.34894911,6.89202822 C4.49179769,7.02148475 4.50370174,7.24170965 4.37498922,7.38455823 Z" id="路径"></path>
                        </g>
                    </g>
                </g>
                <g id="放大" transform="translate(6.000000, 6.000000)">
                    <rect id="矩形" fill-opacity="0.04" fill="#000000" x="0" y="0" width="32" height="32" rx="3"></rect>
                    <g id="icon" transform="translate(9.000000, 16.000000)" stroke="#000000" stroke-opacity="0.85">
                        <rect id="矩形" x="0.5" y="0.5" width="13" height="1"></rect>
                    </g>
                </g>
            </g>
            <g id="编组-4" transform="translate(255.000000, 318.000000)">
                <g id="编组-3">
                    <g id="融合表">
                        <g id="表头" transform="translate(12.000000, 0.000000)">
                            <path d="M3,0 L297,0 C298.656854,-3.04359188e-16 300,1.34314575 300,3 L300,74 L300,74 L0,74 L0,3 C-2.02906125e-16,1.34314575 1.34314575,3.04359188e-16 3,0 Z" id="矩形" fill="#FFFFFF"></path>
                            <path d="M0,75 L300,75 L300,556 C300,558.209139 298.209139,560 296,560 L4,560 C1.790861,560 -1.73547709e-16,558.209139 0,556 L0,75 L0,75 Z" id="矩形" fill="#FAFBFC"></path>
                            <line x1="0.5" y1="74.5" x2="300.5" y2="74.5" id="直线-2" stroke-opacity="0.05" stroke="#000000" stroke-linecap="square"></line>
                            <g id="表面性icon" transform="translate(16.000000, 17.000000)">
                                <g id="icon" transform="translate(0.000000, 1.000000)"></g>
                                <g id="biaodanzujian-biaoge" transform="translate(1.442649, 3.420455)" fill="#FAFAFA" fill-rule="nonzero">
                                    <polygon id="路径" points="17.0454545 0 17.0454545 2.49005682 0 2.49005682 0 0"></polygon>
                                </g>
                            </g>
                            <text id="财务凭证扩展信息表" font-family="PingFangSC-Medium, PingFang SC" font-size="16" font-weight="400" fill="#000000" fill-opacity="0.85">
                                <tspan x="16" y="29">财务凭证扩展信息表</tspan>
                            </text>
                            <text id="会计核算系统" font-family="PingFangSC-Regular, PingFang SC" font-size="14" font-weight="normal" line-spacing="22" fill="#000000" fill-opacity="0.65">
                                <tspan x="40" y="57">会计核算系统</tspan>
                            </text>
                            <text id="12-字段" font-family="PingFangSC-Regular, PingFang SC" font-size="12" font-weight="normal" fill="#3A8FF0">
                                <tspan x="13" y="96">12 字段</tspan>
                            </text>
                            <text id="展开更多" font-family="PingFangSC-Regular, PingFang SC" font-size="12" font-weight="normal" line-spacing="20" fill="#3A8FF0">
                                <tspan x="12" y="547">展开更多</tspan>
                            </text>
                        </g>
                        <rect id="矩形" stroke-opacity="0.08" stroke="#000000" x="12.5" y="0.5" width="300" height="561" rx="4"></rect>
                        <circle id="椭圆形" stroke-opacity="0.1" stroke="#000000" fill="#FFFFFF" cx="12" cy="36" r="11.5"></circle>
                        <path d="M17.4960086,36.5000134 L6.55350087,36.5000134 C6.27748959,36.5000134 6.05348744,36.2760113 6.05348744,36 C6.05348744,35.7239887 6.27748959,35.4999866 6.55350087,35.4999866 L17.4960086,35.4999866 C17.7725037,35.4999866 17.9959952,35.7239887 17.9959952,36 C17.9959952,36.2760113 17.7725037,36.5000134 17.4960086,36.5000134 Z" id="路径" fill="#575B66" fill-rule="nonzero"></path>
                    </g>
                    <g id="搜索" transform="translate(277.000000, 27.000000)" fill="#000000" fill-opacity="0.65">
                        <path d="M16.8178786,4.06077103 L13.6284189,7.24619487 C14.4674227,8.27585824 14.9702024,9.58860127 14.9702024,11.0195534 C14.9702024,14.3231863 12.2913053,17 8.98510118,17 C5.67889704,17 3,14.3231863 3,11.0195534 C3,7.71592045 5.67889704,5.03910677 8.98510118,5.03910677 C10.4109406,5.03910677 11.7200356,5.53682924 12.7473871,6.368959 L15.9368468,3.18197978 C16.0582611,3.06065993 16.2170336,3 16.3773627,3 C16.5361352,3 16.6964643,3.06065993 16.8178786,3.18197978 C17.0607071,3.42461949 17.0607071,3.81813132 16.8178786,4.06077103 L16.8178786,4.06077103 Z M10.8779186,6.54005111 C10.2786302,6.28652372 9.64198354,6.15898234 8.98510118,6.15898234 C8.32821881,6.15898234 7.69157216,6.2880791 7.09228374,6.54005111 C6.51323104,6.78424619 5.99332889,7.13576269 5.54503002,7.58215754 C5.09828775,8.02855238 4.74649767,8.5496056 4.50211252,9.12820798 C4.24838781,9.72703033 4.12074716,10.3631819 4.12074716,11.0195534 C4.12074716,11.6759249 4.24994441,12.3120764 4.50211252,12.9108988 C4.74649767,13.4895012 5.09828775,14.008999 5.54503002,14.4569492 C5.99177229,14.9033441 6.51323104,15.2548606 7.09228374,15.4990557 C7.69157216,15.752583 8.32821881,15.8801244 8.98510118,15.8801244 C9.64198354,15.8801244 10.2786302,15.7510277 10.8779186,15.4990557 C11.4569713,15.2548606 11.9768735,14.9033441 12.4251723,14.4569492 C12.8719146,14.0105544 13.2237047,13.4910565 13.4680898,12.9108988 C13.7218145,12.3120764 13.8494552,11.6759249 13.8494552,11.0195534 C13.8494552,10.3631819 13.7202579,9.72703033 13.4680898,9.12820798 C13.2237047,8.5496056 12.8719146,8.03010777 12.4251723,7.58215754 C11.9768735,7.13576269 11.4569713,6.78580158 10.8779186,6.54005111 L10.8779186,6.54005111 Z" id="Shape" transform="translate(10.000000, 10.000000) scale(1, -1) translate(-10.000000, -10.000000) "></path>
                    </g>
                    <g id="通用/Icon图标/Line/Down" transform="translate(72.750000, 87.500000)" fill="#3A8FF0" fill-rule="nonzero">
                        <g id="路径">
                            <path d="M10.2814236,0 L9.25603294,0 C9.186306,0 9.12068081,0.0341796875 9.07966518,0.0902343765 L5.19548559,5.44414043 L1.311306,0.0902343765 C1.27029037,0.0341796875 1.2046653,0 1.13493884,0 L0.109548159,0 C0.0206809714,0 -0.0312721543,0.101171874 0.0206809714,0.173632815 L4.84138393,6.81953144 C5.01638412,7.06015635 5.37458706,7.06015635 5.54822016,6.81953144 L10.3689232,0.173632815 C10.4222431,0.101171874 10.3702908,0 10.2814236,0 Z" transform="translate(5.195227, 3.500000) scale(1, -1) translate(-5.195227, -3.500000) "></path>
                        </g>
                    </g>
                </g>
                <rect id="矩形" stroke-opacity="0.05" stroke="#000000" fill="#FFFFFF" x="24.5" y="107.5" width="275" height="420" rx="8"></rect>
                <g id="字段" transform="translate(24.000000, 85.000000)">
                    <rect id="矩形" fill-opacity="0.05" fill="#000000" x="0.734042553" y="64" width="274.531915" height="1"></rect>
                    <path d="M268,23.5 C270.071068,23.5 271.946068,24.3394661 273.303301,25.6966991 C274.660534,27.0539322 275.5,28.9289322 275.5,31 L275.5,31 L275.5,64.5 L0.5,64.5 L0.5,31 C0.5,28.9289322 1.33946609,27.0539322 2.69669914,25.6966991 C4.05393219,24.3394661 5.92893219,23.5 8,23.5 L8,23.5 Z" id="矩形" stroke="#3A8FF0" opacity="0.6"></path>
                    <g id="字段" transform="translate(466.734043, 0.000000)">
                        <rect id="矩形" fill-opacity="0.05" fill="#000000" x="0" y="41" width="274.531915" height="1"></rect>
                        <rect id="矩形" x="58.2659574" y="0" width="217" height="42"></rect>
                    </g>
                    <text id="凭证类型" font-family="PingFangSC-Regular, PingFang SC" font-size="14" font-weight="normal" line-spacing="22" fill="#3A8FF0">
                        <tspan x="15" y="48">凭证类型</tspan>
                    </text>
                </g>
                <g id="字段" transform="translate(24.000000, 192.000000)">
                    <rect id="矩形" fill-opacity="0.05" fill="#000000" x="0.734042553" y="42" width="274.531915" height="1"></rect>
                    <rect id="矩形" x="0" y="0" width="276" height="42"></rect>
                    <text id="制单日期" font-family="PingFangSC-Regular, PingFang SC" font-size="14" font-weight="normal" line-spacing="22" fill="#000000" fill-opacity="0.65">
                        <tspan x="15" y="25">制单日期</tspan>
                    </text>
                </g>
                <g id="字段" transform="translate(24.000000, 150.000000)">
                    <rect id="矩形" fill-opacity="0.05" fill="#000000" x="0.734042553" y="42" width="274.531915" height="1"></rect>
                    <rect id="矩形" opacity="0.6" x="0" y="0" width="276" height="42"></rect>
                    <text id="数量单位" font-family="PingFangSC-Regular, PingFang SC" font-size="14" font-weight="normal" line-spacing="22" fill="#000000" fill-opacity="0.65">
                        <tspan x="15" y="235">数量单位</tspan>
                    </text>
                </g>
                <g id="字段" transform="translate(24.000000, 234.000000)">
                    <rect id="矩形" fill-opacity="0.05" fill="#000000" x="0.734042553" y="42" width="274.531915" height="1"></rect>
                    <rect id="矩形" x="0" y="0" width="276" height="42"></rect>
                    <text id="审核日期" font-family="PingFangSC-Regular, PingFang SC" font-size="14" font-weight="normal" line-spacing="22" fill="#000000" fill-opacity="0.65">
                        <tspan x="15" y="25">审核日期</tspan>
                    </text>
                </g>
                <g id="字段" transform="translate(24.000000, 276.000000)">
                    <rect id="矩形" fill-opacity="0.05" fill="#000000" x="0.734042553" y="42" width="274.531915" height="1"></rect>
                    <rect id="矩形" x="0" y="0" width="276" height="42"></rect>
                    <text id="附单据数" font-family="PingFangSC-Regular, PingFang SC" font-size="14" font-weight="normal" line-spacing="22" fill="#000000" fill-opacity="0.65">
                        <tspan x="15" y="25">附单据数</tspan>
                    </text>
                </g>
                <g id="字段" transform="translate(24.400000, 149.000000)">
                    <rect id="矩形" fill-opacity="0.05" fill="#000000" x="0.334042553" y="253" width="274.531915" height="1"></rect>
                    <polyline id="路径" stroke="#3A8FF0" opacity="0.6" points="275 0 275 44 0 44 0 0"></polyline>
                    <text id="凭证编号" font-family="PingFangSC-Regular, PingFang SC" font-size="14" font-weight="normal" line-spacing="22" fill="#3A8FF0">
                        <tspan x="14.6" y="25.4761905">凭证编号  </tspan>
                    </text>
                </g>
                <g id="字段" transform="translate(24.000000, 444.000000)">
                    <rect id="矩形" fill-opacity="0.05" fill="#000000" x="0.734042553" y="42" width="274.531915" height="1"></rect>
                    <rect id="矩形" x="0" y="0" width="276" height="42"></rect>
                    <text id="审核人" font-family="PingFangSC-Regular, PingFang SC" font-size="14" font-weight="normal" line-spacing="22" fill="#000000" fill-opacity="0.65">
                        <tspan x="15" y="25">审核人</tspan>
                    </text>
                </g>
                <g id="字段" transform="translate(24.000000, 318.000000)" fill="#000000">
                    <rect id="矩形" fill-opacity="0.05" x="0.734042553" y="41" width="274.531915" height="1"></rect>
                    <text id="票号日期" font-family="PingFangSC-Regular, PingFang SC" font-size="14" font-weight="normal" line-spacing="22" fill-opacity="0.65">
                        <tspan x="15" y="25">票号日期   </tspan>
                    </text>
                </g>
                <g id="字段" transform="translate(24.000000, 402.000000)">
                    <rect id="矩形" fill-opacity="0.05" fill="#000000" x="0.734042553" y="42" width="274.531915" height="1"></rect>
                    <rect id="矩形" x="0" y="0" width="276" height="42"></rect>
                    <text id="修改人" font-family="PingFangSC-Regular, PingFang SC" font-size="14" font-weight="normal" line-spacing="22" fill="#000000" fill-opacity="0.65">
                        <tspan x="15" y="25">修改人</tspan>
                    </text>
                </g>
                <g id="字段" transform="translate(24.000000, 486.000000)">
                    <rect id="矩形" x="0" y="0" width="276" height="42"></rect>
                    <text id="出纳人" font-family="PingFangSC-Regular, PingFang SC" font-size="14" font-weight="normal" line-spacing="22" fill="#000000" fill-opacity="0.65">
                        <tspan x="15" y="25">出纳人 </tspan>
                    </text>
                </g>
            </g>
            <g id="业务系统" transform="translate(283.000000, 363.000000)" fill="#000000" fill-rule="nonzero">
                <rect id="矩形" opacity="0" x="0" y="0" width="16" height="16"></rect>
                <path d="M15.015625,12.3482187 L15.015625,1.125 L0.96875,1.125 L0.96875,12.3482187 L7.52395313,12.3482187 L7.52395313,13.2834844 L4.71457813,13.2834844 L4.71457813,14.21875 L11.2697969,14.21875 L11.2697969,13.2834844 L8.46042188,13.2834844 L8.46042188,12.3482188 L15.015625,12.3482187 Z M1.90520312,2.06026563 L14.0791719,2.06026563 L14.0791719,9.54240625 L1.90520312,9.54240625 L1.90520312,2.06026563 Z M1.90520312,11.4129531 L1.90520312,10.4776563 L14.0791719,10.4776563 L14.0791719,11.4129375 L1.90520312,11.4129375 L1.90520312,11.4129531 Z" id="形状" fill-opacity="0.65"></path>
            </g>
            <g id="编组-4" transform="translate(254.000000, 909.000000)">
                <g id="编组-3">
                    <g id="融合表">
                        <g id="表头" transform="translate(12.000000, 0.000000)">
                            <path d="M3,0 L297,0 C298.656854,-3.04359188e-16 300,1.34314575 300,3 L300,74 L300,74 L0,74 L0,3 C-2.02906125e-16,1.34314575 1.34314575,3.04359188e-16 3,0 Z" id="矩形" fill="#FFFFFF"></path>
                            <g id="业务系统" transform="translate(16.000000, 45.000000)" fill="#000000" fill-rule="nonzero">
                                <rect id="矩形" opacity="0" x="0" y="0" width="16" height="16"></rect>
                                <path d="M15.015625,12.3482187 L15.015625,1.125 L0.96875,1.125 L0.96875,12.3482187 L7.52395313,12.3482187 L7.52395313,13.2834844 L4.71457813,13.2834844 L4.71457813,14.21875 L11.2697969,14.21875 L11.2697969,13.2834844 L8.46042188,13.2834844 L8.46042188,12.3482188 L15.015625,12.3482187 Z M1.90520312,2.06026563 L14.0791719,2.06026563 L14.0791719,9.54240625 L1.90520312,9.54240625 L1.90520312,2.06026563 Z M1.90520312,11.4129531 L1.90520312,10.4776563 L14.0791719,10.4776563 L14.0791719,11.4129375 L1.90520312,11.4129375 L1.90520312,11.4129531 Z" id="形状" fill-opacity="0.65"></path>
                            </g>
                            <path d="M0,75 L300,75 L300,162 C300,164.209139 298.209139,166 296,166 L4,166 C1.790861,166 2.705415e-16,164.209139 0,162 L0,75 L0,75 Z" id="矩形" fill="#FAFBFC"></path>
                            <line x1="0.5" y1="74.5" x2="300.5" y2="74.5" id="直线-2" stroke-opacity="0.05" stroke="#000000" stroke-linecap="square"></line>
                            <g id="表面性icon" transform="translate(16.000000, 17.000000)">
                                <g id="icon" transform="translate(0.000000, 1.000000)"></g>
                                <g id="biaodanzujian-biaoge" transform="translate(1.442649, 3.420455)" fill="#FAFAFA" fill-rule="nonzero">
                                    <polygon id="路径" points="17.0454545 0 17.0454545 2.49005682 0 2.49005682 0 0"></polygon>
                                </g>
                            </g>
                            <text id="财务凭证" font-family="PingFangSC-Medium, PingFang SC" font-size="16" font-weight="400" fill="#000000" fill-opacity="0.85">
                                <tspan x="16" y="29">财务凭证</tspan>
                            </text>
                            <text id="主数据管理系统" font-family="PingFangSC-Regular, PingFang SC" font-size="14" font-weight="normal" line-spacing="22" fill="#000000" fill-opacity="0.65">
                                <tspan x="40" y="57">主数据管理系统</tspan>
                            </text>
                            <text id="1-字段" font-family="PingFangSC-Regular, PingFang SC" font-size="12" font-weight="normal" fill="#3A8FF0">
                                <tspan x="13" y="96">1 字段</tspan>
                            </text>
                        </g>
                        <rect id="矩形" stroke-opacity="0.08" stroke="#000000" x="12.5" y="0.5" width="300" height="165" rx="4"></rect>
                        <circle id="椭圆形" stroke-opacity="0.1" stroke="#000000" fill="#FFFFFF" cx="12" cy="36" r="11.5"></circle>
                        <path d="M17.4425212,36.0000269 L6.50001344,36.0000269 C6.22400216,36.0000269 6,35.7760247 6,35.5000134 C6,35.2240022 6.22400216,35 6.50001344,35 L17.4425212,35 C17.7190163,35 17.9425077,35.2240022 17.9425077,35.5000134 C17.9425077,35.7760247 17.7190163,36.0000269 17.4425212,36.0000269 Z" id="路径" fill="#575B66" fill-rule="nonzero"></path>
                    </g>
                    <g id="搜索" transform="translate(277.000000, 27.000000)" fill="#000000" fill-opacity="0.65">
                        <path d="M16.8178786,4.06077103 L13.6284189,7.24619487 C14.4674227,8.27585824 14.9702024,9.58860127 14.9702024,11.0195534 C14.9702024,14.3231863 12.2913053,17 8.98510118,17 C5.67889704,17 3,14.3231863 3,11.0195534 C3,7.71592045 5.67889704,5.03910677 8.98510118,5.03910677 C10.4109406,5.03910677 11.7200356,5.53682924 12.7473871,6.368959 L15.9368468,3.18197978 C16.0582611,3.06065993 16.2170336,3 16.3773627,3 C16.5361352,3 16.6964643,3.06065993 16.8178786,3.18197978 C17.0607071,3.42461949 17.0607071,3.81813132 16.8178786,4.06077103 L16.8178786,4.06077103 Z M10.8779186,6.54005111 C10.2786302,6.28652372 9.64198354,6.15898234 8.98510118,6.15898234 C8.32821881,6.15898234 7.69157216,6.2880791 7.09228374,6.54005111 C6.51323104,6.78424619 5.99332889,7.13576269 5.54503002,7.58215754 C5.09828775,8.02855238 4.74649767,8.5496056 4.50211252,9.12820798 C4.24838781,9.72703033 4.12074716,10.3631819 4.12074716,11.0195534 C4.12074716,11.6759249 4.24994441,12.3120764 4.50211252,12.9108988 C4.74649767,13.4895012 5.09828775,14.008999 5.54503002,14.4569492 C5.99177229,14.9033441 6.51323104,15.2548606 7.09228374,15.4990557 C7.69157216,15.752583 8.32821881,15.8801244 8.98510118,15.8801244 C9.64198354,15.8801244 10.2786302,15.7510277 10.8779186,15.4990557 C11.4569713,15.2548606 11.9768735,14.9033441 12.4251723,14.4569492 C12.8719146,14.0105544 13.2237047,13.4910565 13.4680898,12.9108988 C13.7218145,12.3120764 13.8494552,11.6759249 13.8494552,11.0195534 C13.8494552,10.3631819 13.7202579,9.72703033 13.4680898,9.12820798 C13.2237047,8.5496056 12.8719146,8.03010777 12.4251723,7.58215754 C11.9768735,7.13576269 11.4569713,6.78580158 10.8779186,6.54005111 L10.8779186,6.54005111 Z" id="Shape" transform="translate(10.000000, 10.000000) scale(1, -1) translate(-10.000000, -10.000000) "></path>
                    </g>
                    <g id="通用/Icon图标/Line/Down" transform="translate(72.750000, 87.500000)" fill="#3A8FF0" fill-rule="nonzero">
                        <g id="路径">
                            <path d="M10.2814236,0 L9.25603294,0 C9.186306,0 9.12068081,0.0341796875 9.07966518,0.0902343765 L5.19548559,5.44414043 L1.311306,0.0902343765 C1.27029037,0.0341796875 1.2046653,0 1.13493884,0 L0.109548159,0 C0.0206809714,0 -0.0312721543,0.101171874 0.0206809714,0.173632815 L4.84138393,6.81953144 C5.01638412,7.06015635 5.37458706,7.06015635 5.54822016,6.81953144 L10.3689232,0.173632815 C10.4222431,0.101171874 10.3702908,0 10.2814236,0 Z" transform="translate(5.195227, 3.500000) scale(1, -1) translate(-5.195227, -3.500000) "></path>
                        </g>
                    </g>
                </g>
                <rect id="矩形" stroke="#3A8FF0" opacity="0.6" x="25.5" y="108.5" width="275" height="41"></rect>
                <text id="制单日期" font-family="PingFangSC-Regular, PingFang SC" font-size="14" font-weight="normal" line-spacing="22" fill="#3A8FF0">
                    <tspan x="40" y="133">制单日期</tspan>
                </text>
            </g>
            <g id="编组-4" transform="translate(1148.000000, 323.000000)">
                <g id="编组-3">
                    <g id="融合表">
                        <g id="表头" transform="translate(12.000000, 0.000000)">
                            <path d="M3,0 L196.335548,0 C197.992402,-7.48448398e-16 199.335548,1.34314575 199.335548,3 L199.335548,54 L199.335548,54 L0,54 L0,3 C-6.46995335e-16,1.34314575 1.34314575,-1.39730022e-16 3,0 Z" id="矩形" fill="#FFFFFF"></path>
                            <g id="表面性icon" transform="translate(16.000000, 8.000000)">
                                <g id="icon" transform="translate(0.000000, 1.000000)"></g>
                                <g id="biaodanzujian-biaoge" transform="translate(1.442649, 3.420455)" fill="#FAFAFA" fill-rule="nonzero">
                                    <polygon id="路径" points="17.0454545 0 17.0454545 2.49005682 0 2.49005682 0 0"></polygon>
                                </g>
                            </g>
                            <text id="L3-财务凭证" font-family="PingFangSC-Medium, PingFang SC" font-size="16" font-weight="400" fill="#000000" fill-opacity="0.85">
                                <tspan x="16" y="33"> L3 财务凭证</tspan>
                            </text>
                        </g>
                        <rect id="矩形" stroke-opacity="0.08" stroke="#000000" x="12.5" y="0.5" width="199" height="54" rx="4"></rect>
                        <circle id="椭圆形" stroke-opacity="0.1" stroke="#000000" fill="#FFFFFF" cx="12" cy="27" r="11.5"></circle>
                        <path d="M17.4960086,27.5000134 L6.55350087,27.5000134 C6.27748959,27.5000134 6.05348744,27.2760113 6.05348744,27 C6.05348744,26.7239887 6.27748959,26.4999866 6.55350087,26.4999866 L17.4960086,26.4999866 C17.7725037,26.4999866 17.9959952,26.7239887 17.9959952,27 C17.9959952,27.2760113 17.7725037,27.5000134 17.4960086,27.5000134 Z" id="路径" fill="#575B66" fill-rule="nonzero"></path>
                        <path d="M277,1 L470.335548,1 C471.992402,1 473.335548,2.34314575 473.335548,4 L473.335548,55 L473.335548,55 L274,55 L274,4 C274,2.34314575 275.343146,1 277,1 Z" id="矩形" fill="#FFFFFF"></path>
                        <text id="L2-管理核算及报告" font-family="PingFangSC-Medium, PingFang SC" font-size="16" font-weight="400" fill="#000000" fill-opacity="0.85">
                            <tspan x="290" y="34"> L2 管理核算及报告</tspan>
                        </text>
                        <circle id="椭圆形" stroke-opacity="0.1" stroke="#000000" fill="#FFFFFF" cx="274" cy="28" r="11.5"></circle>
                        <path d="M279.442521,28.0000269 L268.500013,28.0000269 C268.224002,28.0000269 268,27.7760247 268,27.5000134 C268,27.2240022 268.224002,27 268.500013,27 L279.442521,27 C279.719016,27 279.942508,27.2240022 279.942508,27.5000134 C279.942508,27.7760247 279.719016,28.0000269 279.442521,28.0000269 Z" id="路径" fill="#575B66" fill-rule="nonzero"></path>
                    </g>
                    <g id="搜索" transform="translate(277.000000, 8.000000)"></g>
                </g>
                <g id="字段" transform="translate(24.734043, 140.000000)"></g>
                <g id="字段" transform="translate(24.734043, 183.000000)"></g>
            </g>
            <g id="表单" transform="translate(1262.450432, 310.837838)"></g>
            <path id="路径-2" d="M715.785638,346.769986 L724.790658,351.259932 L715.79569,355.769981 L715.791,351.77 L568.61174,351.934355 L568.610623,350.934355 L715.789,350.77 L715.785638,346.769986 Z" transform="translate(646.384072, 350.967178) scale(1, -1) translate(-646.384072, -350.967178) " fill-opacity="0.25" fill="#000000" fill-rule="nonzero"></path>
            <path id="路径-2" d="M1138.95586,345.690909 L1147.99998,350.101584 L1139.04497,354.690468 L1138.95586,345.690909 Z M1050.49485,350.566957 L1050.50475,351.566908 L1046.50495,351.60651 L1046.49505,350.606559 L1050.49485,350.566957 Z M1058.49446,350.487753 L1058.50436,351.487704 L1054.50456,351.527306 L1054.49466,350.527355 L1058.49446,350.487753 Z M1066.49407,350.408548 L1066.50397,351.408499 L1062.50417,351.448102 L1062.49427,350.448151 L1066.49407,350.408548 Z M1074.49368,350.329344 L1074.50358,351.329295 L1070.50377,351.368897 L1070.49387,350.368946 L1074.49368,350.329344 Z M1082.49329,350.25014 L1082.50319,351.250091 L1078.50338,351.289693 L1078.49348,350.289742 L1082.49329,350.25014 Z M1090.49289,350.170936 L1090.50279,351.170887 L1086.50299,351.210489 L1086.49309,350.210538 L1090.49289,350.170936 Z M1098.4925,350.091732 L1098.5024,351.091683 L1094.5026,351.131285 L1094.4927,350.131334 L1098.4925,350.091732 Z M1106.49211,350.012528 L1106.50201,351.012479 L1102.50221,351.052081 L1102.49231,350.05213 L1106.49211,350.012528 Z M1114.49172,349.933324 L1114.50162,350.933275 L1110.50181,350.972877 L1110.49191,349.972926 L1114.49172,349.933324 Z M1122.49132,349.85412 L1122.50123,350.854071 L1118.50142,350.893673 L1118.49152,349.893722 L1122.49132,349.85412 Z M1130.49093,349.774916 L1130.50083,350.774867 L1126.50103,350.814469 L1126.49113,349.814518 L1130.49093,349.774916 Z M1138.49054,349.695712 L1138.50044,350.695663 L1134.50064,350.735265 L1134.49074,349.735314 L1138.49054,349.695712 Z" transform="translate(1097.000000, 350.803267) scale(-1, -1) translate(-1097.000000, -350.803267) " fill="#3A8FF0" fill-rule="nonzero"></path>
            <path id="路径-2" d="M1401.08809,346.443935 L1409.99991,351.116148 L1400.91505,355.442271 L1400.992,351.443 L1397.48299,351.37553 L1397.50222,350.375715 L1401.011,350.443 L1401.08809,346.443935 Z M1389.5037,350.221897 L1393.50296,350.298806 L1393.48373,351.298621 L1389.48447,351.221713 L1389.5037,350.221897 Z M1381.50518,350.06808 L1385.50444,350.144989 L1385.48521,351.144804 L1381.48595,351.067895 L1381.50518,350.06808 Z M1373.50666,349.914262 L1377.50592,349.991171 L1377.48669,350.990986 L1373.48743,350.914077 L1373.50666,349.914262 Z M1365.50813,349.760444 L1369.5074,349.837353 L1369.48817,350.837168 L1365.48891,350.760259 L1365.50813,349.760444 Z M1357.50961,349.606627 L1361.50887,349.683535 L1361.48965,350.683351 L1357.49039,350.606442 L1357.50961,349.606627 Z" transform="translate(1383.500000, 350.803267) scale(-1, -1) translate(-1383.500000, -350.803267) " fill="#3A8FF0" fill-rule="nonzero"></path>
            <path d="M1689,324 L1882.33555,324 C1883.9924,324 1885.33555,325.343146 1885.33555,327 L1885.33555,378 L1885.33555,378 L1686,378 L1686,327 C1686,325.343146 1687.34315,324 1689,324 Z" id="矩形" fill="#FFFFFF"></path>
            <text id="L1-财务" font-family="PingFangSC-Medium, PingFang SC" font-size="16" font-weight="400" fill="#000000" fill-opacity="0.85">
                <tspan x="1702" y="357">L1 财务</tspan>
            </text>
            <circle id="椭圆形" stroke-opacity="0.1" stroke="#000000" fill="#FFFFFF" cx="1686" cy="351" r="11.5"></circle>
            <path d="M1691.44252,351.000027 L1680.50001,351.000027 C1680.224,351.000027 1680,350.776025 1680,350.500013 C1680,350.224002 1680.224,350 1680.50001,350 L1691.44252,350 C1691.71902,350 1691.94251,350.224002 1691.94251,350.500013 C1691.94251,350.776025 1691.71902,351.000027 1691.44252,351.000027 Z" id="路径" fill="#575B66" fill-rule="nonzero"></path>
            <path d="M837,581 L1030.33555,581 C1031.9924,581 1033.33555,582.343146 1033.33555,584 L1033.33555,635 L1033.33555,635 L834,635 L834,584 C834,582.343146 835.343146,581 837,581 Z" id="矩形" fill="#FFFFFF"></path>
            <text id="财务凭证基本信息实体" font-family="PingFangSC-Medium, PingFang SC" font-size="16" font-weight="400" fill="#000000" fill-opacity="0.85">
                <tspan x="850" y="614">财务凭证基本信息实体</tspan>
            </text>
            <circle id="椭圆形" stroke-opacity="0.1" stroke="#000000" fill="#FFFFFF" cx="1035" cy="608" r="11.5"></circle>
            <path d="M1040.49601,608.500013 L1029.5535,608.500013 C1029.27749,608.500013 1029.05349,608.276011 1029.05349,608 C1029.05349,607.723989 1029.27749,607.499987 1029.5535,607.499987 L1040.49601,607.499987 C1040.7725,607.499987 1040.996,607.723989 1040.996,608 C1040.996,608.276011 1040.7725,608.500013 1040.49601,608.500013 Z" id="路径" fill="#575B66" fill-rule="nonzero"></path>
            <path d="M837,671 L1030.33555,671 C1031.9924,671 1033.33555,672.343146 1033.33555,674 L1033.33555,725 L1033.33555,725 L834,725 L834,674 C834,672.343146 835.343146,671 837,671 Z" id="矩形" fill="#FFFFFF"></path>
            <text id="财务凭证扩展信息实体" font-family="PingFangSC-Medium, PingFang SC" font-size="16" font-weight="400" fill="#000000" fill-opacity="0.85">
                <tspan x="850" y="704">财务凭证扩展信息实体</tspan>
            </text>
            <circle id="椭圆形" stroke-opacity="0.1" stroke="#000000" fill="#FFFFFF" cx="1035" cy="698" r="11.5"></circle>
            <path d="M1040.49601,698.500013 L1029.5535,698.500013 C1029.27749,698.500013 1029.05349,698.276011 1029.05349,698 C1029.05349,697.723989 1029.27749,697.499987 1029.5535,697.499987 L1040.49601,697.499987 C1040.7725,697.499987 1040.996,697.723989 1040.996,698 C1040.996,698.276011 1040.7725,698.500013 1040.49601,698.500013 Z" id="路径" fill="#575B66" fill-rule="nonzero"></path>
            <path id="路径-2" d="M1665.08809,346.443935 L1673.99991,351.116148 L1664.91505,355.442271 L1664.992,351.443 L1661.48299,351.37553 L1661.50222,350.375715 L1665.011,350.443 L1665.08809,346.443935 Z M1653.5037,350.221897 L1657.50296,350.298806 L1657.48373,351.298621 L1653.48447,351.221713 L1653.5037,350.221897 Z M1645.50518,350.06808 L1649.50444,350.144989 L1649.48521,351.144804 L1645.48595,351.067895 L1645.50518,350.06808 Z M1637.50666,349.914262 L1641.50592,349.991171 L1641.48669,350.990986 L1637.48743,350.914077 L1637.50666,349.914262 Z M1629.50813,349.760444 L1633.5074,349.837353 L1633.48817,350.837168 L1629.48891,350.760259 L1629.50813,349.760444 Z M1621.50961,349.606627 L1625.50887,349.683535 L1625.48965,350.683351 L1621.49039,350.606442 L1621.50961,349.606627 Z" transform="translate(1647.500000, 350.803267) scale(-1, -1) translate(-1647.500000, -350.803267) " fill="#3A8FF0" fill-rule="nonzero"></path>
            <g id="编组-13" transform="translate(722.000000, 294.000000)">
                <g id="编组-3">
                    <g id="表头" transform="translate(11.000000, 0.000000)">
                        <path d="M3,21 L297,21 C298.656854,21 300,22.3431458 300,24 L300,75 L300,75 L0,75 L0,24 C-2.02906125e-16,22.3431458 1.34314575,21 3,21 Z" id="矩形" fill="#FFFFFF"></path>
                        <path d="M0,25 L0,3.7037037 C0,1.65820463 1.790861,0 4,0 L66,0 C68.209139,0 70,1.65820463 70,3.7037037 C70,11.5430406 70,17.4225433 70,21.3422118" id="路径" stroke="#3A8FF0" stroke-width="1.5" fill="#FFFFFF"></path>
                        <path d="M0,76 L300,76 L300,249 C300,251.209139 298.209139,253 296,253 L4,253 C1.790861,253 2.705415e-16,251.209139 0,249 L0,76 L0,76 Z" id="矩形" fill="#FAFBFC"></path>
                        <path d="M69.3381331,21 C119.697155,21 196.281957,21 297,21 C298.656854,21 300,22.2316593 300,23.7509881 L300,249.332016 C300,251.357788 298.209139,253 296,253 L4,253 C1.790861,253 0,251.357788 0,249.332016 L0,23.7509881" id="路径" stroke="#3A8FF0" stroke-width="1.5"></path>
                        <line x1="0.5" y1="75.5" x2="300.5" y2="75.5" id="直线-2" stroke-opacity="0.05" stroke="#000000" stroke-linecap="square"></line>
                        <g id="表面性icon" transform="translate(16.000000, 38.000000)">
                            <g id="icon" transform="translate(0.000000, 1.000000)"></g>
                            <g id="biaodanzujian-biaoge" transform="translate(1.442649, 3.420455)" fill="#FAFAFA" fill-rule="nonzero">
                                <polygon id="路径" points="17.0454545 0 17.0454545 2.49005682 0 2.49005682 0 0"></polygon>
                            </g>
                        </g>
                        <text id="财务凭证头实体" font-family="PingFangSC-Medium, PingFang SC" font-size="16" font-weight="400" fill="#000000" fill-opacity="0.85">
                            <tspan x="16" y="54">财务凭证头实体</tspan>
                        </text>
                        <text id="3-字段" font-family="PingFangSC-Regular, PingFang SC" font-size="12" font-weight="normal" fill="#3A8FF0">
                            <tspan x="13" y="97">3 字段</tspan>
                        </text>
                    </g>
                    <g id="编组-6" transform="translate(0.000000, 45.000000)">
                        <circle id="椭圆形" stroke="#3A8FF0" fill="#FFFFFF" cx="12" cy="12" r="11.5"></circle>
                        <g id="减号" transform="translate(4.000000, 0.000000)">
                            <rect id="矩形" fill="#000000" fill-rule="nonzero" opacity="0" x="0" y="4" width="16" height="16"></rect>
                            <path d="M13.4960086,12.5000134 L2.55350087,12.5000134 C2.27748959,12.5000134 2.05348744,12.2760113 2.05348744,12 C2.05348744,11.7239887 2.27748959,11.4999866 2.55350087,11.4999866 L13.4960086,11.4999866 C13.7725037,11.4999866 13.9959952,11.7239887 13.9959952,12 C13.9959952,12.2760113 13.7725037,12.5000134 13.4960086,12.5000134 Z" id="路径" fill="#575B66" fill-rule="nonzero"></path>
                            <circle id="椭圆形" stroke="#3A8FF0" fill="#FFFFFF" cx="308" cy="12" r="11.5"></circle>
                            <path d="M313.496009,12.5000134 L302.553501,12.5000134 C302.27749,12.5000134 302.053487,12.2760113 302.053487,12 C302.053487,11.7239887 302.27749,11.4999866 302.553501,11.4999866 L313.496009,11.4999866 C313.772504,11.4999866 313.995995,11.7239887 313.995995,12 C313.995995,12.2760113 313.772504,12.5000134 313.496009,12.5000134 Z" id="路径" fill="#575B66" fill-rule="nonzero"></path>
                        </g>
                    </g>
                    <rect id="矩形" fill="#000000" fill-rule="nonzero" opacity="0" x="124" y="65" width="16" height="16"></rect>
                    <g id="搜索" transform="translate(276.000000, 47.000000)" fill="#000000" fill-opacity="0.65">
                        <path d="M16.8178786,4.06077103 L13.6284189,7.24619487 C14.4674227,8.27585824 14.9702024,9.58860127 14.9702024,11.0195534 C14.9702024,14.3231863 12.2913053,17 8.98510118,17 C5.67889704,17 3,14.3231863 3,11.0195534 C3,7.71592045 5.67889704,5.03910677 8.98510118,5.03910677 C10.4109406,5.03910677 11.7200356,5.53682924 12.7473871,6.368959 L15.9368468,3.18197978 C16.0582611,3.06065993 16.2170336,3 16.3773627,3 C16.5361352,3 16.6964643,3.06065993 16.8178786,3.18197978 C17.0607071,3.42461949 17.0607071,3.81813132 16.8178786,4.06077103 L16.8178786,4.06077103 Z M10.8779186,6.54005111 C10.2786302,6.28652372 9.64198354,6.15898234 8.98510118,6.15898234 C8.32821881,6.15898234 7.69157216,6.2880791 7.09228374,6.54005111 C6.51323104,6.78424619 5.99332889,7.13576269 5.54503002,7.58215754 C5.09828775,8.02855238 4.74649767,8.5496056 4.50211252,9.12820798 C4.24838781,9.72703033 4.12074716,10.3631819 4.12074716,11.0195534 C4.12074716,11.6759249 4.24994441,12.3120764 4.50211252,12.9108988 C4.74649767,13.4895012 5.09828775,14.008999 5.54503002,14.4569492 C5.99177229,14.9033441 6.51323104,15.2548606 7.09228374,15.4990557 C7.69157216,15.752583 8.32821881,15.8801244 8.98510118,15.8801244 C9.64198354,15.8801244 10.2786302,15.7510277 10.8779186,15.4990557 C11.4569713,15.2548606 11.9768735,14.9033441 12.4251723,14.4569492 C12.8719146,14.0105544 13.2237047,13.4910565 13.4680898,12.9108988 C13.7218145,12.3120764 13.8494552,11.6759249 13.8494552,11.0195534 C13.8494552,10.3631819 13.7202579,9.72703033 13.4680898,9.12820798 C13.2237047,8.5496056 12.8719146,8.03010777 12.4251723,7.58215754 C11.9768735,7.13576269 11.4569713,6.78580158 10.8779186,6.54005111 L10.8779186,6.54005111 Z" id="Shape" transform="translate(10.000000, 10.000000) scale(1, -1) translate(-10.000000, -10.000000) "></path>
                    </g>
                    <g id="通用/Icon图标/Line/Down" transform="translate(64.000000, 84.000000)" fill-rule="nonzero">
                        <g>
                            <rect id="矩形" fill="#000000" opacity="0" transform="translate(7.000000, 7.000000) scale(1, -1) translate(-7.000000, -7.000000) " x="0" y="0" width="14" height="14"></rect>
                            <path d="M12.2814236,5 L11.2560329,5 C11.186306,5 11.1206808,5.03417969 11.0796652,5.09023438 L7.19548559,10.4441404 L3.311306,5.09023438 C3.27029037,5.03417969 3.2046653,5 3.13493884,5 L2.10954816,5 C2.02068097,5 1.96872785,5.10117187 2.02068097,5.17363282 L6.84138393,11.8195314 C7.01638412,12.0601563 7.37458706,12.0601563 7.54822016,11.8195314 L12.3689232,5.17363282 C12.4222431,5.10117187 12.3702908,5 12.2814236,5 Z" id="路径" fill="#3A8FF0" transform="translate(7.195227, 8.500000) scale(1, -1) translate(-7.195227, -8.500000) "></path>
                        </g>
                    </g>
                </g>
                <g id="编组-10" transform="translate(23.000000, 108.000000)">
                    <rect id="矩形" stroke-opacity="0.05" stroke="#000000" fill="#FFFFFF" x="0.5" y="0.5" width="275" height="128" rx="8"></rect>
                    <g id="编组-7">
                        <g id="字段" transform="translate(0.000000, 1.000000)">
                            <rect id="矩形" fill-opacity="0.05" fill="#000000" x="0.734042553" y="41" width="274.531915" height="1"></rect>
                            <rect id="矩形" x="0" y="0" width="276" height="42"></rect>
                        </g>
                        <rect id="矩形" stroke-opacity="0.6" stroke="#3A8FF0" fill="#E6F5FF" x="0.5" y="43.5" width="275" height="43"></rect>
                        <path d="M275.5,85.5 L275.5,121 C275.5,123.071068 274.660534,124.946068 273.303301,126.303301 C271.946068,127.660534 270.071068,128.5 268,128.5 L268,128.5 L8,128.5 C5.92893219,128.5 4.05393219,127.660534 2.69669914,126.303301 C1.33946609,124.946068 0.5,123.071068 0.5,121 L0.5,121 L0.5,85.5 L275.5,85.5 Z" id="矩形" stroke-opacity="0.6" stroke="#3A8FF0" fill="#E6F5FF"></path>
                        <text id="凭证编号" font-family="PingFangSC-Regular, PingFang SC" font-size="14" font-weight="normal" line-spacing="22" fill="#3A8FF0">
                            <tspan x="15" y="68">凭证编号</tspan>
                        </text>
                        <path d="M268,0.5 C270.071068,0.5 271.946068,1.33946609 273.303301,2.69669914 C274.660534,4.05393219 275.5,5.92893219 275.5,8 L275.5,8 L275.5,43.5 L0.5,43.5 L0.5,8 C0.5,5.92893219 1.33946609,4.05393219 2.69669914,2.69669914 C4.05393219,1.33946609 5.92893219,0.5 8,0.5 L8,0.5 Z" id="矩形" stroke-opacity="0.6" stroke="#3A8FF0" fill="#E6F5FF"></path>
                        <text id="制单日期" font-family="PingFangSC-Regular, PingFang SC" font-size="14" font-weight="normal" line-spacing="22" fill="#3A8FF0">
                            <tspan x="15" y="112">制单日期</tspan>
                        </text>
                        <text id="凭证类型" font-family="PingFangSC-Regular, PingFang SC" font-size="14" font-weight="normal" line-spacing="22" fill="#3A8FF0">
                            <tspan x="15" y="26">凭证类型</tspan>
                        </text>
                    </g>
                </g>
                <text id="BASE" font-family="ArialMT, Arial" font-size="14" font-weight="normal" fill="#3A8FF0">
                    <tspan x="27" y="19">BASE</tspan>
                </text>
            </g>
            <g id="字段" transform="translate(745.000000, 445.000000)" fill="#000000" fill-opacity="0.05">
                <rect id="矩形" x="0.734042553" y="42" width="274.531915" height="1"></rect>
            </g>
            <g id="字段" transform="translate(746.000000, 488.000000)"></g>
            <path id="路径-2" d="M724.496212,462.534007 L733.5,467.026423 L724.503794,471.534003 L724.5,467.542 L723.72027,467.557247 C697.611784,468.099145 677.211986,472.265961 654.952402,480.050045 C653.178448,480.670389 648.393839,482.436088 643.506534,484.230779 L642.494856,484.602142 L641.638425,484.916251 C637.224749,486.534287 633.031556,488.059098 631.228603,488.657714 C616.776077,493.456242 596.151492,496.06249 569.345143,496.484061 L568.255012,496.499955 L568.241573,495.500045 C595.48587,495.133877 616.37988,492.534109 630.913497,487.708657 C632.786176,487.086891 637.267447,485.454547 641.88857,483.75934 L642.916784,483.381978 C647.887917,481.556784 652.809422,479.740055 654.622307,479.106097 C677.202135,471.210025 697.892646,467.017197 724.498651,466.542035 L724.496212,462.534007 Z" fill="#3A8FF0" fill-rule="nonzero"></path>
            <path id="路径-2" d="M724.433744,505.119902 L733.499944,509.484993 L724.568151,514.118898 L724.51149,510.296404 C710.44825,515.097484 697.452345,541.357107 685.163779,586.809419 C674.923395,624.686021 665.578574,673.761972 655.281388,739.81955 C653.407897,751.838204 648.194034,787.17061 643.042383,821.854234 L642.624886,824.664525 C640.955977,835.896217 639.303285,846.991543 637.782887,857.133035 L637.245709,860.713063 C634.766953,877.217735 632.694066,890.802539 631.564444,897.682896 C617.086748,985.864375 596.36087,1033.72425 569.193221,1041.26917 L568.367987,1041.48546 L568.128598,1040.51454 C595.137287,1033.85534 616.020144,986.188504 630.577656,897.520885 C632.513308,885.731119 637.221219,854.237313 641.994177,822.104832 L642.590939,818.086324 L642.740098,817.081628 L642.740098,817.081628 L643.187205,814.069439 C647.952203,781.96291 652.556646,750.806485 654.293321,739.665528 C664.595723,673.574486 673.946173,624.468976 684.198438,586.548428 C696.667273,540.429345 709.844766,513.940376 724.495059,509.248607 L724.433744,505.119902 Z" fill="#3A8FF0" fill-rule="nonzero"></path>
            <path id="路径-2" d="M724.496212,423.534007 L733.5,428.026423 L724.503794,432.534003 L724.5,428.542 L723.72027,428.557247 C697.611784,429.099145 677.211986,433.265961 654.952402,441.050045 C653.178448,441.670389 648.393839,443.436088 643.506534,445.230779 L642.494856,445.602142 L641.638425,445.916251 C637.224749,447.534287 633.031556,449.059098 631.228603,449.657714 C616.776077,454.456242 596.151492,457.06249 569.345143,457.484061 L568.255012,457.499955 L568.241573,456.500045 C595.48587,456.133877 616.37988,453.534109 630.913497,448.708657 C632.786176,448.086891 637.267447,446.454547 641.88857,444.75934 L642.916784,444.381978 C647.887917,442.556784 652.809422,440.740055 654.622307,440.106097 C677.202135,432.210025 697.892646,428.017197 724.498651,427.542035 L724.496212,423.534007 Z" fill="#3A8FF0" fill-rule="nonzero"></path>
            <path id="路径-2" d="M1049.90429,606.409503 L1050.27156,607.339617 C1049.17049,607.774394 1048.05126,608.118459 1046.91409,608.371701 L1046.34401,608.490752 L1046.15257,607.509248 C1047.42592,607.260887 1048.67638,606.894364 1049.90429,606.409503 Z M1056.64255,602.378054 L1057.27516,603.152527 C1056.37042,603.891535 1055.45107,604.559518 1054.51711,605.156367 L1053.95498,605.505939 L1053.43747,604.650261 C1054.52435,603.99292 1055.59272,603.23558 1056.64255,602.378054 Z M1062.16766,596.727374 L1062.94682,597.354205 C1062.24582,598.225548 1061.5348,599.047692 1060.81372,599.820616 L1060.27102,600.391079 L1059.55335,599.694698 C1060.43903,598.781937 1061.31049,597.792844 1062.16766,596.727374 Z M1066.65883,590.228399 L1067.51601,590.743414 C1066.94454,591.694551 1066.36557,592.608346 1065.77906,593.484797 L1065.33777,594.135134 L1064.51397,593.568247 C1065.23996,592.513247 1065.95492,591.399965 1066.65883,590.228399 Z M1070.42063,583.192794 L1071.3226,583.624585 C1070.87634,584.556772 1070.42495,585.463159 1069.9684,586.343746 L1069.51014,587.215734 L1068.62757,586.745538 C1069.23404,585.607194 1069.83173,584.422945 1070.42063,583.192794 Z M1073.61092,575.863172 L1074.54033,576.232224 C1074.161,577.187517 1073.77751,578.121829 1073.38987,579.035161 L1073.00083,579.9415 L1072.08354,579.543285 C1072.59986,578.353932 1073.10899,577.127226 1073.61092,575.863172 Z M1076.36279,568.34578 L1077.3101,568.666107 C1076.98222,569.635744 1076.65088,570.587822 1076.31606,571.522341 L1075.98009,572.451007 L1075.04081,572.107864 C1075.48752,570.885099 1075.92818,569.631069 1076.36279,568.34578 Z M1078.73404,560.819165 L1079.69347,561.101114 C1079.43773,561.971344 1079.17965,562.829664 1078.91922,563.676077 L1078.52682,564.936765 L1077.57299,564.636418 C1077.96521,563.390831 1078.35223,562.118413 1078.73404,560.819165 Z M1080.85669,553.112481 L1081.8249,553.3626 C1081.59854,554.238863 1081.37013,555.104732 1081.13968,555.960208 L1080.79247,557.235628 L1079.82829,556.970367 C1080.17564,555.70782 1080.51844,554.421857 1080.85669,553.112481 Z M1082.7473,545.343807 L1083.72199,545.567356 C1083.52008,546.447712 1083.31636,547.318868 1083.11083,548.180824 L1082.80118,549.466859 L1081.82949,549.230608 C1082.13946,547.955731 1082.44539,546.66013 1082.7473,545.343807 Z M1084.44391,537.523892 L1085.4233,537.725876 C1085.36555,538.005874 1085.30811,538.283541 1085.25042,538.561489 C1085.10639,539.255439 1084.96136,539.944241 1084.81531,540.627897 L1084.59548,541.64952 L1083.61817,541.4377 C1083.83813,540.422817 1084.05584,539.39634 1084.27129,538.358274 C1084.32889,538.08074 1084.38625,537.803482 1084.44391,537.523892 Z M1086.02001,529.684145 L1087.00124,529.877021 C1086.80198,530.890683 1086.60613,531.879418 1086.41324,532.845167 L1086.22133,533.803326 L1085.24092,533.606396 C1085.49524,532.340259 1085.7546,531.034372 1086.02001,529.684145 Z M1087.53513,521.844483 L1088.51748,522.031557 C1088.32419,523.046558 1088.13502,524.034945 1087.94934,524.999907 L1087.76479,525.95718 L1086.78294,525.767538 C1087.02734,524.50215 1087.27757,523.196983 1087.53513,521.844483 Z M1089.01723,513.978076 L1090.00024,514.161628 C1089.79601,515.25533 1089.59843,516.310176 1089.40593,517.334232 L1089.26249,518.096627 L1088.27976,517.911558 C1088.51723,516.650625 1088.76204,515.344714 1089.01723,513.978076 Z M1090.47611,506.119698 L1091.45945,506.301454 C1091.24293,507.472892 1091.04078,508.564951 1090.84706,509.60965 L1090.73179,510.231042 L1089.74857,510.048578 C1089.97724,508.816387 1090.21632,507.5252 1090.47611,506.119698 Z M1091.92877,498.246326 L1092.91219,498.427662 C1092.56918,500.288071 1092.37917,501.318618 1092.21639,502.201132 L1092.18616,502.365035 L1091.20275,502.183646 C1091.37259,501.262844 1091.56431,500.223035 1091.92877,498.246326 Z M1093.38222,490.376706 L1094.36551,490.558793 C1094.17432,491.591206 1093.97704,492.658035 1093.76589,493.801118 L1093.63747,494.496453 L1092.6541,494.314879 C1092.91453,492.904408 1093.15277,491.615785 1093.38222,490.376706 Z M1094.84607,482.50834 L1095.82901,482.692227 C1095.65026,483.64775 1095.46864,484.62081 1095.28293,485.61791 L1095.09581,486.623265 L1094.11267,486.440403 C1094.36417,485.088273 1094.60766,483.782724 1094.84607,482.50834 Z M1096.32728,474.648708 L1097.30971,474.83538 C1097.147,475.691691 1096.98286,476.55803 1096.81694,477.436272 L1096.56667,478.762794 L1095.58396,478.577636 C1095.83576,477.241224 1096.08312,475.933689 1096.32728,474.648708 Z M1097.83383,466.798352 L1098.81553,466.988779 C1098.64891,467.847743 1098.48133,468.714896 1098.3126,469.591227 L1098.0586,470.912732 L1097.07652,470.724305 C1097.33156,469.395012 1097.58377,468.087474 1097.83383,466.798352 Z M1099.37893,458.931552 L1100.35969,459.126747 C1100.18833,459.987734 1100.01632,460.85601 1099.84352,461.732171 L1099.5837,463.052402 L1098.60244,462.859717 C1098.86304,461.532596 1099.12172,460.22388 1099.37893,458.931552 Z M1100.96153,451.097333 L1101.94112,451.298346 C1101.76462,452.158503 1101.58766,453.02552 1101.41018,453.899787 L1101.14353,455.216675 L1100.16332,455.018714 C1100.4306,453.695285 1100.69656,452.388596 1100.96153,451.097333 Z M1102.59771,443.261987 L1103.57584,443.470003 C1103.39313,444.329122 1103.21014,445.195003 1103.0268,446.067912 L1102.75151,447.382581 L1101.77261,447.178222 C1102.04844,445.857008 1102.32339,444.551898 1102.59771,443.261987 Z M1104.29649,435.433784 L1105.2728,435.650149 C1105.08272,436.50786 1104.89249,437.372471 1104.70205,438.24417 L1104.41623,439.557059 L1103.43897,439.345047 C1103.72526,438.025358 1104.01104,436.721816 1104.29649,435.433784 Z M1106.06718,427.62642 L1107.04125,427.8527 C1106.84262,428.707734 1106.64395,429.569993 1106.44521,430.43961 L1106.14703,431.749572 L1105.17178,431.528464 C1105.47042,430.21124 1105.76884,428.910712 1106.06718,427.62642 Z M1107.92578,419.834355 L1108.89702,420.072452 C1108.68811,420.924626 1108.47928,421.784548 1108.27048,422.652315 L1107.95731,423.959861 L1106.98457,423.727934 C1107.29822,422.412442 1107.61191,421.114692 1107.92578,419.834355 Z M1109.8868,412.072777 L1110.85446,412.325033 C1110.63362,413.172176 1110.41296,414.027777 1110.19245,414.891901 L1109.86178,416.194489 L1108.89222,415.94964 C1109.22341,414.638197 1109.55489,413.345984 1109.8868,412.072777 Z M1111.97219,404.345626 L1112.93521,404.615046 C1112.69957,405.457338 1112.46422,406.309078 1112.22913,407.170306 L1111.87669,408.46927 L1110.91119,408.208868 C1111.26425,406.899801 1111.61788,405.6121 1111.97219,404.345626 Z M1114.21125,396.657479 L1115.1681,396.948053 C1114.91472,397.782419 1114.66176,398.627526 1114.40919,399.483393 L1114.03061,400.775264 L1113.07044,400.495844 C1113.44981,399.192218 1113.83004,397.912784 1114.21125,396.657479 Z M1116.64498,389.013809 L1117.59331,389.331081 C1117.31742,390.155716 1117.0421,390.992883 1116.76732,391.842576 L1116.35553,393.126509 L1115.40258,392.823386 C1115.81546,391.525392 1116.22955,390.255528 1116.64498,389.013809 Z M1119.32094,381.457176 L1120.25698,381.809092 C1119.91427,382.720628 1119.57252,383.651186 1119.23168,384.600718 L1118.89113,385.556573 L1117.94834,385.223182 C1118.40416,383.934172 1118.86165,382.678803 1119.32094,381.457176 Z M1122.32733,374.0061 L1123.24432,374.40501 C1122.85806,375.292925 1122.47308,376.204576 1122.08933,377.139862 L1121.70598,378.083022 L1120.77836,377.709505 C1121.29232,376.433092 1121.80859,375.198552 1122.32733,374.0061 Z M1125.78551,366.755255 L1126.67016,367.221506 C1126.19319,368.126503 1125.71821,369.066974 1125.24514,370.042699 L1124.89071,370.7811 L1123.98753,370.351843 C1124.58346,369.097963 1125.18272,367.89897 1125.78551,366.755255 Z M1129.93596,359.842519 L1130.75695,360.413472 C1130.182,361.240202 1129.60986,362.117329 1129.04048,363.044448 L1128.61396,363.749155 L1127.75518,363.23681 C1128.47681,362.027236 1129.20362,360.895563 1129.93596,359.842519 Z M1135.22922,353.700645 L1135.89407,354.447621 C1135.10759,355.14763 1134.32578,355.93961 1133.54862,356.822643 L1133.16043,357.271743 L1132.39818,356.624457 C1133.33218,355.524571 1134.27561,354.549407 1135.22922,353.700645 Z M1138.18448,347.022097 L1147.74298,350.166149 L1139.49264,355.926518 L1138.895,351.864 L1138.56119,351.276374 L1138.79,351.149 L1138.18448,347.022097 Z" transform="translate(1096.748293, 479.000000) scale(-1, -1) translate(-1096.748293, -479.000000) " fill-opacity="0.25" fill="#000000" fill-rule="nonzero"></path>
            <path id="路径-2" d="M1049.74062,696.099968 L1050.20481,696.985702 C1049.10917,697.559901 1047.99483,698.014076 1046.86209,698.347865 L1046.37551,698.483546 L1046.12108,697.516454 C1047.34789,697.193699 1048.55425,696.721718 1049.74062,696.099968 Z M1055.9504,691.287353 L1056.67206,691.97961 C1055.85178,692.834711 1055.01939,693.612414 1054.1748,694.312618 L1053.66657,694.723439 L1053.04775,693.937907 C1054.02984,693.164245 1054.99744,692.280786 1055.9504,691.287353 Z M1060.822,685.05473 L1061.65912,685.60175 C1061.04457,686.542208 1060.42252,687.433346 1059.79293,688.27516 L1059.31933,688.897272 L1058.52895,688.284657 C1059.30383,687.284912 1060.06821,686.208273 1060.822,685.05473 Z M1064.73551,678.185009 L1065.62926,678.633561 C1065.1309,679.626561 1064.62713,680.583282 1064.11792,681.503726 L1063.735,682.187258 L1062.86523,681.693796 C1063.49661,680.58094 1064.12004,679.411342 1064.73551,678.185009 Z M1068.02199,670.912141 L1068.94754,671.290773 C1068.55659,672.246438 1068.16198,673.177366 1067.76371,674.083559 L1067.36422,674.981507 L1066.45243,674.570852 C1066.98187,673.395329 1067.50506,672.175756 1068.02199,670.912141 Z M1070.83586,663.420282 L1071.78091,663.747194 C1071.44507,664.718068 1071.10628,665.668857 1070.76453,666.599564 L1070.4218,667.523577 L1069.48538,667.172706 C1069.94065,665.95766 1070.39081,664.706851 1070.83586,663.420282 Z M1073.28728,655.799598 L1074.24518,656.086706 C1073.98421,656.957397 1073.72129,657.814814 1073.45644,658.658955 L1073.0577,659.915212 L1072.10558,659.609479 C1072.50377,658.369432 1072.89767,657.099471 1073.28728,655.799598 Z M1075.42695,648.197205 L1076.39368,648.453014 C1076.16181,649.329259 1075.92828,650.194087 1075.69308,651.047498 L1075.33903,652.319052 L1074.37639,652.048248 C1074.73028,650.790289 1075.08046,649.506607 1075.42695,648.197205 Z M1077.36637,640.435867 L1078.3396,640.66572 C1078.13172,641.545886 1077.9224,642.41607 1077.71161,643.276271 L1077.39435,644.559086 L1076.42412,644.31689 C1076.74144,643.045703 1077.05553,641.752028 1077.36637,640.435867 Z M1079.11465,632.635954 L1080.09274,632.844135 C1079.90487,633.726834 1079.7157,634.600681 1079.52525,635.465674 L1079.2386,636.756524 L1078.26277,636.537975 C1078.54961,635.257242 1078.83357,633.956568 1079.11465,632.635954 Z M1080.70357,624.800006 L1081.6854,624.989748 C1081.5144,625.874576 1081.34225,626.751452 1081.16894,627.620376 L1080.90811,628.917798 L1079.92803,628.719197 C1080.18913,627.430708 1080.44764,626.124311 1080.70357,624.800006 Z M1082.15757,616.925976 L1083.14235,617.099781 C1082.98592,617.986141 1082.82844,618.865291 1082.66991,619.73723 L1082.43132,621.039731 L1081.44793,620.858253 C1081.68682,619.563731 1081.92337,618.252972 1082.15757,616.925976 Z M1083.49112,609.038262 L1084.47825,609.198154 C1084.33448,610.085759 1084.18975,610.96677 1084.04407,611.841187 L1083.82482,613.147867 L1082.8388,612.981248 C1083.05838,611.681767 1083.27582,610.367438 1083.49112,609.038262 Z M1084.72401,601.128696 L1085.71274,601.278375 C1085.55868,602.296055 1085.40634,603.294401 1085.25557,604.274268 L1085.18132,604.755685 L1085.18132,604.755685 L1085.10688,605.235872 L1084.11874,605.082315 C1084.16835,604.763094 1084.21784,604.443052 1084.26721,604.12219 C1084.41785,603.143134 1084.57007,602.145587 1084.72401,601.128696 Z M1085.89893,593.223741 L1086.88842,593.368372 C1086.74047,594.380501 1086.59438,595.374144 1086.44996,596.350383 L1086.3061,597.320861 L1085.31695,597.173917 C1085.50793,595.888359 1085.70179,594.572488 1085.89893,593.223741 Z M1087.04005,585.310301 L1088.03006,585.451324 C1087.88573,586.464529 1087.74352,587.458672 1087.60317,588.435298 L1087.46345,589.406143 L1086.47368,589.263471 C1086.65909,587.977206 1086.84769,586.660703 1087.04005,585.310301 Z M1088.15872,577.379866 L1089.14909,577.518357 C1089.00689,578.535241 1088.86726,579.530743 1088.72985,580.507321 L1088.59316,581.477684 L1087.60296,581.338048 C1087.7842,580.05279 1087.96917,578.735338 1088.15872,577.379866 Z M1089.2587,569.461313 L1090.24929,569.598129 C1090.1081,570.620428 1089.97038,571.615633 1089.83549,572.588376 L1089.70151,573.553803 L1088.71102,573.416246 C1088.88843,572.138791 1089.07047,570.824138 1089.2587,569.461313 Z M1090.34838,561.539619 L1091.33911,561.675455 C1091.18668,562.787229 1091.041,563.848584 1090.89996,564.874787 L1090.79502,565.638087 L1089.80434,565.50184 C1089.97788,564.240007 1090.15786,562.929205 1090.34838,561.539619 Z M1091.4347,553.602163 L1092.42548,553.73761 C1092.23595,555.124026 1092.0824,556.246884 1091.93715,557.3085 L1091.88302,557.704131 L1090.89225,557.568558 C1091.0538,556.387956 1091.22148,555.161842 1091.4347,553.602163 Z M1092.51729,545.684548 L1093.50805,545.820125 C1093.36233,546.885064 1093.21204,547.983931 1093.03358,549.289234 L1092.96529,549.788736 L1091.9745,549.653285 C1092.18361,548.123688 1092.35334,546.882653 1092.51729,545.684548 Z M1093.60589,537.744916 L1094.59658,537.881093 C1094.45621,538.902271 1094.31267,539.94771 1094.16414,541.030651 L1094.05177,541.850094 L1093.06104,541.714274 C1093.24999,540.336011 1093.43041,539.021512 1093.60589,537.744916 Z M1094.69789,529.829188 L1095.68844,529.966401 C1095.55397,530.937131 1095.41775,531.922122 1095.27926,532.925186 L1095.13998,533.934415 L1094.14936,533.797775 C1094.33615,532.44354 1094.51858,531.123691 1094.69789,529.829188 Z M1095.80102,521.906513 L1096.79135,522.045181 C1096.66991,522.912488 1096.54752,523.78831 1096.424,524.673968 L1096.23783,526.009996 L1095.24738,525.872109 C1095.43449,524.528118 1095.61882,523.207738 1095.80102,521.906513 Z M1096.9181,513.981004 L1097.90818,514.121541 C1097.78488,514.990155 1097.6609,515.86576 1097.53611,516.749124 L1097.34832,518.080086 L1096.3581,517.940534 C1096.54657,516.603236 1096.73311,515.284258 1096.9181,513.981004 Z M1098.05128,506.061502 L1099.04103,506.204325 C1098.91538,507.075096 1098.78921,507.951992 1098.66245,508.835511 L1098.47186,510.165818 L1097.48194,510.024192 C1097.67305,508.688397 1097.86274,507.368062 1098.05128,506.061502 Z M1099.20442,498.145143 L1100.19377,498.290681 C1100.06566,499.161571 1099.93716,500.038058 1099.80822,500.920486 L1099.61447,502.248627 L1098.62491,502.104502 C1098.81908,500.771353 1099.01218,499.451954 1099.20442,498.145143 Z M1100.38267,490.221585 L1101.37155,490.370295 C1101.2405,491.241771 1101.10915,492.118558 1100.97747,493.000903 L1100.7797,494.32862 L1099.79057,494.181554 C1099.98869,492.849062 1100.18601,491.529352 1100.38267,490.221585 Z M1101.58477,482.324821 L1102.57309,482.47718 C1102.43906,483.346651 1102.30481,484.221277 1102.17031,485.101242 L1101.96837,486.425217 L1100.97976,486.274746 C1101.18198,484.946097 1101.38362,483.629662 1101.58477,482.324821 Z M1102.82075,474.416168 L1103.80842,474.572718 C1103.67065,475.441938 1103.53272,476.3163 1103.39462,477.195946 L1103.18733,478.519396 L1102.19932,478.365008 C1102.40686,477.036846 1102.61398,475.720724 1102.82075,474.416168 Z M1104.09435,466.502559 L1105.08125,466.663901 C1104.9391,467.533426 1104.79685,468.408188 1104.65449,469.288298 L1104.44085,470.612486 L1103.45355,470.453616 C1103.66742,469.124572 1103.88099,467.807676 1104.09435,466.502559 Z M1105.40643,458.610935 L1106.39242,458.777734 C1106.24538,459.646961 1106.09829,460.521605 1105.95114,461.40175 L1105.73036,462.726104 L1104.74389,462.562127 C1104.96488,461.232692 1105.1857,459.915724 1105.40643,458.610935 Z M1106.76414,450.733219 L1107.74906,450.906246 C1107.59677,451.773126 1107.44448,452.645661 1107.29218,453.523917 L1107.06372,454.845601 L1106.07824,454.675796 C1106.3069,453.348739 1106.53551,452.034621 1106.76414,450.733219 Z M1108.17826,442.847967 L1109.16189,443.028147 C1109.0035,443.892831 1108.84516,444.763502 1108.68685,445.640211 L1108.44942,446.959807 L1107.46511,446.783323 C1107.70275,445.457963 1107.94044,444.146235 1108.17826,442.847967 Z M1109.6531,434.978157 L1110.63519,435.166573 C1110.46944,436.030523 1110.30379,436.900913 1110.13821,437.777782 L1109.88991,439.097948 L1108.90701,438.913801 C1109.15552,437.587354 1109.4042,436.275516 1109.6531,434.978157 Z M1111.19632,427.135419 L1112.17653,427.333379 C1112.00257,428.194739 1111.82876,429.063085 1111.65507,429.938444 L1111.39464,431.256748 L1110.41344,431.063753 C1110.6741,429.73854 1110.93504,428.429126 1111.19632,427.135419 Z M1112.82361,419.30237 L1113.80149,419.511523 C1113.61806,420.369137 1113.43483,421.234414 1113.25178,422.107371 L1112.97733,423.42257 L1111.99822,423.219247 C1112.27294,421.896355 1112.54805,420.590749 1112.82361,419.30237 Z M1114.55335,411.468852 L1115.52829,411.691329 C1115.3334,412.545381 1115.13876,413.407974 1114.94436,414.279116 L1114.65294,415.592241 L1113.67645,415.376714 C1113.96819,414.054877 1114.26048,412.752266 1114.55335,411.468852 Z M1116.39468,403.685924 L1117.36582,403.924428 C1117.15748,404.772755 1116.94946,405.630723 1116.74175,406.498329 L1116.43041,407.806966 L1115.45724,407.576875 C1115.76901,406.258232 1116.08148,404.961246 1116.39468,403.685924 Z M1118.38295,395.920456 L1119.34901,396.178748 C1119.12384,397.020945 1118.89907,397.87426 1118.67469,398.738678 L1118.33841,400.043632 L1117.36962,399.795774 C1117.70649,398.479052 1118.04425,397.187264 1118.38295,395.920456 Z M1120.54958,388.203323 L1121.50859,388.486678 C1121.26253,389.31946 1121.01699,390.16534 1120.77193,391.024287 L1120.40472,392.322505 L1119.44187,392.052463 C1119.80995,390.74006 1120.17916,389.456982 1120.54958,388.203323 Z M1122.94535,380.557969 L1123.89402,380.874252 C1123.58646,381.796753 1123.27972,382.739417 1122.97379,383.702172 L1122.66812,384.671622 L1121.71374,384.373025 C1122.12277,383.065675 1122.53328,381.793937 1122.94535,380.557969 Z M1125.65685,373.00287 L1126.58904,373.364825 C1126.23955,374.264911 1125.89115,375.190606 1125.5438,376.141794 L1125.1968,377.101476 L1124.25533,376.764385 C1124.72046,375.465307 1125.1876,374.211384 1125.65685,373.00287 Z M1128.81969,365.61685 L1129.72241,366.047071 C1129.28475,366.965404 1128.84877,367.923173 1128.41444,368.920136 L1128.08899,369.675202 L1127.16914,369.282923 C1127.71636,367.99976 1128.2665,366.777595 1128.81969,365.61685 Z M1132.71137,358.550115 L1133.54984,359.095064 C1132.98488,359.964324 1132.42252,360.898054 1131.86273,361.895722 L1131.52717,362.501991 L1130.6495,362.02272 C1131.33187,360.773132 1132.01906,359.615332 1132.71137,358.550115 Z M1138.04383,347.533264 L1147.73904,350.22638 L1139.76742,356.36668 L1138.04383,347.533264 Z M1137.97286,352.336088 L1138.61327,353.104117 C1137.81137,353.772775 1137.01319,354.569303 1136.21908,355.492495 L1135.87899,355.8959 L1135.1082,355.258808 C1136.05213,354.116792 1137.00663,353.141767 1137.97286,352.336088 Z" transform="translate(1096.748293, 524.000000) scale(-1, -1) translate(-1096.748293, -524.000000) " fill-opacity="0.25" fill="#000000" fill-rule="nonzero"></path>
            <path id="直线-2" d="M246.105442,350 L255.105442,354.5 L246.105442,359 L246.105,355 L138.894558,355 L138.894558,354 L246.105,354 L246.105442,350 Z" fill-opacity="0.25" fill="#000000" fill-rule="nonzero"></path>
            <path id="路径-2" d="M244.896616,353.122081 L254.697137,355.402386 L246.992579,361.874619 L246.156287,358.382071 C237.485262,367.609204 230.054844,398.114233 223.41501,448.257372 C218.020459,488.9963 213.493221,538.641891 207.91414,612.961734 L207.71092,615.673897 C207.146989,623.22353 205.770771,642.004594 204.372057,661.077759 L204.200727,663.413964 C202.801492,682.49275 201.411997,701.417133 200.822034,709.247784 C197.911644,747.877694 195.562429,775.750607 193.157215,799.023155 C183.024862,897.062519 165.336858,946.221051 139.76318,946.478179 L138.985806,946.471002 L139.014194,945.471405 C164.161143,946.185543 181.990624,897.342259 192.162513,798.920353 C194.566558,775.659118 196.915111,747.794057 199.82486,709.172657 C201.040913,693.031851 205.654662,629.747057 206.747543,615.146775 C212.405991,539.553041 216.971411,489.300783 222.423664,448.126101 C229.208921,396.884747 236.784924,366.151816 245.881031,357.234037 L244.896616,353.122081 Z" transform="translate(196.605442, 650.485877) scale(1, -1) translate(-196.605442, -650.485877) " fill-opacity="0.25" fill="#000000" fill-rule="nonzero"></path>
            <rect id="矩形" stroke-opacity="0.25" stroke="#0288D1" fill-opacity="0.4" fill="#0288D1" x="79.5" y="324.5" width="59" height="59" rx="6"></rect>
            <g id="编组-11" transform="translate(94.000000, 340.000000)" fill-rule="nonzero">
                <rect id="矩形" fill="#000000" opacity="0" x="0" y="0" width="30" height="30"></rect>
                <path d="M3,0 L0,0 L0,23 L9,23 L9,25 L7,25 L7,26 L6,26 L6,28 L4,28 L4,29 L26,29 L26,27 L24,27 L24,26 L23,26 L23,24 L21,24 L21,23 L30,23 L30,0 L3,0 Z M27,20 L3,20 L3,3 L27,3 L27,20 Z" id="形状" fill="#FFFFFF"></path>
                <polygon id="路径" fill="#FFFFFF" points="6 10.147541 9.04 10.147541 9.04 15.557377 17.59 15.557377 17.59 17 25 17 25 12.852459 23.48 12.852459 23.48 7.44262295 14.74 7.44262295 14.74 8.70491803 21.96 8.70491803 21.96 12.852459 17.59 12.852459 17.59 14.295082 10.37 14.295082 10.37 10.147541 13.41 10.147541 13.41 6 6 6"></polygon>
            </g>
            <text id="采购付款核算流程" font-family="PingFangSC-Regular, PingFang SC" font-size="14" font-weight="normal" line-spacing="22" fill="#000000">
                <tspan x="53" y="407">采购付款核算流程</tspan>
            </text>
        </g>
    </g>
</svg>