<?xml version="1.0" standalone="no"?><!DOCTYPE svg PUBLIC "-//W3C//DTD SVG 1.1//EN" "http://www.w3.org/Graphics/SVG/1.1/DTD/svg11.dtd"><svg t="1683540286568" class="icon" viewBox="0 0 1024 1024" version="1.1" xmlns="http://www.w3.org/2000/svg" p-id="7340" xmlns:xlink="http://www.w3.org/1999/xlink" width="200" height="200"><path d="M889.028484 811.824819h-64.387957v-386.327739a81.251469 81.251469 0 0 0-45.991397-72.973018L577.513418 258.088393v-217.692615A38.709426 38.709426 0 0 0 538.267425 1.149785H151.939685a38.709426 38.709426 0 0 0-39.245992 39.245993v771.429041H31.748833a29.127885 29.127885 0 0 0-29.434494 29.511147 29.127885 29.127885 0 0 0 29.434494 29.357842h857.279651a29.127885 29.127885 0 0 0 29.434494-29.357842 29.894408 29.894408 0 0 0-29.434494-29.511147z m-122.643727-388.090743v385.714521H577.513418v-475.244441l188.871339 89.453268zM519.870866 59.482208V812.51469l-349.534622-0.613218V59.328903h349.534622z"  p-id="7341"></path><path d="M240.243169 274.645296h208.494335a29.127885 29.127885 0 0 0 29.434495-29.434495 29.434494 29.434494 0 0 0-29.434495-29.357842h-208.494335a29.127885 29.127885 0 0 0-29.434495 29.434495 29.894408 29.894408 0 0 0 29.434495 29.434494z m0 126.323039h208.494335a29.127885 29.127885 0 0 0 29.434495-29.357843 29.894408 29.894408 0 0 0-29.434495-29.511146h-208.494335a29.127885 29.127885 0 0 0-29.434495 29.511146 29.894408 29.894408 0 0 0 29.434495 29.357843z m0 127.626128h208.494335a29.127885 29.127885 0 0 0 29.434495-29.511147 29.127885 29.127885 0 0 0-29.434495-29.357842h-208.494335a29.127885 29.127885 0 0 0-29.434495 29.434494 29.894408 29.894408 0 0 0 29.434495 29.434495z m0 126.859605h208.494335a29.127885 29.127885 0 0 0 29.434495-29.357842 29.434494 29.434494 0 0 0-29.434495-29.434495h-208.494335a29.127885 29.127885 0 0 0-29.434495 29.357842 29.894408 29.894408 0 0 0 29.434495 29.511147z"  p-id="7342"></path></svg>