<?xml version="1.0" standalone="no"?><!DOCTYPE svg PUBLIC "-//W3C//DTD SVG 1.1//EN" "http://www.w3.org/Graphics/SVG/1.1/DTD/svg11.dtd"><svg t="1683871617251" class="icon" viewBox="0 0 1024 1024" version="1.1" xmlns="http://www.w3.org/2000/svg" p-id="6082" xmlns:xlink="http://www.w3.org/1999/xlink" width="200" height="200"><path d="M922.5 819.2H143.4V163.8c0-22.5-18.4-41-41-41s-41 18.4-41 41V861c0 22 18 40.1 40.1 40.1h821c22 0 40.1-18 40.1-40.1v-1.8c0-22-18.1-40-40.1-40z" p-id="6083"></path><path d="M218.5 573.4c-7.6 0-13.7 6.2-13.7 13.7V744c0 7.6 6.2 13.7 13.7 13.7h95.4c7.6 0 13.7-6.2 13.7-13.7V587.2c0-7.6-6.2-13.7-13.7-13.7h-95.4z m186.9-73.7c-8.9 0-16.3 7.3-16.3 16.3v225.5c0 8.9 7.3 16.3 16.3 16.3h90.4c8.9 0 16.3-7.3 16.3-16.3V516c0-8.9-7.3-16.3-16.3-16.3h-90.4z m183.1 36.9c-8.3 0-15 6.8-15 15v191.1c0 8.3 6.8 15 15 15h92.8c8.3 0 15-6.8 15-15V551.6c0-8.3-6.8-15-15-15h-92.8z m188.7-147.5c-10.7 0-19.4 8.7-19.4 19.4v329.8c0 10.7 8.7 19.4 19.4 19.4h84c10.7 0 19.4-8.7 19.4-19.4V408.5c0-10.7-8.7-19.4-19.4-19.4h-84z m-503.6 111l183.8-183.8 121.8 121.8c0.2 0.2 0.3 0.4 0.4 0.5 8 8 18.5 12 29 11.9 10.5 0 21-4 29-11.9 0.2-0.2 0.3-0.4 0.4-0.5l160.7-160.7v3.5c0 22.5 18.4 41 41 41 22.5 0 41-18.4 41-41V178.5c0-2.7-0.3-5.5-0.8-8.1-0.1-0.2-0.2-0.5-0.2-0.7-1.6-7.4-5.2-14.4-10.9-20.1-5.7-5.7-12.7-9.3-20.1-10.9-0.2-0.1-0.5-0.2-0.7-0.2-2.7-0.5-5.4-0.8-8.1-0.8H737.3c-22.5 0-41 18.4-41 41 0 22.5 18.4 41 41 41h3.5l-132.2 132-121.8-121.8c-0.2-0.2-0.3-0.4-0.4-0.5-15.9-15.9-42-15.9-57.9 0L215.7 442.1c-15.9 15.9-15.9 42 0 57.9s42 16 57.9 0.1z" p-id="6084"></path></svg>