<?xml version="1.0" standalone="no"?><!DOCTYPE svg PUBLIC "-//W3C//DTD SVG 1.1//EN" "http://www.w3.org/Graphics/SVG/1.1/DTD/svg11.dtd"><svg t="1683540265876" class="icon" viewBox="0 0 1024 1024" version="1.1" xmlns="http://www.w3.org/2000/svg" p-id="6627" xmlns:xlink="http://www.w3.org/1999/xlink" width="200" height="200"><path d="M0 853.357714a512 170.642286 0 1 0 1024 0 512 170.642286 0 1 0-1024 0Z" fill="#595959" p-id="6628"></path><path d="M509.952 0c210.944 0 382.171429 163.328 382.171429 364.690286 0 246.198857-382.171429 543.158857-382.171429 543.158857s-394.971429-305.810286-382.171429-543.085714C127.780571 163.328 298.934857 0 509.952 0z" fill="#595959" p-id="6629"></path><path d="M510.025143 62.902857c-173.641143 0-314.806857 135.387429-314.806857 301.860572 0 152.137143 177.298286 322.194286 314.733714 454.436571 137.435429-132.315429 314.806857-313.782857 314.806857-454.436571C824.758857 198.363429 683.52 62.902857 510.025143 62.902857z" fill="#FFFFFF" p-id="6630"></path><path d="M509.952 196.242286c94.72 0.219429 171.52 71.899429 171.52 160.402285v-0.073142c0 88.429714-76.8 160.182857-171.52 160.256C416.914286 514.486857 342.820571 443.392 342.820571 356.571429c0-86.893714 74.093714-157.988571 167.131429-160.329143z" fill="#000000" fill-opacity=".65" p-id="6631"></path><path d="M510.025143 259.218286c-57.563429 0-104.082286 43.593143-104.082286 97.426285-0.073143 53.686857 46.445714 97.28 104.009143 97.426286 57.490286 0 104.155429-43.593143 104.155429-97.426286 0-53.76-46.665143-97.426286-104.082286-97.426285z" fill="#FFFFFF" p-id="6632"></path></svg>