<?xml version="1.0" encoding="UTF-8"?>
<svg width="64px" height="64px" viewBox="0 0 64 64" version="1.1" xmlns="http://www.w3.org/2000/svg" xmlns:xlink="http://www.w3.org/1999/xlink">
    <title>icon</title>
    <defs>
        <linearGradient x1="-93.0770843%" y1="-226.618524%" x2="100%" y2="86.1984699%" id="linearGradient-1">
            <stop stop-color="#3461EC" stop-opacity="0.06" offset="0%"></stop>
            <stop stop-color="#FDFDFF" offset="100%"></stop>
            <stop stop-color="#FFFFFF" offset="100%"></stop>
        </linearGradient>
    </defs>
    <g id="页面-1" stroke="none" stroke-width="1" fill="none" fill-rule="evenodd">
        <g id="基本信息" transform="translate(-430.000000, -850.000000)">
            <g id="关联信息" transform="translate(377.000000, 766.000000)">
                <g id="1" transform="translate(0.000000, 66.000000)">
                    <g id="icon" transform="translate(53.000000, 18.000000)">
                        <rect id="矩形" fill="url(#linearGradient-1)" x="0" y="0" width="64" height="64" rx="32"></rect>
                        <g id="数据容量icon" transform="translate(16.000000, 16.000000)" fill="#3461EC" fill-rule="nonzero">
                            <path d="M30.1344179,14.3693922 C28.202115,12.9502224 25.8684433,12.1869549 23.4734213,12.1907985 C18.67344,12.1907985 14.5730074,15.1940284 12.9375698,19.4285999 L2.58295527,19.4285999 C1.15643158,19.4285999 5.65020442e-06,18.2688024 5.65020442e-06,16.8381198 L5.65020442e-06,13.3841463 C5.65020442e-06,11.9534637 1.15643158,10.7936662 2.58295527,10.7936662 L27.5514683,10.7936662 C28.977992,10.7936662 30.1344179,11.9534637 30.1344179,13.3841463 L30.1344179,14.3693922 L30.1344179,14.3693922 Z M12.3421999,21.5873333 C12.2331135,22.2252438 12.1783869,22.871312 12.1786131,23.5185362 C12.1786131,26.0269844 12.9922423,28.3454641 14.3680934,30.2222669 L2.58295527,30.2222669 C1.15643158,30.2222669 5.65020442e-06,29.0624695 5.65020442e-06,27.6317868 L5.65020442e-06,24.1778133 C5.65020442e-06,22.7471307 1.15643158,21.5873333 2.58295527,21.5873333 L12.3421999,21.5873333 L12.3421999,21.5873333 Z M2.58295527,-8.09525337e-07 L27.5514683,-8.09525337e-07 C28.977992,-8.09525337e-07 30.1344179,1.15979663 30.1344179,2.59047927 L30.1344179,6.04445274 C30.1344179,7.47513538 28.977992,8.63493282 27.5514683,8.63493282 L2.58295527,8.63493282 C1.89791444,8.63493282 1.24093109,8.36200802 0.756534078,7.87619877 C0.272137061,7.39038952 5.65020442e-06,6.73149077 5.65020442e-06,6.04445274 L5.65020442e-06,2.59047927 C5.65020442e-06,1.15979663 1.15643158,-8.09525337e-07 2.58295527,-8.09525337e-07 L2.58295527,-8.09525337e-07 Z M23.0429297,32.3810003 C18.1624464,32.3810003 14.2062286,28.4132483 14.2062286,23.5185362 C14.2062286,18.623824 18.1624464,14.656072 23.0429297,14.656072 C27.9234131,14.656072 31.8796309,18.623824 31.8796309,23.5185362 C31.8796309,28.4132483 27.9234131,32.3810003 23.0429297,32.3810003 L23.0429297,32.3810003 Z" id="形状" fill-opacity="0.6"></path>
                            <path d="M22.9413337,14.6565038 L22.9413337,22.825151 L27.7873777,30.9968204 C26.3703885,31.9033307 24.7240867,32.3836784 23.0433602,32.3810114 C18.1624464,32.3810114 14.2062286,28.4132483 14.2062286,23.5185362 C14.2062286,18.657932 18.107774,14.7109039 22.9413337,14.6565038 Z M3.4439385,2.1587326 C3.91944638,2.1587326 4.30492169,2.54533174 4.30492169,3.02222595 L4.30492169,5.18095936 C4.30492169,5.65785357 3.91944638,6.04445272 3.44393848,6.04445272 C2.96843058,6.04445272 2.58295527,5.65785357 2.58295527,5.18095936 L2.58295527,3.02222595 C2.58295527,2.79321327 2.67366574,2.57358035 2.83513142,2.41164393 C2.9965971,2.24970752 3.21559155,2.1587326 3.4439385,2.1587326 L3.4439385,2.1587326 Z M3.4439385,13.3841463 C3.67228544,13.3841463 3.89127989,13.4751212 4.05274556,13.6370577 C4.21421123,13.7989941 4.30492169,14.018627 4.30492169,14.2476397 L4.30492169,16.4063731 C4.30492169,16.8832673 3.91944638,17.2698665 3.44393848,17.2698665 C2.96843058,17.2698665 2.58295527,16.8832673 2.58295527,16.4063731 L2.58295527,14.2476397 C2.58295527,14.018627 2.67366573,13.7989941 2.83513141,13.6370577 C2.99659708,13.4751212 3.21559154,13.3841463 3.4439385,13.3841463 L3.4439385,13.3841463 Z M3.4439385,24.1778133 C3.67228544,24.1778133 3.89127989,24.2687883 4.05274556,24.4307247 C4.21421123,24.5926611 4.30492169,24.8122941 4.30492169,25.0413067 L4.30492169,27.2000401 C4.30492169,27.6769344 3.91944638,28.0635335 3.44393848,28.0635335 C2.96843058,28.0635335 2.58295527,27.6769344 2.58295527,27.2000401 L2.58295527,25.0413067 C2.58295527,24.812294 2.67366573,24.5926611 2.83513141,24.4307247 C2.99659708,24.2687883 3.21559154,24.1778133 3.4439385,24.1778133 L3.4439385,24.1778133 Z M6.88787131,2.1587326 C7.11621825,2.1587326 7.33521271,2.24970752 7.49667838,2.41164393 C7.65814406,2.57358035 7.74885453,2.79321327 7.74885453,3.02222595 L7.74885453,5.18095936 C7.74885453,5.65785357 7.36337922,6.04445272 6.88787132,6.04445272 C6.41236343,6.04445272 6.02688811,5.65785357 6.02688811,5.18095936 L6.02688811,3.02222595 C6.02688811,2.54533174 6.41236342,2.1587326 6.88787131,2.1587326 L6.88787131,2.1587326 Z M6.88787131,13.3841463 C7.11621826,13.3841463 7.33521272,13.4751212 7.4966784,13.6370577 C7.65814407,13.7989941 7.74885453,14.018627 7.74885453,14.2476397 L7.74885453,16.4063731 C7.74885453,16.8832673 7.36337922,17.2698665 6.88787132,17.2698665 C6.41236343,17.2698665 6.02688811,16.8832673 6.02688811,16.4063731 L6.02688811,14.2476397 C6.02688811,14.018627 6.11759857,13.7989941 6.27906424,13.6370577 C6.44052991,13.4751212 6.65952436,13.3841463 6.88787131,13.3841463 L6.88787131,13.3841463 Z M6.88787131,24.1778133 C7.11621826,24.1778133 7.33521272,24.2687883 7.4966784,24.4307247 C7.65814407,24.5926611 7.74885453,24.812294 7.74885453,25.0413067 L7.74885453,27.2000401 C7.74885453,27.6769344 7.36337922,28.0635335 6.88787132,28.0635335 C6.41236343,28.0635335 6.02688811,27.6769344 6.02688811,27.2000401 L6.02688811,25.0413067 C6.02688811,24.8122941 6.11759857,24.5926611 6.27906424,24.4307247 C6.44052991,24.2687883 6.65952436,24.1778133 6.88787131,24.1778133 Z" id="形状"></path>
                        </g>
                    </g>
                </g>
            </g>
        </g>
    </g>
</svg>