<?xml version="1.0" standalone="no"?><!DOCTYPE svg PUBLIC "-//W3C//DTD SVG 1.1//EN" "http://www.w3.org/Graphics/SVG/1.1/DTD/svg11.dtd"><svg t="1683540308628" class="icon" viewBox="0 0 1024 1024" version="1.1" xmlns="http://www.w3.org/2000/svg" p-id="7903" xmlns:xlink="http://www.w3.org/1999/xlink" width="200" height="200"><path d="M968.854108 301.344519L559.443198 453.060359a119.205302 119.205302 0 0 1-81.319007 0.426647L53.097984 301.685837a75.431272 75.431272 0 0 1 0-142.926901L478.124191 6.957767c26.366813-9.386244 55.122853-9.215585 81.319007 0.511977l409.41091 151.715839a75.431272 75.431272 0 0 1 0 142.158936z m-26.708131-72.786057L532.905726 76.842622a42.494088 42.494088 0 0 0-28.841369-0.170659L78.867491 228.558462a1.365272 1.365272 0 0 0-1.279942 1.706589 1.450601 1.450601 0 0 0 1.279942 1.70659l425.026207 151.801169c9.386244 3.32785 19.625784 3.242521 28.841369-0.170659l409.41091-151.63051a1.365272 1.365272 0 0 0 1.279942-1.62126 1.450601 1.450601 0 0 0-1.279942-1.877249zM53.012654 780.213637l449.686431 163.747298a46.248585 46.248585 0 0 0 32.08389-0.170659l433.303168-163.576639a37.544977 37.544977 0 0 1 37.118329 6.058394 37.886295 37.886295 0 0 1-10.495527 64.679756L561.491106 1014.443097c-27.305438 10.239539-57.170761 10.324869-84.476198 0.426647L27.157818 851.293105a37.886295 37.886295 0 0 1 25.769507-71.079468z m465.643046-39.080908c-14.250025 0-28.329392-2.559885-41.640792-7.338336L27.328477 570.047095a37.800966 37.800966 0 1 1 25.598848-71.079469l449.85709 163.661969a46.419244 46.419244 0 0 0 31.99856-0.170659l433.303168-163.49131a37.544977 37.544977 0 0 1 37.118329 5.973065 37.886295 37.886295 0 0 1-10.495527 64.679756L561.491106 733.367745c-13.652719 5.11977-28.158733 7.764984-42.835406 7.764984v0.08533z" fill="#000000" fill-opacity=".45" p-id="7904"></path></svg>