<?xml version="1.0" standalone="no"?><!DOCTYPE svg PUBLIC "-//W3C//DTD SVG 1.1//EN" "http://www.w3.org/Graphics/SVG/1.1/DTD/svg11.dtd"><svg class="icon" width="200px" height="200.00px" viewBox="0 0 1024 1024" version="1.1" xmlns="http://www.w3.org/2000/svg"><path d="M904 400.09V232.014C904 170.151 853.85 120 791.986 120H232.014C170.151 120 120 170.15 120 232.014v559.972C120 853.849 170.15 904 232.014 904h559.972C853.849 904 904 853.85 904 791.986V400.09zM192.394 192.394a55.779 55.779 0 0 1 39.674-16.44h560.07a55.975 55.975 0 0 1 55.907 56.114v112.067h-672.09V232.068a55.779 55.779 0 0 1 16.439-39.674zM427.91 596.09v-196h168.18v196H427.91z m168.18 55.955v196H427.91v-196h168.18zM371.955 596.09h-196v-196h196v196zM192.394 831.701a55.541 55.541 0 0 1-16.44-39.563V652.045h196v196H232.069a55.683 55.683 0 0 1-39.674-16.344z m655.651-39.563a55.8 55.8 0 0 1-55.907 55.907H652.045v-196h196v140.093z m0-196.048h-196v-196h196v196z" /></svg>