<?xml version="1.0" standalone="no"?><!DOCTYPE svg PUBLIC "-//W3C//DTD SVG 1.1//EN" "http://www.w3.org/Graphics/SVG/1.1/DTD/svg11.dtd"><svg t="1683540315915" class="icon" viewBox="0 0 1024 1024" version="1.1" xmlns="http://www.w3.org/2000/svg" p-id="8043" xmlns:xlink="http://www.w3.org/1999/xlink" width="200" height="200"><path d="M863.800889 0H157.070222A157.525333 157.525333 0 0 0 0 157.013333v706.787556a157.525333 157.525333 0 0 0 157.013333 157.013333h706.787556a157.525333 157.525333 0 0 0 157.013333-157.013333V157.070222A157.525333 157.525333 0 0 0 863.857778 0zM196.323556 235.576889c0-21.617778 17.635556-39.253333 39.253333-39.253333h235.576889c21.617778 0 39.253333 17.635556 39.253333 39.253333 0 21.617778-17.635556 39.253333-39.253333 39.253333h-78.506667v274.887111c0 21.617778-17.635556 39.253333-39.253333 39.253334-21.617778 0-39.253333-17.635556-39.253334-39.253334V274.773333h-78.506666c-21.617778 0-39.310222-17.635556-39.310222-39.253333z m628.224 549.717333c0 21.617778-17.635556 39.253333-39.253334 39.253334H235.52c-21.617778 0-39.253333-17.635556-39.253333-39.253334 0-21.617778 17.635556-39.253333 39.253333-39.253333h549.717333c21.617778 0 39.253333 17.635556 39.253334 39.253333z m0-274.887111c0 21.617778-17.635556 39.253333-39.253334 39.253333h-157.070222c-21.617778 0-39.253333-17.635556-39.253333-39.253333 0-21.617778 17.635556-39.253333 39.253333-39.253333h157.013333c21.617778 0 39.253333 17.635556 39.253334 39.253333z m0-276.024889c0 21.617778-17.635556 39.253333-39.253334 39.253334h-157.070222c-21.617778 0-39.253333-17.635556-39.253333-39.253334 0-21.617778 17.635556-39.253333 39.253333-39.253333h157.013333c21.617778 0 39.253333 17.635556 39.253334 39.253333z" p-id="8044"></path></svg>