<?xml version="1.0" standalone="no"?><!DOCTYPE svg PUBLIC "-//W3C//DTD SVG 1.1//EN" "http://www.w3.org/Graphics/SVG/1.1/DTD/svg11.dtd"><svg class="icon" width="200px" height="200.00px" viewBox="0 0 1024 1024" version="1.1" xmlns="http://www.w3.org/2000/svg"><path d="M512.957 133.318c1.706 0 3.327 0.257 4.948 0.77l280.653 85.141c7.25 2.22 12.113 8.796 12.113 16.311v363.369c0 34.586-9.554 68.49-27.554 97.952-17.999 29.547-43.76 53.459-74.47 69.257l-195.69 100.429-195.603-100.429c-30.71-15.798-56.472-39.71-74.471-69.257-18-29.548-27.554-63.366-27.554-97.952V235.54c0-7.6 4.862-14.176 12.113-16.311l280.653-85.142c1.535-0.512 3.242-0.769 4.862-0.769m0-68.318c-8.36 0-16.634 1.196-24.738 3.672l-280.653 85.142C171.568 164.745 147 197.879 147 235.54v363.369c0 96.073 53.742 184.118 139.132 227.927l203.537 104.528A51.252 51.252 0 0 0 513.043 937a51.252 51.252 0 0 0 23.373-5.636l203.452-104.442C825.258 783.112 879 695.067 879 598.994V235.54c0-37.66-24.568-70.795-60.566-81.726L537.78 68.672C529.677 66.196 521.317 65 512.957 65z"  /><path d="M480.51 659c-8.688 0-17.461-3.324-24.105-9.973L351.642 544.188c-13.287-13.296-13.287-34.86 0-48.243 13.287-13.382 34.836-13.296 48.208 0l80.66 80.718 195.644-195.785c13.287-13.297 34.836-13.297 48.208 0 13.373 13.297 13.288 34.861 0 48.243L504.614 649.027c-6.729 6.649-15.417 9.973-24.104 9.973z m346.402-305.483c-3.237 0-6.559-0.511-9.88-1.449l-288.484-87.536a53.647 53.647 0 0 0-31.089 0l-288.484 87.451c-17.971 5.455-37.05-4.688-42.501-22.758-5.451-18.07 4.684-37.077 22.741-42.532L477.7 199.242c23.082-6.99 47.527-6.99 70.609 0l288.484 87.451c17.972 5.455 28.192 24.463 22.741 42.532-4.514 14.746-17.971 24.292-32.621 24.292z"  /></svg>