<?xml version="1.0" standalone="no"?><!DOCTYPE svg PUBLIC "-//W3C//DTD SVG 1.1//EN" "http://www.w3.org/Graphics/SVG/1.1/DTD/svg11.dtd"><svg t="1683540258598" class="icon" viewBox="0 0 1024 1024" version="1.1" xmlns="http://www.w3.org/2000/svg" p-id="6347" xmlns:xlink="http://www.w3.org/1999/xlink" width="200" height="200"><path d="M164.124444 80.554667h26.737778a133.518222 133.518222 0 0 0 133.518222 133.518222h373.930667a133.518222 133.518222 0 0 0 133.518222-133.518222h26.737778c58.993778 0 106.780444 47.786667 106.837333 106.780444v641.024c0 58.993778-47.786667 106.837333-106.837333 106.837333H164.124444a106.837333 106.837333 0 0 1-106.780444-106.837333V187.335111c0-58.936889 47.786667-106.780444 106.780444-106.780444z m106.837334 240.355555a26.737778 26.737778 0 1 0 0 53.475556h454.030222a26.737778 26.737778 0 1 0 0-53.475556h-453.973333z m0 186.936889a26.737778 26.737778 0 1 0 0 53.475556h454.030222a26.737778 26.737778 0 1 0 0-53.475556h-453.973333z m0 186.993778a26.737778 26.737778 0 1 0 0 53.418667h293.774222a26.737778 26.737778 0 1 0 0-53.475556H270.961778zM324.380444 0.455111h373.930667a80.099556 80.099556 0 0 1 0 160.199111H324.380444a80.099556 80.099556 0 1 1 0-160.199111z"  p-id="6348"></path></svg>