<?xml version="1.0" standalone="no"?><!DOCTYPE svg PUBLIC "-//W3C//DTD SVG 1.1//EN" "http://www.w3.org/Graphics/SVG/1.1/DTD/svg11.dtd"><svg t="1684807469366" class="icon" viewBox="0 0 1024 1024" version="1.1" xmlns="http://www.w3.org/2000/svg" p-id="6943" xmlns:xlink="http://www.w3.org/1999/xlink" width="200" height="200"><path d="M885.296 113c41.29 0 74.741 33.488 74.704 75.076l-0.373 524.82c0 41.438-33.451 75-74.704 75H676.864l-138.73 139.128A37.212 37.212 0 0 1 511.756 938a37.212 37.212 0 0 1-26.376-10.976l-138.17-139.127H138.74c-19.831 0.03-38.86-7.87-52.882-21.957C71.835 751.854 63.97 732.741 64 712.82l0.374-524.781c0-41.551 33.226-75.039 74.74-75.039h746.182zM712 419c-32.585 0-59 26.415-59 59s26.415 59 59 59 59-26.415 59-59-26.415-59-59-59z m-188 0c-32.585 0-59 26.415-59 59s26.415 59 59 59 59-26.415 59-59-26.415-59-59-59z m-212 0c-32.585 0-59 26.415-59 59s26.415 59 59 59 59-26.415 59-59-26.415-59-59-59z" p-id="6944"></path></svg>