<?xml version="1.0" encoding="UTF-8"?>
<svg width="1920px" height="913px" viewBox="0 0 1920 913" version="1.1" xmlns="http://www.w3.org/2000/svg" xmlns:xlink="http://www.w3.org/1999/xlink">
    <title>血缘关系-技术视角2</title>
    <defs>
        <rect id="path-1" x="0" y="0" width="199" height="44" rx="3"></rect>
        <filter x="-3.5%" y="-11.4%" width="107.0%" height="131.8%" filterUnits="objectBoundingBox" id="filter-2">
            <feOffset dx="0" dy="2" in="SourceAlpha" result="shadowOffsetOuter1"></feOffset>
            <feGaussianBlur stdDeviation="2" in="shadowOffsetOuter1" result="shadowBlurOuter1"></feGaussianBlur>
            <feColorMatrix values="0 0 0 0 0   0 0 0 0 0   0 0 0 0 0  0 0 0 0.1 0" type="matrix" in="shadowBlurOuter1"></feColorMatrix>
        </filter>
    </defs>
    <g id="页面-1" stroke="none" stroke-width="1" fill="none" fill-rule="evenodd">
        <g id="血缘关系-技术视角2" transform="translate(0.000000, -228.000000)">
            <rect fill="#EFF2F5" x="0" y="0" width="1920" height="1141"></rect>
            <g id="工具栏" transform="translate(1697.000000, 1073.000000)">
                <g id="矩形">
                    <use fill="black" fill-opacity="1" filter="url(#filter-2)" xlink:href="#path-1"></use>
                    <use fill="#FFFFFF" fill-rule="evenodd" xlink:href="#path-1"></use>
                </g>
                <g id="定位" transform="translate(161.000000, 6.000000)" fill="#000000" fill-opacity="0.85" fill-rule="nonzero">
                    <g id="dingwei" transform="translate(8.000000, 8.000000)">
                        <path d="M6.64893617,7.9787234 C6.64893617,8.71314461 7.24430219,9.30851064 7.9787234,9.30851064 C8.71314461,9.30851064 9.30851064,8.71314461 9.30851064,7.9787234 C9.30851064,7.24430219 8.71314461,6.64893617 7.9787234,6.64893617 C7.24430219,6.64893617 6.64893617,7.24430219 6.64893617,7.9787234 Z" id="路径"></path>
                        <path d="M15.4255319,7.44680851 L14.8664894,7.44680851 C14.6069149,4.05851064 11.8989362,1.35053191 8.5106383,1.09095745 L8.5106383,0.531914894 C8.5106383,0.23814641 8.27249189,0 7.9787234,0 C7.68495492,0 7.44680851,0.23814641 7.44680851,0.531914894 L7.44680851,1.09095745 C4.05851064,1.35053191 1.35053191,4.05851064 1.09095745,7.44680851 L0.531914894,7.44680851 C0.23814641,7.44680851 0,7.68495492 0,7.9787234 C0,8.27249189 0.23814641,8.5106383 0.531914894,8.5106383 L1.09095745,8.5106383 C1.35053191,11.8989362 4.05851064,14.6069149 7.44680851,14.8664894 L7.44680851,15.4255319 C7.44680851,15.7193004 7.68495492,15.9574468 7.9787234,15.9574468 C8.27249189,15.9574468 8.5106383,15.7193004 8.5106383,15.4255319 L8.5106383,14.8664894 C11.8989362,14.6069149 14.6069149,11.8989362 14.8664894,8.5106383 L15.4255319,8.5106383 C15.7193004,8.5106383 15.9574468,8.27249189 15.9574468,7.9787234 C15.9574468,7.68495492 15.7193004,7.44680851 15.4255319,7.44680851 Z M8.5106383,13.8026596 L8.5106383,12.7659574 C8.5106383,12.472189 8.27249189,12.2340426 7.9787234,12.2340426 C7.68495492,12.2340426 7.44680851,12.472189 7.44680851,12.7659574 L7.44680851,13.8026596 C4.64468085,13.5489362 2.40851064,11.312766 2.15478723,8.5106383 L3.19148936,8.5106383 C3.48525785,8.5106383 3.72340426,8.27249189 3.72340426,7.9787234 C3.72340426,7.68495492 3.48525785,7.44680851 3.19148936,7.44680851 L2.15478723,7.44680851 C2.40851064,4.64468085 4.64468085,2.40851064 7.44680851,2.15478723 L7.44680851,3.19148936 C7.44680851,3.48525785 7.68495492,3.72340426 7.9787234,3.72340426 C8.27249189,3.72340426 8.5106383,3.48525785 8.5106383,3.19148936 L8.5106383,2.15478723 C11.312766,2.40904255 13.5489362,4.64468085 13.8026596,7.44680851 L12.7659574,7.44680851 C12.472189,7.44680851 12.2340426,7.68495492 12.2340426,7.9787234 C12.2340426,8.27249189 12.472189,8.5106383 12.7659574,8.5106383 L13.8026596,8.5106383 C13.5489362,11.312766 11.312766,13.5489362 8.5106383,13.8026596 L8.5106383,13.8026596 Z" id="形状"></path>
                    </g>
                </g>
                <line x1="151" y1="14" x2="151" y2="30" id="直线" stroke-opacity="0.15" stroke="#000000" stroke-linecap="round"></line>
                <g id="放大" transform="translate(109.000000, 6.000000)" fill="#000000" fill-opacity="0.85" fill-rule="nonzero">
                    <g id="icon" transform="translate(9.000000, 9.000000)">
                        <path d="M13.7258158,6.53979492 L7.47319984,6.53979492 L7.47319984,0.215384617 C7.47319984,0.0969230756 7.37627697,0 7.25781536,0 L6.75525141,0 C6.6367898,0 6.53986645,0.0969230756 6.53986645,0.215384617 L6.53986645,6.53979492 L0.215384617,6.53979492 C0.0969230756,6.53979492 0,6.6367178 0,6.75517941 L0,7.25774336 C0,7.37620497 0.0969230756,7.47312832 0.215312824,7.47312832 L6.53979492,7.47312832 L6.53979492,13.7257433 C6.53979492,13.8442049 6.6367178,13.9411278 6.75517941,13.9411278 L7.25774336,13.9411278 C7.37620497,13.9411278 7.47312832,13.8442049 7.47312832,13.7258158 L7.47312832,7.47312832 L13.7257433,7.47312832 C13.8442049,7.47312832 13.9411278,7.37620497 13.9411278,7.25774336 L13.9411278,6.75517941 C13.9411278,6.6367178 13.8442774,6.53979492 13.7258158,6.53979492 Z" id="路径"></path>
                    </g>
                </g>
                <g id="数值" transform="translate(46.000000, 6.000000)">
                    <text id="100%" font-family="PingFangSC-Regular, PingFang SC" font-size="12" font-weight="normal" fill="#000000" fill-opacity="0.85">
                        <tspan x="6" y="21">100%</tspan>
                    </text>
                    <g id="返回" transform="translate(46.000000, 17.000000) rotate(-90.000000) translate(-46.000000, -17.000000) translate(41.000000, 12.000000)">
                        <rect id="矩形" fill="#D8D8D8" opacity="0" x="0" y="0" width="10" height="10"></rect>
                        <g id="编组" transform="translate(2.500000, 1.250000)" fill="#000000" fill-opacity="0.85" fill-rule="nonzero">
                            <path d="M4.37498922,7.38455823 C4.24612536,7.52766056 4.02569416,7.53931477 3.88245922,7.41059833 L0.115571916,4.01943255 C0.0385821975,3.95030694 -0.00367664939,3.85052153 0.000251444525,3.74712744 C-0.00367664939,3.64373336 0.0385821975,3.54394795 0.115571916,3.47482234 L3.88245922,0.0821685519 C4.02646151,-0.039241737 4.24082959,-0.0244551941 4.36679827,0.115576978 C4.49276696,0.255609151 4.48486693,0.470341323 4.34894911,0.600738656 L0.855854918,3.74638344 L4.34894911,6.89202822 C4.49179769,7.02148475 4.50370174,7.24170965 4.37498922,7.38455823 Z" id="路径"></path>
                        </g>
                    </g>
                </g>
                <g id="放大" transform="translate(6.000000, 6.000000)">
                    <rect id="矩形" fill-opacity="0.04" fill="#000000" x="0" y="0" width="32" height="32" rx="3"></rect>
                    <g id="icon" transform="translate(9.000000, 16.000000)" stroke="#000000" stroke-opacity="0.85">
                        <rect id="矩形" x="0.5" y="0.5" width="13" height="1"></rect>
                    </g>
                </g>
            </g>
            <g id="表单" transform="translate(1488.450432, 337.837838)"></g>
            <path id="路径-2" d="M902,353.934355 L911,358.434355 L902,362.934355 L902,358.934 L812.5,358.934355 L812.5,357.934355 L902,357.934 L902,353.934355 Z" transform="translate(861.157895, 357.967178) scale(1, -1) translate(-861.157895, -357.967178) " fill-opacity="0.25" fill="#000000" fill-rule="nonzero"></path>
            <path id="路径-2" d="M1022,353.934355 L1031,358.434355 L1022,362.934355 L1022,358.934 L932.5,358.934355 L932.5,357.934355 L1022,357.934 L1022,353.934355 Z" transform="translate(981.157895, 357.967178) scale(1, -1) translate(-981.157895, -357.967178) " fill-opacity="0.25" fill="#000000" fill-rule="nonzero"></path>
            <g id="加号1" transform="translate(1400.000000, 370.000000)" fill="#000000" fill-rule="nonzero" opacity="0">
                <rect id="矩形" x="0" y="0" width="16" height="16"></rect>
            </g>
            <g id="编组-3" transform="translate(911.000000, 344.980447)">
                <g id="编组-2">
                    <circle id="椭圆形" stroke="#3A8FF0" fill="#FFFFFF" cx="430" cy="13.0195534" r="11.5"></circle>
                    <path d="M435.489504,12.5405049 L430.531004,12.5420638 L430.531004,7.56356629 C430.531004,7.28755501 430.307002,7.06355285 430.03099,7.06355285 C429.754979,7.06355285 429.531004,7.28755501 429.531004,7.56356629 L429.531004,12.5385696 L424.493993,12.5358012 C424.493482,12.5358012 424.492998,12.5358012 424.492488,12.5358012 C424.216987,12.5358012 423.993495,12.7582982 423.992467,13.0343095 C423.990969,13.3103208 424.214487,13.5348067 424.490472,13.5358012 L429.530977,13.5385696 L429.530977,18.5255606 C429.530977,18.8020557 429.754979,19.0255741 430.030964,19.0255741 C430.306948,19.0255741 430.530977,18.8020826 430.530977,18.5255606 L430.530977,13.5420638 L435.485472,13.5405049 C435.486467,13.5405049 435.486978,13.5405049 435.487461,13.5405049 C435.762962,13.5405049 435.986453,13.3180079 435.987478,13.0419966 C435.988496,12.7659853 435.765005,12.5414994 435.489504,12.5405049 Z" id="路径" fill="#575B66" fill-rule="nonzero"></path>
                    <g id="编组-6">
                        <circle id="椭圆形" stroke="#3A8FF0" fill="#FFFFFF" cx="12" cy="12" r="11.5"></circle>
                        <g id="数据处理" transform="translate(4.000000, 4.019553)" fill-rule="nonzero">
                            <rect id="矩形" fill="#000000" opacity="0" x="0" y="0" width="16" height="16"></rect>
                            <path d="M10.0078125,2.509375 L3.6375,2.509375 C2.909375,2.509375 2.3125,3.10625 2.3125,3.834375 C2.3125,4.5625 2.909375,5.159375 3.6375,5.159375 L10.009375,5.159375 C10.7375,5.159375 11.334375,4.5625 11.334375,3.834375 C11.334375,3.10625 10.7375,2.509375 10.0078125,2.509375 Z M10.0078125,7.06875 L3.6375,7.06875 C2.909375,7.06875 2.3125,7.665625 2.3125,8.39375 C2.3125,9.121875 2.909375,9.71875 3.6375,9.71875 L10.009375,9.71875 C10.7375,9.71875 11.334375,9.121875 11.334375,8.39375 C11.334375,7.6640625 10.7375,7.06875 10.0078125,7.06875 L10.0078125,7.06875 Z M10.0078125,11.24375 L3.6375,11.24375 C2.909375,11.24375 2.3125,11.840625 2.3125,12.56875 C2.3125,13.2984375 2.909375,13.89375 3.6375,13.89375 L10.009375,13.89375 C10.7375,13.89375 11.334375,13.296875 11.334375,12.56875 C11.334375,11.840625 10.7375,11.24375 10.0078125,11.24375 Z" id="形状" fill="#AED7FF"></path>
                            <path d="M10.05,5.359375 L2.9421875,5.359375 C1.925,5.359375 1.096875,4.53125 1.096875,3.5140625 C1.096875,2.496875 1.925,1.66875 2.9421875,1.66875 L10.05,1.66875 C11.0671875,1.66875 11.8953125,2.496875 11.8953125,3.5140625 C11.8953125,4.53125 11.06875,5.359375 10.05,5.359375 Z M2.9421875,2.2828125 C2.2640625,2.2828125 1.7109375,2.834375 1.7109375,3.5140625 C1.7109375,4.1921875 2.2625,4.7453125 2.9421875,4.7453125 L10.05,4.7453125 C10.728125,4.7453125 11.28125,4.19375 11.28125,3.5140625 C11.28125,2.8359375 10.7296875,2.2828125 10.05,2.2828125 L2.9421875,2.2828125 Z M10.05,9.875 L2.9421875,9.875 C1.925,9.875 1.096875,9.046875 1.096875,8.0296875 C1.096875,7.0125 1.925,6.184375 2.9421875,6.184375 L10.05,6.184375 C11.0671875,6.184375 11.8953125,7.0125 11.8953125,8.0296875 C11.8953125,9.046875 11.06875,9.875 10.05,9.875 Z M2.9421875,6.8 C2.2640625,6.8 1.7109375,7.3515625 1.7109375,8.03125 C1.7109375,8.7109375 2.2625,9.2625 2.9421875,9.2625 L10.05,9.2625 C10.728125,9.2625 11.28125,8.7109375 11.28125,8.03125 C11.28125,7.3515625 10.7296875,6.8 10.05,6.8 L2.9421875,6.8 Z M10.05,14.04375 L2.9421875,14.04375 C1.925,14.04375 1.096875,13.215625 1.096875,12.1984375 C1.096875,11.18125 1.925,10.353125 2.9421875,10.353125 L10.05,10.353125 C11.0671875,10.353125 11.8953125,11.18125 11.8953125,12.1984375 C11.8953125,13.215625 11.06875,14.04375 10.05,14.04375 Z M2.9421875,10.9671875 C2.2640625,10.9671875 1.7109375,11.51875 1.7109375,12.1984375 C1.7109375,12.8765625 2.2625,13.4296875 2.9421875,13.4296875 L10.05,13.4296875 C10.728125,13.4296875 11.28125,12.878125 11.28125,12.1984375 C11.28125,11.5203125 10.7296875,10.9671875 10.05,10.9671875 L2.9421875,10.9671875 Z" id="形状" fill="#1195FE"></path>
                            <path d="M3.9859375,4.4125 C3.5140625,4.4125 3.13125,4.0296875 3.13125,3.5578125 C3.13125,3.0859375 3.5140625,2.703125 3.9859375,2.703125 C4.4578125,2.703125 4.840625,3.0859375 4.840625,3.5578125 C4.840625,4.0296875 4.45625,4.4125 3.9859375,4.4125 L3.9859375,4.4125 Z M3.9859375,3.1375 C3.753125,3.1375 3.565625,3.3265625 3.565625,3.5578125 C3.565625,3.790625 3.7546875,3.978125 3.9859375,3.978125 C4.2171875,3.978125 4.40625,3.7890625 4.40625,3.5578125 C4.40625,3.3265625 4.2171875,3.1375 3.9859375,3.1375 Z M3.9859375,8.8703125 C3.5140625,8.8703125 3.13125,8.4875 3.13125,8.015625 C3.13125,7.54375 3.5140625,7.1609375 3.9859375,7.1609375 C4.4578125,7.1609375 4.840625,7.54375 4.840625,8.015625 C4.840625,8.4875 4.45625,8.8703125 3.9859375,8.8703125 L3.9859375,8.8703125 Z M3.9859375,7.5953125 C3.753125,7.5953125 3.565625,7.784375 3.565625,8.015625 C3.565625,8.2484375 3.7546875,8.4359375 3.9859375,8.4359375 C4.2171875,8.4359375 4.40625,8.2484375 4.40625,8.015625 C4.40625,7.7828125 4.2171875,7.5953125 3.9859375,7.5953125 Z M3.9859375,13.171875 C3.5140625,13.171875 3.13125,12.7890625 3.13125,12.3171875 C3.13125,11.8453125 3.5140625,11.4625 3.9859375,11.4625 C4.4578125,11.4625 4.840625,11.8453125 4.840625,12.3171875 C4.840625,12.7875 4.45625,13.171875 3.9859375,13.171875 L3.9859375,13.171875 Z M3.9859375,11.8953125 C3.753125,11.8953125 3.565625,12.084375 3.565625,12.315625 C3.565625,12.546875 3.7546875,12.7359375 3.9859375,12.7359375 C4.2171875,12.7359375 4.40625,12.546875 4.40625,12.315625 C4.40625,12.084375 4.2171875,11.8953125 3.9859375,11.8953125 L3.9859375,11.8953125 Z M9.5640625,3.85625 L7.1328125,3.85625 C7.1109375,3.85625 7.09375,3.8390625 7.09375,3.8171875 L7.09375,3.2578125 C7.09375,3.2359375 7.1109375,3.21875 7.1328125,3.21875 L9.5640625,3.21875 C9.5859375,3.21875 9.603125,3.2359375 9.603125,3.2578125 L9.603125,3.8171875 C9.6015625,3.8390625 9.584375,3.85625 9.5640625,3.85625 Z M9.5640625,8.340625 L7.1328125,8.340625 C7.1109375,8.340625 7.09375,8.3234375 7.09375,8.3015625 L7.09375,7.7421875 C7.09375,7.7203125 7.1109375,7.703125 7.1328125,7.703125 L9.5640625,7.703125 C9.5859375,7.703125 9.603125,7.7203125 9.603125,7.7421875 L9.603125,8.3015625 C9.6015625,8.3234375 9.584375,8.340625 9.5640625,8.340625 Z M9.5640625,12.65 L7.1328125,12.65 C7.1109375,12.65 7.09375,12.6328125 7.09375,12.6109375 L7.09375,12.0515625 C7.09375,12.0296875 7.1109375,12.0125 7.1328125,12.0125 L9.5640625,12.0125 C9.5859375,12.0125 9.603125,12.0296875 9.603125,12.0515625 L9.603125,12.6109375 C9.6015625,12.6328125 9.584375,12.65 9.5640625,12.65 Z M14.771875,4.03125 L12.340625,4.03125 C12.31875,4.03125 12.3015625,4.0140625 12.3015625,3.9921875 L12.3015625,3.4328125 C12.3015625,3.4109375 12.31875,3.39375 12.340625,3.39375 L14.771875,3.39375 C14.79375,3.39375 14.8109375,3.4109375 14.8109375,3.4328125 L14.8109375,3.9921875 C14.809375,4.0140625 14.7921875,4.03125 14.771875,4.03125 Z M14.771875,8.3328125 L12.340625,8.3328125 C12.31875,8.3328125 12.3015625,8.315625 12.3015625,8.29375 L12.3015625,7.734375 C12.3015625,7.7125 12.31875,7.6953125 12.340625,7.6953125 L14.771875,7.6953125 C14.79375,7.6953125 14.8109375,7.7125 14.8109375,7.734375 L14.8109375,8.29375 C14.809375,8.315625 14.7921875,8.3328125 14.771875,8.3328125 Z M14.771875,12.634375 L12.340625,12.634375 C12.31875,12.634375 12.3015625,12.6171875 12.3015625,12.5953125 L12.3015625,12.0359375 C12.3015625,12.0140625 12.31875,11.996875 12.340625,11.996875 L14.771875,11.996875 C14.79375,11.996875 14.8109375,12.0140625 14.8109375,12.0359375 L14.8109375,12.5953125 C14.809375,12.6171875 14.7921875,12.634375 14.771875,12.634375 Z" id="形状" fill="#1195FE"></path>
                            <path d="M14.884375,3.434375 L14.884375,12.596875 C14.884375,12.61875 14.8671875,12.6359375 14.8453125,12.6359375 L14.2859375,12.6359375 C14.2640625,12.6359375 14.246875,12.61875 14.246875,12.596875 L14.246875,3.434375 C14.246875,3.4125 14.2640625,3.3953125 14.2859375,3.3953125 L14.8453125,3.3953125 C14.8671875,3.3953125 14.884375,3.4125 14.884375,3.434375 Z" id="路径" fill="#1195FE"></path>
                        </g>
                    </g>
                </g>
                <rect id="矩形" fill="#000000" fill-rule="nonzero" opacity="0" x="241" y="21.0195534" width="16" height="16"></rect>
                <g id="搜索" transform="translate(393.000000, 3.019553)"></g>
            </g>
            <path id="路径-2" d="M1030.5071,477.504204 L1039.5,482.018375 L1030.49292,486.504193 L1030.499,482.507 L1029.24537,482.513232 C991.871207,482.728879 962.882201,485.48545 931.318213,490.734033 C928.678595,491.172958 921.217686,492.484089 913.959905,493.750236 L912.845604,493.94455 C908.215005,494.751679 903.773751,495.520997 900.845306,496.01091 L900.119731,496.131691 C899.544852,496.226846 899.046175,496.307939 898.637112,496.372522 C878.723114,499.516521 850.255323,501.222214 813.22701,501.491628 L812.003195,501.49999 L811.996805,500.50001 C849.57646,500.259841 878.406898,498.554058 898.481165,495.384756 C904.032836,494.508265 926.165437,490.577125 931.154181,489.747577 C963.121633,484.431906 992.458644,481.667729 1030.49938,481.506955 L1030.5071,477.504204 Z" fill="#3A8FF0" fill-rule="nonzero"></path>
            <path id="路径-2" d="M1030.50935,428.50553 L1039.5,433.024178 L1030.49069,437.50551 L1030.498,433.509 L1029.34842,433.51664 C991.933719,433.794479 962.92854,437.42088 931.343066,444.33161 C928.889942,444.86834 922.270127,446.396883 915.519758,447.947789 L914.327983,448.221513 C907.774802,449.726102 901.322293,451.198037 898.660835,451.750916 C878.735963,455.890016 850.256799,458.134947 813.21512,458.489104 L812.004204,458.499982 L811.995796,457.500018 C849.568409,457.184065 878.391789,454.940163 898.457442,450.771818 C901.111818,450.220411 907.558998,448.749626 914.109817,447.245558 L915.301195,446.971921 L916.199861,446.765408 C922.629815,445.287539 928.779768,443.86879 931.129328,443.354719 C963.104615,436.3587 992.450057,432.720628 1030.50052,432.509143 L1030.50935,428.50553 Z" fill="#3A8FF0" fill-rule="nonzero"></path>
            <g id="编组-4" transform="translate(498.000000, 323.000000)">
                <g id="编组-3">
                    <g id="融合表">
                        <g id="表头" transform="translate(12.000000, 0.000000)">
                            <path d="M3,0 L297,0 C298.656854,-3.04359188e-16 300,1.34314575 300,3 L300,74 L300,74 L0,74 L0,3 C-2.02906125e-16,1.34314575 1.34314575,3.04359188e-16 3,0 Z" id="矩形" fill="#FFFFFF"></path>
                            <text id="库名称" font-family="PingFangSC-Regular, PingFang SC" font-size="14" font-weight="normal" line-spacing="22" fill="#000000" fill-opacity="0.65">
                                <tspan x="158" y="56">库名称</tspan>
                            </text>
                            <path d="M146,46 L146.133333,46.0006667 C146.61132,46.0043811 147.088815,46.0321942 147.564,46.084 L147.791333,46.1106667 L148.032,46.144 L148.268333,46.1816667 L148.386667,46.2023333 L148.619333,46.2466667 C150.575667,46.6423333 151.946333,47.4886667 151.998333,48.601 L152,48.6666667 L152,55.6666667 C152,56.8113333 150.614,57.6833333 148.619333,58.0866667 L148.386667,58.131 L148.268333,58.1516667 L148.032,58.189 L147.791333,58.2223333 C147.224667,58.295 146.623,58.3333333 146,58.3333333 C145.377,58.3333333 144.775333,58.295 144.208667,58.2223333 L143.968,58.189 L143.731667,58.1516667 C141.589667,57.7893333 140.055667,56.9096667 140.001667,55.7313333 L140,55.6666667 L140,48.6666667 L140.001667,48.601 C140.053667,47.4886667 141.424333,46.6423333 143.380667,46.2466667 L143.613333,46.2023333 L143.731667,46.1816667 L143.968,46.1443333 L144.208667,46.111 C144.71485,46.0468854 145.224172,46.0106086 145.734333,46.0023333 L146,46 Z M148.268333,54.485 L148.032,54.5223333 L147.791333,54.5556667 C147.224667,54.6283333 146.623,54.6666667 146,54.6666667 C145.377,54.6666667 144.775333,54.6283333 144.208667,54.5556667 L143.968,54.5223333 L143.731667,54.485 C142.614667,54.296 141.662667,53.9663333 141,53.527 L141,55.6666667 C141,55.994 141.377667,56.335 142.016667,56.6226667 L142.169,56.688 C142.404,56.7846667 142.669,56.8743333 142.959667,56.954 L143.157333,57.0056667 C143.358333,57.0556667 143.570667,57.1016667 143.791667,57.1416667 L144.016333,57.18 L144.246667,57.2143333 C144.402333,57.236 144.561667,57.255 144.724333,57.271 L144.970667,57.293 L145.221667,57.3103333 L145.477333,57.323 C145.825641,57.3367829 146.174359,57.3367829 146.522667,57.323 L146.778333,57.3103333 L147.029333,57.293 L147.276,57.271 C147.438333,57.255 147.597667,57.236 147.753333,57.2143333 L147.983667,57.18 L148.208333,57.1416667 C148.429667,57.1016667 148.641667,57.056 148.842667,57.0056667 L149.040333,56.954 C149.331,56.874 149.596,56.7846667 149.831,56.688 L149.983333,56.6226667 C150.597667,56.346 150.970667,56.0203333 150.998333,55.7043333 L151,55.6666667 L151,53.5266667 C150.337667,53.9663333 149.385667,54.296 148.268333,54.485 L148.268333,54.485 Z M151,50.1933333 C150.370333,50.611 149.48,50.9293333 148.434333,51.1223333 L148.267667,51.1516667 L148.031667,51.189 L147.791,51.2223333 C147.224333,51.295 146.622667,51.3333333 145.999667,51.3333333 C145.465667,51.3333333 144.947333,51.3053333 144.453,51.2513333 L144.208333,51.2223333 L143.967667,51.189 L143.731333,51.1516667 C142.614333,50.9626667 141.662333,50.633 140.999667,50.1936667 L140.999667,52 C140.999667,52.3273333 141.377333,52.6683333 142.016333,52.956 L142.168667,53.0213333 C142.403667,53.118 142.668667,53.2076667 142.959333,53.2873333 L143.157,53.339 C143.358,53.389 143.570333,53.435 143.791333,53.475 L144.016,53.5133333 L144.246333,53.5476667 C144.402,53.5693333 144.561333,53.5883333 144.724,53.6043333 L144.970333,53.6263333 L145.221333,53.6436667 L145.477,53.6563333 C145.825308,53.6701162 146.174025,53.6701162 146.522333,53.6563333 L146.778,53.6436667 L147.029,53.6263333 L147.275667,53.6043333 C147.438,53.5883333 147.597333,53.5693333 147.753,53.5476667 L147.983333,53.5133333 L148.208,53.475 C148.429333,53.435 148.641333,53.3893333 148.842333,53.339 L149.04,53.2873333 C149.330667,53.2073333 149.595667,53.118 149.830667,53.0213333 L149.983,52.956 C150.597333,52.6793333 150.970333,52.3536667 150.998,52.0376667 L150.999667,52 L150.999667,50.1933333 L151,50.1933333 Z M146,47 L145.868,47.0006667 L145.671333,47.004 L145.477333,47.0103333 L145.221667,47.023 L144.970667,47.0403333 L144.724,47.0623333 C144.615667,47.073 144.509,47.085 144.403667,47.0983333 L144.247,47.119 L144.016333,47.1533333 L143.791667,47.1916667 C143.625667,47.2216667 143.465,47.255 143.31,47.2906667 L143.157333,47.3273333 L142.959667,47.3793333 C142.717667,47.446 142.493,47.5193333 142.289,47.5976667 L142.169,47.6453333 L142.016667,47.7106667 C141.377667,47.9983333 141,48.3393333 141,48.6666667 C141,48.98 141.345667,49.3053333 141.935,49.585 L142.016667,49.6226667 L142.169,49.688 C142.364667,49.7686667 142.581333,49.8443333 142.816667,49.9133333 L142.96,49.954 L143.157333,50.0056667 C143.308,50.0433333 143.465,50.0783333 143.627333,50.1106667 L143.791667,50.1416667 L144.016333,50.18 L144.246667,50.2143333 C144.350333,50.229 144.455667,50.242 144.562667,50.2543333 L144.724333,50.271 L144.970667,50.293 L145.221667,50.3103333 L145.477333,50.323 C145.768192,50.3345005 146.05935,50.3363904 146.350333,50.3286667 L146.522667,50.323 L146.778333,50.3103333 L147.029333,50.293 L147.276,50.271 C147.384333,50.2603333 147.491,50.2483333 147.596333,50.235 L147.753,50.2143333 L147.983667,50.18 L148.208333,50.1416667 C148.374333,50.1116667 148.535,50.0783333 148.69,50.0426667 L148.842667,50.006 L149.040333,49.954 C149.282333,49.8873333 149.507,49.814 149.711,49.7356667 L149.831,49.688 L149.983333,49.6226667 C150.622333,49.335 151,48.994 151,48.6666667 C151,48.3533333 150.654333,48.028 150.065,47.7483333 L149.983333,47.7106667 L149.831,47.6453333 C149.619141,47.5591042 149.402963,47.4838925 149.183333,47.42 L149.04,47.3793333 L148.842667,47.3276667 C148.686889,47.2888002 148.530174,47.2537895 148.372667,47.2226667 L148.208333,47.1916667 L147.983667,47.1533333 L147.753333,47.119 C147.648182,47.1042656 147.542839,47.0909311 147.437333,47.079 L147.275667,47.0623333 L147.029333,47.0403333 L146.778333,47.023 L146.522667,47.0103333 C146.408333,47.0056667 146.292667,47.0026667 146.176,47.001 L146,47 Z" id="形状" fill-opacity="0.65" fill="#000000" fill-rule="nonzero"></path>
                            <path d="M0,75 L300,75 L300,556 C300,558.209139 298.209139,560 296,560 L4,560 C1.790861,560 -1.73547709e-16,558.209139 0,556 L0,75 L0,75 Z" id="矩形" fill="#FAFBFC"></path>
                            <line x1="0.5" y1="74.5" x2="300.5" y2="74.5" id="直线-2" stroke-opacity="0.05" stroke="#000000" stroke-linecap="square"></line>
                            <g id="表面性icon" transform="translate(16.000000, 17.000000)">
                                <g id="icon" transform="translate(0.000000, 1.000000)"></g>
                                <g id="biaodanzujian-biaoge" transform="translate(1.442649, 3.420455)" fill="#FAFAFA" fill-rule="nonzero">
                                    <polygon id="路径" points="17.0454545 0 17.0454545 2.49005682 0 2.49005682 0 0"></polygon>
                                </g>
                            </g>
                            <text id="CWPZTXXB-(财务凭证扩展信息表)" font-family="PingFangSC-Medium, PingFang SC" font-size="16" font-weight="400" fill="#000000">
                                <tspan x="16" y="29" fill-opacity="0.85">CWPZTXXB</tspan>
                                <tspan x="105.36" y="29" font-family="PingFangSC-Regular, PingFang SC" font-weight="normal" fill-opacity="0.85"> </tspan>
                                <tspan x="110.688" y="29" font-family="PingFangSC-Regular, PingFang SC" font-weight="normal" fill-opacity="0.45">(财务凭证扩展信息表)</tspan>
                            </text>
                            <text id="会计核算系统" font-family="PingFangSC-Regular, PingFang SC" font-size="14" font-weight="normal" line-spacing="22" fill="#000000" fill-opacity="0.65">
                                <tspan x="40" y="57">会计核算系统</tspan>
                            </text>
                            <text id="12-字段" font-family="PingFangSC-Regular, PingFang SC" font-size="12" font-weight="normal" fill="#3A8FF0">
                                <tspan x="13" y="96">12 字段</tspan>
                            </text>
                            <text id="展开更多" font-family="PingFangSC-Regular, PingFang SC" font-size="12" font-weight="normal" line-spacing="20" fill="#3A8FF0">
                                <tspan x="12" y="547">展开更多</tspan>
                            </text>
                        </g>
                        <rect id="矩形" stroke-opacity="0.08" stroke="#000000" x="12.5" y="0.5" width="300" height="561" rx="4"></rect>
                        <circle id="椭圆形" stroke-opacity="0.1" stroke="#000000" fill="#FFFFFF" cx="12" cy="36" r="11.5"></circle>
                        <path d="M17.4895041,35.5209515 L12.5310039,35.5225104 L12.5310039,30.5440129 C12.5310039,30.2680016 12.3070017,30.0439995 12.0309905,30.0439995 C11.7549792,30.0439995 11.5310039,30.2680016 11.5310039,30.5440129 L11.5310039,35.5190163 L6.49399273,35.5162478 C6.49348205,35.5162478 6.49299825,35.5162478 6.49248756,35.5162478 C6.21698695,35.5162478 5.99349548,35.7387448 5.99246657,36.0147561 C5.99096895,36.2907674 6.2144873,36.5152533 6.4904717,36.5162478 L11.530977,36.5190163 L11.530977,41.5060073 C11.530977,41.7825024 11.7549792,42.0060207 12.0309636,42.0060207 C12.306948,42.0060207 12.530977,41.7825292 12.530977,41.5060073 L12.530977,36.5225104 L17.4854724,36.5209515 C17.4864669,36.5209515 17.4869775,36.5209515 17.4874614,36.5209515 C17.762962,36.5209515 17.9864534,36.2984545 17.9874783,36.0224432 C17.9884962,35.7464319 17.7650047,35.521946 17.4895041,35.5209515 Z" id="路径" fill="#575B66" fill-rule="nonzero"></path>
                    </g>
                    <g id="业务系统" transform="translate(28.000000, 45.000000)" fill="#000000" fill-rule="nonzero">
                        <rect id="矩形" opacity="0" x="0" y="0" width="16" height="16"></rect>
                        <path d="M15.015625,12.3482187 L15.015625,1.125 L0.96875,1.125 L0.96875,12.3482187 L7.52395313,12.3482187 L7.52395313,13.2834844 L4.71457813,13.2834844 L4.71457813,14.21875 L11.2697969,14.21875 L11.2697969,13.2834844 L8.46042188,13.2834844 L8.46042188,12.3482188 L15.015625,12.3482187 Z M1.90520312,2.06026563 L14.0791719,2.06026563 L14.0791719,9.54240625 L1.90520312,9.54240625 L1.90520312,2.06026563 Z M1.90520312,11.4129531 L1.90520312,10.4776563 L14.0791719,10.4776563 L14.0791719,11.4129375 L1.90520312,11.4129375 L1.90520312,11.4129531 Z" id="形状" fill-opacity="0.65"></path>
                    </g>
                    <rect id="矩形" fill="#000000" fill-rule="nonzero" opacity="0" x="158" y="47" width="16" height="16"></rect>
                    <g id="搜索" transform="translate(277.000000, 27.000000)" fill="#000000" fill-opacity="0.65">
                        <path d="M16.8178786,4.06077103 L13.6284189,7.24619487 C14.4674227,8.27585824 14.9702024,9.58860127 14.9702024,11.0195534 C14.9702024,14.3231863 12.2913053,17 8.98510118,17 C5.67889704,17 3,14.3231863 3,11.0195534 C3,7.71592045 5.67889704,5.03910677 8.98510118,5.03910677 C10.4109406,5.03910677 11.7200356,5.53682924 12.7473871,6.368959 L15.9368468,3.18197978 C16.0582611,3.06065993 16.2170336,3 16.3773627,3 C16.5361352,3 16.6964643,3.06065993 16.8178786,3.18197978 C17.0607071,3.42461949 17.0607071,3.81813132 16.8178786,4.06077103 L16.8178786,4.06077103 Z M10.8779186,6.54005111 C10.2786302,6.28652372 9.64198354,6.15898234 8.98510118,6.15898234 C8.32821881,6.15898234 7.69157216,6.2880791 7.09228374,6.54005111 C6.51323104,6.78424619 5.99332889,7.13576269 5.54503002,7.58215754 C5.09828775,8.02855238 4.74649767,8.5496056 4.50211252,9.12820798 C4.24838781,9.72703033 4.12074716,10.3631819 4.12074716,11.0195534 C4.12074716,11.6759249 4.24994441,12.3120764 4.50211252,12.9108988 C4.74649767,13.4895012 5.09828775,14.008999 5.54503002,14.4569492 C5.99177229,14.9033441 6.51323104,15.2548606 7.09228374,15.4990557 C7.69157216,15.752583 8.32821881,15.8801244 8.98510118,15.8801244 C9.64198354,15.8801244 10.2786302,15.7510277 10.8779186,15.4990557 C11.4569713,15.2548606 11.9768735,14.9033441 12.4251723,14.4569492 C12.8719146,14.0105544 13.2237047,13.4910565 13.4680898,12.9108988 C13.7218145,12.3120764 13.8494552,11.6759249 13.8494552,11.0195534 C13.8494552,10.3631819 13.7202579,9.72703033 13.4680898,9.12820798 C13.2237047,8.5496056 12.8719146,8.03010777 12.4251723,7.58215754 C11.9768735,7.13576269 11.4569713,6.78580158 10.8779186,6.54005111 L10.8779186,6.54005111 Z" id="Shape" transform="translate(10.000000, 10.000000) scale(1, -1) translate(-10.000000, -10.000000) "></path>
                    </g>
                    <g id="通用/Icon图标/Line/Down" transform="translate(72.750000, 87.500000)" fill="#3A8FF0" fill-rule="nonzero">
                        <g id="路径">
                            <path d="M10.2814236,0 L9.25603294,0 C9.186306,0 9.12068081,0.0341796875 9.07966518,0.0902343765 L5.19548559,5.44414043 L1.311306,0.0902343765 C1.27029037,0.0341796875 1.2046653,0 1.13493884,0 L0.109548159,0 C0.0206809714,0 -0.0312721543,0.101171874 0.0206809714,0.173632815 L4.84138393,6.81953144 C5.01638412,7.06015635 5.37458706,7.06015635 5.54822016,6.81953144 L10.3689232,0.173632815 C10.4222431,0.101171874 10.3702908,0 10.2814236,0 Z" transform="translate(5.195227, 3.500000) scale(1, -1) translate(-5.195227, -3.500000) "></path>
                        </g>
                    </g>
                </g>
                <rect id="矩形" stroke-opacity="0.05" stroke="#000000" fill="#FFFFFF" x="24.5" y="107.5" width="275" height="420" rx="8"></rect>
                <g id="字段" transform="translate(24.000000, 108.000000)">
                    <rect id="矩形" fill-opacity="0.05" fill="#000000" x="0.734042553" y="41" width="274.531915" height="1"></rect>
                    <path d="M268,0.5 C270.071068,0.5 271.946068,1.33946609 273.303301,2.69669914 C274.660534,4.05393219 275.5,5.92893219 275.5,8 L275.5,8 L275.5,41.5 L0.5,41.5 L0.5,8 C0.5,5.92893219 1.33946609,4.05393219 2.69669914,2.69669914 C4.05393219,1.33946609 5.92893219,0.5 8,0.5 L8,0.5 Z" id="矩形" stroke-opacity="0.6" stroke="#3A8FF0"></path>
                    <text id="PZLX" font-family="PingFangSC-Regular, PingFang SC" font-size="14" font-weight="normal" line-spacing="22" fill="#3A8FF0">
                        <tspan x="15" y="25">PZLX</tspan>
                    </text>
                </g>
                <g id="字段" transform="translate(24.000000, 191.000000)">
                    <rect id="矩形" fill-opacity="0.05" fill="#000000" x="0.734042553" y="43" width="274.531915" height="1"></rect>
                    <rect id="矩形" x="0" y="0" width="276" height="42"></rect>
                    <text id="ZDRQ" font-family="PingFangSC-Regular, PingFang SC" font-size="14" font-weight="normal" line-spacing="22" fill="#000000" fill-opacity="0.65">
                        <tspan x="15" y="25">ZDRQ</tspan>
                    </text>
                </g>
                <g id="字段" transform="translate(24.500000, 149.000000)">
                    <rect id="矩形" fill-opacity="0.05" fill="#000000" x="0.234042553" y="42" width="274.531915" height="1"></rect>
                    <polyline id="路径" stroke="#3A8FF0" opacity="0.6" points="275 0 275 42 0 42 0 0"></polyline>
                    <text id="PZBH" font-family="PingFangSC-Regular, PingFang SC" font-size="14" font-weight="normal" line-spacing="22" fill="#3A8FF0">
                        <tspan x="14.5" y="25">PZBH</tspan>
                    </text>
                </g>
                <g id="字段" transform="translate(24.000000, 234.000000)">
                    <rect id="矩形" fill-opacity="0.05" fill="#000000" x="0.734042553" y="42" width="274.531915" height="1"></rect>
                    <rect id="矩形" x="0" y="0" width="276" height="42"></rect>
                    <text id="SHRQ" font-family="PingFangSC-Regular, PingFang SC" font-size="14" font-weight="normal" line-spacing="22" fill="#000000" fill-opacity="0.65">
                        <tspan x="15" y="25">SHRQ</tspan>
                    </text>
                </g>
                <g id="字段" transform="translate(24.000000, 276.000000)">
                    <rect id="矩形" fill-opacity="0.05" fill="#000000" x="0.734042553" y="42" width="274.531915" height="1"></rect>
                    <rect id="矩形" x="0" y="0" width="276" height="42"></rect>
                    <text id="FDJS" font-family="PingFangSC-Regular, PingFang SC" font-size="14" font-weight="normal" line-spacing="22" fill="#000000" fill-opacity="0.65">
                        <tspan x="15" y="25">FDJS</tspan>
                    </text>
                </g>
                <g id="字段" transform="translate(24.000000, 360.000000)">
                    <rect id="矩形" fill-opacity="0.05" fill="#000000" x="0.734042553" y="42" width="274.531915" height="1"></rect>
                    <rect id="矩形" opacity="0.6" x="0" y="0" width="276" height="42"></rect>
                    <text id="SLDJ" font-family="PingFangSC-Regular, PingFang SC" font-size="14" font-weight="normal" line-spacing="22" fill="#000000" fill-opacity="0.65">
                        <tspan x="15" y="25">SLDJ</tspan>
                    </text>
                </g>
                <g id="字段" transform="translate(24.000000, 444.000000)">
                    <rect id="矩形" fill-opacity="0.05" fill="#000000" x="0.734042553" y="42" width="274.531915" height="1"></rect>
                    <rect id="矩形" x="0" y="0" width="276" height="42"></rect>
                    <text id="SHR" font-family="PingFangSC-Regular, PingFang SC" font-size="14" font-weight="normal" line-spacing="22" fill="#000000" fill-opacity="0.65">
                        <tspan x="15" y="25">SHR</tspan>
                    </text>
                </g>
                <g id="字段" transform="translate(24.000000, 318.000000)" fill="#000000">
                    <rect id="矩形" fill-opacity="0.05" x="0.734042553" y="41" width="274.531915" height="1"></rect>
                    <text id="PHRQ" font-family="PingFangSC-Regular, PingFang SC" font-size="14" font-weight="normal" line-spacing="22" fill-opacity="0.65">
                        <tspan x="15" y="25">PHRQ</tspan>
                    </text>
                </g>
                <g id="字段" transform="translate(24.000000, 402.000000)">
                    <rect id="矩形" fill-opacity="0.05" fill="#000000" x="0.734042553" y="42" width="274.531915" height="1"></rect>
                    <rect id="矩形" x="0" y="0" width="276" height="42"></rect>
                    <text id="XGR" font-family="PingFangSC-Regular, PingFang SC" font-size="14" font-weight="normal" line-spacing="22" fill="#000000" fill-opacity="0.65">
                        <tspan x="15" y="25">XGR</tspan>
                    </text>
                </g>
                <g id="字段" transform="translate(24.000000, 118.000000)">
                    <rect id="矩形" x="0" y="368" width="276" height="42"></rect>
                    <text id="CNR" font-family="PingFangSC-Regular, PingFang SC" font-size="14" font-weight="normal" line-spacing="22" fill="#000000" fill-opacity="0.65">
                        <tspan x="15" y="393">CNR</tspan>
                    </text>
                    <text id="凭证类型" font-family="PingFangSC-Regular, PingFang SC" font-size="14" font-weight="normal" line-spacing="22" fill="#3A8FF0">
                        <tspan x="204" y="15">凭证类型</tspan>
                    </text>
                    <text id="制单日期" font-family="PingFangSC-Regular, PingFang SC" font-size="14" font-weight="normal" line-spacing="22" fill="#000000" fill-opacity="0.65">
                        <tspan x="204" y="98">制单日期</tspan>
                    </text>
                    <text id="凭证编号" font-family="PingFangSC-Regular, PingFang SC" font-size="14" font-weight="normal" line-spacing="22" fill="#3A8FF0">
                        <tspan x="204" y="56">凭证编号  </tspan>
                    </text>
                    <text id="审核日期" font-family="PingFangSC-Regular, PingFang SC" font-size="14" font-weight="normal" line-spacing="22" fill="#000000" fill-opacity="0.65">
                        <tspan x="204" y="141">审核日期</tspan>
                    </text>
                    <text id="附单据数" font-family="PingFangSC-Regular, PingFang SC" font-size="14" font-weight="normal" line-spacing="22" fill="#000000" fill-opacity="0.65">
                        <tspan x="204" y="183">附单据数</tspan>
                    </text>
                    <text id="数量单位" font-family="PingFangSC-Regular, PingFang SC" font-size="14" font-weight="normal" line-spacing="22" fill="#000000" fill-opacity="0.65">
                        <tspan x="204" y="267">数量单位</tspan>
                    </text>
                    <text id="审核人" font-family="PingFangSC-Regular, PingFang SC" font-size="14" font-weight="normal" line-spacing="22" fill="#000000" fill-opacity="0.65">
                        <tspan x="218" y="351">审核人</tspan>
                    </text>
                    <text id="票号日期" font-family="PingFangSC-Regular, PingFang SC" font-size="14" font-weight="normal" line-spacing="22" fill="#000000" fill-opacity="0.65">
                        <tspan x="204" y="225">票号日期   </tspan>
                    </text>
                    <text id="修改人" font-family="PingFangSC-Regular, PingFang SC" font-size="14" font-weight="normal" line-spacing="22" fill="#000000" fill-opacity="0.65">
                        <tspan x="218" y="309">修改人</tspan>
                    </text>
                    <text id="出纳人" font-family="PingFangSC-Regular, PingFang SC" font-size="14" font-weight="normal" line-spacing="22" fill="#000000" fill-opacity="0.65">
                        <tspan x="218" y="393">出纳人 </tspan>
                    </text>
                </g>
            </g>
            <g id="编组-4" transform="translate(499.000000, 909.000000)">
                <g id="编组-3">
                    <g id="融合表">
                        <g id="表头" transform="translate(12.000000, 0.000000)">
                            <path d="M3,0 L297,0 C298.656854,-3.04359188e-16 300,1.34314575 300,3 L300,74 L300,74 L0,74 L0,3 C-2.02906125e-16,1.34314575 1.34314575,3.04359188e-16 3,0 Z" id="矩形" fill="#FFFFFF"></path>
                            <text id="库名称" font-family="PingFangSC-Regular, PingFang SC" font-size="14" font-weight="normal" line-spacing="22" fill="#000000" fill-opacity="0.65">
                                <tspan x="172" y="57">库名称</tspan>
                            </text>
                            <path d="M160,47 L160.133333,47.0006667 C160.61132,47.0043811 161.088815,47.0321942 161.564,47.084 L161.791333,47.1106667 L162.032,47.144 L162.268333,47.1816667 L162.386667,47.2023333 L162.619333,47.2466667 C164.575667,47.6423333 165.946333,48.4886667 165.998333,49.601 L166,49.6666667 L166,56.6666667 C166,57.8113333 164.614,58.6833333 162.619333,59.0866667 L162.386667,59.131 L162.268333,59.1516667 L162.032,59.189 L161.791333,59.2223333 C161.224667,59.295 160.623,59.3333333 160,59.3333333 C159.377,59.3333333 158.775333,59.295 158.208667,59.2223333 L157.968,59.189 L157.731667,59.1516667 C155.589667,58.7893333 154.055667,57.9096667 154.001667,56.7313333 L154,56.6666667 L154,49.6666667 L154.001667,49.601 C154.053667,48.4886667 155.424333,47.6423333 157.380667,47.2466667 L157.613333,47.2023333 L157.731667,47.1816667 L157.968,47.1443333 L158.208667,47.111 C158.71485,47.0468854 159.224172,47.0106086 159.734333,47.0023333 L160,47 Z M162.268333,55.485 L162.032,55.5223333 L161.791333,55.5556667 C161.224667,55.6283333 160.623,55.6666667 160,55.6666667 C159.377,55.6666667 158.775333,55.6283333 158.208667,55.5556667 L157.968,55.5223333 L157.731667,55.485 C156.614667,55.296 155.662667,54.9663333 155,54.527 L155,56.6666667 C155,56.994 155.377667,57.335 156.016667,57.6226667 L156.169,57.688 C156.404,57.7846667 156.669,57.8743333 156.959667,57.954 L157.157333,58.0056667 C157.358333,58.0556667 157.570667,58.1016667 157.791667,58.1416667 L158.016333,58.18 L158.246667,58.2143333 C158.402333,58.236 158.561667,58.255 158.724333,58.271 L158.970667,58.293 L159.221667,58.3103333 L159.477333,58.323 C159.825641,58.3367829 160.174359,58.3367829 160.522667,58.323 L160.778333,58.3103333 L161.029333,58.293 L161.276,58.271 C161.438333,58.255 161.597667,58.236 161.753333,58.2143333 L161.983667,58.18 L162.208333,58.1416667 C162.429667,58.1016667 162.641667,58.056 162.842667,58.0056667 L163.040333,57.954 C163.331,57.874 163.596,57.7846667 163.831,57.688 L163.983333,57.6226667 C164.597667,57.346 164.970667,57.0203333 164.998333,56.7043333 L165,56.6666667 L165,54.5266667 C164.337667,54.9663333 163.385667,55.296 162.268333,55.485 L162.268333,55.485 Z M165,51.1933333 C164.370333,51.611 163.48,51.9293333 162.434333,52.1223333 L162.267667,52.1516667 L162.031667,52.189 L161.791,52.2223333 C161.224333,52.295 160.622667,52.3333333 159.999667,52.3333333 C159.465667,52.3333333 158.947333,52.3053333 158.453,52.2513333 L158.208333,52.2223333 L157.967667,52.189 L157.731333,52.1516667 C156.614333,51.9626667 155.662333,51.633 154.999667,51.1936667 L154.999667,53 C154.999667,53.3273333 155.377333,53.6683333 156.016333,53.956 L156.168667,54.0213333 C156.403667,54.118 156.668667,54.2076667 156.959333,54.2873333 L157.157,54.339 C157.358,54.389 157.570333,54.435 157.791333,54.475 L158.016,54.5133333 L158.246333,54.5476667 C158.402,54.5693333 158.561333,54.5883333 158.724,54.6043333 L158.970333,54.6263333 L159.221333,54.6436667 L159.477,54.6563333 C159.825308,54.6701162 160.174025,54.6701162 160.522333,54.6563333 L160.778,54.6436667 L161.029,54.6263333 L161.275667,54.6043333 C161.438,54.5883333 161.597333,54.5693333 161.753,54.5476667 L161.983333,54.5133333 L162.208,54.475 C162.429333,54.435 162.641333,54.3893333 162.842333,54.339 L163.04,54.2873333 C163.330667,54.2073333 163.595667,54.118 163.830667,54.0213333 L163.983,53.956 C164.597333,53.6793333 164.970333,53.3536667 164.998,53.0376667 L164.999667,53 L164.999667,51.1933333 L165,51.1933333 Z M160,48 L159.868,48.0006667 L159.671333,48.004 L159.477333,48.0103333 L159.221667,48.023 L158.970667,48.0403333 L158.724,48.0623333 C158.615667,48.073 158.509,48.085 158.403667,48.0983333 L158.247,48.119 L158.016333,48.1533333 L157.791667,48.1916667 C157.625667,48.2216667 157.465,48.255 157.31,48.2906667 L157.157333,48.3273333 L156.959667,48.3793333 C156.717667,48.446 156.493,48.5193333 156.289,48.5976667 L156.169,48.6453333 L156.016667,48.7106667 C155.377667,48.9983333 155,49.3393333 155,49.6666667 C155,49.98 155.345667,50.3053333 155.935,50.585 L156.016667,50.6226667 L156.169,50.688 C156.364667,50.7686667 156.581333,50.8443333 156.816667,50.9133333 L156.96,50.954 L157.157333,51.0056667 C157.308,51.0433333 157.465,51.0783333 157.627333,51.1106667 L157.791667,51.1416667 L158.016333,51.18 L158.246667,51.2143333 C158.350333,51.229 158.455667,51.242 158.562667,51.2543333 L158.724333,51.271 L158.970667,51.293 L159.221667,51.3103333 L159.477333,51.323 C159.768192,51.3345005 160.05935,51.3363904 160.350333,51.3286667 L160.522667,51.323 L160.778333,51.3103333 L161.029333,51.293 L161.276,51.271 C161.384333,51.2603333 161.491,51.2483333 161.596333,51.235 L161.753,51.2143333 L161.983667,51.18 L162.208333,51.1416667 C162.374333,51.1116667 162.535,51.0783333 162.69,51.0426667 L162.842667,51.006 L163.040333,50.954 C163.282333,50.8873333 163.507,50.814 163.711,50.7356667 L163.831,50.688 L163.983333,50.6226667 C164.622333,50.335 165,49.994 165,49.6666667 C165,49.3533333 164.654333,49.028 164.065,48.7483333 L163.983333,48.7106667 L163.831,48.6453333 C163.619141,48.5591042 163.402963,48.4838925 163.183333,48.42 L163.04,48.3793333 L162.842667,48.3276667 C162.686889,48.2888002 162.530174,48.2537895 162.372667,48.2226667 L162.208333,48.1916667 L161.983667,48.1533333 L161.753333,48.119 C161.648182,48.1042656 161.542839,48.0909311 161.437333,48.079 L161.275667,48.0623333 L161.029333,48.0403333 L160.778333,48.023 L160.522667,48.0103333 C160.408333,48.0056667 160.292667,48.0026667 160.176,48.001 L160,48 Z" id="形状" fill-opacity="0.65" fill="#000000" fill-rule="nonzero"></path>
                            <g id="业务系统" transform="translate(16.000000, 45.000000)" fill="#000000" fill-rule="nonzero">
                                <rect id="矩形" opacity="0" x="0" y="0" width="16" height="16"></rect>
                                <path d="M15.015625,12.3482187 L15.015625,1.125 L0.96875,1.125 L0.96875,12.3482187 L7.52395313,12.3482187 L7.52395313,13.2834844 L4.71457813,13.2834844 L4.71457813,14.21875 L11.2697969,14.21875 L11.2697969,13.2834844 L8.46042188,13.2834844 L8.46042188,12.3482188 L15.015625,12.3482187 Z M1.90520312,2.06026563 L14.0791719,2.06026563 L14.0791719,9.54240625 L1.90520312,9.54240625 L1.90520312,2.06026563 Z M1.90520312,11.4129531 L1.90520312,10.4776563 L14.0791719,10.4776563 L14.0791719,11.4129375 L1.90520312,11.4129375 L1.90520312,11.4129531 Z" id="形状" fill-opacity="0.65"></path>
                            </g>
                            <path d="M0,75 L300,75 L300,162 C300,164.209139 298.209139,166 296,166 L4,166 C1.790861,166 2.705415e-16,164.209139 0,162 L0,75 L0,75 Z" id="矩形" fill="#FAFBFC"></path>
                            <line x1="0.5" y1="74.5" x2="300.5" y2="74.5" id="直线-2" stroke-opacity="0.05" stroke="#000000" stroke-linecap="square"></line>
                            <g id="表面性icon" transform="translate(16.000000, 17.000000)">
                                <g id="icon" transform="translate(0.000000, 1.000000)"></g>
                                <g id="biaodanzujian-biaoge" transform="translate(1.442649, 3.420455)" fill="#FAFAFA" fill-rule="nonzero">
                                    <polygon id="路径" points="17.0454545 0 17.0454545 2.49005682 0 2.49005682 0 0"></polygon>
                                </g>
                            </g>
                            <text id="CWPZ-(财务凭证)" font-family="PingFangSC-Medium, PingFang SC" font-size="16" font-weight="400" fill="#000000">
                                <tspan x="16" y="29" fill-opacity="0.85">CWPZ </tspan>
                                <tspan x="68.784" y="29" fill-opacity="0.25">(财务凭证)</tspan>
                            </text>
                            <text id="主数据管理系统" font-family="PingFangSC-Regular, PingFang SC" font-size="14" font-weight="normal" line-spacing="22" fill="#000000" fill-opacity="0.65">
                                <tspan x="40" y="57">主数据管理系统</tspan>
                            </text>
                            <text id="1-字段" font-family="PingFangSC-Regular, PingFang SC" font-size="12" font-weight="normal" fill="#3A8FF0">
                                <tspan x="13" y="96">1 字段</tspan>
                            </text>
                        </g>
                        <rect id="矩形" stroke-opacity="0.08" stroke="#000000" x="12.5" y="0.5" width="300" height="165" rx="4"></rect>
                        <circle id="椭圆形" stroke-opacity="0.1" stroke="#000000" fill="#FFFFFF" cx="12" cy="36" r="11.5"></circle>
                        <path d="M17.4895041,35.5209515 L12.5310039,35.5225104 L12.5310039,30.5440129 C12.5310039,30.2680016 12.3070017,30.0439995 12.0309905,30.0439995 C11.7549792,30.0439995 11.5310039,30.2680016 11.5310039,30.5440129 L11.5310039,35.5190163 L6.49399273,35.5162478 C6.49348205,35.5162478 6.49299825,35.5162478 6.49248756,35.5162478 C6.21698695,35.5162478 5.99349548,35.7387448 5.99246657,36.0147561 C5.99096895,36.2907674 6.2144873,36.5152533 6.4904717,36.5162478 L11.530977,36.5190163 L11.530977,41.5060073 C11.530977,41.7825024 11.7549792,42.0060207 12.0309636,42.0060207 C12.306948,42.0060207 12.530977,41.7825292 12.530977,41.5060073 L12.530977,36.5225104 L17.4854724,36.5209515 C17.4864669,36.5209515 17.4869775,36.5209515 17.4874614,36.5209515 C17.762962,36.5209515 17.9864534,36.2984545 17.9874783,36.0224432 C17.9884962,35.7464319 17.7650047,35.521946 17.4895041,35.5209515 Z" id="路径" fill="#575B66" fill-rule="nonzero"></path>
                    </g>
                    <g id="搜索" transform="translate(277.000000, 27.000000)" fill="#000000" fill-opacity="0.65">
                        <path d="M16.8178786,4.06077103 L13.6284189,7.24619487 C14.4674227,8.27585824 14.9702024,9.58860127 14.9702024,11.0195534 C14.9702024,14.3231863 12.2913053,17 8.98510118,17 C5.67889704,17 3,14.3231863 3,11.0195534 C3,7.71592045 5.67889704,5.03910677 8.98510118,5.03910677 C10.4109406,5.03910677 11.7200356,5.53682924 12.7473871,6.368959 L15.9368468,3.18197978 C16.0582611,3.06065993 16.2170336,3 16.3773627,3 C16.5361352,3 16.6964643,3.06065993 16.8178786,3.18197978 C17.0607071,3.42461949 17.0607071,3.81813132 16.8178786,4.06077103 L16.8178786,4.06077103 Z M10.8779186,6.54005111 C10.2786302,6.28652372 9.64198354,6.15898234 8.98510118,6.15898234 C8.32821881,6.15898234 7.69157216,6.2880791 7.09228374,6.54005111 C6.51323104,6.78424619 5.99332889,7.13576269 5.54503002,7.58215754 C5.09828775,8.02855238 4.74649767,8.5496056 4.50211252,9.12820798 C4.24838781,9.72703033 4.12074716,10.3631819 4.12074716,11.0195534 C4.12074716,11.6759249 4.24994441,12.3120764 4.50211252,12.9108988 C4.74649767,13.4895012 5.09828775,14.008999 5.54503002,14.4569492 C5.99177229,14.9033441 6.51323104,15.2548606 7.09228374,15.4990557 C7.69157216,15.752583 8.32821881,15.8801244 8.98510118,15.8801244 C9.64198354,15.8801244 10.2786302,15.7510277 10.8779186,15.4990557 C11.4569713,15.2548606 11.9768735,14.9033441 12.4251723,14.4569492 C12.8719146,14.0105544 13.2237047,13.4910565 13.4680898,12.9108988 C13.7218145,12.3120764 13.8494552,11.6759249 13.8494552,11.0195534 C13.8494552,10.3631819 13.7202579,9.72703033 13.4680898,9.12820798 C13.2237047,8.5496056 12.8719146,8.03010777 12.4251723,7.58215754 C11.9768735,7.13576269 11.4569713,6.78580158 10.8779186,6.54005111 L10.8779186,6.54005111 Z" id="Shape" transform="translate(10.000000, 10.000000) scale(1, -1) translate(-10.000000, -10.000000) "></path>
                    </g>
                    <g id="通用/Icon图标/Line/Down" transform="translate(72.750000, 87.500000)" fill="#3A8FF0" fill-rule="nonzero">
                        <g id="路径">
                            <path d="M10.2814236,0 L9.25603294,0 C9.186306,0 9.12068081,0.0341796875 9.07966518,0.0902343765 L5.19548559,5.44414043 L1.311306,0.0902343765 C1.27029037,0.0341796875 1.2046653,0 1.13493884,0 L0.109548159,0 C0.0206809714,0 -0.0312721543,0.101171874 0.0206809714,0.173632815 L4.84138393,6.81953144 C5.01638412,7.06015635 5.37458706,7.06015635 5.54822016,6.81953144 L10.3689232,0.173632815 C10.4222431,0.101171874 10.3702908,0 10.2814236,0 Z" transform="translate(5.195227, 3.500000) scale(1, -1) translate(-5.195227, -3.500000) "></path>
                        </g>
                    </g>
                </g>
                <rect id="矩形" stroke="#3A8FF0" fill="#FFFFFF" opacity="0.6" x="25.5" y="108.5" width="275" height="41"></rect>
                <text id="PZLX" font-family="PingFangSC-Regular, PingFang SC" font-size="14" font-weight="normal" line-spacing="22" fill="#3A8FF0">
                    <tspan x="40" y="133">PZLX</tspan>
                </text>
                <text id="制单日期" font-family="PingFangSC-Regular, PingFang SC" font-size="14" font-weight="normal" line-spacing="22" fill="#3A8FF0">
                    <tspan x="229" y="133">制单日期</tspan>
                </text>
            </g>
            <g id="编组-13" transform="translate(1029.000000, 301.000000)">
                <g id="编组-3">
                    <g id="表头" transform="translate(11.000000, 0.000000)">
                        <path d="M3,21 L297,21 C298.656854,21 300,22.3431458 300,24 L300,75 L300,75 L0,75 L0,24 C-2.02906125e-16,22.3431458 1.34314575,21 3,21 Z" id="矩形" fill="#FFFFFF"></path>
                        <path d="M0,25 L0,3.7037037 C0,1.65820463 1.790861,0 4,0 L66,0 C68.209139,0 70,1.65820463 70,3.7037037 C70,11.5430406 70,17.4225433 70,21.3422118" id="路径" stroke="#3A8FF0" stroke-width="1.5" fill="#FFFFFF"></path>
                        <path d="M0,76 L300,76 L300,249 C300,251.209139 298.209139,253 296,253 L4,253 C1.790861,253 2.705415e-16,251.209139 0,249 L0,76 L0,76 Z" id="矩形" fill="#FAFBFC"></path>
                        <path d="M69.3381331,21 C119.697155,21 196.281957,21 297,21 C298.656854,21 300,22.2316593 300,23.7509881 L300,249.332016 C300,251.357788 298.209139,253 296,253 L4,253 C1.790861,253 0,251.357788 0,249.332016 L0,23.7509881" id="路径" stroke="#3A8FF0" stroke-width="1.5"></path>
                        <line x1="0.5" y1="75.5" x2="300.5" y2="75.5" id="直线-2" stroke-opacity="0.05" stroke="#000000" stroke-linecap="square"></line>
                        <g id="表面性icon" transform="translate(16.000000, 38.000000)">
                            <g id="icon" transform="translate(0.000000, 1.000000)"></g>
                            <g id="biaodanzujian-biaoge" transform="translate(1.442649, 3.420455)" fill="#FAFAFA" fill-rule="nonzero">
                                <polygon id="路径" points="17.0454545 0 17.0454545 2.49005682 0 2.49005682 0 0"></polygon>
                            </g>
                        </g>
                        <text id="CWPZTST-(财务凭证头实体)" font-family="PingFangSC-Medium, PingFang SC" font-size="16" font-weight="400" fill="#000000" fill-opacity="0.85">
                            <tspan x="16" y="54">CWPZTST (财务凭证头实体)</tspan>
                        </text>
                        <text id="3-字段" font-family="PingFangSC-Regular, PingFang SC" font-size="12" font-weight="normal" fill="#3A8FF0">
                            <tspan x="13" y="97">3 字段</tspan>
                        </text>
                    </g>
                    <g id="编组-2" transform="translate(0.000000, 45.000000)">
                        <circle id="椭圆形" stroke="#3A8FF0" fill="#FFFFFF" cx="313" cy="12" r="11.5"></circle>
                        <path d="M318.489504,11.5209515 L313.531004,11.5225104 L313.531004,6.54401291 C313.531004,6.26800163 313.307002,6.04399947 313.03099,6.04399947 C312.754979,6.04399947 312.531004,6.26800163 312.531004,6.54401291 L312.531004,11.5190163 L307.493993,11.5162478 C307.493482,11.5162478 307.492998,11.5162478 307.492488,11.5162478 C307.216987,11.5162478 306.993495,11.7387448 306.992467,12.0147561 C306.990969,12.2907674 307.214487,12.5152533 307.490472,12.5162478 L312.530977,12.5190163 L312.530977,17.5060073 C312.530977,17.7825024 312.754979,18.0060207 313.030964,18.0060207 C313.306948,18.0060207 313.530977,17.7825292 313.530977,17.5060073 L313.530977,12.5225104 L318.485472,12.5209515 C318.486467,12.5209515 318.486978,12.5209515 318.487461,12.5209515 C318.762962,12.5209515 318.986453,12.2984545 318.987478,12.0224432 C318.988496,11.7464319 318.765005,11.521946 318.489504,11.5209515 Z" id="路径" fill="#575B66" fill-rule="nonzero"></path>
                        <g id="编组-6">
                            <circle id="椭圆形" stroke="#3A8FF0" fill="#FFFFFF" cx="12" cy="12" r="11.5"></circle>
                            <g id="减号" transform="translate(4.000000, 4.000000)" fill-rule="nonzero">
                                <rect id="矩形" fill="#000000" opacity="0" x="0" y="0" width="16" height="16"></rect>
                                <path d="M13.4960086,8.50001344 L2.55350087,8.50001344 C2.27748959,8.50001344 2.05348744,8.27601128 2.05348744,8 C2.05348744,7.72398872 2.27748959,7.49998656 2.55350087,7.49998656 L13.4960086,7.49998656 C13.7725037,7.49998656 13.9959952,7.72398872 13.9959952,8 C13.9959952,8.27601128 13.7725037,8.50001344 13.4960086,8.50001344 Z" id="路径" fill="#575B66"></path>
                            </g>
                        </g>
                    </g>
                    <rect id="矩形" fill="#000000" fill-rule="nonzero" opacity="0" x="124" y="65" width="16" height="16"></rect>
                    <g id="搜索" transform="translate(276.000000, 47.000000)" fill="#000000" fill-opacity="0.65">
                        <path d="M16.8178786,4.06077103 L13.6284189,7.24619487 C14.4674227,8.27585824 14.9702024,9.58860127 14.9702024,11.0195534 C14.9702024,14.3231863 12.2913053,17 8.98510118,17 C5.67889704,17 3,14.3231863 3,11.0195534 C3,7.71592045 5.67889704,5.03910677 8.98510118,5.03910677 C10.4109406,5.03910677 11.7200356,5.53682924 12.7473871,6.368959 L15.9368468,3.18197978 C16.0582611,3.06065993 16.2170336,3 16.3773627,3 C16.5361352,3 16.6964643,3.06065993 16.8178786,3.18197978 C17.0607071,3.42461949 17.0607071,3.81813132 16.8178786,4.06077103 L16.8178786,4.06077103 Z M10.8779186,6.54005111 C10.2786302,6.28652372 9.64198354,6.15898234 8.98510118,6.15898234 C8.32821881,6.15898234 7.69157216,6.2880791 7.09228374,6.54005111 C6.51323104,6.78424619 5.99332889,7.13576269 5.54503002,7.58215754 C5.09828775,8.02855238 4.74649767,8.5496056 4.50211252,9.12820798 C4.24838781,9.72703033 4.12074716,10.3631819 4.12074716,11.0195534 C4.12074716,11.6759249 4.24994441,12.3120764 4.50211252,12.9108988 C4.74649767,13.4895012 5.09828775,14.008999 5.54503002,14.4569492 C5.99177229,14.9033441 6.51323104,15.2548606 7.09228374,15.4990557 C7.69157216,15.752583 8.32821881,15.8801244 8.98510118,15.8801244 C9.64198354,15.8801244 10.2786302,15.7510277 10.8779186,15.4990557 C11.4569713,15.2548606 11.9768735,14.9033441 12.4251723,14.4569492 C12.8719146,14.0105544 13.2237047,13.4910565 13.4680898,12.9108988 C13.7218145,12.3120764 13.8494552,11.6759249 13.8494552,11.0195534 C13.8494552,10.3631819 13.7202579,9.72703033 13.4680898,9.12820798 C13.2237047,8.5496056 12.8719146,8.03010777 12.4251723,7.58215754 C11.9768735,7.13576269 11.4569713,6.78580158 10.8779186,6.54005111 L10.8779186,6.54005111 Z" id="Shape" transform="translate(10.000000, 10.000000) scale(1, -1) translate(-10.000000, -10.000000) "></path>
                    </g>
                    <g id="通用/Icon图标/Line/Down" transform="translate(64.000000, 84.000000)" fill-rule="nonzero">
                        <g>
                            <rect id="矩形" fill="#000000" opacity="0" transform="translate(7.000000, 7.000000) scale(1, -1) translate(-7.000000, -7.000000) " x="0" y="0" width="14" height="14"></rect>
                            <path d="M12.2814236,5 L11.2560329,5 C11.186306,5 11.1206808,5.03417969 11.0796652,5.09023438 L7.19548559,10.4441404 L3.311306,5.09023438 C3.27029037,5.03417969 3.2046653,5 3.13493884,5 L2.10954816,5 C2.02068097,5 1.96872785,5.10117187 2.02068097,5.17363282 L6.84138393,11.8195314 C7.01638412,12.0601563 7.37458706,12.0601563 7.54822016,11.8195314 L12.3689232,5.17363282 C12.4222431,5.10117187 12.3702908,5 12.2814236,5 Z" id="路径" fill="#3A8FF0" transform="translate(7.195227, 8.500000) scale(1, -1) translate(-7.195227, -8.500000) "></path>
                        </g>
                    </g>
                </g>
                <g id="编组-10" transform="translate(23.000000, 108.000000)">
                    <rect id="矩形" stroke-opacity="0.05" stroke="#000000" fill="#FFFFFF" x="0.5" y="0.5" width="275" height="128" rx="8"></rect>
                    <g id="编组-7">
                        <g id="字段" transform="translate(0.000000, 1.000000)">
                            <rect id="矩形" fill-opacity="0.05" fill="#000000" x="0.734042553" y="41" width="274.531915" height="1"></rect>
                            <rect id="矩形" x="0" y="0" width="276" height="42"></rect>
                        </g>
                        <rect id="矩形" stroke-opacity="0.6" stroke="#3A8FF0" fill="#E6F5FF" x="0.5" y="43.5" width="275" height="43"></rect>
                        <path d="M275.5,85.5 L275.5,121 C275.5,123.071068 274.660534,124.946068 273.303301,126.303301 C271.946068,127.660534 270.071068,128.5 268,128.5 L268,128.5 L8,128.5 C5.92893219,128.5 4.05393219,127.660534 2.69669914,126.303301 C1.33946609,124.946068 0.5,123.071068 0.5,121 L0.5,121 L0.5,85.5 L275.5,85.5 Z" id="矩形" stroke-opacity="0.6" stroke="#3A8FF0" fill="#E6F5FF"></path>
                        <text id="PZBH" font-family="PingFangSC-Regular, PingFang SC" font-size="14" font-weight="normal" line-spacing="22" fill="#3A8FF0">
                            <tspan x="15" y="68">PZBH</tspan>
                        </text>
                        <path d="M268,0.5 C270.071068,0.5 271.946068,1.33946609 273.303301,2.69669914 C274.660534,4.05393219 275.5,5.92893219 275.5,8 L275.5,8 L275.5,43.5 L0.5,43.5 L0.5,8 C0.5,5.92893219 1.33946609,4.05393219 2.69669914,2.69669914 C4.05393219,1.33946609 5.92893219,0.5 8,0.5 L8,0.5 Z" id="矩形" stroke-opacity="0.6" stroke="#3A8FF0" fill="#E6F5FF"></path>
                        <text id="ZDRQ" font-family="PingFangSC-Regular, PingFang SC" font-size="14" font-weight="normal" line-spacing="22" fill="#3A8FF0">
                            <tspan x="15" y="112">ZDRQ</tspan>
                        </text>
                        <text id="PZLX" font-family="PingFangSC-Regular, PingFang SC" font-size="14" font-weight="normal" line-spacing="22" fill="#3A8FF0">
                            <tspan x="15" y="26">PZLX</tspan>
                        </text>
                        <text id="凭证编号" font-family="PingFangSC-Regular, PingFang SC" font-size="14" font-weight="normal" line-spacing="22" fill="#3A8FF0">
                            <tspan x="204" y="68">凭证编号</tspan>
                        </text>
                        <text id="制单日期" font-family="PingFangSC-Regular, PingFang SC" font-size="14" font-weight="normal" line-spacing="22" fill="#3A8FF0">
                            <tspan x="204" y="112">制单日期</tspan>
                        </text>
                        <text id="凭证类型" font-family="PingFangSC-Regular, PingFang SC" font-size="14" font-weight="normal" line-spacing="22" fill="#3A8FF0">
                            <tspan x="204" y="26">凭证类型</tspan>
                        </text>
                    </g>
                </g>
                <text id="BASE" font-family="ArialMT, Arial" font-size="14" font-weight="normal" fill="#3A8FF0">
                    <tspan x="27" y="19">BASE</tspan>
                </text>
            </g>
            <path id="路径-2" d="M1029.85797,512.40983 L1038.49862,517.566296 L1029.18905,521.384937 L1029.48,517.47 L1029.1941,517.485673 C999.449919,519.44756 975.46414,560.87395 956.877553,633.755128 C942.220095,691.229524 931.717386,765.013313 924.998243,844.946862 C917.568275,933.336663 880.333139,999.049946 813.306416,1042.04025 L811.266184,1043.33603 L810.733816,1042.48952 C878.770971,999.701313 916.522287,933.8418 924.001757,844.863099 C930.725135,764.879173 941.234851,691.04616 955.908568,633.508012 C974.689511,559.864726 998.983127,518.096609 1029.55514,516.462318 L1029.85797,512.40983 Z" fill="#3A8FF0" fill-rule="nonzero"></path>
            <path id="路径-2" d="M901.812873,356.756315 L911.491325,359.509052 L903.482064,365.600172 L902.826314,362.124042 C891.399849,373.944663 882.0732,422.81071 874.804481,500.894754 C868.97391,563.529533 864.750876,641.691909 861.999731,725.582047 C858.762278,824.301093 842.54074,897.680701 813.314508,945.728126 L812.424884,947.176355 L811.575116,946.649198 C841.253207,898.80865 857.735338,825.106182 861.000269,725.54927 C863.752013,641.640846 867.976025,563.46037 873.808786,500.802067 C881.209509,421.29997 890.683956,372.18824 902.602676,360.939616 L901.812873,356.756315 Z" fill-opacity="0.25" fill="#000000" fill-rule="nonzero"></path>
        </g>
    </g>
</svg>