<?xml version="1.0" standalone="no"?><!DOCTYPE svg PUBLIC "-//W3C//DTD SVG 1.1//EN" "http://www.w3.org/Graphics/SVG/1.1/DTD/svg11.dtd"><svg t="1683540269831" class="icon" viewBox="0 0 1024 1024" version="1.1" xmlns="http://www.w3.org/2000/svg" p-id="6771" xmlns:xlink="http://www.w3.org/1999/xlink" width="200" height="200"><path d="M928.256 93.476571c51.2 0 92.745143 41.545143 92.745143 92.745143v742.034286a92.745143 92.745143 0 0 1-92.745143 92.745143H93.476571A92.745143 92.745143 0 0 1 0.731429 928.256V186.221714c0-51.2 41.545143-92.745143 92.745142-92.745143h834.779429z" fill="#000000" fill-opacity=".65" p-id="6772"></path><path d="M0.731429 278.966857h1020.342857v92.745143H0.731429z" fill="#FFFFFF" p-id="6773"></path><path d="M278.966857 0.731429c30.939429 0 46.372571 15.433143 46.372572 46.372571v139.117714c0 30.939429-15.433143 46.372571-46.372572 46.372572-30.866286 0-46.372571-15.433143-46.372571-46.372572V47.104c0-30.939429 15.506286-46.372571 46.372571-46.372571zM742.765714 0.731429c30.939429 0 46.372571 15.433143 46.372572 46.372571v139.117714c0 30.939429-15.433143 46.372571-46.372572 46.372572-30.939429 0-46.372571-15.433143-46.372571-46.372572V47.104c0-30.939429 15.433143-46.372571 46.372571-46.372571z" fill="#595959" p-id="6774"></path><path d="M520.045714 420.571429c5.851429 3.437714 9.435429 9.801143 9.362286 16.749714v62.756571c93.769143 9.581714 166.985143 91.209143 166.985143 190.464 0 105.691429-83.017143 191.341714-185.490286 191.341715s-185.563429-85.650286-185.563428-191.341715a35.108571 35.108571 0 0 1 16.457142-31.524571 32.914286 32.914286 0 0 1 34.669715 0 35.108571 35.108571 0 0 1 16.384 31.451428c0 67.291429 52.882286 121.856 118.052571 121.856 65.170286 0 118.052571-54.564571 118.052572-121.782857 0-60.708571-43.154286-111.177143-99.474286-120.32v29.110857c0 6.802286-3.584 13.165714-9.435429 16.603429a18.066286 18.066286 0 0 1-18.651428-0.219429L370.468571 534.674286a19.236571 19.236571 0 0 1-8.996571-16.384c0-6.729143 3.437714-13.019429 8.996571-16.384l130.925715-81.042286a18.066286 18.066286 0 0 1 18.651428-0.219429z" fill="#FFFFFF" p-id="6775"></path></svg>