<svg t="1711529545807" class="icon" viewBox="0 0 1024 1024" version="1.1" xmlns="http://www.w3.org/2000/svg" p-id="18357" width="200" height="200"><path d="M978.324882 1.097063h-236.892455a40.006228 40.006228 0 0 0-38.909165 39.494265c0 21.209883 17.187319 38.76289 38.909165 39.494266h196.447402v191.839737c0.87765 21.209883 18.723207 38.031515 40.518191 38.031515 21.794984 0 39.64054-16.821632 40.51819-38.031515V40.445053a40.225641 40.225641 0 0 0-40.591328-39.494265v0.146275zM40.848041 311.419597a40.079366 40.079366 0 0 0 40.518191-39.494266V80.158731h196.447402a40.079366 40.079366 0 0 0 40.51819-39.567403 40.079366 40.079366 0 0 0-40.51819-39.567403H40.848041a40.079366 40.079366 0 0 0-40.518191 39.494266v231.40714c0 21.794984 18.06497 39.494265 40.518191 39.494266z m236.819318 632.785897H81.366232v-191.7666a40.079366 40.079366 0 0 0-40.518191-38.031515 40.079366 40.079366 0 0 0-40.518191 38.031515v231.334003c0 21.868121 18.284382 39.567403 40.518191 39.567402h236.965593a40.079366 40.079366 0 0 0 40.445053-39.567402 40.079366 40.079366 0 0 0-40.591328-39.494266z m700.657523-231.260866a40.079366 40.079366 0 0 0-40.518191 39.494266v191.7666h-196.301126a40.079366 40.079366 0 0 0-40.518191 39.567403c0 21.941259 18.138107 39.567403 40.518191 39.567402h236.965592a40.079366 40.079366 0 0 0 40.518191-39.494265v-231.40714a40.225641 40.225641 0 0 0-40.591328-39.494266h-0.073138z m-171.288092 118.629072a40.445053 40.445053 0 0 0 37.738965-24.86676 38.76289 38.76289 0 0 0-9.800429-43.297417l-102.09999-95.078787a284.651261 284.651261 0 0 0-1.535888-334.750468C658.275057 233.528129 528.748494 189.206786 407.779022 222.850049c-120.969472 33.643263-207.125481 138.083654-215.170609 260.589015-7.38689 115.337883 55.877072 223.873975 161.195113 276.606133 105.318041 52.659021 232.504203 39.421128 323.999251-33.789538l101.22234 94.347411c7.533165 7.021203 17.553007 10.970629 28.011673 10.897492z m-101.661165-316.685499a208.515094 208.515094 0 0 1-68.017901 140.936018 218.315523 218.315523 0 0 1-161.633938 56.608447 216.852772 216.852772 0 0 1-148.761733-71.162816 207.271756 207.271756 0 0 1-53.682946-152.930572c3.364326-53.756083 27.792261-104.220978 68.017901-141.009155a218.315523 218.315523 0 0 1 161.414526-56.608447c57.778648 3.510601 110.510806 28.816186 148.83487 71.235953 38.47034 42.200354 57.486097 96.541538 53.829221 152.857434z" p-id="18358"></path></svg>